<svg xmlns="http://www.w3.org/2000/svg" width="13.463" height="13.196" viewBox="0 0 13.463 13.196">
  <g id="Group_590" data-name="Group 590" transform="translate(-25.051 -25.604)">
    <g id="Group_589" data-name="Group 589" transform="translate(25.999 26.044)">
      <path id="Path_912" data-name="Path 912" d="M54.8,30.576l-4.456-4.459a.253.253,0,0,0-.356,0L48.46,27.643a.746.746,0,0,1,.212.145l4.456,4.459a.718.718,0,0,1,.147.207L54.8,30.93a.25.25,0,0,0,0-.354Z" transform="translate(-42.85 -26.044)" fill="none" stroke="#37afe4" stroke-width="0.8"/>
      <path id="Path_913" data-name="Path 913" d="M31.495,34.19a.253.253,0,0,0-.281-.05l-2.937,1.316a.257.257,0,0,0-.141.166l-1.632,6.3,0-5.563a.251.251,0,1,0-.5,0l0,7.07v.324h.028l.474-.474,3.055-3.053a1.4,1.4,0,1,1,1.15.605,1.366,1.366,0,0,1-.793-.251l-3.454,3.452-.068.068-.02.02,8.147-2.114a.245.245,0,0,0,.166-.141L36,38.927a.246.246,0,0,0-.053-.279Z" transform="translate(-25.999 -32.119)" fill="none" stroke="#37afe4" stroke-width="0.8"/>
    </g>
  </g>
</svg>
