<svg xmlns="http://www.w3.org/2000/svg" width="10.08" height="12" viewBox="0 0 10.08 12">
  <g id="Group_641" data-name="Group 641" transform="translate(-4 -2)">
    <path id="Path_1703" data-name="Path 1703" d="M10,2.48V3.92h4.32V2.48A.48.48,0,0,0,13.84,2H10.48A.48.48,0,0,0,10,2.48Z" transform="translate(-3.12)" fill="#cb4542"/>
    <path id="Path_1704" data-name="Path 1704" d="M4,4.48v.48H14.08V4.48A.48.48,0,0,0,13.6,4H4.48A.48.48,0,0,0,4,4.48Z" transform="translate(0 -1.04)" fill="#cb4542"/>
    <path id="Path_1705" data-name="Path 1705" d="M6,8l.87,8.26a.96.96,0,0,0,.955.86h4.512a.96.96,0,0,0,.955-.86L14.16,8Zm2.2,8.159a.48.48,0,0,1-.516-.442L7.2,9.477a.48.48,0,0,1,.442-.516.475.475,0,0,1,.516.442l.48,6.24a.48.48,0,0,1-.442.516Zm2.363-.479a.48.48,0,1,1-.96,0V9.44a.48.48,0,1,1,.96,0Zm1.919.037a.48.48,0,1,1-.957-.074L12,9.4a.473.473,0,0,1,.516-.442.48.48,0,0,1,.442.516Z" transform="translate(-1.04 -3.12)" fill="#cb4542"/>
  </g>
</svg>
