<svg id="close-square" xmlns="http://www.w3.org/2000/svg" width="24" height="24" viewBox="0 0 24 24">
  <rect id="Rectangle_337" data-name="Rectangle 337" width="24" height="24" fill="#b3b3b3" opacity="0"/>
  <path id="Path_899" data-name="Path 899" d="M18,3H6A3,3,0,0,0,3,6V18a3,3,0,0,0,3,3H18a3,3,0,0,0,3-3V6A3,3,0,0,0,18,3ZM14.71,13.29a1,1,0,1,1-1.42,1.42L12,13.41l-1.29,1.3a1,1,0,1,1-1.42-1.42L10.59,12l-1.3-1.29a1,1,0,0,1,1.42-1.42L12,10.59l1.29-1.3a1,1,0,0,1,1.42,1.42L13.41,12Z" fill="#b3b3b3"/>
</svg>
