<svg xmlns="http://www.w3.org/2000/svg" width="40.799" height="33.413" viewBox="0 0 40.799 33.413">
  <g id="Group_730" data-name="Group 730" transform="translate(654.297 -2369.344) rotate(45)">
    <path id="Path_1778" data-name="Path 1778" d="M10.092,27.86a1.374,1.374,0,0,0,1.937,0l6.87-6.867,4.257,4.257a1.382,1.382,0,0,0,1.461.309,1.356,1.356,0,0,0,.87-1.209l.87-18.281a1.356,1.356,0,0,0-.4-1.031,1.373,1.373,0,0,0-1.031-.4L6.642,5.505a1.367,1.367,0,0,0-.9,2.334l5.223,5.223A1.368,1.368,0,1,0,12.9,11.128L9.859,8.091l13.693-.654L22.9,21.127,19.864,18.09a1.369,1.369,0,0,0-1.934,0l-6.87,6.867L6.029,19.929l3.387-3.384A1.368,1.368,0,0,0,7.482,14.61L3.126,18.963a1.374,1.374,0,0,0,0,1.937Z" transform="translate(1221.805 2121.588)" fill="#090647"/>
    <path id="Path_1779" data-name="Path 1779" d="M26.6,4.16a1.356,1.356,0,0,0-.4-1.031,1.376,1.376,0,0,0-1.031-.4L6.893,3.6a1.364,1.364,0,0,0-1.3,1.431,1.347,1.347,0,0,0,1.428,1.3l16.782-.8L23,22.312a1.364,1.364,0,0,0,1.3,1.431h.063a1.366,1.366,0,0,0,1.365-1.3Z" transform="translate(1226.777 2118.272)" fill="#090647"/>
  </g>
</svg>
