<svg xmlns="http://www.w3.org/2000/svg" width="39" height="31.214" viewBox="0 0 39 31.214">
  <g id="Group_781" data-name="Group 781" transform="translate(-1572 -83)">
    <g id="Layer_20" data-name="Layer 20" transform="translate(1570.623 85.26)">
      <path id="Path_1783" data-name="Path 1783" d="M29.19,7.358H6.579L5.6,5.118a.628.628,0,0,0-.576-.378H2.006A.629.629,0,0,0,2.006,6H4.615l.967,2.218c.006.015.012.03.019.045l1.04,2.385v0L11.3,21.327a.628.628,0,0,0,.576.378H23.821a.628.628,0,0,0,.581-.39l5.37-13.089a.629.629,0,0,0-.581-.867ZM23.4,20.447H12.284l-4.1-9.417h13.7a.629.629,0,1,0,0-1.257H7.632l-.5-1.158H28.253Z" transform="translate(0)"/>
      <path id="Path_1784" data-name="Path 1784" d="M16.7,33.571a3.045,3.045,0,1,0,3.045,3.045A3.045,3.045,0,0,0,16.7,33.571Zm0,4.833a1.788,1.788,0,1,1,1.788-1.788A1.788,1.788,0,0,1,16.7,38.4Z" transform="translate(-4.56 -10.708)"/>
      <path id="Path_1785" data-name="Path 1785" d="M33.555,33.571A3.045,3.045,0,1,0,36.6,36.616,3.045,3.045,0,0,0,33.555,33.571Zm0,4.833a1.788,1.788,0,1,1,1.788-1.788A1.788,1.788,0,0,1,33.555,38.4Z" transform="translate(-10.82 -10.708)"/>
      <path id="Path_1786" data-name="Path 1786" d="M37.94,13.957a.631.631,0,0,0,.685-.138.648.648,0,0,0,.182-.44.691.691,0,0,0-.05-.246.6.6,0,0,0-.233-.282c-.031-.019-.069-.038-.107-.057a.732.732,0,0,0-.119-.031.638.638,0,0,0-.359.031.61.61,0,0,0-.207.139.649.649,0,0,0-.182.446.618.618,0,0,0,.182.44.573.573,0,0,0,.208.138Z" transform="translate(-13.434 -2.975)"/>
    </g>
    <g id="Group_746" data-name="Group 746">
      <circle id="Ellipse_104" data-name="Ellipse 104" cx="7.5" cy="7.5" r="7.5" transform="translate(1596 83)" fill="#37afe4"/>
      <text id="_2" data-name="2" transform="translate(1600 94)" fill="#fffffe" font-size="12" font-family="Raleway-Medium, Raleway" font-weight="500"><tspan x="0" y="0">2</tspan></text>
    </g>
  </g>
</svg>
