<svg xmlns="http://www.w3.org/2000/svg" width="18.575" height="16" viewBox="0 0 18.575 16">
  <g id="Group_776" data-name="Group 776" transform="translate(-5.018 -8.5)">
    <path id="Path_1790" data-name="Path 1790" d="M20.839,13.149v0a4.645,4.645,0,0,0-8.617-2.409h-.329A3.771,3.771,0,0,0,8.464,12.92a4.473,4.473,0,0,0,1.02,8.827h2.753v2.409a.344.344,0,0,0,.344.344h3.441a.344.344,0,0,0,.344-.344V21.747h2.753a4.471,4.471,0,0,0,1.72-8.6Zm-5.161,5.5v5.161H12.925V18.65a.344.344,0,0,0-.344-.344H11.56L14.3,14.741l2.742,3.565H16.022A.344.344,0,0,0,15.678,18.65Zm3.441,2.409H16.366V18.994h1.376a.344.344,0,0,0,.273-.554l-3.441-4.473a.356.356,0,0,0-.546,0l-3.441,4.473a.344.344,0,0,0,.273.554h1.376v2.064H9.485a3.785,3.785,0,0,1-.712-7.5.344.344,0,0,0,.254-.206,3.086,3.086,0,0,1,2.866-1.927h.528a.344.344,0,0,0,.3-.179,3.957,3.957,0,0,1,7.428,1.9v.241a.344.344,0,0,0,.229.324,3.783,3.783,0,0,1-1.261,7.349Z" transform="translate(0)" fill="#fffffe"/>
    <rect id="Rectangle_579" data-name="Rectangle 579" width="0.856" height="0.856" transform="translate(17.282 19.56)" fill="#fffffe"/>
    <rect id="Rectangle_580" data-name="Rectangle 580" width="0.856" height="0.856" transform="translate(18.646 19.56)" fill="#fffffe"/>
    <rect id="Rectangle_581" data-name="Rectangle 581" width="0.856" height="0.856" transform="translate(9.443 19.56)" fill="#fffffe"/>
    <rect id="Rectangle_582" data-name="Rectangle 582" width="0.856" height="0.856" transform="translate(8.079 19.56)" fill="#fffffe"/>
    <rect id="Rectangle_583" data-name="Rectangle 583" width="0.856" height="0.856" transform="translate(10.806 19.56)" fill="#fffffe"/>
  </g>
</svg>
