<svg id="Group_382" data-name="Group 382" xmlns="http://www.w3.org/2000/svg" xmlns:xlink="http://www.w3.org/1999/xlink" width="30.417" height="30.42" viewBox="0 0 30.417 30.42">
  <defs>
    <radialGradient id="radial-gradient" cx="0.133" cy="1.005" r="1.305" gradientUnits="objectBoundingBox">
      <stop offset="0.09" stop-color="#fa8f21"/>
      <stop offset="0.78" stop-color="#d82d7e"/>
    </radialGradient>
    <radialGradient id="radial-gradient-2" cx="0.607" cy="1.05" r="1.029" gradientUnits="objectBoundingBox">
      <stop offset="0.64" stop-color="#8c3aaa" stop-opacity="0"/>
      <stop offset="1" stop-color="#8c3aaa"/>
    </radialGradient>
  </defs>
  <path id="Path_14" data-name="Path 14" d="M10.14,15.21a5.07,5.07,0,1,1,5.07,5.07,5.07,5.07,0,0,1-5.07-5.07m-2.741,0A7.81,7.81,0,1,0,15.209,7.4,7.81,7.81,0,0,0,7.4,15.21M21.5,7.09a1.825,1.825,0,1,0,1.826-1.825h0A1.826,1.826,0,0,0,21.5,7.09M9.066,27.591a8.406,8.406,0,0,1-2.825-.523A4.727,4.727,0,0,1,4.492,25.93a4.693,4.693,0,0,1-1.138-1.748,8.4,8.4,0,0,1-.524-2.825c-.074-1.6-.089-2.085-.089-6.147s.016-4.542.089-6.147a8.462,8.462,0,0,1,.523-2.825A4.727,4.727,0,0,1,4.491,4.49,4.688,4.688,0,0,1,6.241,3.352a8.4,8.4,0,0,1,2.826-.523c1.6-.074,2.085-.089,6.144-.089s4.542.016,6.147.089a8.462,8.462,0,0,1,2.825.523,4.712,4.712,0,0,1,1.749,1.138,4.712,4.712,0,0,1,1.138,1.749,8.4,8.4,0,0,1,.523,2.825c.074,1.6.089,2.085.089,6.147s-.015,4.542-.089,6.147a8.438,8.438,0,0,1-.523,2.825,5.036,5.036,0,0,1-2.887,2.886,8.4,8.4,0,0,1-2.825.523c-1.6.074-2.085.089-6.147.089s-4.542-.015-6.144-.089M8.939.092A11.154,11.154,0,0,0,5.247.8,7.46,7.46,0,0,0,2.553,2.553,7.431,7.431,0,0,0,.8,5.247,11.156,11.156,0,0,0,.092,8.939C.017,10.561,0,11.079,0,15.21s.017,4.649.092,6.271A11.156,11.156,0,0,0,.8,25.173a7.435,7.435,0,0,0,1.754,2.695,7.479,7.479,0,0,0,2.694,1.755,11.163,11.163,0,0,0,3.692.707c1.623.074,2.14.092,6.271.092s4.649-.017,6.271-.092a11.156,11.156,0,0,0,3.692-.707,7.777,7.777,0,0,0,4.449-4.449,11.124,11.124,0,0,0,.707-3.692c.074-1.623.089-2.14.089-6.271s-.017-4.649-.089-6.271a11.152,11.152,0,0,0-.707-3.692,7.48,7.48,0,0,0-1.754-2.695A7.443,7.443,0,0,0,25.174.8,11.138,11.138,0,0,0,21.482.092C19.86.018,19.342,0,15.21,0s-4.65.017-6.272.092" transform="translate(0)" fill="url(#radial-gradient)"/>
  <path id="Path_15" data-name="Path 15" d="M10.14,15.21a5.07,5.07,0,1,1,5.07,5.07,5.07,5.07,0,0,1-5.07-5.07m-2.741,0A7.81,7.81,0,1,0,15.209,7.4,7.81,7.81,0,0,0,7.4,15.21M21.5,7.09a1.825,1.825,0,1,0,1.826-1.825h0A1.826,1.826,0,0,0,21.5,7.09M9.066,27.591a8.406,8.406,0,0,1-2.825-.523A4.727,4.727,0,0,1,4.492,25.93a4.693,4.693,0,0,1-1.138-1.748,8.4,8.4,0,0,1-.524-2.825c-.074-1.6-.089-2.085-.089-6.147s.016-4.542.089-6.147a8.462,8.462,0,0,1,.523-2.825A4.727,4.727,0,0,1,4.491,4.49,4.688,4.688,0,0,1,6.241,3.352a8.4,8.4,0,0,1,2.826-.523c1.6-.074,2.085-.089,6.144-.089s4.542.016,6.147.089a8.462,8.462,0,0,1,2.825.523,4.712,4.712,0,0,1,1.749,1.138,4.712,4.712,0,0,1,1.138,1.749,8.4,8.4,0,0,1,.523,2.825c.074,1.6.089,2.085.089,6.147s-.015,4.542-.089,6.147a8.438,8.438,0,0,1-.523,2.825,5.036,5.036,0,0,1-2.887,2.886,8.4,8.4,0,0,1-2.825.523c-1.6.074-2.085.089-6.147.089s-4.542-.015-6.144-.089M8.939.092A11.154,11.154,0,0,0,5.247.8,7.46,7.46,0,0,0,2.553,2.553,7.431,7.431,0,0,0,.8,5.247,11.156,11.156,0,0,0,.092,8.939C.017,10.561,0,11.079,0,15.21s.017,4.649.092,6.271A11.156,11.156,0,0,0,.8,25.173a7.435,7.435,0,0,0,1.754,2.695,7.479,7.479,0,0,0,2.694,1.755,11.163,11.163,0,0,0,3.692.707c1.623.074,2.14.092,6.271.092s4.649-.017,6.271-.092a11.156,11.156,0,0,0,3.692-.707,7.777,7.777,0,0,0,4.449-4.449,11.124,11.124,0,0,0,.707-3.692c.074-1.623.089-2.14.089-6.271s-.017-4.649-.089-6.271a11.152,11.152,0,0,0-.707-3.692,7.48,7.48,0,0,0-1.754-2.695A7.443,7.443,0,0,0,25.174.8,11.138,11.138,0,0,0,21.482.092C19.86.018,19.342,0,15.21,0s-4.65.017-6.272.092" transform="translate(0)" fill="url(#radial-gradient-2)"/>
</svg>
