<svg id="Group_385" data-name="Group 385" xmlns="http://www.w3.org/2000/svg" width="45" height="40" viewBox="0 0 45 40">
  <rect id="Rectangle_54" data-name="Rectangle 54" width="45" height="40" rx="20" fill="#fff"/>
  <path id="Path_279" data-name="Path 279" d="M16.06,13.373c0,.926.263,1.3.952,1.3,1.535,0,2.513-1.956,2.513-5.21,0-4.973-3.624-7.354-8.148-7.354a8.552,8.552,0,0,0-8.888,9.02c0,5.634,3.7,8.7,9.39,8.7a14.565,14.565,0,0,0,5.21-.873l.425,1.771a18.86,18.86,0,0,1-5.662.82C4.393,21.546.4,17.446.4,11.124.4,4.749,5.028.411,11.4.411c6.639,0,10.156,3.968,10.156,8.835,0,4.126-1.3,7.274-5.369,7.274-1.853,0-3.068-.741-3.227-2.382-.476,1.825-1.746,2.382-3.466,2.382-2.3,0-4.232-1.773-4.232-5.343,0-3.6,1.694-5.819,4.736-5.819A3.042,3.042,0,0,1,13.067,7l.768-1.4h2.222v7.778h0ZM12.807,9.882a1.947,1.947,0,0,0-1.985-2.063c-.979,0-2.062.792-2.062,3.121,0,1.852.82,2.883,2.062,2.883a1.936,1.936,0,0,0,1.985-2.09Z" transform="translate(11.602 8.589)" fill="#ed1588"/>
</svg>
