<svg xmlns="http://www.w3.org/2000/svg" width="17.371" height="17.371" viewBox="0 0 17.371 17.371">
  <g id="Group_742" data-name="Group 742" transform="translate(-9 -9)">
    <path id="Path_1780" data-name="Path 1780" d="M39.045,30.868A2.934,2.934,0,1,0,36.1,27.945,2.938,2.938,0,0,0,39.045,30.868Zm0-5.021a2.1,2.1,0,1,1-2.1,2.1A2.1,2.1,0,0,1,39.045,25.847Z" transform="translate(-21.359 -12.611)" fill="#090647"/>
    <path id="Path_1781" data-name="Path 1781" d="M34.518,56.686a6.565,6.565,0,0,0-3.75-1.186,6.411,6.411,0,0,0-3.75,1.186A3.335,3.335,0,0,0,25.6,59.419a.424.424,0,1,0,.847,0,2.52,2.52,0,0,1,1.059-2.055,5.613,5.613,0,0,1,3.262-1.017,5.77,5.77,0,0,1,3.262,1.017,2.52,2.52,0,0,1,1.059,2.055.424.424,0,1,0,.847,0A3.307,3.307,0,0,0,34.518,56.686Z" transform="translate(-13.084 -36.65)" fill="#090647"/>
    <path id="Path_1782" data-name="Path 1782" d="M20.651,9H14.72A5.723,5.723,0,0,0,9,14.72v5.931a5.723,5.723,0,0,0,5.72,5.72h5.931a5.723,5.723,0,0,0,5.72-5.72V14.72A5.723,5.723,0,0,0,20.651,9Zm4.872,11.651a4.873,4.873,0,0,1-4.872,4.872H14.72a4.873,4.873,0,0,1-4.872-4.872V14.72A4.873,4.873,0,0,1,14.72,9.847h5.931a4.873,4.873,0,0,1,4.872,4.872Z" transform="translate(0 0)" fill="#090647"/>
  </g>
</svg>
