<svg id="Layer_2" data-name="Layer 2" xmlns="http://www.w3.org/2000/svg" width="445.928" height="386.163" viewBox="0 0 445.928 386.163">
  <g id="Layer_1" data-name="Layer 1">
    <path id="Path_92" data-name="Path 92" d="M132.572,187.711c-.307.184-.625-.338-.922.328.317.389.635.522.932.287C132.377,188.12,132.7,187.905,132.572,187.711Z" transform="translate(-5.831 4.521)" fill="none"/>
    <path id="Path_93" data-name="Path 93" d="M243.856,54.77c-1.864.819-1.6,2.919-2.2,4.219-.932.891-1.772,1.792-1.311,2.652,1.229.819,2.8.338,3.584,1.9l.307-.051V55.3a5.216,5.216,0,0,0-.5.543C243.231,55.507,244.143,55.128,243.856,54.77Z" transform="translate(-3.216 1.319)" fill="none"/>
    <path id="Path_94" data-name="Path 94" d="M209.01,69.51a.85.85,0,0,0-.112,1.383C209.614,70.862,209.88,70.012,209.01,69.51Z" transform="translate(-3.977 1.674)" fill="none"/>
    <path id="Path_95" data-name="Path 95" d="M113.85,191.361c.369.44.737.584,1.086.133a1.024,1.024,0,0,1-.328-.614C114.362,191,114.1,191,113.85,191.361Z" transform="translate(-6.259 4.598)" fill="none"/>
    <path id="Path_96" data-name="Path 96" d="M115.534,192.06l-.594.635c.369.809.471,1.823,1.587,1.8a1.68,1.68,0,0,0-.993-2.437Z" transform="translate(-6.233 4.626)" fill="none"/>
    <path id="Path_97" data-name="Path 97" d="M117.09,205.857a1.7,1.7,0,0,0,1.26,1.2l.594-.635a1.106,1.106,0,0,0-1.854-.563Z" transform="translate(-6.181 4.951)" fill="none"/>
    <path id="Path_98" data-name="Path 98" d="M214.25,92.4l.594-.625-.625-.6Q213.411,91.815,214.25,92.4Z" transform="translate(-3.852 2.196)" fill="none"/>
    <path id="Path_99" data-name="Path 99" d="M113.888,197.82c-.256.164-.512.082-.758.481.369.43.737.584,1.075.123C114.021,198.219,114.185,198,113.888,197.82Z" transform="translate(-6.277 4.765)" fill="none"/>
    <path id="Path_100" data-name="Path 100" d="M115.16,201.093c-.092.584.6,1.588,1.249.584C116.02,201.277,115.56,200.7,115.16,201.093Z" transform="translate(-6.228 4.84)" fill="none"/>
    <path id="Path_101" data-name="Path 101" d="M248.668,50.89c-.768,1.024-1.587,1.024-1.638,2.048C247.46,52.774,249.242,51.5,248.668,50.89Z" transform="translate(-3.052 1.226)" fill="none"/>
    <path id="Path_102" data-name="Path 102" d="M248.239,47.319a.809.809,0,0,0,0-1.229C247.921,46.51,247.614,46.92,248.239,47.319Z" transform="translate(-3.031 1.11)" fill="none"/>
    <path id="Path_103" data-name="Path 103" d="M331.939,183.251c-.451-.082-1.239-.143-1.219.645l.481.451C331.6,184.357,332.369,183.671,331.939,183.251Z" transform="translate(-1.036 4.413)" fill="none"/>
    <path id="Path_104" data-name="Path 104" d="M249.36,44.029a.819.819,0,0,0,0-1.229Q248.51,43.394,249.36,44.029Z" transform="translate(-3.006 1.031)" fill="none"/>
    <path id="Path_105" data-name="Path 105" d="M258.07,129.885c.43-.369.584-.727.123-1.075-.1.082-.194.164-.307,0C257.446,129.179,257.609,129.537,258.07,129.885Z" transform="translate(-2.796 3.103)" fill="none"/>
    <path id="Path_106" data-name="Path 106" d="M268.124,117.73c-.553.061-.174.2-.594.625C268.011,119.031,268.851,118.17,268.124,117.73Z" transform="translate(-2.558 2.836)" fill="none"/>
    <path id="Path_107" data-name="Path 107" d="M314.57,181.465c.441.706,1.372-.184.911-.645C315.072,181,314.539,180.81,314.57,181.465Z" transform="translate(-1.425 4.355)" fill="none"/>
    <path id="Path_108" data-name="Path 108" d="M241.871,56.191c-.154-.154-.307-.307-.471-.451-.44.369-.584.727-.123,1.024Z" transform="translate(-3.197 1.343)" fill="none"/>
    <path id="Path_109" data-name="Path 109" d="M319,214.405a1.136,1.136,0,0,1,0,.932l1.864.87c.574-.379.389-.727.748-1.1C320.782,214.323,319.9,213.9,319,214.405Z" transform="translate(-1.318 5.159)" fill="none"/>
    <path id="Path_110" data-name="Path 110" d="M425.67,221.877c.7.676,2.048-1.024,1.5-1.577C426.673,221.078,425.7,221.406,425.67,221.877Z" transform="translate(1.251 5.306)" fill="none"/>
    <path id="Path_111" data-name="Path 111" d="M111.84,137.28c1.024-.492,1.751-1.71,2.417-1.6.492.451.3.911.5,1.372.44-.573.911-.266,1.372-.5-1.024,1.772.594,2.048,1.024,3.072-.348.5-.737-.41-1.086-.123.614,1.475-.307,2.99-.963,4.5.84.83.461,2.949,1.485,3.81a12.659,12.659,0,0,0-2.765,5.366H247.4v-88.9l-.307.051c-.788-1.567-2.355-1.086-3.584-1.9-.461-.86.379-1.761,1.311-2.652.6-1.3.338-3.4,2.2-4.219.287.358-.625.737-.123,1.086a5.257,5.257,0,0,1,.5-.543c.737-.707,1.475-.932,2.243-.143.686-.328-.389-.6.287-.932,4.312-2.99,2.386-5.807,4.7-8.746,1.137-.236,2.1.533,2.919-.236,2-1.854-2.048-4.936-2.806-7.169a11.059,11.059,0,0,0-.184-7.076c-.44-1.434-1.28-2.232-1.946-3.646-.512-1.106-.461-3.851-1.024-4.588a2.273,2.273,0,0,0-3.4-.533c-.789.809.246,3.072.3,5.12,0,2.345.573,4.363-.758,6.482.84,1.26.317,2.56,1.792,3.8.573,2.5-1.68,5.12.348,7.537-.461,1.6-.113,3.185-.952,4.8a7.959,7.959,0,0,0-1.5-.133,4.352,4.352,0,0,0-4.26,2.714c-.41.9.266,2.683-.512,4.014s-3,3.011-4.5,4.731c-1.669,1.936-2.888,3.912-4.352,4.578-1.9.881-7.322-2.253-9.319-3.451-2.949-1.761-4.946-4.3-8.459-5.622,0-.881-.8-1.731-.84-2.6-2.437.338-5.807-1.946-6.278-4.455-.553.369-1.106.789-1.679.512a3,3,0,0,0-1.331-2.437c-.676-.123-1.331.348-1.987.522-1.362-1.6-3.83-3.451-5.643-3.554-.788-.594.379-1.239-.348-1.833a21.9,21.9,0,0,0-5.5,1.68c-3.769-.8-7.5,0-11.265-1.086a18.116,18.116,0,0,0-1.024-2.13c-3.072,1.587-6.206,2.048-9.3,3.472l-.635-.6c-3.185,3.574-6.575-.154-9.842.256-1.27-1.649-.829-3.359,1.249-5.12-.215-.809,0-1.639-1.024-2.437-1.126.758-.225,1.895-.389,2.939-1.2.952-.655,1.864-1.157,2.806-.748,1.024-1.516,1.024-2.253,2.048a4.957,4.957,0,0,1-1.915,3.277,103.834,103.834,0,0,1-2.048,10.988c-2.437.2-5.325,3.482-7.25,5.12-.614,1.147.574,2.755.707,3.676.174,1.229-.614,2.448-.819,4.025-.266,2.048.881,4.025-1.4,4.967-2.878-2.048-1.966-6.145-5.448-8.193a3.984,3.984,0,0,0-3.021,2.233,9.3,9.3,0,0,0,1.8,4.414c-.932,4.67,4.178,11.521,3.513,16.539-.481,3.636-4.424,1.505-6.728,1.4-.727,1.526-1.208,2.765-2.529,3.615-4.588-1.444-9.084-1.086-12.351,4.475-.164,2.611,2.57,3.943,3.236,6.073-1.331,2.345-.061,4.619-2.437,6.994-2.263-.256-3.3,2.335-3.892,4.1a2.417,2.417,0,0,0-2.417,1.915c2.468,2.386,2.489,5.909-1.321,8.346.154.563.819,1.106.2,1.69.481.338,1.823-.092,1.413,1.024-.41.215-.85-.87-1.25-.584.061.86,1.024.727,1.577,1.505-.4.727-.3,1.444-1.178,2.181-1.024-1.2-1.731-2.12-2.98-2.222C107.364,135.4,109.6,137.321,111.84,137.28ZM252.7,43.238a.819.819,0,0,1,0,1.229C252.17,44.078,252.16,43.658,252.7,43.238Zm-1.147,3.42a.809.809,0,0,1,0,1.229C250.962,47.488,251.269,47.078,251.556,46.659Zm.44,4.916c.574.614-1.208,1.884-1.638,2.048C250.409,52.629,251.228,52.578,252,51.574Zm-7.414,4.967c.164.143.318.3.471.451l-.594.625c-.461-.348-.277-.707.123-1.075ZM216.747,92.824l.625.6-.594.625Q215.938,93.47,216.747,92.824Zm-5.335-22.182c.891.461.625,1.352-.113,1.383a.85.85,0,0,1,.113-1.383Z" transform="translate(-6.379 0.542)" fill="#ed1588"/>
    <path id="Path_112" data-name="Path 112" d="M82.6,148.488c-.246-.307-.113-.614.277-.932.625,0,.461.358.481.758.174-.369,1.024-.748.748-1.1-.3.522-.625,0-.932,0a5.726,5.726,0,0,0,2.14-.676c-1.5-1.639-4.168,1.024-6.083,2.632C80.387,150.27,81.452,148.048,82.6,148.488Z" transform="translate(-7.093 3.517)" fill="#ed1588"/>
    <path id="Path_113" data-name="Path 113" d="M89.762,315.862c-3.2,2.632,2.929,5.028,3.257.686C91.718,315.135,90.714,315.083,89.762,315.862Z" transform="translate(-6.862 7.596)" fill="#37afe4"/>
    <path id="Path_114" data-name="Path 114" d="M98.341,277.75c-.5.43-1.024.1-1.516.962-2.458.133-6.452,0-8.869,2.386-3.851,3.861,2.908,3.236,5.284,1.71,1.485-.962,2.55-2.529,3.6-3.175.471-.276,2.13-.123,2.13-1.29C98.423,278.723,98.782,277.873,98.341,277.75Z" transform="translate(-6.911 6.69)" fill="#37afe4"/>
    <path id="Path_115" data-name="Path 115" d="M96.863,277.528c.553-1.106,2.171-.83,1.946-2.048C98.03,276.207,96.279,276.412,96.863,277.528Z" transform="translate(-6.672 6.635)" fill="#37afe4"/>
    <path id="Path_116" data-name="Path 116" d="M99.51,275.385c1.669.051,3.943-1.762,4.537-3.2C102.644,273.46,100.38,273.153,99.51,275.385Z" transform="translate(-6.605 6.556)" fill="#37afe4"/>
    <path id="Path_118" data-name="Path 118" d="M125.469,299.74c-1.024.276-.256,1.024-1.024,1.72-.256-.317-.512-.154-.778-.451-1.618,3.411-6.933,3.769-7.5,7.9,1.393-.522,3.5-2.724,4.4-2.427a38.116,38.116,0,0,0,4.946-5.2C125.366,300.764,125.663,300.242,125.469,299.74Z" transform="translate(-6.204 7.22)" fill="#37afe4"/>
    <path id="Path_119" data-name="Path 119" d="M70.776,226.9c-1.024.676-2.048.522-1.946,1.751C69.332,227.924,71.257,227,70.776,226.9Z" transform="translate(-7.344 5.465)" fill="#37afe4"/>
    <path id="Path_120" data-name="Path 120" d="M56.761,233.2a10.385,10.385,0,0,1,3.246.379,10.1,10.1,0,0,1,4.864-2.591,9,9,0,0,1,3.758-3.328,2.673,2.673,0,0,1,1.024-2.335l-.789-.758c-3.912,1.9-8.193,4.731-12.146,6.482C57.069,231.739,56.536,232.466,56.761,233.2Z" transform="translate(-7.636 5.409)" fill="#37afe4"/>
    <path id="Path_121" data-name="Path 121" d="M55.19,233.33a4.475,4.475,0,0,1-2.253,2.048c-.6-.4-.635-.809-.963-1.208-1.024.881-1.7,1.679-3.072.7a13.888,13.888,0,0,0-1.792,1.895c.809-.43,1.854.686,1.884,1.485.625.1,2.048-.072,2.14-.666-.164.143-.164-1.024.113-1.393C52.886,235.419,55.948,235.614,55.19,233.33Z" transform="translate(-7.867 5.62)" fill="#37afe4"/>
    <path id="Path_123" data-name="Path 123" d="M8.79,255.175c.86-.758,2.826-.553,2.724-1.925C10.705,254.018,9.067,254.018,8.79,255.175Z" transform="translate(-8.79 6.1)" fill="#37afe4"/>
    <path id="Path_124" data-name="Path 124" d="M74.822,255.66c-.461.5-1.352.389-1.352,1.116.737.7,1.444.174,2.151-.062-.184-.358-1.1-.153-.789-.748C74.914,255.865,75.037,255.763,74.822,255.66Z" transform="translate(-7.232 6.158)" fill="#37afe4"/>
    <path id="Path_125" data-name="Path 125" d="M212.006,346.436a8.837,8.837,0,0,0,.655-4.486,1.4,1.4,0,0,1-.912.635C212.365,343.855,211.5,345.166,212.006,346.436Z" transform="translate(-3.901 8.236)" fill="#37afe4"/>
    <path id="Path_126" data-name="Path 126" d="M212.341,346.92c-.369.195-.164,1.1-.748.789.082-.082,0-.3-.164-.154a45.956,45.956,0,0,0,.471,6.144c1.29-.758,4.1-1.024,3.912-3.185C214.543,349.05,212.73,348.262,212.341,346.92Z" transform="translate(-3.909 8.356)" fill="#37afe4"/>
    <path id="Path_127" data-name="Path 127" d="M229.177,304.84c-.348.594-.707.42-1.024.8.645.348.266.707.185,1.075-1.864,1.8-3.625,7.66.666,7.834C231.286,311.251,228.04,308.076,229.177,304.84Z" transform="translate(-3.55 7.343)" fill="#37afe4"/>
    <path id="Path_128" data-name="Path 128" d="M189.343,219.86c.9,1.311,1.628,2.652,2.448,3.758,2.755,9.288,1.71,18.772-.645,28.193-1.024,4.25-1.331,9.381-4.588,13.047-2.785-.256-5.387-3.738-6.779-6.144a2.345,2.345,0,0,0-.369-2.14c1.127-3.3.635-8.828.584-12.944,0-3.728-.809-7.537-.594-11.07.082-1.321.8-2.673.819-4.025,0-3-1.464-5.807-2.611-8.684H77.175c-.7.461-1.362.942-1.976,1.423,0,.461.7.9.184,1.372.532.543,1.024-.266,1.546.266a11.714,11.714,0,0,0,.358,1.843c1.29.471,2.56-.184,3.861.358.277-1.126,1.936,0,2.734-1.3.686.8,1.331,0,2.048-.2,2.284.471,5.325,1.024,7.169,2.888,2.929-.3,7.711,1.28,8.735,4.1.85,2.325-1.311,4.557-1.208,6.964-1.843,1.444-1.935,4.424-3.666,6.708-.512.666-1.4,1.086-1.956,1.741-2.1,2.468-3.072,6.534-5.817,7.394-2.437,2.744-4.967,2.151-7.425,4.352-2.826,0-5.182,1.649-7.793,2.2-.471.1-1.024-.225-1.393-.123-2.048.553-2.673,1.885-4.844,3.216-.85.522-1.966.512-2.745,1.024-1.024.615-1.659,1.711-2.7,2.53-2.5,1.956-5.489,2.581-8.377,3.451a26.822,26.822,0,0,1-12.228,3.4c-.8.737-1.618.84-2.417,1.915a3.513,3.513,0,0,1-.123,1.075l.881.912c1.434.123,2.857-.553,4.291-.727,5.51-4.864,11.163-4.854,16.713-8.131,5.3.461,10.569-.43,15.822-1.5,2.11-3.441,6.4-.42,8.52-3.922a21.236,21.236,0,0,1,5.346-1.516c2.54-.553,5.12-2.048,7.5-1.895a35.865,35.865,0,0,1,4.629.492c.829.2,1.372.922,2.192,1.177,1.321.41,3.011-.276,4.322.5.1.512.758,1.024.963,1.516,2.673.809,4.875-3.769,7.169-2.5s1.024,3.891,2.3,5.8c1.946-.072,1.628-3.625,3.308-3.164,0-.317-.533-.6,0-.932a55.685,55.685,0,0,1,7.6-3.892c1.649-3.072,4.649-2.048,6.9-1.249,1.976,3.144,1.075,6.943-1.137,9.719-1.27,0-1.628-.41-2.765.072-.451-.655-.563-.563-1.116-1.352-.123,1.741-1.608.84-1.977,1.127.123-.092.348.553.328.614a8.793,8.793,0,0,0-1.669,1.116c.819.84,1.157.717,1.28,1.505.512,0,1.024-.666,1.516-.655,1.024,1.341,1.956.215,2.939.389.573.645,1.649,1.29,1.741,1.956,1.485-.072,3.584,1.741,4.24,3.124,2.212.584,4.8.532,6.841,2.591,1.454,1.464,2.868,3.277,2.611,5.469a28.836,28.836,0,0,1-2.048,4.1c3.154.051,3.635,1.812,6.851,2.908.932.584.451,1.208.973,1.813,1.751,1.936,3.687.973,5,2.642a8.06,8.06,0,0,0,.7,3.072c1.024-.225,3.072.635,3.124,1.762,1.024-1.024,2.048-.768,3.021-2.222,2.161.328,4.332.676,6.431-1.1-1.229-2.417,1.444-4.332,2.13-6.984,2.253.512,3.584.369,5.735,1.536,6.759-3.912,12.494,4.178,11.654,10.169a10.749,10.749,0,0,1,3.922,2.519c-.164.973-1.116,1.976-1.311,2.95-1.147.051-2.048,1.331-3.533.256.246,1.147-.922,1.465-1.792,2.2,1.26,1.874,1.2,3.441,2.755,5.315,1.147-.4,1.925-.778,2.775-.082,2.048-2.509,4.209,1.925,4.547,3.431-2.14,3.246-3.513,8.52-7.1,10.958.164.2.471.4.318.614-1.26.9-.2,1.741-1.311,2.642.717,1.024,1.372,2.642-.522,3.717.942,2.56-2.314,5.8-.256,7.854,3.666-1.72,1.219-5.438,2.867-8.08-.932-.942,1.024-2.663,1.587-3.892,1.239-.317,1.587-1.249,2.908-.85,2.325,2.55,4.3,6.042,6.39,8.766a5.6,5.6,0,0,1,3.42,1.454c2.5-2.652,5.12-1.526,7.64-2.355.707-1.628.645-4.209,1.505-6.974-1.639-2.048-.154-4.1.461-6.145,0-.655-.645-.348-.645-.911.717-.635.317-1.239.881-1.864-.061-3.072-.973-7.527-.758-11.265.143-2.468-.481-5.233.9-6.943,5.387.307,1.085,6.472,1.628,9.34.758-.133,1.546.553,2.314.4.655-.358.533-1.782,1.362-.8.727-.43-.348-.809.277-1.239,3.123-2.1,4.608-6.37,8.141-6.677.758-.481.492-1.29.573-1.556s.522,0,.6-.328c.932-3.482-.123-7.323.481-11.265.266-1.772.614-3.953,1.4-4.966,1.741-2.2,5.346-4.312,7.312-3.267,2.355,1.25,3.349,5.039,2.97,7.619a21.01,21.01,0,0,0,2.407,4.035V219.86Zm-51.9,15.5c0,.236-.164.666-.451.471.594-1.178-3.175-1.8-4.567-4.035,2.048-2.98,5.407-.666,8-.512-.481.574-.184,1.137.195,1.68,1.157,1.106,2.263.215,3.39-.082,2.2.911.789,3.011,1.024,4.588.184,1.137,1.024,1.5,1.444,2.274.154.256-.1.625,0,.922.789,1.721,2.949,2.775,2.908,5.12C144.478,245.677,141.405,238.99,137.442,235.365Zm12.289,11.377c2.161-1.495,4.045,3.349,5.94,3.543a3.974,3.974,0,0,0,1.925,3.072c1.188.625,2.417-.768,3.246.369-1.915,1.8-2.642,2.867-2.949,5.008-3-4.025-7.722-7.957-8.142-12Z" transform="translate(-8.059 5.295)" fill="#37afe4"/>
    <path id="Path_129" data-name="Path 129" d="M235.121,293.356c1.505-1.506,4.567-2.2,3.891-4.1C237.875,289.741,234.772,291.564,235.121,293.356Z" transform="translate(-3.339 6.967)" fill="#37afe4"/>
    <path id="Path_130" data-name="Path 130" d="M186.564,355.26A6.483,6.483,0,0,0,185.12,359,5.775,5.775,0,0,0,186.564,355.26Z" transform="translate(-4.543 8.557)" fill="#37afe4"/>
    <path id="Path_131" data-name="Path 131" d="M167.494,316.07c-.522.235-.379.287-1.024.8.225.666-.4,2.161.512,2.294-.379-.451,1.29-.359.9-.942C167.013,317.934,167.433,316.541,167.494,316.07Z" transform="translate(-4.992 7.613)" fill="#37afe4"/>
    <path id="Path_132" data-name="Path 132" d="M183.139,369.24c3.543-2.714,1.372-6.605,2.673-9.77l-.471-.451C185.116,362.195,181.583,365.779,183.139,369.24Z" transform="translate(-4.6 8.647)" fill="#37afe4"/>
    <path id="Path_133" data-name="Path 133" d="M202.088,339.52a4.1,4.1,0,0,0-.451,6.144C204.085,344.691,201.689,341.466,202.088,339.52Z" transform="translate(-4.173 8.178)" fill="#37afe4"/>
    <path id="Path_134" data-name="Path 134" d="M128.064,298.044c.563-.174,1.106-1.024,1.669-1.116-.338-.256-.184-.512-.481-.758C128.31,296.488,127.572,297.153,128.064,298.044Z" transform="translate(-5.921 7.134)" fill="#37afe4"/>
    <path id="Path_135" data-name="Path 135" d="M211.347,360.32c-1.393,1.474-1.618,3.216,0,4.168C214.4,364.253,212.74,361.016,211.347,360.32Z" transform="translate(-3.938 8.679)" fill="#37afe4"/>
    <path id="Path_136" data-name="Path 136" d="M139.359,173.968a13.129,13.129,0,0,1-4.547,9.985,15.362,15.362,0,0,1-10.62,4.035H112.119v19.335H107.07V158.74h15.6a17.235,17.235,0,0,1,11.982,4.363A13.661,13.661,0,0,1,139.359,173.968Zm-4.987-1.137a8.961,8.961,0,0,0-3.574-6.851,12.29,12.29,0,0,0-7.865-2.683H112.119v20.287H123.24a11.378,11.378,0,0,0,7.9-2.9A9.217,9.217,0,0,0,134.372,172.832Z" transform="translate(-6.423 3.823)" fill="#121212"/>
    <path id="Path_137" data-name="Path 137" d="M158.552,175.113a8.816,8.816,0,0,0-5.428,1.833,12.486,12.486,0,0,0-2.847,2.97,11.082,11.082,0,0,0-1.2,5.55v21.506H144V171.016h4.475v5.12a11.111,11.111,0,0,1,10.046-5.806Z" transform="translate(-5.533 4.103)" fill="#121212"/>
    <path id="Path_138" data-name="Path 138" d="M169.733,167.028h-4.8V158.62h4.8Zm0,40.3h-4.8V171.3h4.8Z" transform="translate(-5.029 3.821)" fill="#121212"/>
    <path id="Path_139" data-name="Path 139" d="M229.618,207.045h-4.987v-22.11a10.938,10.938,0,0,0-2.406-7.169,7.712,7.712,0,0,0-6.309-2.97,9.913,9.913,0,0,0-6.861,2.591,8.306,8.306,0,0,0-2.867,6.442v23.185h-5.059V183.86a8.305,8.305,0,0,0-2.867-6.441,9.862,9.862,0,0,0-6.851-2.591,7.6,7.6,0,0,0-6.257,2.939,11.163,11.163,0,0,0-2.335,7.169v22.11h-5V185.539q0-6.759,3.861-10.855a14.113,14.113,0,0,1,9.473-4.362q7.834-.625,12.5,6.7,4.67-7.322,12.5-6.7a14.337,14.337,0,0,1,9.545,4.363q3.912,4.1,3.912,10.855Z" transform="translate(-4.719 4.101)" fill="#121212"/>
    <path id="Path_140" data-name="Path 140" d="M273.806,190.688h-32.34a13.313,13.313,0,0,0,4.608,8.971,13.8,13.8,0,0,0,9.544,3.472,12.76,12.76,0,0,0,12.187-7.9h5.12a18.608,18.608,0,0,1-17.481,12.658,17.738,17.738,0,0,1-13.068-5.4,18.792,18.792,0,0,1-.1-27.1,17.686,17.686,0,0,1,13.928-5.407,18.516,18.516,0,0,1,12.514,5.94,17.277,17.277,0,0,1,5.12,12.125Zm-4.731-4.424a13.846,13.846,0,0,0-4.742-8.193,14.061,14.061,0,0,0-22.868,8.193Z" transform="translate(-3.304 4.094)" fill="#121212"/>
    <path id="Path_141" data-name="Path 141" d="M317.291,188.981a18.535,18.535,0,0,1-5.623,13.549,17.409,17.409,0,0,1-13.395,5.356,18.1,18.1,0,0,1-13.313-6.38v18.126h-4.68V189.043a18.507,18.507,0,1,1,37.011-.061Zm-4.8.379a14.193,14.193,0,0,0-3.809-9.995,12.914,12.914,0,0,0-9.452-4.475,12.586,12.586,0,0,0-10.19,4.1,14.154,14.154,0,0,0-4.1,10.4,13.99,13.99,0,0,0,4.1,9.77,12.791,12.791,0,0,0,9.524,4.1,13.313,13.313,0,0,0,9.77-4.1,13.887,13.887,0,0,0,4.158-9.8Z" transform="translate(-2.251 4.1)" fill="#121212"/>
    <path id="Path_142" data-name="Path 142" d="M338.222,175.113a8.816,8.816,0,0,0-5.428,1.833,12.482,12.482,0,0,0-2.847,2.97,11.082,11.082,0,0,0-1.2,5.55v21.506H323.69V171.016h4.485v5.12a11.112,11.112,0,0,1,10.047-5.806Z" transform="translate(-1.205 4.103)" fill="#121212"/>
    <path id="Path_143" data-name="Path 143" d="M349.4,167.028h-4.8V158.62h4.8Zm0,40.3h-4.8V171.3h4.8Z" transform="translate(-0.702 3.821)" fill="#121212"/>
    <path id="Path_144" data-name="Path 144" d="M389.27,207.046h-4.8V186.011a11.316,11.316,0,0,0-11.091-11.121,10.814,10.814,0,0,0-7.844,3.287,10.621,10.621,0,0,0-3.329,7.834v21.035h-4.8V186.513a15.986,15.986,0,0,1,4.547-11.654,16.386,16.386,0,0,1,22.807,0,15.987,15.987,0,0,1,4.547,11.654Z" transform="translate(-0.393 4.101)" fill="#121212"/>
    <path id="Path_145" data-name="Path 145" d="M409.669,208.082q-13.139,0-13.139-11.183V158.68h4.8V171.3h8.336v4.485h-8.336v20.3q0,8.019,8.336,8.019Z" transform="translate(0.549 3.822)" fill="#121212"/>
    <path id="Path_146" data-name="Path 146" d="M281.168,313.711c-1.884,3.912-5.745,9.115-4.895,13.057,1.434-3.789,7.3-7.681,4.465-11.972C281.117,314.51,282.059,313.455,281.168,313.711Z" transform="translate(-2.35 7.555)" fill="#121212"/>
    <path id="Path_147" data-name="Path 147" d="M283.624,323.459c-1.4-.533-3.82,3.953-2.192,4.526,3.134,1.1,2.048-2.7,2.355-4.1s1.444-1.454,1.167-2.5C284.075,321.841,282.508,323.4,283.624,323.459Z" transform="translate(-2.236 7.741)" fill="#121212"/>
    <path id="Path_148" data-name="Path 148" d="M273.26,331.829c.318.512.614,0,.911,0-.235-.307.174-1.413-.635-1.209C273.608,331.01,273.9,331.808,273.26,331.829Z" transform="translate(-2.42 7.963)" fill="#121212"/>
    <path id="Path_149" data-name="Path 149" d="M257.074,371.223c-.153.256-.061.512-.451.778-.563-.123-.2-.973-.625-.594-1.464,1.935-2.868,3.871-1.546,5.725.153-.082.307-.051.471.154,3.39-1.311,1.71-4.1,2.6-6.544.348-.973,1.4-.963,1.167-2.181-.717,1.024-1.782,2.12-2.232,2.673C256.654,371.059,256.859,370.905,257.074,371.223Z" transform="translate(-2.886 8.877)" fill="#121212"/>
    <path id="Path_150" data-name="Path 150" d="M277.056,332c.082.092.3.051.144-.153-.768,0-.42.665-.43,1.085-3.461,1.864-1.874,4.332-3.963,7.343.451.348.625.7.184,1.075-.358.062-.727-.1-1.024.184A8,8,0,0,1,269.6,345.3c1.024,1.168-1.628,2.468.236,2.908.43-2.253,3.584-3.912,3.205-6.544a27.7,27.7,0,0,0,4.424-7.814C277.435,333.232,276.708,332.638,277.056,332Z" transform="translate(-2.519 7.993)" fill="#121212"/>
    <path id="Path_151" data-name="Path 151" d="M248.427,334.25a.563.563,0,0,1-.594.942c.266,3.994-4.014,8.111-.307,12.013,3.287-.481,3.236-5.407,1.341-7.732C248.929,337.9,249.809,334.783,248.427,334.25Z" transform="translate(-3.076 8.051)" fill="#121212"/>
    <path id="Path_152" data-name="Path 152" d="M297.366,286.83c-2.9,2.97-1.29,8.326-2.591,12.842-.174.615-.8,1.024-.563,1.864-1.362,4.608-5.12,9.268-4.721,13.825,4.516-4.588,9.063-9.984,8.111-13.907-.082.266-1.157-.215-2.048-.42,2.171-3.133,2.13-6.216,3.144-9.319A8.961,8.961,0,0,1,297.366,286.83Z" transform="translate(-2.03 6.909)" fill="#121212"/>
    <path id="Path_153" data-name="Path 153" d="M405.81,284.746c.635.236,2.048.809,2.151-.051C407.356,285.176,405.9,283.988,405.81,284.746Z" transform="translate(0.773 6.852)" fill="#121212"/>
    <path id="Path_154" data-name="Path 154" d="M367.918,266.364c-.235-.348.144-.727-.492-1.024C366.791,265.6,367.447,266.61,367.918,266.364Z" transform="translate(-0.158 6.391)" fill="#121212"/>
    <path id="Path_155" data-name="Path 155" d="M368.5,259c-1.25.42-1.444,2.4-1.761,3.124.583-.246.85.788.174,1.075.8.287.819,1.024,1.72.727.645-1.024-.7-2.571.246-2.161C367.733,260.628,369.136,259.318,368.5,259Z" transform="translate(-0.168 6.238)" fill="#121212"/>
    <path id="Path_156" data-name="Path 156" d="M445.742,235.027c.656-.584,1.116-1.157,1.024-1.721-4.793-3.963-6.564-7.619-10.876-9.729a39.865,39.865,0,0,0-3.185-3.718H244.14v75.485a23.761,23.761,0,0,1,2.745,4.445c-.86,1.106-.164,2.161.236,3.236-1.075,4.793-1.956,9.6-1.024,14.337,1.434,1.413,1.69,3.471,2.448,5.325-1.27,2.192-2.837,7.67.686,8.756,3.2-4.1.092-9.33.256-13.856.491-.625.481-1.024,1.2-1.27.42-2.878,1.28-5.776,1.024-8.643,1.608-2.509-.625-4.916.113-7.394.3-.317.594-.635.9-.942,1.567-7.916,4.1-15.873,3.82-24.271,4.762-1.946,6.083-5.315,10.425-7.814.594.379,1.321.256,1.864.563,2.54,1.454,3.461,3.83,4.762,5.725.368,3.635-.533,8.121,1.987,11.183-.082,1.6,1.178,3.4,1.526,5.346-.543.43-.358.84-.584,1.25,2.427,7.169-2.54,14.829,2.109,21.813.2-.164.41.061.625.287,3.625-1.229,3.861-5.663,3.943-8.264-.6.492-1.188,1.772-1.823,1.024.225-.655.871-.717,1.5-1.577.809-4.915-3.42-9.872-2.7-15.167.133-1.024,1.29-2.437,1.587-3.892.113-.543-.195-1.024,0-1.536.461-1.434,1.628-4.506,2.8-5.121a26.721,26.721,0,0,1,6.534,2.6c1.854-.788,3.984.7,5.991-.307,1.751-.881,2.929-2.734,5.018-2.437,1.311,1.137,2.57,0,3.881,1.28,1.629-.44,3.544-.451,5.213-.747s3.451-.3,3.963-1.649c0-.809-.512.2-.942-.594.266-.359-.134-.717.133-1.075,1.5-1.485,3.636-1.147,5.326-2.448.369-.287.225-.768.584-.942a6.206,6.206,0,0,1,4.158-.256c5.2,2.632-.215,9.36,1.884,13.5-1.147,5.008-4.547,9.514-5.776,14.337-.44,1.69-.277,3.5-.789,5.254-.246.84-1.188,1.71-.707,2.642,3.267-2.724,10.241-8.193,9.217-13.487.727-.42,0-.819.584-1.239a20.673,20.673,0,0,1,1.864-11.132c0-.42-.707-.809-.338-1.229a23.63,23.63,0,0,0,1.864-5.121c.543.144,2.632-1.454,1.792-2.212,1.383-.348,2.693-2.519,3.287-3.779,1.259-.86,2.55-.7,3.8-1.792a2.057,2.057,0,0,0,3.359-1.024c.359-.184.727.184,1.086.123,2.345-2.714,5.949-7.455,9.81-7.5.84-1.311,3.625-2.048,4.834-3.513,3.339-1.823,6.728-1.536,10.159,0-.328.932.461,1.843.072,2.775.348-.512.748.942,1.1.43-.2-1.024.307-1.219.4-2.048.8-.072.953-.625,1.024-1.413,6.953-1.731,14.788,1.239,21.363,4.363-.256.266-.5.533-.758.788,1.086.953.42,1.946,1.772,2.878.931,3.81,0,7.3,2.273,10.569.8,1.116,2.1,1.7,3.011,2.847s.922,3.154,2.56,3.932c.451-.522.922-.133,1.362-.809,0-.9-.082-1.7-.666-1.823.276-.174.45-.092.45-.481-.8-.891-.871-2.489-1.762-2.878.4-.573-.071-1.126.42-1.7-1.577-4.537-5.489-10.313-6.718-15.361,1.772-2.714,3.656-1.679,5.469-2.919-.256-1.168.225-2.366.369-3.543-.7.43-.563-.348-1.1-.748,1.587-3.134,5.346-6.411,8.326-5.294-.461,2.816,4.434,4.608,3.881,7.291.686.553,1.352.768,2.048,1.331-.3.409-.625-.266-.921,0a22.226,22.226,0,0,1,3.42,7.455c.717,2.2,1.372,5,2.488,6.554.307.43,1.127,1.915,2.182,1.178,0-.85-.328-.881-.656-1.526.389-.594.758-.2.748-.788-1.772-3.543-2.253-8.121-4.619-11.89-1.618-2.571-4.1-4.209-4.332-6.81-.42-.307-.809.655-1.229,0,.287-.573.6-.194.9-.645-.553-2.11-2.53-4.486-.471-6.452-.574-1.854-.471-4.762-1.844-5.643.9-.788,1.024-1.106.573-1.557,2.765-2.775,5.489,3.769,7.886,1.485,1.26-1.188,0-3.072-.113-4.608-.307,0-.6.532-.922,0a3.134,3.134,0,0,1,2.837-3.308c4.1-5.12,9.545-2.888,14.225-3.3.471,1.884,2.427.543,2.693,2.55a3.675,3.675,0,0,1,2.161.553c-.8,2.192,3.328,8.828,6.677,8.141a3.917,3.917,0,0,0,.133-1.024C446.581,234.494,446.2,235.713,445.742,235.027Zm-15.729-13.139c0-.471,1.024-.8,1.495-1.577.594.6-.768,2.253-1.464,1.577Z" transform="translate(-3.121 5.296)" fill="#121212"/>
    <path id="Path_157" data-name="Path 157" d="M369.066,271.828c-.563-.3-.194-.614-.635-.912.553-.43.359-.829.584-1.249a5.652,5.652,0,0,1-1.075-2c-.1.2-.563.318-.665.358,1.024,1.1-.84,3.328.133,4.916-1.372,2.99-5.12,6.319-3.154,9.012,1.025,1.372,2.233.891,3.3,2.529a7.1,7.1,0,0,0,1.249,6.277,1.118,1.118,0,0,1,.922,0c1.454-2.048-.625-3.984-.932-5.981.143-1.342,1.352-1.9,1.772-3.123C371.749,278.146,367.469,275.514,369.066,271.828Z" transform="translate(-0.241 6.447)" fill="#121212"/>
    <path id="Path_158" data-name="Path 158" d="M309.983,320.807c3.646-.563,5.326-5.264,3.953-7.957C309.932,312.687,305.58,316.793,309.983,320.807Z" transform="translate(-1.58 7.535)" fill="#121212"/>
    <path id="Path_159" data-name="Path 159" d="M367.78,267.4l.062.277a.215.215,0,0,0-.062-.277Z" transform="translate(-0.143 6.441)" fill="#121212"/>
    <path id="Path_160" data-name="Path 160" d="M399.585,57.27c0,.8-1.383.748-.42,1.393,3.625-3.482,1.372-8.193,3.994-12.115l-.788-.748c-.4.451-.563.072-.6.635,0,3.533-2.8,7.169-3.257,10.7C398.889,57.966,399.207,56.481,399.585,57.27Z" transform="translate(0.597 1.103)" fill="#fcee27"/>
    <path id="Path_161" data-name="Path 161" d="M393.022,82.106a3.184,3.184,0,0,0-.707,2.632c2.7-3.328,2.775-5.848,3.154-9,.235-2.048,1.444-3.523.174-4.936-1.649.707-1.167,1.946-1.608,3.277-.317,1.024-1.024,1.854-1.311,2.652-.615,1.792.133,3.7-.635,5.12C392.407,82.505,392.694,81.43,393.022,82.106Z" transform="translate(0.442 1.705)" fill="#fcee27"/>
    <path id="Path_162" data-name="Path 162" d="M385.468,115.811c2.049-2.048,1.4-5.469,2.725-7.619.164-.266.7-.41.9-.635,2.55-2.816-.226-5.458.235-8.787a10.436,10.436,0,0,0-1.9,9.6c-.246.195-.512,0-.768.174C387.516,110.936,384.085,113.435,385.468,115.811Z" transform="translate(0.275 2.379)" fill="#fcee27"/>
    <path id="Path_163" data-name="Path 163" d="M385.066,117.409c.389-.43.963-.85.584-1.249C385.434,116.57,384.349,117.02,385.066,117.409Z" transform="translate(0.267 2.798)" fill="#fcee27"/>
    <path id="Path_164" data-name="Path 164" d="M385.734,118.871c-.338-.195-.185-.614-.481-.451.39.461-1.29.369-.9.952C384.8,118.779,385.293,119.783,385.734,118.871Z" transform="translate(0.255 2.851)" fill="#fcee27"/>
    <path id="Path_165" data-name="Path 165" d="M408.718,36.34l-.481-.44c-1.024,1.895-2.98,5.12-2.263,7.445C407.336,41,407.366,38.686,408.718,36.34Z" transform="translate(0.773 0.865)" fill="#fcee27"/>
    <path id="Path_166" data-name="Path 166" d="M421.781,132.91c1.4-1.1,1.137-3.584-1.2-4.434C415.688,126.7,418.4,135.562,421.781,132.91Z" transform="translate(1.064 3.089)" fill="#fcee27"/>
    <path id="Path_167" data-name="Path 167" d="M325.523,107.1c4.844-.287,10.241,1.116,14.5-4.537a18.125,18.125,0,0,1,.543-3.072c-.932-1.618-2.048-4.1-4.1-5.12-4.383-1.464-10.241-3.134-14.153.676C318.58,98.65,320.228,104.528,325.523,107.1Z" transform="translate(-1.287 2.233)" fill="#fcee27"/>
    <path id="Path_168" data-name="Path 168" d="M324.844,147.836c-.543-.246-1.168-1.6-.952-.9.276.369.112,1.526.5,1.372C324.188,148.03,324.618,147.856,324.844,147.836Z" transform="translate(-1.201 3.534)" fill="#fcee27"/>
    <path id="Path_169" data-name="Path 169" d="M418.581,0c-1.024,2.253-3.277,5.817-2.4,8.531C418.141,6.339,418.591,2.13,418.581,0Z" transform="translate(1.018)" fill="#fcee27"/>
    <path id="Path_170" data-name="Path 170" d="M376.44,144.385c.164.246.092.5.481.748.348-.4.7-.778,1.024-.788-.635-.348.276-.727-.174-1.024C377.6,144.364,377.311,143.9,376.44,144.385Z" transform="translate(0.065 3.452)" fill="#fcee27"/>
    <path id="Path_171" data-name="Path 171" d="M281.343,135.022c-1.024,2.048,4.731,6.452,6.677,8.141a60.17,60.17,0,0,1,6.9,7.343h3.257c-2.141-2.949-4.168-6.144-7.107-8.654a42.159,42.159,0,0,1-3.943-3.431c-1.178-1.321-3.021-4.209-4.486-4.342C282.152,134,281.711,134.254,281.343,135.022Z" transform="translate(-2.228 3.229)" fill="#fcee27"/>
    <path id="Path_172" data-name="Path 172" d="M307.816,141.373c.574-.553,1.024-.676,1.024-1.106-.3.266-.625-.41-.932-.287C307.663,140.451,307.3,140.922,307.816,141.373Z" transform="translate(-1.594 3.371)" fill="#fcee27"/>
    <path id="Path_173" data-name="Path 173" d="M295.816,152.621a60.181,60.181,0,0,0-6.9-7.343c-1.946-1.69-7.711-6.063-6.677-8.142.369-.727.809-1.024,1.3-.942,1.465.133,3.308,3.072,4.486,4.342a42.1,42.1,0,0,0,3.943,3.431c2.939,2.55,4.966,5.7,7.107,8.654h12.4a8.267,8.267,0,0,0-.543-1.444c-3.349,1.126-5.284-4.813-3.072-6.544-.666-.676-1.311-.389-1.577-1.188a4.247,4.247,0,0,1,.092-2.314c1.024-2.519,7.168-7.281,9.626-8.869,2.12-1.393,4.2-1.936,4.8-4.445-.286-1.321.1-2.663-1.638-3.953-.922-.1-1.854-.061-2.776-.236-2.857,2.468-5.714,5.12-8.6,6.534-4.1-.389-8.08,4.977-12.227,3.4a19.454,19.454,0,0,1-.727-3.984c3.205-2.7-.9-5.213.573-7.865-2.673-2.847-6.811-4.178-5.909-8.008.635.348-.061.727.184,1.024,1.71-.389,2.048,0,4,.2.584-.789-.328-1.536.4-2.325.5.84.665.891,1.4.43-.543-.881-1.587-2.12-2.509-1.782-.184.809.891-.215.625.594-1.741.614-1.546-1.1-2.356-1.935-1.178-1.219-3.021-1.4-4.219-2.509-2.376-2.161-1.024-6.39-3.462-8.684.164-2.734,1.772-5.4-.666-7.527-2.222-1.946-5.294-3.277-7.384-5.807a16.15,16.15,0,0,1-3.656-9.657,30.346,30.346,0,0,0,3.174-7.783c.871-2.56,3.369-4.905,4.721-8.121.871-2.048.768-4.4,2.3-5.919.553-.543,1.4-.44,2.13-1.024,2.98-2.171,4.322-6.984.092-8.316-1.874,1.475-4.229,3.246-4.475,5.356,3.564,3.758-2.878,9.094-3.5,13.477-.194-.154,0-.461-.318-.3-3.072,4.66-7.732,14.993-13.815,12.985-3.646-5.346-.7-11.92-8.776-17.635-1.178.164-2.376-.358-3.543-.061,2.243,2.407-3.072,4.926-5.714,5.346v88.88Zm-8.9-18.833h0a1.311,1.311,0,0,1,0,1.843h0a1.665,1.665,0,0,0-.307-.072.512.512,0,0,0-.307.092h0C285.626,134.946,285.923,133.666,286.916,133.788Zm-7.814,0c1.024-.082,1.772,1.823,1.116,2.663h0a3.174,3.174,0,0,1-2.2-1.792,1.587,1.587,0,0,1,1.085-.891Zm-6.6,2.243h0a1.423,1.423,0,0,1,.942.594c-.256.307-.512.143-.758.481h0c-.461-.369-.625-.727-.184-1.1Zm-3.82-16.518c.727.44-.1,1.331-.594.625.42-.44.041-.584.594-.645ZM258.211,130.86c.113.164.2.082.307,0,.461.348.307.707-.123,1.075-.461-.369-.625-.727-.184-1.1Z" transform="translate(-3.121 1.074)" fill="#fcee27"/>
    <path id="Path_174" data-name="Path 174" d="M283.86,22.084c3.072,1.229,7.363-2.273,7.691-5.9-.7-4.363-5.52-4.229-7.762-2.57C280.348,16.165,280.563,20.743,283.86,22.084Z" transform="translate(21.698 47.067)" fill="#fcee27"/>
    <path id="Path_175" data-name="Path 175" d="M272.01,134.935c.246-.338.5-.174.758-.481a1.424,1.424,0,0,0-.942-.594C271.406,134.229,271.57,134.587,272.01,134.935Z" transform="translate(-2.46 3.224)" fill="#fcee27"/>
    <path id="Path_176" data-name="Path 176" d="M320.465,135.885c-.266.85-.348,2.274.84,2.591.194,1.024-.154,1.659.215,2.611-.051-.143,1.751.573.645,1.219.359-.1.717-.277,1.085.123.184,1.464-.471,3.287.891,4.445-1.024-2.048.819-.758,1.075.123s-.553,2.12-.092,2.314c-.3.307-.625-.215-.922.328.215.317.635.154.481.451a4.583,4.583,0,0,1-.246.778H413.79a8.733,8.733,0,0,0,.717-3.738c-1.147-.645-.512-1.321-1.126-1.977-1.526-.143-2.489-1.423-4.342-1.116-1.341.225-1.986,1.536-3.206.85-.809-.451-.819-1.229-1.6-2.11,1.024-3.308.553-6.585,2.2-9.913a3.606,3.606,0,0,1-1.741-1.956c-.87-.164-1.9.42-1.976,1.126.133-.358.973-.379.614,0-1.024.522.093.143-.276.932a2.048,2.048,0,0,0-1.536.348,2.294,2.294,0,0,1-2.734,1.3c-2.048-.666-1.444-2.8-3.205-4.844-.86-1.024-2.458-1.628-2.98-2.233-2.048-2.407-3.072-5.714-4.67-7.732-.256.84-.471.471-1.086-.123-1.259,2.468.523,5.5-3.328,7.947-2.673-.379-5.325.543-8.019-.41-1.423-2.632-4.383-3.83-5.407-6.636a6.147,6.147,0,0,1-1.239-.276c-3.144,3.482-6.37,3.5-9.616,2.867-2.151,2.243-4.383,1.444-6.554,2.488-2.355-1.69-4.69-2.437-6.984-1.823-3.677-1.27-3.41-7.025-7.087-6.431-.307,1.342-.194,3.308-.665,4.168a.614.614,0,0,1,.778.133A17.254,17.254,0,0,1,336.8,125c-2.222,3.891-7.015,9.217-11.459,8.92-1.966-.123-3.287-2.048-4.793-.645-.922.84-.533,2.458-1.157,2.8C319.738,135.824,320.1,135.425,320.465,135.885Zm58.711,8.008h0c.451.348-.461.727.174,1.024-.358,0-.706.389-1.024.789h0c-.389-.246-.317-.5-.481-.748C378.685,144.529,378.971,144.99,379.176,143.894Z" transform="translate(-1.309 2.827)" fill="#fcee27"/>
    <path id="Path_177" data-name="Path 177" d="M306.647,142.3a1.025,1.025,0,0,0,.43-1.085C306.606,141.21,305.991,141.886,306.647,142.3Z" transform="translate(-1.623 3.401)" fill="#fcee27"/>
    <path id="Path_178" data-name="Path 178" d="M285.369,133.554a.513.513,0,0,1,.307-.092,1.659,1.659,0,0,1,.307.072,1.31,1.31,0,0,0,0-1.843C284.94,131.567,284.642,132.847,285.369,133.554Z" transform="translate(-2.138 3.172)" fill="#fcee27"/>
    <path id="Path_179" data-name="Path 179" d="M277.22,132.54a3.175,3.175,0,0,0,2.2,1.792c.655-.84-.082-2.745-1.116-2.663A1.587,1.587,0,0,0,277.22,132.54Z" transform="translate(-2.324 3.171)" fill="#fcee27"/>
    <path id="Path_180" data-name="Path 180" d="M300.072,11.094c-3.82-3.369-9.217,2.448-6.636,5.407C297.1,20.7,304.179,14.709,300.072,11.094Z" transform="translate(21.975 47.007)" fill="#fcee27"/>
    <path id="Path_181" data-name="Path 181" d="M429.714,179.342A15.146,15.146,0,1,0,414.65,164.2a15.146,15.146,0,0,0,15.064,15.146m0-28.777a13.641,13.641,0,1,1-13.559,13.63,13.641,13.641,0,0,1,13.559-13.63" transform="translate(0.986 3.59)" fill="#cb4542"/>
    <path id="Path_182" data-name="Path 182" d="M425.845,162.359a.4.4,0,0,0,.4.389H433.6a.4.4,0,1,0,0-.788h-7.353a.4.4,0,0,0-.4.4m2.98-.778a1.71,1.71,0,0,0,1.71-1.71v-.338a.4.4,0,0,0-.4-.389.389.389,0,0,0-.389.389v.338a.922.922,0,0,1-.922.922h-2.048a.4.4,0,0,0,0,.788Zm-1.823,4.1a.573.573,0,1,0,.563-.574.563.563,0,0,0-.563.574m6.943-2.54H425.9a.4.4,0,0,0-.369.256,4.711,4.711,0,0,0-.307,1.669v.226L424,167.664a.389.389,0,0,0,.338.584h.921v1.464a1.516,1.516,0,0,0,1.516,1.516h1.711V172a.4.4,0,0,0,.389.4.409.409,0,0,0,.4-.4v-1.157a.4.4,0,0,0-.4-.4h-2.1a.727.727,0,0,1-.727-.727v-1.864a.4.4,0,0,0-.389-.4h-.665l1.024-1.885a.556.556,0,0,0,0-.184v-.328a4.223,4.223,0,0,1,.164-1.126h7.5a4.209,4.209,0,0,1,.165,1.126,3.932,3.932,0,0,1-1.127,2.765.38.38,0,0,0-.164.307V172a.409.409,0,0,0,.4.4.4.4,0,0,0,.389-.4v-3.7a4.659,4.659,0,0,0,1.29-3.246,4.72,4.72,0,0,0-.307-1.669.389.389,0,0,0-.368-.256m.85-6.831H431.58v-.287a.39.39,0,0,0-.39-.4h-2.069a.389.389,0,0,0-.389.4v.307h-3.206a.4.4,0,1,0,0,.789h3.206v.369a.359.359,0,0,0,.1.256l.778.911a.42.42,0,0,0,.3.133h.532a.4.4,0,0,0,.3-.133l.789-.911a.39.39,0,0,0,.092-.256v-.369h3.215a.4.4,0,0,0,0-.789m-4,1.024-.563.656h-.174l-.574-.656v-.911h1.311Z" transform="translate(1.21 3.748)" fill="#221f1f"/>
  </g>
</svg>
