<svg xmlns="http://www.w3.org/2000/svg" width="113.449" height="98.244" viewBox="0 0 113.449 98.244">
  <g id="Layer_2" data-name="Layer 2" transform="translate(-8.79)">
    <g id="Layer_1" data-name="Layer 1" transform="translate(8.79)">
      <path id="Path_92" data-name="Path 92" d="M131.884,187.694c-.078.047-.159-.086-.234.083.081.1.162.133.237.073C131.835,187.8,131.918,187.743,131.884,187.694Z" transform="translate(-99.64 -138.788)" fill="none"/>
      <path id="Path_93" data-name="Path 93" d="M241.14,54.77c-.474.208-.406.743-.56,1.073-.237.227-.451.456-.333.675.313.208.711.086.912.485l.078-.013V54.905a1.325,1.325,0,0,0-.128.138C240.981,54.958,241.213,54.861,241.14,54.77Z" transform="translate(-179.918 -40.5)" fill="none"/>
      <path id="Path_94" data-name="Path 94" d="M208.7,69.51a.216.216,0,0,0-.029.352C208.853,69.854,208.921,69.638,208.7,69.51Z" transform="translate(-156.537 -51.4)" fill="none"/>
      <path id="Path_95" data-name="Path 95" d="M113.85,191c.094.112.188.149.276.034a.26.26,0,0,1-.083-.156C113.98,190.911,113.913,190.911,113.85,191Z" transform="translate(-86.478 -141.149)" fill="none"/>
      <path id="Path_96" data-name="Path 96" d="M115.091,192.06l-.151.162c.094.206.12.464.4.459a.427.427,0,0,0-.253-.62Z" transform="translate(-87.284 -142.021)" fill="none"/>
      <path id="Path_97" data-name="Path 97" d="M117.09,205.624a.432.432,0,0,0,.32.3l.151-.162a.281.281,0,0,0-.472-.143Z" transform="translate(-88.874 -151.992)" fill="none"/>
      <path id="Path_98" data-name="Path 98" d="M213.931,91.483l.151-.159-.159-.154Q213.718,91.334,213.931,91.483Z" transform="translate(-160.404 -67.417)" fill="none"/>
      <path id="Path_99" data-name="Path 99" d="M113.323,197.82c-.065.042-.13.021-.193.122.094.109.188.149.274.031C113.357,197.922,113.4,197.867,113.323,197.82Z" transform="translate(-85.945 -146.28)" fill="none"/>
      <path id="Path_100" data-name="Path 100" d="M115.154,201c-.023.149.154.4.318.149C115.373,201.043,115.256,200.9,115.154,201Z" transform="translate(-87.441 -148.605)" fill="none"/>
      <path id="Path_101" data-name="Path 101" d="M247.447,50.89c-.2.261-.4.261-.417.521C247.139,51.369,247.593,51.046,247.447,50.89Z" transform="translate(-184.959 -37.631)" fill="none"/>
      <path id="Path_102" data-name="Path 102" d="M247.968,46.4a.206.206,0,0,0,0-.313C247.888,46.2,247.809,46.3,247.968,46.4Z" transform="translate(-185.585 -34.082)" fill="none"/>
      <path id="Path_103" data-name="Path 103" d="M331.03,183.217c-.115-.021-.315-.036-.31.164l.122.115C330.944,183.5,331.139,183.324,331.03,183.217Z" transform="translate(-246.845 -135.473)" fill="none"/>
      <path id="Path_104" data-name="Path 104" d="M249.043,43.113a.208.208,0,0,0,0-.313Q248.827,42.951,249.043,43.113Z" transform="translate(-186.368 -31.649)" fill="none"/>
      <path id="Path_105" data-name="Path 105" d="M257.741,129.084c.109-.094.148-.185.031-.274-.026.021-.049.042-.078,0C257.582,128.9,257.623,128.995,257.741,129.084Z" transform="translate(-192.796 -95.25)" fill="none"/>
      <path id="Path_106" data-name="Path 106" d="M267.681,117.73c-.141.016-.044.052-.151.159C267.652,118.061,267.866,117.842,267.681,117.73Z" transform="translate(-200.118 -87.057)" fill="none"/>
      <path id="Path_107" data-name="Path 107" d="M314.569,180.984c.112.18.349-.047.232-.164C314.7,180.867,314.561,180.817,314.569,180.984Z" transform="translate(-234.902 -133.71)" fill="none"/>
      <path id="Path_108" data-name="Path 108" d="M241.216,55.855c-.039-.039-.078-.078-.12-.115-.112.094-.149.185-.031.261Z" transform="translate(-180.495 -41.218)" fill="none"/>
      <path id="Path_109" data-name="Path 109" d="M319,214.243a.289.289,0,0,1,0,.237l.474.221c.146-.1.1-.185.19-.279C319.453,214.222,319.229,214.115,319,214.243Z" transform="translate(-238.178 -158.383)" fill="none"/>
      <path id="Path_110" data-name="Path 110" d="M425.67,220.7c.177.172.521-.261.38-.4C425.925,220.5,425.678,220.581,425.67,220.7Z" transform="translate(-317.057 -162.903)" fill="none"/>
      <path id="Path_111" data-name="Path 111" d="M109.632,51.689c.261-.125.446-.435.615-.406.125.115.076.232.128.349.112-.146.232-.068.349-.128-.261.451.151.521.261.782-.089.128-.188-.1-.276-.031.156.375-.078.761-.245,1.144.214.211.117.75.378.969a3.221,3.221,0,0,0-.7,1.365h33.982V33.115l-.078.013c-.2-.4-.6-.276-.912-.485-.117-.219.1-.448.333-.675.154-.331.086-.865.56-1.073.073.091-.159.188-.031.276a1.339,1.339,0,0,1,.128-.138c.188-.18.375-.237.571-.036.175-.083-.1-.154.073-.237,1.1-.761.607-1.477,1.2-2.225.289-.06.534.135.743-.06.508-.472-.521-1.256-.714-1.824a2.814,2.814,0,0,0-.047-1.8,6.962,6.962,0,0,0-.495-.928c-.13-.281-.117-.98-.261-1.167a.578.578,0,0,0-.865-.135c-.2.206.063.782.076,1.3a2.743,2.743,0,0,1-.193,1.649c.214.32.081.651.456.967.146.636-.427,1.3.089,1.918a5.546,5.546,0,0,1-.242,1.222,2.025,2.025,0,0,0-.38-.034,1.107,1.107,0,0,0-1.084.69c-.1.229.068.683-.13,1.021a14.257,14.257,0,0,1-1.144,1.2c-.425.492-.735,1-1.107,1.165-.485.224-1.863-.573-2.371-.878a12.922,12.922,0,0,0-2.152-1.43c0-.224-.2-.44-.214-.662a1.617,1.617,0,0,1-1.6-1.133c-.141.094-.281.2-.427.13a.763.763,0,0,0-.339-.62c-.172-.031-.339.089-.505.133a2.572,2.572,0,0,0-1.436-.9c-.2-.151.1-.315-.089-.466a5.57,5.57,0,0,0-1.4.427c-.959-.2-1.907,0-2.866-.276A4.607,4.607,0,0,0,127,27.5c-.782.4-1.579.521-2.366.883l-.161-.154c-.81.909-1.673-.039-2.5.065-.323-.419-.211-.855.318-1.3-.055-.206,0-.417-.261-.62-.287.193-.057.482-.1.748-.3.242-.167.474-.294.714-.19.261-.386.261-.573.521a1.261,1.261,0,0,1-.487.834,26.417,26.417,0,0,1-.521,2.8c-.62.052-1.355.886-1.845,1.3-.156.292.146.7.18.935.044.313-.156.623-.208,1.024-.068.521.224,1.024-.357,1.264-.732-.521-.5-1.563-1.386-2.084a1.013,1.013,0,0,0-.769.568,2.366,2.366,0,0,0,.459,1.123c-.237,1.188,1.063,2.931.894,4.208-.122.925-1.126.383-1.712.357a1.928,1.928,0,0,1-.644.92,2.409,2.409,0,0,0-3.142,1.139c-.042.664.654,1,.823,1.545-.339.6-.016,1.175-.62,1.779-.576-.065-.839.594-.99,1.042a.615.615,0,0,0-.615.487,1.269,1.269,0,0,1-.336,2.123c.039.143.208.281.052.43.122.086.464-.023.36.261-.1.055-.216-.221-.318-.149.016.219.261.185.4.383-.1.185-.076.367-.3.555-.261-.3-.44-.539-.758-.565C108.493,51.209,109.061,51.7,109.632,51.689Zm35.837-23.925a.208.208,0,0,1,0,.313C145.333,27.977,145.331,27.87,145.469,27.764Zm-.292.87a.206.206,0,0,1,0,.313C145.026,28.845,145.1,28.741,145.177,28.634Zm.112,1.251c.146.156-.307.479-.417.521C144.885,30.153,145.094,30.14,145.289,29.884ZM143.4,31.148c.042.036.081.076.12.115l-.151.159c-.117-.089-.07-.18.031-.274Zm-7.081,9.231.159.154-.151.159Q136.116,40.543,136.321,40.379Zm-1.357-5.643c.227.117.159.344-.029.352a.216.216,0,0,1,.029-.352Z" transform="translate(-82.802 -16.626)" fill="#ed1588"/>
      <path id="Path_112" data-name="Path 112" d="M80.087,146.654c-.063-.078-.029-.156.07-.237.159,0,.117.091.122.193.044-.094.261-.19.19-.279-.076.133-.159,0-.237,0a1.457,1.457,0,0,0,.545-.172c-.38-.417-1.06.261-1.548.67C79.524,147.107,79.8,146.542,80.087,146.654Z" transform="translate(-60.878 -107.982)" fill="#ed1588"/>
      <path id="Path_113" data-name="Path 113" d="M89.075,315.487c-.813.67.745,1.279.829.175C89.573,315.3,89.318,315.289,89.075,315.487Z" transform="translate(-67.985 -233.196)" fill="#37afe4"/>
      <path id="Path_114" data-name="Path 114" d="M89.733,277.75c-.128.109-.261.026-.386.245a3.37,3.37,0,0,0-2.256.607c-.98.982.74.823,1.344.435.378-.245.649-.643.917-.808.12-.07.542-.031.542-.328C89.754,278,89.845,277.781,89.733,277.75Z" transform="translate(-66.472 -205.386)" fill="#37afe4"/>
      <path id="Path_115" data-name="Path 115" d="M96.776,276c.141-.281.552-.211.5-.521C97.073,275.665,96.627,275.717,96.776,276Z" transform="translate(-73.83 -203.707)" fill="#37afe4"/>
      <path id="Path_116" data-name="Path 116" d="M99.51,273a1.512,1.512,0,0,0,1.154-.813C100.307,272.513,99.731,272.435,99.51,273Z" transform="translate(-75.874 -201.274)" fill="#37afe4"/>
      <path id="Path_118" data-name="Path 118" d="M118.536,299.74c-.261.07-.065.26-.261.438-.065-.081-.13-.039-.2-.115-.412.868-1.764.959-1.907,2.009.354-.133.891-.693,1.12-.617a9.7,9.7,0,0,0,1.258-1.323C118.51,300,118.585,299.868,118.536,299.74Z" transform="translate(-88.193 -221.646)" fill="#37afe4"/>
      <path id="Path_119" data-name="Path 119" d="M69.32,226.9c-.261.172-.521.133-.5.446C68.953,227.16,69.442,226.926,69.32,226.9Z" transform="translate(-53.182 -167.784)" fill="#37afe4"/>
      <path id="Path_120" data-name="Path 120" d="M56.718,226.766a2.641,2.641,0,0,1,.826.1,2.569,2.569,0,0,1,1.238-.659,2.29,2.29,0,0,1,.956-.847.68.68,0,0,1,.261-.594l-.2-.193c-1,.485-2.084,1.2-3.09,1.649C56.8,226.394,56.661,226.579,56.718,226.766Z" transform="translate(-44.22 -166.061)" fill="#37afe4"/>
      <path id="Path_121" data-name="Path 121" d="M49.166,233.33a1.138,1.138,0,0,1-.573.521c-.154-.1-.162-.206-.245-.307-.261.224-.432.427-.782.177a3.535,3.535,0,0,0-.456.482c.206-.109.472.174.479.378.159.026.521-.018.545-.169-.042.036-.042-.261.029-.354C48.579,233.861,49.358,233.911,49.166,233.33Z" transform="translate(-37.126 -172.539)" fill="#37afe4"/>
      <path id="Path_123" data-name="Path 123" d="M8.79,253.74c.219-.193.719-.141.693-.49C9.277,253.445,8.86,253.445,8.79,253.74Z" transform="translate(-8.79 -187.269)" fill="#37afe4"/>
      <path id="Path_124" data-name="Path 124" d="M73.814,255.66c-.117.128-.344.1-.344.284.188.177.367.044.547-.016-.047-.091-.279-.039-.2-.19C73.837,255.712,73.869,255.686,73.814,255.66Z" transform="translate(-56.618 -189.051)" fill="#37afe4"/>
      <path id="Path_125" data-name="Path 125" d="M211.815,343.091a2.248,2.248,0,0,0,.167-1.141.357.357,0,0,1-.232.162C211.906,342.435,211.687,342.768,211.815,343.091Z" transform="translate(-158.871 -252.859)" fill="#37afe4"/>
      <path id="Path_126" data-name="Path 126" d="M211.662,346.92c-.094.05-.042.279-.19.2.021-.021,0-.076-.042-.039a11.69,11.69,0,0,0,.12,1.563c.328-.193,1.042-.26,1-.81C212.222,347.462,211.761,347.261,211.662,346.92Z" transform="translate(-158.635 -256.534)" fill="#37afe4"/>
      <path id="Path_127" data-name="Path 127" d="M227.065,304.84c-.089.151-.18.107-.261.2.164.089.068.18.047.274-.474.459-.922,1.949.169,1.993C227.6,306.471,226.775,305.663,227.065,304.84Z" transform="translate(-169.663 -225.418)" fill="#37afe4"/>
      <path id="Path_128" data-name="Path 128" d="M77.353,219.853c.229.333.414.675.623.956a13.452,13.452,0,0,1-.164,7.173c-.261,1.081-.339,2.387-1.167,3.319-.709-.065-1.37-.951-1.725-1.563a.6.6,0,0,0-.094-.545,11.77,11.77,0,0,0,.149-3.293c0-.948-.206-1.918-.151-2.816.021-.336.2-.68.208-1.024a6.2,6.2,0,0,0-.664-2.209H48.816c-.177.117-.347.24-.5.362,0,.117.177.229.047.349.135.138.261-.068.393.068a2.981,2.981,0,0,0,.091.469c.328.12.651-.047.982.091.07-.287.492,0,.7-.331.175.2.339,0,.521-.052a3.547,3.547,0,0,1,1.824.735,2.347,2.347,0,0,1,2.222,1.042c.216.592-.333,1.159-.307,1.772-.469.367-.492,1.126-.933,1.707-.13.169-.357.276-.5.443-.534.628-.782,1.662-1.48,1.881-.62.7-1.264.547-1.889,1.107a9.445,9.445,0,0,0-1.983.56c-.12.026-.261-.057-.354-.031-.521.141-.68.479-1.232.818-.216.133-.5.13-.7.261-.261.156-.422.435-.688.644a6.1,6.1,0,0,1-2.131.878,6.824,6.824,0,0,1-3.111.865c-.2.188-.412.214-.615.487a.894.894,0,0,1-.031.274l.224.232a5.5,5.5,0,0,0,1.092-.185c1.4-1.238,2.84-1.235,4.252-2.069a14.129,14.129,0,0,0,4.025-.38c.537-.875,1.628-.107,2.168-1a5.4,5.4,0,0,1,1.36-.386,7.884,7.884,0,0,1,1.907-.482,9.126,9.126,0,0,1,1.178.125c.211.052.349.234.558.3.336.1.766-.07,1.1.128.026.13.193.261.245.386.68.206,1.24-.959,1.824-.636s.261.99.586,1.475c.5-.018.414-.922.842-.805,0-.081-.135-.154,0-.237a14.165,14.165,0,0,1,1.933-.99c.419-.782,1.183-.521,1.756-.318a2.132,2.132,0,0,1-.289,2.472c-.323,0-.414-.1-.7.018-.115-.167-.143-.143-.284-.344-.031.443-.409.214-.5.287.031-.023.089.141.083.156a2.237,2.237,0,0,0-.425.284c.208.214.294.182.326.383.13,0,.261-.169.386-.167.261.341.5.055.748.1.146.164.419.328.443.5a1.493,1.493,0,0,1,1.079.795,3.214,3.214,0,0,1,1.74.659,1.766,1.766,0,0,1,.664,1.391,7.338,7.338,0,0,1-.521,1.042c.8.013.925.461,1.743.74.237.148.115.307.247.461.446.492.938.248,1.271.672a2.051,2.051,0,0,0,.177.782c.261-.057.782.162.795.448.261-.261.521-.2.769-.565a1.832,1.832,0,0,0,1.636-.279c-.313-.615.367-1.1.542-1.777a4.563,4.563,0,0,1,1.459.391c1.72-1,3.179,1.063,2.965,2.587a2.735,2.735,0,0,1,1,.641c-.042.248-.284.5-.334.75-.292.013-.521.339-.9.065.063.292-.234.373-.456.56.32.477.3.875.7,1.352.292-.1.49-.2.706-.021.521-.638,1.071.49,1.157.873-.545.826-.894,2.168-1.806,2.788.042.052.12.1.081.156-.32.229-.052.443-.334.672.182.26.349.672-.133.946.24.651-.589,1.475-.065,2,.933-.438.31-1.383.73-2.056-.237-.24.261-.677.4-.99.315-.081.4-.318.74-.216.591.649,1.094,1.537,1.626,2.23a1.425,1.425,0,0,1,.87.37c.636-.675,1.3-.388,1.944-.6.18-.414.164-1.071.383-1.774-.417-.521-.039-1.042.117-1.563,0-.167-.164-.089-.164-.232.182-.162.081-.315.224-.474-.016-.782-.248-1.915-.193-2.866.036-.628-.122-1.331.229-1.766,1.37.078.276,1.647.414,2.376.193-.034.393.141.589.1.167-.091.135-.453.347-.2.185-.109-.089-.206.07-.315.795-.534,1.172-1.621,2.071-1.7.193-.122.125-.328.146-.4s.133,0,.154-.083c.237-.886-.031-1.863.122-2.866a3.2,3.2,0,0,1,.357-1.263c.443-.56,1.36-1.1,1.86-.831a2.015,2.015,0,0,1,.756,1.938,5.345,5.345,0,0,0,.612,1.027V219.853Zm-13.2,3.945c0,.06-.042.169-.115.12.151-.3-.808-.459-1.162-1.027.521-.758,1.376-.169,2.035-.13-.122.146-.047.289.05.427.294.281.576.055.862-.021.56.232.2.766.261,1.167.047.289.261.38.367.578.039.065-.026.159,0,.235.2.438.75.706.74,1.3C65.939,226.421,65.157,224.719,64.149,223.8Zm3.126,2.895c.55-.38,1.029.852,1.511.9a1.011,1.011,0,0,0,.49.782c.3.159.615-.2.826.094a1.906,1.906,0,0,0-.75,1.274c-.763-1.024-1.964-2.024-2.071-3.054Z" transform="translate(-31.233 -162.571)" fill="#37afe4"/>
      <path id="Path_129" data-name="Path 129" d="M235.1,290.3c.383-.383,1.162-.56.99-1.042C235.8,289.382,235.012,289.846,235.1,290.3Z" transform="translate(-176.133 -213.897)" fill="#37afe4"/>
      <path id="Path_130" data-name="Path 130" d="M185.487,355.26a1.649,1.649,0,0,0-.367.951A1.469,1.469,0,0,0,185.487,355.26Z" transform="translate(-139.179 -262.701)" fill="#37afe4"/>
      <path id="Path_131" data-name="Path 131" d="M166.728,316.07c-.133.06-.1.073-.261.2.057.169-.1.55.13.584-.1-.115.328-.091.229-.24C166.606,316.544,166.713,316.19,166.728,316.07Z" transform="translate(-125.386 -233.722)" fill="#37afe4"/>
      <path id="Path_132" data-name="Path 132" d="M182.845,361.62c.9-.69.349-1.68.68-2.486l-.12-.115C183.348,359.828,182.449,360.74,182.845,361.62Z" transform="translate(-137.423 -265.482)" fill="#37afe4"/>
      <path id="Path_133" data-name="Path 133" d="M200.874,339.52a1.042,1.042,0,0,0-.115,1.563C201.382,340.836,200.772,340.015,200.874,339.52Z" transform="translate(-150.522 -251.062)" fill="#37afe4"/>
      <path id="Path_134" data-name="Path 134" d="M127.947,296.647c.143-.044.281-.26.425-.284-.086-.065-.047-.13-.122-.193C128.009,296.251,127.822,296.42,127.947,296.647Z" transform="translate(-96.872 -219.006)" fill="#37afe4"/>
      <path id="Path_135" data-name="Path 135" d="M210.5,360.32c-.354.375-.412.818,0,1.06C211.28,361.321,210.858,360.5,210.5,360.32Z" transform="translate(-157.737 -266.443)" fill="#37afe4"/>
      <path id="Path_136" data-name="Path 136" d="M115.285,162.609a3.34,3.34,0,0,1-1.157,2.54,3.908,3.908,0,0,1-2.7,1.027h-3.072v4.919H107.07v-12.36h3.968a4.385,4.385,0,0,1,3.048,1.11A3.476,3.476,0,0,1,115.285,162.609Zm-1.269-.289a2.28,2.28,0,0,0-.909-1.743,3.127,3.127,0,0,0-2-.683h-2.751v5.161h2.829a2.9,2.9,0,0,0,2.009-.737A2.345,2.345,0,0,0,114.016,162.319Z" transform="translate(-81.464 -117.377)" fill="#121212"/>
      <path id="Path_137" data-name="Path 137" d="M147.7,171.544a2.243,2.243,0,0,0-1.381.466,3.176,3.176,0,0,0-.724.756,2.819,2.819,0,0,0-.3,1.412v5.471H144V170.5h1.139v1.3a2.827,2.827,0,0,1,2.556-1.477Z" transform="translate(-108.773 -125.95)" fill="#121212"/>
      <path id="Path_138" data-name="Path 138" d="M166.152,160.759H164.93V158.62h1.222Zm0,10.252H164.93v-9.166h1.222Z" transform="translate(-124.25 -117.293)" fill="#121212"/>
      <path id="Path_139" data-name="Path 139" d="M191,179.627h-1.269V174a2.783,2.783,0,0,0-.612-1.824,1.962,1.962,0,0,0-1.6-.756,2.522,2.522,0,0,0-1.746.659,2.113,2.113,0,0,0-.729,1.639v5.9H183.75v-5.891a2.113,2.113,0,0,0-.73-1.639,2.509,2.509,0,0,0-1.743-.659,1.933,1.933,0,0,0-1.592.748,2.84,2.84,0,0,0-.594,1.824v5.625H177.82v-5.471a3.862,3.862,0,0,1,.982-2.762,3.59,3.59,0,0,1,2.41-1.11,3.279,3.279,0,0,1,3.181,1.7,3.279,3.279,0,0,1,3.181-1.7,3.647,3.647,0,0,1,2.428,1.11,3.832,3.832,0,0,1,1,2.762Z" transform="translate(-133.781 -125.91)" fill="#121212"/>
      <path id="Path_140" data-name="Path 140" d="M246.032,175.228H237.8a3.387,3.387,0,0,0,1.172,2.282,3.512,3.512,0,0,0,2.428.883,3.246,3.246,0,0,0,3.1-2.009h1.3a4.734,4.734,0,0,1-4.447,3.22,4.513,4.513,0,0,1-3.325-1.373,4.781,4.781,0,0,1-.026-6.894,4.5,4.5,0,0,1,3.543-1.376,4.711,4.711,0,0,1,3.184,1.511,4.4,4.4,0,0,1,1.3,3.085Zm-1.2-1.126a3.523,3.523,0,0,0-1.206-2.084A3.577,3.577,0,0,0,237.8,174.1Z" transform="translate(-177.214 -125.674)" fill="#121212"/>
      <path id="Path_141" data-name="Path 141" d="M289.7,174.99a4.715,4.715,0,0,1-1.43,3.447,4.429,4.429,0,0,1-3.408,1.363,4.6,4.6,0,0,1-3.387-1.623v4.611h-1.191v-7.782a4.708,4.708,0,1,1,9.416-.016Zm-1.222.1a3.611,3.611,0,0,0-.969-2.543,3.286,3.286,0,0,0-2.4-1.139,3.2,3.2,0,0,0-2.592,1.042,3.6,3.6,0,0,0-1.042,2.647,3.559,3.559,0,0,0,1.042,2.486,3.254,3.254,0,0,0,2.423,1.042,3.387,3.387,0,0,0,2.486-1.042,3.533,3.533,0,0,0,1.058-2.493Z" transform="translate(-209.546 -125.868)" fill="#121212"/>
      <path id="Path_142" data-name="Path 142" d="M327.387,171.544a2.243,2.243,0,0,0-1.381.466,3.175,3.175,0,0,0-.724.756,2.82,2.82,0,0,0-.3,1.412v5.471H323.69V170.5h1.141v1.3a2.827,2.827,0,0,1,2.556-1.477Z" transform="translate(-241.647 -125.95)" fill="#121212"/>
      <path id="Path_143" data-name="Path 143" d="M345.822,160.759H344.6V158.62h1.222Zm0,10.252H344.6v-9.166h1.222Z" transform="translate(-257.109 -117.293)" fill="#121212"/>
      <path id="Path_144" data-name="Path 144" d="M365.5,179.6h-1.222v-5.351a2.879,2.879,0,0,0-2.822-2.829,2.751,2.751,0,0,0-2,.836,2.7,2.7,0,0,0-.847,1.993V179.6h-1.222V174.38a4.067,4.067,0,0,1,1.157-2.965,4.169,4.169,0,0,1,5.8,0,4.067,4.067,0,0,1,1.157,2.965Z" transform="translate(-266.569 -125.886)" fill="#121212"/>
      <path id="Path_145" data-name="Path 145" d="M399.873,171.248q-3.343,0-3.343-2.845V158.68h1.222v3.21h2.121v1.141h-2.121v5.164q0,2.04,2.121,2.04Z" transform="translate(-295.509 -117.338)" fill="#121212"/>
      <path id="Path_146" data-name="Path 146" d="M277.428,313.681c-.479,1-1.462,2.319-1.245,3.322.365-.964,1.858-1.954,1.136-3.046C277.415,313.885,277.655,313.616,277.428,313.681Z" transform="translate(-206.494 -231.948)" fill="#121212"/>
      <path id="Path_147" data-name="Path 147" d="M281.585,321.916c-.357-.136-.972,1.006-.558,1.152.8.279.521-.688.6-1.042s.367-.37.3-.636C281.7,321.5,281.3,321.9,281.585,321.916Z" transform="translate(-209.997 -237.656)" fill="#121212"/>
      <path id="Path_148" data-name="Path 148" d="M273.26,330.909c.081.13.156,0,.232,0-.06-.078.044-.359-.162-.307C273.349,330.7,273.422,330.9,273.26,330.909Z" transform="translate(-204.356 -244.463)" fill="#121212"/>
      <path id="Path_149" data-name="Path 149" d="M254.726,369.237c-.039.065-.016.13-.115.2-.143-.031-.052-.247-.159-.151-.373.492-.73.985-.393,1.456.039-.021.078-.013.12.039.862-.333.435-1.042.662-1.665.089-.247.357-.245.3-.555-.182.26-.453.539-.568.68C254.619,369.2,254.671,369.157,254.726,369.237Z" transform="translate(-190.058 -272.536)" fill="#121212"/>
      <path id="Path_150" data-name="Path 150" d="M271.163,331.889c.021.023.076.013.037-.039-.2,0-.107.169-.109.276-.881.474-.477,1.1-1.008,1.868.115.089.159.177.047.274-.091.016-.185-.026-.261.047a2.035,2.035,0,0,1-.6.956c.261.3-.414.628.06.74.109-.573.912-1,.815-1.665a7.049,7.049,0,0,0,1.126-1.988C271.26,332.2,271.075,332.051,271.163,331.889Z" transform="translate(-201.318 -245.391)" fill="#121212"/>
      <path id="Path_151" data-name="Path 151" d="M246.623,334.25a.143.143,0,0,1-.151.24c.068,1.016-1.021,2.064-.078,3.056.836-.122.823-1.376.341-1.967C246.75,335.177,246.975,334.386,246.623,334.25Z" transform="translate(-184.203 -247.165)" fill="#121212"/>
      <path id="Path_152" data-name="Path 152" d="M291.472,286.83c-.737.756-.328,2.118-.659,3.267-.044.156-.2.261-.143.474-.347,1.172-1.3,2.358-1.2,3.517,1.149-1.167,2.306-2.54,2.063-3.538-.021.068-.294-.055-.521-.107a7.594,7.594,0,0,0,.8-2.371A2.28,2.28,0,0,1,291.472,286.83Z" transform="translate(-216.336 -212.1)" fill="#121212"/>
      <path id="Path_153" data-name="Path 153" d="M405.81,284.552c.162.06.521.206.547-.013C406.2,284.661,405.833,284.359,405.81,284.552Z" transform="translate(-302.371 -210.367)" fill="#121212"/>
      <path id="Path_154" data-name="Path 154" d="M367.355,265.6c-.06-.089.037-.185-.125-.261C367.069,265.405,367.235,265.663,367.355,265.6Z" transform="translate(-273.793 -196.209)" fill="#121212"/>
      <path id="Path_155" data-name="Path 155" d="M367.188,259c-.318.107-.367.61-.448.795.148-.063.216.2.044.274.2.073.208.26.438.185.164-.261-.177-.654.063-.55C366.993,259.414,367.35,259.081,367.188,259Z" transform="translate(-273.48 -191.521)" fill="#121212"/>
      <path id="Path_156" data-name="Path 156" d="M295.429,223.719c.167-.149.284-.294.261-.438-1.219-1.008-1.67-1.938-2.767-2.475a10.139,10.139,0,0,0-.81-.946H244.14v19.2a6.048,6.048,0,0,1,.7,1.131c-.219.281-.042.55.06.823a8.86,8.86,0,0,0-.261,3.648,3.688,3.688,0,0,1,.623,1.355c-.323.558-.722,1.951.174,2.228.813-1.042.023-2.374.065-3.525.125-.159.122-.261.3-.323a9.619,9.619,0,0,0,.261-2.2c.409-.638-.159-1.251.029-1.881.076-.081.151-.161.229-.24a27.1,27.1,0,0,0,.972-6.175c1.212-.495,1.548-1.352,2.652-1.988.151.1.336.065.474.143a3.861,3.861,0,0,1,1.211,1.456c.094.925-.135,2.066.505,2.845-.021.406.3.865.388,1.36-.138.109-.091.214-.148.318.617,1.824-.646,3.773.537,5.549.052-.042.1.016.159.073.922-.313.982-1.441,1-2.1-.154.125-.3.451-.464.261.057-.167.221-.182.38-.4.206-1.251-.87-2.512-.688-3.859.034-.261.328-.62.4-.99.029-.138-.05-.261,0-.391.117-.365.414-1.146.711-1.3a6.8,6.8,0,0,1,1.662.662c.472-.2,1.013.177,1.524-.078.446-.224.745-.7,1.277-.62.333.289.654,0,.987.326.414-.112.9-.115,1.326-.19s.878-.076,1.008-.419c0-.206-.13.052-.24-.151.068-.091-.034-.182.034-.274.38-.378.925-.292,1.355-.623.094-.073.057-.2.148-.24a1.579,1.579,0,0,1,1.058-.065c1.324.67-.055,2.381.479,3.434-.292,1.274-1.157,2.42-1.469,3.648-.112.43-.07.891-.2,1.337-.063.214-.3.435-.18.672.831-.693,2.605-2.084,2.345-3.431.185-.107,0-.208.149-.315a5.26,5.26,0,0,1,.474-2.832c0-.107-.18-.206-.086-.313a6.011,6.011,0,0,0,.474-1.3c.138.037.67-.37.456-.563.352-.089.685-.641.836-.961.32-.219.649-.177.967-.456a.523.523,0,0,0,.855-.261c.091-.047.185.047.276.031.6-.69,1.514-1.9,2.5-1.907.214-.334.922-.521,1.23-.894a2.766,2.766,0,0,1,2.585,0c-.083.237.117.469.018.706.089-.13.19.24.279.109-.052-.261.078-.31.1-.521.2-.018.242-.159.261-.359,1.769-.44,3.762.315,5.435,1.11-.065.068-.128.135-.193.2.276.242.107.5.451.732.237.969,0,1.858.578,2.689.2.284.534.432.766.724s.235.8.651,1c.115-.133.235-.034.347-.206,0-.229-.021-.433-.169-.464.07-.044.115-.023.115-.122-.2-.227-.222-.633-.448-.732.1-.146-.018-.287.107-.432-.4-1.154-1.4-2.624-1.709-3.908.451-.69.93-.427,1.391-.743a2.734,2.734,0,0,1,.094-.9c-.177.109-.143-.089-.279-.19.4-.8,1.36-1.631,2.118-1.347-.117.716,1.128,1.172.987,1.855.174.141.344.2.521.339-.076.1-.159-.068-.234,0a5.654,5.654,0,0,1,.87,1.9,6.935,6.935,0,0,0,.633,1.667c.078.109.287.487.555.3,0-.216-.083-.224-.167-.388.1-.151.193-.052.19-.2a29.254,29.254,0,0,0-1.175-3.025c-.412-.654-1.042-1.071-1.1-1.733-.107-.078-.206.167-.313,0,.073-.146.154-.049.229-.164-.141-.537-.644-1.141-.12-1.641-.146-.472-.12-1.212-.469-1.436.229-.2.261-.281.146-.4.7-.706,1.4.959,2.006.378.32-.3,0-.782-.029-1.172-.078,0-.154.135-.235,0a.8.8,0,0,1,.722-.842c1.042-1.3,2.428-.735,3.619-.839.12.479.617.138.685.649a.935.935,0,0,1,.55.141c-.2.558.847,2.246,1.7,2.071a1,1,0,0,0,.034-.261C295.643,223.583,295.547,223.893,295.429,223.719Zm-4-3.343c0-.12.26-.2.38-.4.151.154-.2.573-.373.4Z" transform="translate(-182.822 -162.578)" fill="#121212"/>
      <path id="Path_157" data-name="Path 157" d="M365.061,268.728c-.143-.076-.049-.156-.162-.232.141-.109.091-.211.149-.318a1.439,1.439,0,0,1-.274-.508c-.026.052-.143.081-.169.091.26.279-.214.847.034,1.251-.349.761-1.3,1.608-.8,2.293.261.349.568.227.839.644a1.805,1.805,0,0,0,.318,1.6.285.285,0,0,1,.235,0c.37-.521-.159-1.013-.237-1.522.036-.341.344-.485.451-.795C365.744,270.335,364.655,269.666,365.061,268.728Z" transform="translate(-271.228 -197.932)" fill="#121212"/>
      <path id="Path_158" data-name="Path 158" d="M308.608,314.871a1.489,1.489,0,0,0,1.006-2.024C308.595,312.8,307.487,313.85,308.608,314.871Z" transform="translate(-230.147 -231.337)" fill="#121212"/>
      <path id="Path_159" data-name="Path 159" d="M367.78,267.4l.016.07a.055.055,0,0,0-.016-.07Z" transform="translate(-274.249 -197.732)" fill="#121212"/>
      <path id="Path_160" data-name="Path 160" d="M398.784,48.718c0,.2-.352.19-.107.354.922-.886.349-2.084,1.016-3.082l-.2-.19c-.1.115-.143.018-.154.162,0,.9-.711,1.824-.829,2.723C398.606,48.9,398.687,48.517,398.784,48.718Z" transform="translate(-296.973 -33.867)" fill="#fcee27"/>
      <path id="Path_161" data-name="Path 161" d="M392.327,73.676a.81.81,0,0,0-.18.67,3.7,3.7,0,0,0,.8-2.29c.06-.521.367-.9.044-1.256-.419.18-.3.5-.409.834-.081.261-.261.472-.333.675-.156.456.034.941-.162,1.3C392.171,73.778,392.244,73.5,392.327,73.676Z" transform="translate(-292.226 -52.354)" fill="#fcee27"/>
      <path id="Path_162" data-name="Path 162" d="M385.22,103.105c.521-.521.357-1.391.693-1.938.042-.068.177-.1.229-.162.649-.716-.057-1.389.06-2.235a2.655,2.655,0,0,0-.485,2.441c-.062.05-.13,0-.2.044C385.741,101.865,384.868,102.5,385.22,103.105Z" transform="translate(-287.083 -73.037)" fill="#fcee27"/>
      <path id="Path_163" data-name="Path 163" d="M384.885,116.478c.1-.109.245-.216.148-.318C384.979,116.264,384.7,116.379,384.885,116.478Z" transform="translate(-286.853 -85.896)" fill="#fcee27"/>
      <path id="Path_164" data-name="Path 164" d="M384.659,118.508c-.086-.049-.047-.156-.122-.115.1.117-.328.094-.229.242C384.422,118.484,384.547,118.74,384.659,118.508Z" transform="translate(-286.46 -87.54)" fill="#fcee27"/>
      <path id="Path_165" data-name="Path 165" d="M406.557,36.012l-.122-.112c-.261.482-.758,1.3-.576,1.894C406.205,37.2,406.213,36.609,406.557,36.012Z" transform="translate(-302.378 -26.547)" fill="#fcee27"/>
      <path id="Path_166" data-name="Path 166" d="M418.9,129.428a.659.659,0,0,0-.3-1.128C417.349,127.849,418.039,130.1,418.9,129.428Z" transform="translate(-311.323 -94.828)" fill="#fcee27"/>
      <path id="Path_167" data-name="Path 167" d="M321.623,96.372c1.232-.073,2.605.284,3.689-1.154a4.612,4.612,0,0,1,.138-.782,2.991,2.991,0,0,0-1.042-1.3c-1.115-.373-2.605-.8-3.6.172C319.857,94.223,320.276,95.718,321.623,96.372Z" transform="translate(-239.134 -68.557)" fill="#fcee27"/>
      <path id="Path_168" data-name="Path 168" d="M324.1,147.017c-.138-.063-.3-.406-.242-.229.07.094.029.388.128.349C323.934,147.066,324.044,147.022,324.1,147.017Z" transform="translate(-241.763 -108.507)" fill="#fcee27"/>
      <path id="Path_169" data-name="Path 169" d="M416.645,0c-.261.573-.834,1.48-.61,2.17A3.629,3.629,0,0,0,416.645,0Z" transform="translate(-309.895)" fill="#fcee27"/>
      <path id="Path_170" data-name="Path 170" d="M376.44,143.591c.042.063.023.128.122.19.089-.1.177-.2.261-.2-.161-.089.07-.185-.044-.261C376.734,143.586,376.661,143.469,376.44,143.591Z" transform="translate(-280.653 -105.98)" fill="#fcee27"/>
      <path id="Path_171" data-name="Path 171" d="M281.253,134.309c-.261.521,1.2,1.641,1.7,2.071a15.31,15.31,0,0,1,1.756,1.868h.829a11.9,11.9,0,0,0-1.808-2.2,10.731,10.731,0,0,1-1-.873c-.3-.336-.769-1.071-1.141-1.1C281.458,134.049,281.346,134.114,281.253,134.309Z" transform="translate(-210.243 -99.137)" fill="#fcee27"/>
      <path id="Path_172" data-name="Path 172" d="M307.622,140.323c.146-.141.261-.172.261-.281-.076.068-.159-.1-.237-.073C307.583,140.089,307.491,140.209,307.622,140.323Z" transform="translate(-229.716 -103.499)" fill="#fcee27"/>
      <path id="Path_173" data-name="Path 173" d="M257.287,72.059a15.311,15.311,0,0,0-1.756-1.868c-.495-.43-1.962-1.542-1.7-2.071.094-.185.206-.261.331-.24.373.034.842.782,1.141,1.1a10.706,10.706,0,0,0,1,.873,12.258,12.258,0,0,1,1.808,2.2h3.155a2.1,2.1,0,0,0-.138-.367c-.852.287-1.344-1.225-.782-1.665-.169-.172-.334-.1-.4-.3a1.08,1.08,0,0,1,.023-.589,8.841,8.841,0,0,1,2.449-2.256c.539-.354,1.068-.492,1.222-1.131-.073-.336.026-.677-.417-1.006-.234-.026-.472-.016-.706-.06a11.546,11.546,0,0,1-2.189,1.662c-1.042-.1-2.056,1.266-3.111.865a4.948,4.948,0,0,1-.185-1.013c.815-.688-.229-1.326.146-2-.68-.724-1.733-1.063-1.5-2.037.161.089-.016.185.047.261a2.37,2.37,0,0,1,1.019.052c.148-.2-.083-.391.1-.591.128.214.169.227.357.109-.138-.224-.4-.539-.638-.453-.047.206.227-.055.159.151-.443.156-.393-.279-.6-.492-.3-.31-.769-.357-1.073-.638-.6-.55-.261-1.626-.881-2.209.042-.7.451-1.373-.169-1.915a13.853,13.853,0,0,1-1.878-1.477,4.109,4.109,0,0,1-.93-2.457,7.719,7.719,0,0,0,.808-1.98c.222-.651.857-1.248,1.2-2.066.221-.521.2-1.12.586-1.506.141-.138.357-.112.542-.261.758-.552,1.1-1.777.023-2.116-.477.375-1.076.826-1.139,1.363.907.956-.732,2.314-.891,3.429-.049-.039,0-.117-.081-.076-.782,1.185-1.967,3.814-3.515,3.3-.928-1.36-.177-3.033-2.233-4.486-.3.042-.6-.091-.9-.016.571.612-.782,1.253-1.454,1.36V72.059Zm-2.264-4.791h0a.334.334,0,0,1,0,.469h0a.423.423,0,0,0-.078-.018.13.13,0,0,0-.078.023h0C254.694,67.562,254.77,67.237,255.023,67.268Zm-1.988,0c.26-.021.451.464.284.677h0a.808.808,0,0,1-.56-.456.4.4,0,0,1,.276-.227Zm-1.678.571h0a.362.362,0,0,1,.24.151c-.065.078-.13.036-.193.122h0c-.117-.094-.159-.185-.047-.279Zm-.972-4.2c.185.112-.026.339-.151.159.107-.112.01-.149.151-.164Zm-2.665,2.887c.029.042.052.021.078,0,.117.089.078.18-.031.274-.117-.094-.159-.185-.047-.279Z" transform="translate(-182.822 -32.958)" fill="#fcee27"/>
      <path id="Path_174" data-name="Path 174" d="M281.949,14.973c.782.313,1.873-.578,1.957-1.5a1.209,1.209,0,0,0-1.975-.654A1.219,1.219,0,0,0,281.949,14.973Z" transform="translate(-204.212 2.62)" fill="#fcee27"/>
      <path id="Path_175" data-name="Path 175" d="M271.691,134.134c.063-.086.128-.044.193-.122a.362.362,0,0,0-.24-.151C271.538,133.954,271.579,134.045,271.691,134.134Z" transform="translate(-203.115 -98.984)" fill="#fcee27"/>
      <path id="Path_176" data-name="Path 176" d="M319.664,122.079c-.068.216-.089.578.214.659.049.261-.039.422.055.664-.013-.036.445.146.164.31.091-.026.182-.07.276.031.047.373-.12.836.227,1.131-.261-.521.208-.193.274.031s-.141.539-.023.589c-.076.078-.159-.055-.235.083.055.081.162.039.122.115a1.166,1.166,0,0,1-.062.2h22.732a2.222,2.222,0,0,0,.182-.951c-.292-.164-.13-.336-.287-.5-.388-.036-.633-.362-1.1-.284-.341.057-.505.391-.816.216-.206-.115-.208-.313-.406-.537a14.466,14.466,0,0,1,.56-2.522.917.917,0,0,1-.443-.5c-.221-.042-.485.107-.5.287.034-.091.248-.1.156,0-.26.133.024.036-.07.237a.521.521,0,0,0-.391.089.584.584,0,0,1-.7.331c-.521-.169-.367-.711-.815-1.232-.219-.261-.625-.414-.758-.568-.521-.612-.782-1.454-1.188-1.967-.065.214-.12.12-.276-.031-.32.628.133,1.4-.847,2.022a9.588,9.588,0,0,1-2.04-.1c-.362-.67-1.115-.974-1.376-1.688a1.564,1.564,0,0,1-.315-.07,2.326,2.326,0,0,1-2.446.729c-.547.571-1.115.367-1.667.633a2.093,2.093,0,0,0-1.777-.464c-.935-.323-.868-1.787-1.8-1.636a6.321,6.321,0,0,1-.169,1.06.156.156,0,0,1,.2.034,4.388,4.388,0,0,1-.49.836c-.565.99-1.785,2.345-2.915,2.269-.5-.031-.836-.521-1.219-.164-.234.214-.135.625-.294.711C319.479,122.064,319.57,121.962,319.664,122.079Zm14.937,2.037h0c.115.089-.117.185.044.261-.091,0-.18.1-.261.2h0c-.1-.063-.081-.128-.122-.19C334.475,124.278,334.548,124.4,334.6,124.117Z" transform="translate(-238.467 -86.789)" fill="#fcee27"/>
      <path id="Path_177" data-name="Path 177" d="M306.434,141.486a.261.261,0,0,0,.109-.276C306.423,141.21,306.267,141.382,306.434,141.486Z" transform="translate(-228.833 -104.419)" fill="#fcee27"/>
      <path id="Path_178" data-name="Path 178" d="M285.071,132.158a.13.13,0,0,1,.078-.023.424.424,0,0,1,.078.018.333.333,0,0,0,0-.469C284.961,131.653,284.886,131.978,285.071,132.158Z" transform="translate(-213.014 -97.374)" fill="#fcee27"/>
      <path id="Path_179" data-name="Path 179" d="M277.22,131.89a.808.808,0,0,0,.56.456c.167-.214-.021-.7-.284-.677A.4.4,0,0,0,277.22,131.89Z" transform="translate(-207.284 -97.363)" fill="#fcee27"/>
      <path id="Path_180" data-name="Path 180" d="M294.622,10.334c-.972-.857-2.345.623-1.688,1.376C293.866,12.778,295.666,11.254,294.622,10.334Z" transform="translate(-212.69 4.447)" fill="#fcee27"/>
      <path id="Path_181" data-name="Path 181" d="M418.482,156.757a3.853,3.853,0,1,0-3.832-3.853,3.853,3.853,0,0,0,3.832,3.853m0-7.321a3.47,3.47,0,1,1-3.45,3.468,3.47,3.47,0,0,1,3.45-3.468" transform="translate(-308.908 -110.217)" fill="#cb4542"/>
      <path id="Path_182" data-name="Path 182" d="M424.432,157.327a.1.1,0,0,0,.1.1H426.4a.1.1,0,1,0,0-.2h-1.871a.1.1,0,0,0-.1.1m.758-.2a.435.435,0,0,0,.435-.435v-.086a.1.1,0,0,0-.1-.1.1.1,0,0,0-.1.1v.086a.235.235,0,0,1-.234.234h-.521a.1.1,0,0,0,0,.2Zm-.464,1.042a.146.146,0,1,0,.143-.146.143.143,0,0,0-.143.146m1.766-.646h-2.048a.1.1,0,0,0-.094.065,1.2,1.2,0,0,0-.078.425v.057l-.31.6a.1.1,0,0,0,.086.148h.234v.373a.386.386,0,0,0,.386.386h.435v.2a.1.1,0,0,0,.1.1.1.1,0,0,0,.1-.1v-.294a.1.1,0,0,0-.1-.1h-.534a.185.185,0,0,1-.185-.185v-.474a.1.1,0,0,0-.1-.1h-.169l.261-.479a.141.141,0,0,0,0-.047v-.083a1.075,1.075,0,0,1,.042-.287h1.907a1.07,1.07,0,0,1,.042.287,1,1,0,0,1-.287.7.1.1,0,0,0-.042.078v.985a.1.1,0,0,0,.1.1.1.1,0,0,0,.1-.1v-.941a1.185,1.185,0,0,0,.328-.826,1.2,1.2,0,0,0-.078-.425.1.1,0,0,0-.094-.065m.216-1.738h-.821v-.073a.1.1,0,0,0-.1-.1h-.526a.1.1,0,0,0-.1.1v.078h-.816a.1.1,0,1,0,0,.2h.816v.094a.091.091,0,0,0,.026.065l.2.232a.107.107,0,0,0,.076.034h.135a.1.1,0,0,0,.076-.034l.2-.232a.1.1,0,0,0,.023-.065v-.094h.818a.1.1,0,0,0,0-.2m-1.019.261-.143.167h-.044l-.146-.167v-.232h.334Z" transform="translate(-315.785 -115.068)" fill="#221f1f"/>
    </g>
  </g>
</svg>
