<svg xmlns="http://www.w3.org/2000/svg" width="17.419" height="17.255" viewBox="0 0 17.419 17.255">
  <g id="Group_590" data-name="Group 590" transform="translate(-25.178 -25.643)">
    <g id="Group_589" data-name="Group 589" transform="translate(25.999 26.044)">
      <path id="Path_912" data-name="Path 912" d="M56.944,32.109,50.98,26.142a.339.339,0,0,0-.477,0L48.46,28.184a1,1,0,0,1,.283.194l5.964,5.967a.96.96,0,0,1,.2.277l2.04-2.04a.335.335,0,0,0,0-.474Z" transform="translate(-40.913 -26.044)" fill="none" stroke="#090647" stroke-width="0.8"/>
      <path id="Path_913" data-name="Path 913" d="M33.354,34.215a.339.339,0,0,0-.376-.067l-3.931,1.761a.344.344,0,0,0-.188.222l-2.184,8.434,0-7.446a.336.336,0,1,0-.672,0l0,9.462v.433h.037l.635-.635,4.089-4.086a1.87,1.87,0,1,1,1.539.81,1.829,1.829,0,0,1-1.062-.336l-4.623,4.62-.091.091L26.5,47.5l10.9-2.829a.328.328,0,0,0,.222-.188l1.764-3.931a.329.329,0,0,0-.071-.373Z" transform="translate(-25.999 -31.405)" fill="none" stroke="#090647" stroke-width="0.8"/>
    </g>
  </g>
</svg>
