<svg id="Page-1" xmlns="http://www.w3.org/2000/svg" width="11.616" height="11.063" viewBox="0 0 11.616 11.063">
  <g id="Dribbble-Light-Preview" transform="translate(0 0)">
    <g id="icons">
      <path id="zoom_in-_1462_" data-name="zoom_in-[#1462]" d="M328.227,283.854h1.162a.555.555,0,1,1,0,1.109h-1.162v1.109a.581.581,0,0,1-1.162,0v-1.109H325.9a.555.555,0,1,1,0-1.109h1.162v-1.109a.581.581,0,0,1,1.162,0Zm6.219,7.047a.6.6,0,0,1-.821,0l-2.295-2.191.821-.784,2.294,2.19a.537.537,0,0,1,0,.784Zm-6.8-3.137a3.331,3.331,0,1,1,3.485-3.327A3.413,3.413,0,0,1,327.647,287.764Zm0-7.764a4.441,4.441,0,1,0,4.646,4.436A4.545,4.545,0,0,0,327.647,280Z" transform="translate(-323 -280)" fill="#fffffe"/>
    </g>
  </g>
</svg>
