<svg xmlns="http://www.w3.org/2000/svg" width="12.469" height="10.928" viewBox="0 0 12.469 10.928">
  <path id="XMLID_1308_" d="M5.306,7.981a.694.694,0,0,1,.7-.7h7.761a.7.7,0,0,1,0,1.4H6.007A.694.694,0,0,1,5.306,7.981Zm8.462,3.783H6.007a.7.7,0,1,0,0,1.4h7.761a.7.7,0,1,0,0-1.4Zm0,4.483H6.007a.7.7,0,1,0,0,1.4h7.761a.7.7,0,1,0,0-1.4ZM2.981,11.539a.995.995,0,1,0,.981.995A.987.987,0,0,0,2.981,11.539ZM2.981,7a.995.995,0,1,0,.981.995A.987.987,0,0,0,2.981,7Zm0,8.938a.995.995,0,1,0,.981.995A.987.987,0,0,0,2.981,15.938Z" transform="translate(-2 -7)" fill="#090647"/>
</svg>
