<svg xmlns="http://www.w3.org/2000/svg" width="38" height="38" viewBox="0 0 38 38">
  <g id="Group_628" data-name="Group 628" transform="translate(-0.5 -0.5)">
    <rect id="Rectangle_510" data-name="Rectangle 510" width="38" height="38" rx="19" transform="translate(0.5 0.5)" fill="#fff"/>
    <path id="Path_1636" data-name="Path 1636" d="M269.4,234.347c3.355-3.132,4.847-8.351,3.952-13.347H260v5.518h7.606a6.28,6.28,0,0,1-2.833,4.25Z" transform="translate(-240.291 -204.199)" fill="#4285f4"/>
    <path id="Path_1637" data-name="Path 1637" d="M90,295.654a14.317,14.317,0,0,0,22.071,4.4l-4.623-3.579A8.545,8.545,0,0,1,94.7,292Z" transform="translate(-82.967 -269.904)" fill="#34a853"/>
    <path id="Path_1638" data-name="Path 1638" d="M76.225,179.1a8.5,8.5,0,0,1,0-5.443L71.527,170a14.408,14.408,0,0,0,0,12.751Z" transform="translate(-64.494 -157.001)" fill="#fbbc02"/>
    <path id="Path_1639" data-name="Path 1639" d="M94.7,76.642c1.64-5.145,8.65-8.128,13.347-3.728l4.1-4.027A14.08,14.08,0,0,0,90,72.988Z" transform="translate(-82.967 -59.989)" fill="#ea4335"/>
  </g>
</svg>
