<svg id="Layer_2" data-name="Layer 2" xmlns="http://www.w3.org/2000/svg" width="411.778" height="398.413" viewBox="0 0 411.778 398.413">
  <g id="Background_Complete" data-name="Background Complete">
    <path id="Path_1340" data-name="Path 1340" d="M17.91,426.746c-1.3-1.108-4.188-4.624-1.962-8.722.818-1.5,2.553-2.244,4.125-2.9a16.662,16.662,0,0,0,4.543-2.344c2.453-2.081,3.125-5.542,4.752-8.331,1.872-3.189,5.351-5.578,9.031-5.451,4.225.2,7.732,3.634,9.331,7.568s1.644,8.277,1.681,12.52c0,2.344-.082,4.988-1.817,6.569-1.6,1.508-3.988,1.508-6.142,1.454L18.41,426.4" transform="translate(-1.384 -36.492)" fill="#f5f5f5"/>
    <path id="Path_1341" data-name="Path 1341" d="M60.591,359.81H0l10.9,65.079a7.268,7.268,0,0,0,5.179,5.8l.209.055c.182.045.354.109.536.136a7.914,7.914,0,0,0,1.236.145v.064l.3-.045H45.427A7.777,7.777,0,0,0,53,424.489l5.26-44.837.236-1.817h0l2.081-17.762ZM49.161,401.321H42.938l.672-18.889h7.2Zm2.217-18.889h5.951l-2.217,18.889H49.761Zm-17.762,39.83-.373-16.408h8.949l-.545,16.408Zm-9.685-16.408h8.7l.373,16.408H25.2Zm.672,16.408H17.335c-.69-4.434-1.59-10.194-2.571-16.408h8.595Zm-.981-20.942-1.463-18.889h9.994l.436,18.889Zm9.549,0-.463-18.889H42.965l-.627,18.889Zm-.536-23.413-.4-17.489H43.692l-.572,17.489Zm-.6,0H21.8l-1.363-17.489H31.581Zm-10.83,0H10.339c-.391-2.417-.754-4.706-1.081-6.76-1.127-7.068-1.554-9.73-1.817-10.73H19.8Zm.345,4.543,1.472,18.889H14.028c-.3-1.917-.609-3.852-.909-5.8-.709-4.452-1.408-8.913-2.071-13.092Zm-8.086,18.889h-5.9L4.406,382.433h6.033c.927,5.842,1.953,12.338,2.98,18.889Zm.709,4.543c.909,5.678,1.772,11.275,2.571,16.408h-5.66L8.359,405.882ZM42.338,422.29l.545-16.408h5.978l-1.4,16.408Zm1.472-44.355.581-17.489h8.3l-1.49,17.489ZM6.9,360.419c.245,1.263,1.345,8.177,2.826,17.489H3.634L.709,360.419Zm45.8,61.844H47.971l1.4-16.408h5.206ZM57.9,377.908H51.787l1.5-17.489h6.651Z" transform="translate(0 -32.908)" fill="#e0e0e0"/>
    <path id="Path_1342" data-name="Path 1342" d="M360.155,342.532a30.79,30.79,0,0,0-13.219-4.543c-2.153-.227-4.543-.163-6.251,1.145a1.308,1.308,0,0,0-.645,1.145,1.408,1.408,0,0,0,.618.781,18.9,18.9,0,0,0,19.5,1.472" transform="translate(-31.1 -30.903)" fill="#e0e0e0"/>
    <path id="Path_1343" data-name="Path 1343" d="M360.393,340.464a64.653,64.653,0,0,1-8.54-7.514,21.651,21.651,0,0,1-5.351-9.894,4.007,4.007,0,0,1,.427-3.316c6.8,5.315,12.147,12.193,13.465,20.724" transform="translate(-31.674 -29.243)" fill="#e0e0e0"/>
    <path id="Path_1344" data-name="Path 1344" d="M362.066,340.85a30.79,30.79,0,0,1,.154-11.211,15.145,15.145,0,0,1,5.969-9.249c1.181,2.726.672,5.915-.154,8.786a42.62,42.62,0,0,1-5.924,12.465" transform="translate(-33.074 -29.303)" fill="#e0e0e0"/>
    <path id="Path_1345" data-name="Path 1345" d="M367.773,356.07a19.542,19.542,0,0,0-10.6,5.36,20.042,20.042,0,0,0-6.06,10.412c3.97-.245,7.341-3.053,9.785-6.187s4.134-6.587,6.823-9.531" transform="translate(-32.112 -32.566)" fill="#e0e0e0"/>
    <path id="Path_1346" data-name="Path 1346" d="M370.819,355.685A26.13,26.13,0,0,1,373.881,331c2.308,8.177,1.454,17.48-3.025,24.73" transform="translate(-33.751 -30.273)" fill="#e0e0e0"/>
    <path id="Path_1347" data-name="Path 1347" d="M378.9,369.716a18.925,18.925,0,0,0-18.08,10.412,1.39,1.39,0,0,0-.118,1.417,1.336,1.336,0,0,0,1.19.354c3.571-.236,6.723-2.38,9.331-4.815s4.879-5.27,7.75-7.377" transform="translate(-32.977 -33.811)" fill="#e0e0e0"/>
    <path id="Path_1348" data-name="Path 1348" d="M380.287,366.569a33.616,33.616,0,0,1-.336-18.807c.663-2.417,1.772-4.97,4.016-6.105a.818.818,0,0,1,.609-.109.845.845,0,0,1,.391.454,11.4,11.4,0,0,1,.909,5.4,33.771,33.771,0,0,1-.845,5.451c-.709,3.343-1.081,6.923-2.907,9.8a22.479,22.479,0,0,0-1.172,2.153c-.345.736-.345.99-.663,1.572" transform="translate(-34.642 -31.236)" fill="#e0e0e0"/>
    <path id="Path_1349" data-name="Path 1349" d="M406.055,370.834c-1.726-6.578.109-14.537,4.252-19.942.3-.391.709-.818,1.208-.772.763.073.963,1.09.909,1.817a36.033,36.033,0,0,1-6.36,18.861" transform="translate(-37.078 -32.021)" fill="#e0e0e0"/>
    <path id="Path_1350" data-name="Path 1350" d="M408.44,373.807a28.991,28.991,0,0,0,23.795-4.833,19.207,19.207,0,0,0-12.883-1.581c-4.306.981-8.24,2.907-10.9,6.414" transform="translate(-37.356 -33.558)" fill="#e0e0e0"/>
    <path id="Path_1351" data-name="Path 1351" d="M410.39,368.423c4.47-7.268,13.056-12.056,21.6-12.483-.981,3.471-3.843,6.178-7.059,7.8a39.432,39.432,0,0,1-10.376,3.035c-1.372.273-3.271.563-4.161,1.644" transform="translate(-37.534 -32.554)" fill="#e0e0e0"/>
    <path id="Path_1352" data-name="Path 1352" d="M406.294,343.767a63.28,63.28,0,0,0,2.726-12.647A21.08,21.08,0,0,0,406.5,318.6c-4.179,8.1-4.606,17.544-.373,25.6" transform="translate(-36.872 -29.139)" fill="#e0e0e0"/>
    <path id="Path_1353" data-name="Path 1353" d="M422.1,336.762c4.888-8.886,14.855-15.981,24.949-16.972-3.889,9.694-14.537,17.181-24.949,16.972" transform="translate(-38.605 -29.248)" fill="#e0e0e0"/>
    <path id="Path_1354" data-name="Path 1354" d="M418.71,340.246c7.268,1.108,13.5,5.76,20.315,8.586a9.185,9.185,0,0,0,4.588.909,3.634,3.634,0,0,0,2.253-6.36,9.93,9.93,0,0,0-3.334-2.026c-7.423-3.089-15.373-3.162-23.2-1.29" transform="translate(-38.295 -30.988)" fill="#e0e0e0"/>
    <path id="Path_1355" data-name="Path 1355" d="M414.064,345.966c1.654.472,2.217,1.326,3.525,2.444a37.986,37.986,0,0,0,15.4,7.913c.591.145,1.363.2,1.654-.327s-.073-1.027-.4-1.445a21.223,21.223,0,0,0-9.34-6.305c-3.552-1.317-6.632-2.916-10.9-2.571" transform="translate(-37.864 -31.611)" fill="#e0e0e0"/>
    <path id="Path_1356" data-name="Path 1356" d="M408.83,311.92a29.182,29.182,0,0,0,22.35,7.6,1.554,1.554,0,0,0,1.018-.372c.563-.609-.109-1.554-.772-2.062-6.569-5.124-14.537-7.268-22.6-5.17" transform="translate(-37.391 -28.455)" fill="#e0e0e0"/>
    <path id="Path_1357" data-name="Path 1357" d="M415,309.14a31.181,31.181,0,0,1,27.892-4.6,22.141,22.141,0,0,1-13.292,5.833A42.119,42.119,0,0,1,415,309.14" transform="translate(-37.955 -27.72)" fill="#e0e0e0"/>
    <path id="Path_1358" data-name="Path 1358" d="M412.191,292.154c-.645-6.56-.227-11.738-.681-18.325,0-.527-.145-1.163-.636-1.354-.69-.263-1.263.581-1.481,1.281a21.014,21.014,0,0,0,2.789,18.271" transform="translate(-37.355 -24.916)" fill="#e0e0e0"/>
    <path id="Path_1359" data-name="Path 1359" d="M412.05,292.855a38.286,38.286,0,0,0,10.9-10.557c2.144-2.935,3.952-6.451,3.471-10.058a10.43,10.43,0,0,0-7.841,3.9,21.86,21.86,0,0,0-3.988,8.031c-.909,2.889-1.481,5.851-2.508,8.686" transform="translate(-37.686 -24.899)" fill="#e0e0e0"/>
    <path id="Path_1360" data-name="Path 1360" d="M423.786,290.016a87.621,87.621,0,0,0,26.738-15.763c-3.2-1.29-6.85-.518-10.039.772a31.672,31.672,0,0,0-16.835,14.918" transform="translate(-38.747 -25.022)" fill="#e0e0e0"/>
    <path id="Path_1361" data-name="Path 1361" d="M415.356,298.1a53.463,53.463,0,0,0,14.846.073c4.9-.836,9.358-2.726,13.855-4.606a1.645,1.645,0,0,0,.909-.709,1.09,1.09,0,0,0-.336-1.19,2.943,2.943,0,0,0-1.181-.554c-4.9-1.363-10.167-.727-14.982.909a69.05,69.05,0,0,0-13.147,6.087" transform="translate(-37.985 -26.557)" fill="#e0e0e0"/>
    <path id="Path_1362" data-name="Path 1362" d="M384.091,310.082c-3.371-6.8-3.153-14.727-.236-21.732,2.044,3.125,2.3,7.1,1.917,10.812s-1.5,7.532-1.572,11.266" transform="translate(-34.902 -26.372)" fill="#e0e0e0"/>
    <path id="Path_1363" data-name="Path 1363" d="M367.263,304.81A30.291,30.291,0,0,0,344.74,314.4a21.106,21.106,0,0,0,12.338-2.29,62.541,62.541,0,0,0,10.612-7.078" transform="translate(-31.53 -27.877)" fill="#e0e0e0"/>
    <path id="Path_1364" data-name="Path 1364" d="M357.447,301.44c-4.116-.336-8.068-.845-12.02.363a14.409,14.409,0,0,0-9.167,7.777,21.8,21.8,0,0,0,11.275-2.135,64.136,64.136,0,0,0,9.912-6.005" transform="translate(-30.754 -27.533)" fill="#e0e0e0"/>
    <path id="Path_1365" data-name="Path 1365" d="M371.893,300.995c-3.7-2.426-7.5-4.9-11.811-5.9s-9.294-.263-12.3,2.98c3.489,2.053,7.723,2.29,11.811,2.29s8.995-.045,12.81,1.3" transform="translate(-31.808 -26.951)" fill="#e0e0e0"/>
    <path id="Path_1366" data-name="Path 1366" d="M373.617,299.237c-6.36-6.205-8.722-17.362-6.178-25.857a39.376,39.376,0,0,1,6.178,25.857" transform="translate(-33.514 -25.003)" fill="#e0e0e0"/>
    <path id="Path_1367" data-name="Path 1367" d="M393.49,280.425c1.19-2.78,2.026-5.687,3.1-8.513a24.53,24.53,0,0,1,4.425-7.841,11.639,11.639,0,0,1,7.832-4.061,31.536,31.536,0,0,1-15.2,20.451" transform="translate(-35.988 -23.78)" fill="#e0e0e0"/>
    <path id="Path_1368" data-name="Path 1368" d="M388.353,285.388c-1.972-2.726-4.252-6.405-6.932-8.431s-6.16-3.253-9.431-2.48a21.959,21.959,0,0,0,16.354,10.9" transform="translate(-34.022 -25.082)" fill="#e0e0e0"/>
    <path id="Path_1369" data-name="Path 1369" d="M390.378,280.669a46.616,46.616,0,0,1-3.125-10.1,15.79,15.79,0,0,1,1.563-10.276c3.471,6.569,4.588,13.628,1.717,20.46" transform="translate(-35.393 -23.806)" fill="#e0e0e0"/>
    <path id="Path_1370" data-name="Path 1370" d="M393.52,258.891c1.972-6.505,7.922-11.293,14.355-13.492a5.37,5.37,0,0,1,2.517-.382,2.19,2.19,0,0,1,1.862,1.554c.227,1.108-.681,2.1-1.545,2.835a48.807,48.807,0,0,1-17.19,9.485" transform="translate(-35.991 -22.407)" fill="#e0e0e0"/>
    <path id="Path_1371" data-name="Path 1371" d="M393.586,252.239c.245-4.2.509-8.459,1.872-12.429s4-7.7,7.823-9.44c.654,4.234-1.217,8.449-3.471,12.093s-4.97,7.087-6.36,11.157" transform="translate(-35.985 -21.069)" fill="#e0e0e0"/>
    <path id="Path_1372" data-name="Path 1372" d="M392.263,255.314c-1.626-4.743-1.817-10.757-4.634-14.891-1.99-2.889-5.17-4.852-6.878-7.913a12.038,12.038,0,0,0,.4,8.985,26.067,26.067,0,0,0,5.251,7.514c2.108,2.244,3.907,3.934,5.86,6.305" transform="translate(-34.761 -21.265)" fill="#e0e0e0"/>
    <path id="Path_1373" data-name="Path 1373" d="M393.5,397.087c-.127,0-.236-31.635-.245-70.639s.091-70.648.218-70.648.236,31.617.245,70.648S393.622,397.087,393.5,397.087Z" transform="translate(-35.966 -23.395)" fill="#e0e0e0"/>
    <path id="Path_1374" data-name="Path 1374" d="M421.205,307a6.82,6.82,0,0,1-1.19.445l-3.353,1.127c-2.726.909-6.551,2.3-10.657,3.989s-7.922,3.162-10.112,5.061a7.431,7.431,0,0,0-2.026,2.68c-.318.745-.373,1.2-.409,1.19s0-.109,0-.327a4.743,4.743,0,0,1,.236-.909,7.1,7.1,0,0,1,1.981-2.862,18.028,18.028,0,0,1,4.379-2.726c1.753-.818,3.7-1.672,5.76-2.517,4.134-1.69,7.95-3.007,10.739-3.87,1.4-.436,2.535-.754,3.325-.972A7.637,7.637,0,0,1,421.205,307Z" transform="translate(-35.984 -28.078)" fill="#e0e0e0"/>
    <path id="Path_1375" data-name="Path 1375" d="M430.437,282.52s-.109.136-.336.363l-1.008.909-3.8,3.443-12.611,11.23c-4.888,4.425-9.176,8.613-12.156,11.747-1.481,1.572-2.644,2.88-3.434,3.789l-.909,1.045c-.209.236-.327.354-.345.345a2.205,2.205,0,0,1,.273-.4c.191-.254.472-.636.854-1.108.754-.909,1.881-2.29,3.325-3.889a158.4,158.4,0,0,1,12.065-11.811c4.942-4.37,9.431-8.3,12.72-11.13,1.6-1.381,2.916-2.508,3.889-3.334l1.072-.909a2.282,2.282,0,0,1,.4-.291Z" transform="translate(-36.203 -25.839)" fill="#e0e0e0"/>
    <path id="Path_1376" data-name="Path 1376" d="M408.529,303.9c-.127-.055.909-2.435,1.926-5.451s1.517-5.542,1.654-5.515a18.654,18.654,0,0,1-1.217,5.66,37.636,37.636,0,0,1-1.535,3.8,5.923,5.923,0,0,1-.827,1.508Z" transform="translate(-37.363 -26.791)" fill="#e0e0e0"/>
    <path id="Path_1377" data-name="Path 1377" d="M391.7,323.769a5.966,5.966,0,0,1-.754-.909c-.518-.654-1.172-1.49-1.944-2.489-1.635-2.108-3.889-5.024-6.423-8.177s-4.852-6.042-6.542-8.113l-1.981-2.462a6.584,6.584,0,0,1-.69-.909,5.452,5.452,0,0,1,.827.827c.509.545,1.217,1.354,2.1,2.362,1.744,2.017,4.116,4.852,6.651,8.041s4.752,6.142,6.314,8.3c.79,1.081,1.408,1.962,1.817,2.58a5.452,5.452,0,0,1,.627.945Z" transform="translate(-34.148 -27.503)" fill="#e0e0e0"/>
    <path id="Path_1378" data-name="Path 1378" d="M386.564,316.565a11.194,11.194,0,0,1-2.535-4.752,13.7,13.7,0,0,1-.581-4.8h.209c-.091.363-.164.554-.2.554s0-.209,0-.591h.209a21.578,21.578,0,0,0,.809,4.661,36.744,36.744,0,0,0,2.09,4.924Z" transform="translate(-35.068 -28.076)" fill="#e0e0e0"/>
    <path id="Path_1379" data-name="Path 1379" d="M376.892,306.5a8.459,8.459,0,0,0-1.772-1.027,11.866,11.866,0,0,0-4.924-.391,30.294,30.294,0,0,0-4.952.8,15.372,15.372,0,0,1-2.044.491,7.04,7.04,0,0,1,1.953-.8,22.649,22.649,0,0,1,5.006-.909,10.757,10.757,0,0,1,5.079.545,3.2,3.2,0,0,1,1.654,1.29Z" transform="translate(-33.218 -27.855)" fill="#e0e0e0"/>
    <path id="Path_1380" data-name="Path 1380" d="M374.292,303.777c0,.073-1.036-.418-2.726-.99a27.256,27.256,0,0,0-13.692-1.045c-1.744.318-2.807.645-2.835.563a2.607,2.607,0,0,1,.727-.3,16.087,16.087,0,0,1,2.044-.581,24.529,24.529,0,0,1,7.014-.491,24,24,0,0,1,6.85,1.554,17.421,17.421,0,0,1,1.944.909,3.025,3.025,0,0,1,.672.382Z" transform="translate(-32.472 -27.517)" fill="#e0e0e0"/>
    <path id="Path_1381" data-name="Path 1381" d="M393.135,291.6a55.708,55.708,0,0,1-1.981-6.887,58.277,58.277,0,0,1-1.544-6.987,54.653,54.653,0,0,1,1.981,6.878A57.38,57.38,0,0,1,393.135,291.6Z" transform="translate(-35.633 -25.401)" fill="#e0e0e0"/>
    <path id="Path_1382" data-name="Path 1382" d="M393.083,292.249a32.71,32.71,0,0,0-2.2-4.125,18.4,18.4,0,0,0-3.234-3.334,2.943,2.943,0,0,1,1.245.645,10.04,10.04,0,0,1,2.362,2.426A9.2,9.2,0,0,1,393.083,292.249Z" transform="translate(-35.454 -26.047)" fill="#e0e0e0"/>
    <path id="Path_1383" data-name="Path 1383" d="M390.6,388.1s-.145-.763-.5-2.1A30.481,30.481,0,0,0,388,380.552a75.894,75.894,0,0,0-11.22-15.8c-2.5-2.862-4.933-5.56-7-8.177a56.614,56.614,0,0,1-5-7.214,34.344,34.344,0,0,1-2.526-5.351c-.236-.654-.409-1.172-.5-1.526a2.208,2.208,0,0,1-.127-.554s.273.727.79,2.017a39.382,39.382,0,0,0,2.635,5.251,60.868,60.868,0,0,0,5.051,7.114c2.072,2.562,4.543,5.242,7.014,8.113a72.128,72.128,0,0,1,11.166,15.954,27.592,27.592,0,0,1,1.99,5.578,15.914,15.914,0,0,1,.282,1.59A2.316,2.316,0,0,1,390.6,388.1Z" transform="translate(-33.074 -31.273)" fill="#e0e0e0"/>
    <path id="Path_1384" data-name="Path 1384" d="M418.489,361.7a13.4,13.4,0,0,1-1.308.736,29.027,29.027,0,0,0-3.389,2.244,38.4,38.4,0,0,0-4.461,4.061c-1.563,1.654-3.18,3.58-4.824,5.633-3.289,4.134-6.36,7.786-8.177,10.7-.909,1.445-1.617,2.662-2.062,3.516a9.92,9.92,0,0,1-.718,1.317,1.492,1.492,0,0,1,.118-.372c.1-.236.236-.591.445-1.027a32.775,32.775,0,0,1,1.944-3.634,114.375,114.375,0,0,1,8.177-10.812c1.644-2.062,3.28-3.989,4.87-5.642a37.309,37.309,0,0,1,4.543-4.034,23.838,23.838,0,0,1,3.507-2.144c.436-.218.79-.345,1.027-.445S418.489,361.681,418.489,361.7Z" transform="translate(-35.994 -33.08)" fill="#e0e0e0"/>
    <path id="Path_1385" data-name="Path 1385" d="M419.816,371.767a17.043,17.043,0,0,1-2.726.4,36.986,36.986,0,0,0-6.569,1.3,19.6,19.6,0,0,0-5.869,3.08c-1.354,1.045-2,1.917-2.062,1.862a2.363,2.363,0,0,1,.409-.636,10.074,10.074,0,0,1,1.445-1.472,17.608,17.608,0,0,1,5.942-3.271,29.312,29.312,0,0,1,6.669-1.181,15.664,15.664,0,0,1,2.762-.082Z" transform="translate(-36.82 -33.999)" fill="#e0e0e0"/>
    <path id="Path_1386" data-name="Path 1386" d="M403.439,377.057c-.145-.082,1.108-1.981,2.071-4.543s1.118-4.852,1.281-4.824a4.016,4.016,0,0,1-.045,1.481,15.864,15.864,0,0,1-.809,3.5,17.171,17.171,0,0,1-1.6,3.207A6.15,6.15,0,0,1,403.439,377.057Z" transform="translate(-36.897 -33.629)" fill="#e0e0e0"/>
    <path id="Path_1387" data-name="Path 1387" d="M426.594,334.65a1.818,1.818,0,0,1-.445.236l-1.3.591c-.572.245-1.263.554-2.044.963s-1.69.818-2.644,1.39l-1.508.909c-.518.3-1.036.654-1.59,1-1.108.672-2.226,1.508-3.416,2.353a59.053,59.053,0,0,0-13.165,13.628c-.809,1.227-1.6,2.362-2.235,3.5-.327.563-.663,1.09-.909,1.626l-.809,1.535c-.536.972-.909,1.9-1.3,2.726s-.672,1.5-.909,2.081-.409.963-.554,1.317a1.644,1.644,0,0,1-.218.445,3.415,3.415,0,0,1,.136-.481c.127-.354.282-.8.463-1.354a22.183,22.183,0,0,1,.827-2.108c.363-.809.727-1.744,1.245-2.726.254-.491.518-1.018.79-1.554s.609-1.081.909-1.654c.627-1.154,1.417-2.308,2.217-3.543a56.82,56.82,0,0,1,13.256-13.719c1.208-.845,2.335-1.672,3.471-2.335.554-.345,1.081-.69,1.617-.99l1.526-.836c.972-.554,1.9-.909,2.726-1.336a20.031,20.031,0,0,1,2.081-.909l1.336-.509A2.226,2.226,0,0,1,426.594,334.65Z" transform="translate(-35.994 -30.607)" fill="#e0e0e0"/>
    <path id="Path_1388" data-name="Path 1388" d="M408.16,348.9a3.216,3.216,0,0,1,1.09-1.617,6.832,6.832,0,0,1,4.379-1.681,11.81,11.81,0,0,1,4.606.909,6.55,6.55,0,0,1,1.744.845,10.268,10.268,0,0,1-1.817-.536,13.909,13.909,0,0,0-4.488-.754,7.105,7.105,0,0,0-4.179,1.472A12.521,12.521,0,0,0,408.16,348.9Z" transform="translate(-37.33 -31.608)" fill="#e0e0e0"/>
    <path id="Path_1389" data-name="Path 1389" d="M404.91,351.757a16.668,16.668,0,0,0,1.245-4.052,16.419,16.419,0,0,0-.282-4.225,2.726,2.726,0,0,1,.509,1.181,8.3,8.3,0,0,1-.7,6.06C405.292,351.421,404.992,351.784,404.91,351.757Z" transform="translate(-37.033 -31.414)" fill="#e0e0e0"/>
    <path id="Path_1390" data-name="Path 1390" d="M369.48,397.74c.681,12.093,4.316,24.385,9.921,36.814h24.367c5.342-12.311,8.731-24.585,9.34-36.814Z" transform="translate(-33.792 -36.377)" fill="#e0e0e0"/>
    <path id="Path_1391" data-name="Path 1391" d="M409.543,419.247c0,.127-8.022.227-17.916.227s-17.916-.1-17.916-.227,8.022-.227,17.916-.227S409.543,419.12,409.543,419.247Z" transform="translate(-34.179 -38.323)" fill="#fafafa"/>
    <path id="Path_1392" data-name="Path 1392" d="M409.169,424.067c0,.127-7.523.227-16.79.227s-16.8-.1-16.8-.227,7.514-.227,16.8-.227S409.169,423.985,409.169,424.067Z" transform="translate(-34.35 -38.764)" fill="#fafafa"/>
    <path id="Path_1393" data-name="Path 1393" d="M380.807,406.48a66.744,66.744,0,0,1,0,11.22A69.4,69.4,0,0,1,380.807,406.48Z" transform="translate(-34.807 -37.176)" fill="#fafafa"/>
    <path id="Path_1394" data-name="Path 1394" d="M395.177,406.48a71.576,71.576,0,0,1,0,11.62,74.426,74.426,0,0,1,0-11.62Z" transform="translate(-36.122 -37.176)" fill="#fafafa"/>
    <path id="Path_1395" data-name="Path 1395" d="M408.667,406.37a77.482,77.482,0,0,1,0,11.856A77.478,77.478,0,0,1,408.667,406.37Z" transform="translate(-37.355 -37.166)" fill="#fafafa"/>
    <path id="Path_1396" data-name="Path 1396" d="M412.419,406.456c0,.118-9.412.227-21.015.227s-21.015-.109-21.015-.227,9.4-.236,21.015-.236S412.419,406.329,412.419,406.456Z" transform="translate(-33.876 -37.152)" fill="#fafafa"/>
    <rect id="Rectangle_447" data-name="Rectangle 447" width="88.492" height="79.17" transform="translate(315.591 2.299)" fill="#fafafa"/>
    <path id="Path_1397" data-name="Path 1397" d="M435.835,81.667V75.962c0-3.716,0-9.149-.055-16.072,0-13.837-.064-33.616-.1-57.383l.2.2H347.4l.236-.236V81.631l-.209-.209,64,.109,18.053.055h.027l-17.98.191-64.134.1h-.209V2.27h88.874v.2c-.045,23.84-.082,43.61-.109,57.511,0,6.9,0,12.32-.045,16.027v4.2C435.845,81.195,435.835,81.667,435.835,81.667Z" transform="translate(-31.753 -0.208)" fill="#e0e0e0"/>
    <path id="Path_1398" data-name="Path 1398" d="M382.616,17.976c0,.127-4.661.236-10.4.236s-10.4-.109-10.4-.236,4.652-.236,10.4-.236S382.616,17.858,382.616,17.976Z" transform="translate(-33.091 -1.622)" fill="#e0e0e0"/>
    <path id="Path_1399" data-name="Path 1399" d="M420.247,24.526c0,.136-12.792.236-28.574.236s-28.574-.1-28.574-.236,12.792-.236,28.574-.236S420.247,24.4,420.247,24.526Z" transform="translate(-33.209 -2.222)" fill="#e0e0e0"/>
    <rect id="Rectangle_448" data-name="Rectangle 448" width="3.725" height="3.725" transform="translate(328.865 32.371)" fill="#e0e0e0"/>
    <rect id="Rectangle_449" data-name="Rectangle 449" width="3.725" height="3.725" transform="translate(338.05 32.371)" fill="#e0e0e0"/>
    <rect id="Rectangle_450" data-name="Rectangle 450" width="3.725" height="3.725" transform="translate(347.39 32.208)" fill="#e0e0e0"/>
    <rect id="Rectangle_451" data-name="Rectangle 451" width="3.725" height="3.725" transform="translate(356.402 32.371)" fill="#e0e0e0"/>
    <rect id="Rectangle_452" data-name="Rectangle 452" width="3.725" height="3.725" transform="translate(365.579 32.371)" fill="#e0e0e0"/>
    <rect id="Rectangle_453" data-name="Rectangle 453" width="3.725" height="3.725" transform="translate(374.755 32.371)" fill="#e0e0e0"/>
    <rect id="Rectangle_454" data-name="Rectangle 454" width="3.725" height="3.725" transform="translate(383.931 32.371)" fill="#ebebeb"/>
    <rect id="Rectangle_455" data-name="Rectangle 455" width="3.725" height="3.725" transform="translate(328.865 40.303)" fill="#ebebeb"/>
    <rect id="Rectangle_456" data-name="Rectangle 456" width="3.725" height="3.725" transform="translate(338.05 40.303)" fill="#e0e0e0"/>
    <rect id="Rectangle_457" data-name="Rectangle 457" width="3.725" height="3.725" transform="translate(347.226 40.303)" fill="#ebebeb"/>
    <rect id="Rectangle_458" data-name="Rectangle 458" width="3.725" height="3.725" transform="translate(356.402 40.303)" fill="#e0e0e0"/>
    <rect id="Rectangle_459" data-name="Rectangle 459" width="3.725" height="3.725" transform="translate(365.579 40.303)" fill="#e0e0e0"/>
    <rect id="Rectangle_460" data-name="Rectangle 460" width="3.725" height="3.725" transform="translate(374.919 40.13)" fill="#e0e0e0"/>
    <rect id="Rectangle_461" data-name="Rectangle 461" width="3.725" height="3.725" transform="translate(383.931 40.303)" fill="#e0e0e0"/>
    <rect id="Rectangle_462" data-name="Rectangle 462" width="3.725" height="3.725" transform="translate(328.865 48.225)" fill="#e0e0e0"/>
    <rect id="Rectangle_463" data-name="Rectangle 463" width="3.725" height="3.725" transform="translate(338.214 48.062)" fill="#e0e0e0"/>
    <rect id="Rectangle_464" data-name="Rectangle 464" width="3.725" height="3.725" transform="translate(347.226 48.225)" fill="#e0e0e0"/>
    <rect id="Rectangle_465" data-name="Rectangle 465" width="3.725" height="3.725" transform="translate(356.402 48.225)" fill="#ebebeb"/>
    <rect id="Rectangle_466" data-name="Rectangle 466" width="3.725" height="3.725" transform="translate(365.579 48.225)" fill="#e0e0e0"/>
    <rect id="Rectangle_467" data-name="Rectangle 467" width="3.725" height="3.725" transform="translate(374.755 48.225)" fill="#e0e0e0"/>
    <rect id="Rectangle_468" data-name="Rectangle 468" width="3.725" height="3.725" transform="translate(383.931 48.225)" fill="#e0e0e0"/>
    <rect id="Rectangle_469" data-name="Rectangle 469" width="3.725" height="3.725" transform="translate(328.865 56.148)" fill="#e0e0e0"/>
    <rect id="Rectangle_470" data-name="Rectangle 470" width="3.725" height="3.725" transform="translate(338.05 56.148)" fill="#e0e0e0"/>
    <rect id="Rectangle_471" data-name="Rectangle 471" width="3.725" height="3.725" transform="translate(347.226 56.148)" fill="#e0e0e0"/>
    <rect id="Rectangle_472" data-name="Rectangle 472" width="3.725" height="3.725" transform="translate(356.566 55.984)" fill="#e0e0e0"/>
    <rect id="Rectangle_473" data-name="Rectangle 473" width="3.725" height="3.725" transform="translate(365.579 56.148)" fill="#e0e0e0"/>
    <rect id="Rectangle_474" data-name="Rectangle 474" width="3.725" height="3.725" transform="translate(374.755 56.148)" fill="#ebebeb"/>
    <rect id="Rectangle_475" data-name="Rectangle 475" width="3.725" height="3.725" transform="translate(383.931 56.148)" fill="#e0e0e0"/>
    <rect id="Rectangle_476" data-name="Rectangle 476" width="3.725" height="3.725" transform="translate(328.865 64.079)" fill="#e0e0e0"/>
    <rect id="Rectangle_477" data-name="Rectangle 477" width="3.725" height="3.725" transform="translate(338.05 64.079)" fill="#ebebeb"/>
    <rect id="Rectangle_478" data-name="Rectangle 478" width="3.725" height="3.725" transform="translate(347.226 64.079)" fill="#e0e0e0"/>
    <rect id="Rectangle_479" data-name="Rectangle 479" width="3.725" height="3.725" transform="translate(356.402 64.079)" fill="#e0e0e0"/>
    <rect id="Rectangle_480" data-name="Rectangle 480" width="3.725" height="3.725" transform="translate(365.579 64.079)" fill="#e0e0e0"/>
    <rect id="Rectangle_481" data-name="Rectangle 481" width="3.725" height="3.725" transform="translate(374.919 63.907)" fill="#e0e0e0"/>
    <rect id="Rectangle_482" data-name="Rectangle 482" width="3.725" height="3.725" transform="translate(383.931 64.079)" fill="#e0e0e0"/>
    <path id="Path_1400" data-name="Path 1400" d="M14.56,0H72.616V84.176H14.951Z" transform="translate(-1.332)" fill="#e0e0e0"/>
    <rect id="Rectangle_483" data-name="Rectangle 483" width="57.529" height="83.386" transform="translate(66.405 83.777) rotate(180)" fill="#fff"/>
    <path id="Path_1401" data-name="Path 1401" d="M67.649,0V84.176H9.33V0Zm-.79,83.386V.79H10.12v82.6Z" transform="translate(-0.853)" fill="#e0e0e0"/>
    <rect id="Rectangle_484" data-name="Rectangle 484" width="43.237" height="65.324" transform="translate(16.018 9.431)" fill="#fff"/>
    <path id="Path_1402" data-name="Path 1402" d="M17.6,10.375V15.19c0,3.134,0,7.7.055,13.465,0,11.52.055,27.82.091,47.017l-.191-.182H60.781l-.209.2V10.375l.173.164-31.463-.091H20.523l8.658-.045,31.563-.082h.164v65.7H17.28v-.191c0-19.243.073-35.6.091-47.144,0-5.742.045-10.294.055-13.419V10.8A.791.791,0,0,1,17.6,10.375Z" transform="translate(-1.58 -0.944)" fill="#e0e0e0"/>
    <path id="Path_1403" data-name="Path 1403" d="M9.59,91.3a7.177,7.177,0,0,1,.909-1.426c.618-.854,1.49-2.017,2.489-3.271s1.953-2.362,2.671-3.134a6.6,6.6,0,0,1,1.217-1.2,55.356,55.356,0,0,1-3.561,4.543A45.9,45.9,0,0,1,9.59,91.3Z" transform="translate(-0.877 -7.524)" fill="#e0e0e0"/>
    <path id="Path_1404" data-name="Path 1404" d="M9.76.44a39.639,39.639,0,0,1,3.734,4.379A39.44,39.44,0,0,1,16.91,9.471a41.42,41.42,0,0,1-3.734-4.388A43.611,43.611,0,0,1,9.76.44Z" transform="translate(-0.893 -0.04)" fill="#e0e0e0"/>
    <path id="Path_1405" data-name="Path 1405" d="M72.332.51,64.8,9.8" transform="translate(-5.927 -0.047)" fill="#fff"/>
    <path id="Path_1406" data-name="Path 1406" d="M64.8,9.8a43.5,43.5,0,0,1,3.634-4.779A43.7,43.7,0,0,1,72.359.48a43.5,43.5,0,0,1-3.634,4.779A43.7,43.7,0,0,1,64.8,9.8Z" transform="translate(-5.927 -0.044)" fill="#e0e0e0"/>
    <path id="Path_1407" data-name="Path 1407" d="M72.368,91.311a39.33,39.33,0,0,1-3.707-4.334,41.313,41.313,0,0,1-3.371-4.6,39.33,39.33,0,0,1,3.7,4.334A39.975,39.975,0,0,1,72.368,91.311Z" transform="translate(-5.971 -7.534)" fill="#e0e0e0"/>
    <path id="Path_1408" data-name="Path 1408" d="M43.154,45.775h-7.6l-.909,2.1a4.624,4.624,0,0,0-.445,1.735,1.445,1.445,0,0,0,.736,1.336,6.36,6.36,0,0,0,2.108.382v.581H29.88v-.581a3.207,3.207,0,0,0,1.926-.963,12.629,12.629,0,0,0,1.817-3.253l7.7-17.181h.3L49.4,47.592a11,11,0,0,0,1.817,3.162,2.535,2.535,0,0,0,1.526.572v.581H42.327v-.581h.427a3.216,3.216,0,0,0,1.772-.354.845.845,0,0,0,.354-.727,1.962,1.962,0,0,0-.1-.591,11.466,11.466,0,0,0-.472-1.19ZM42.618,44.6l-3.207-7.414L36.1,44.6Z" transform="translate(-2.733 -2.737)" fill="#e0e0e0"/>
  </g>
  <g id="Floor" transform="translate(2.226 397.941)">
    <path id="Path_1409" data-name="Path 1409" d="M404.261,438.236c0,.127-89.946.236-200.9.236S2.45,438.363,2.45,438.236,92.4,438,203.365,438,404.261,438.1,404.261,438.236Z" transform="translate(-2.45 -438)" fill="#263238"/>
  </g>
  <g id="Screen" transform="translate(92.044 0.064)">
    <rect id="Rectangle_485" data-name="Rectangle 485" width="198.053" height="181.79" transform="translate(0.718 7.913)" fill="#fff"/>
    <path id="Path_1410" data-name="Path 1410" d="M162,153.524a27.465,27.465,0,0,0,.618,4.088,16.353,16.353,0,0,0,1.881,4.452,16.681,16.681,0,0,0,19.988,7.087,15.781,15.781,0,0,0,4.207-2.271,18.342,18.342,0,0,0,1.881-1.608,17.587,17.587,0,0,0,1.635-1.926,16.563,16.563,0,0,0,0-19.643,19.7,19.7,0,0,0-1.626-1.935,20.714,20.714,0,0,0-1.89-1.6,15.781,15.781,0,0,0-4.207-2.271,16.744,16.744,0,0,0-8.74-.736,16.508,16.508,0,0,0-7.023,3.1,16.762,16.762,0,0,0-4.261,4.724,16.026,16.026,0,0,0-1.881,4.443,27.471,27.471,0,0,0-.618,4.1,1.236,1.236,0,0,1,0-.273v-.809a7.267,7.267,0,0,1,.109-1.3,12.484,12.484,0,0,1,.318-1.753,16.163,16.163,0,0,1,1.817-4.543,16.938,16.938,0,0,1,20.379-7.359,17.133,17.133,0,0,1,7.968,5.951,17,17,0,0,1,0,20.2,18.585,18.585,0,0,1-1.681,1.981,19.3,19.3,0,0,1-1.935,1.644,16.354,16.354,0,0,1-4.334,2.317,16.966,16.966,0,0,1-20.4-7.359,16.163,16.163,0,0,1-1.817-4.543,12.721,12.721,0,0,1-.318-1.753,7.34,7.34,0,0,1-.109-1.308v-.8A1.235,1.235,0,0,1,162,153.524Z" transform="translate(-106.856 -12.546)" fill="#e0e0e0"/>
    <path id="Path_1411" data-name="Path 1411" d="M252.42,108.625a4.562,4.562,0,0,0-.055-.572c-.055-.382-.064-.909-.109-1.681a7.53,7.53,0,0,0-.073-1.236c-.073-.454-.145-.909-.227-1.481s-.173-1.118-.273-1.726-.309-1.254-.463-1.935a34.087,34.087,0,0,0-3.925-9.4,35.306,35.306,0,0,0-8.976-9.994l-1.526-1.136c-.536-.354-1.1-.672-1.663-1.018a16.923,16.923,0,0,0-1.717-1l-1.817-.909-.909-.445-1.018-.363-1.981-.718c-.672-.227-1.381-.373-2.081-.563a20.252,20.252,0,0,0-2.135-.482,32.39,32.39,0,0,0-4.452-.509c-.763,0-1.526-.1-2.3-.091l-2.335.118a5.656,5.656,0,0,0-1.172.082l-1.172.173c-.79.136-1.59.227-2.371.391a38.913,38.913,0,0,0-9.294,3.416c-.745.4-1.454.909-2.19,1.308-.363.227-.745.427-1.09.69l-1.036.772a39.14,39.14,0,0,0-4,3.4,41.539,41.539,0,0,0-3.452,4.079l-.809,1.09-.709,1.154-.709,1.163a8.6,8.6,0,0,0-.654,1.208q-.6,1.227-1.2,2.48l-.954,2.644a34.879,34.879,0,0,0,0,22.223l.954,2.608,1.2,2.48.3.618.354.591.709,1.163.709,1.163.809,1.081a32.335,32.335,0,0,0,7.45,7.477l1.036.781c.336.254.727.454,1.081.681.745.436,1.454.909,2.2,1.317a37.949,37.949,0,0,0,4.6,2.017,38.422,38.422,0,0,0,4.7,1.381c.79.164,1.581.254,2.371.382l1.172.182c.391.055.79,0,1.181.073l2.326.127c.772,0,1.535-.064,2.3-.091a32.713,32.713,0,0,0,4.461-.518,16.41,16.41,0,0,0,2.126-.482c.7-.191,1.408-.336,2.081-.554l1.981-.727.981-.354.909-.436,1.817-.909c.609-.282,1.154-.672,1.717-1s1.127-.663,1.663-1.008l1.526-1.145a35.187,35.187,0,0,0,8.976-9.994,34.089,34.089,0,0,0,3.925-9.4c.154-.681.391-1.308.463-1.926s.191-1.19.273-1.726.182-1.027.227-1.481.055-.909.073-1.236c.045-.736.082-1.29.109-1.69s.055-.572.055-.572v.572c0,.372,0,.963-.064,1.69a12.17,12.17,0,0,1-.045,1.245c-.045.454-.136.954-.209,1.49s-.164,1.118-.254,1.735-.291,1.254-.436,1.944A33.535,33.535,0,0,1,247.5,126.8a35.533,35.533,0,0,1-9,10.139l-1.535,1.154c-.536.354-1.108.681-1.672,1.027a17.2,17.2,0,0,1-1.726,1.018l-1.817.909-.909.454-.99.354-2,.745c-.681.227-1.4.372-2.1.563a19.458,19.458,0,0,1-2.153.5,33.36,33.36,0,0,1-4.543.527c-.772,0-1.545.109-2.326.1l-2.362-.118a6.6,6.6,0,0,1-1.19-.073l-1.19-.182c-.79-.127-1.6-.218-2.4-.382a38.279,38.279,0,0,1-4.761-1.39,37.413,37.413,0,0,1-4.652-2.035c-.754-.409-1.481-.909-2.226-1.326-.363-.236-.754-.436-1.1-.7l-1.054-.781a38.959,38.959,0,0,1-4.052-3.434,40.4,40.4,0,0,1-3.5-4.134l-.827-1.1-.718-1.172-.718-1.181-.354-.591-.309-.627c-.4-.836-.809-1.672-1.217-2.517l-.963-2.644a35.279,35.279,0,0,1,0-22.514c.327-.909.645-1.772.972-2.644s.809-1.681,1.208-2.517a9.831,9.831,0,0,1,.663-1.217l.718-1.181.727-1.172.818-1.1a40.4,40.4,0,0,1,3.5-4.134,41.14,41.14,0,0,1,4.052-3.434l1.054-.781c.345-.263.736-.463,1.1-.7.745-.436,1.472-.909,2.226-1.317a36.107,36.107,0,0,1,4.652-2.035,38.276,38.276,0,0,1,4.761-1.39c.8-.164,1.608-.254,2.4-.382l1.19-.182c.4-.055.8-.055,1.19-.082l2.362-.109c.781,0,1.554.064,2.317.091a33.186,33.186,0,0,1,4.543.536,17.338,17.338,0,0,1,2.162.491c.7.2,1.417.345,2.1.572l2,.736.99.363.909.445,1.817.909c.618.282,1.163.681,1.735,1.008s1.136.672,1.672,1.036l1.535,1.154a35.3,35.3,0,0,1,9,10.139,34.034,34.034,0,0,1,3.879,9.485c.145.69.373,1.326.436,1.944s.182,1.2.254,1.735.164,1.036.209,1.49,0,.909.045,1.245c0,.736.055,1.29.064,1.69S252.42,108.625,252.42,108.625Z" transform="translate(-108.625 -6.741)" fill="#e0e0e0"/>
    <path id="Path_1412" data-name="Path 1412" d="M293.741,103.917s0-.445-.064-1.317,0-2.162-.173-3.861a80.961,80.961,0,0,0-2.317-14.664,79.747,79.747,0,0,0-3.334-10.2A78.218,78.218,0,0,0,282.2,62.433a82.294,82.294,0,0,0-20.633-23.068,81.772,81.772,0,0,0-65.96-14.782,87.7,87.7,0,0,0-10.848,3.1,81.324,81.324,0,0,0-37.7,28.274,79.494,79.494,0,0,0-6.587,10.6c-1,1.817-1.817,3.8-2.726,5.733a44,44,0,0,0-2.217,6.078,78.74,78.74,0,0,0-3.089,12.538,87.751,87.751,0,0,0-1.063,13.047,86.674,86.674,0,0,0,1.063,13.056,79.046,79.046,0,0,0,3.089,12.5c.645,2.044,1.454,4.016,2.235,5.987a55.3,55.3,0,0,0,2.726,5.742,81.36,81.36,0,0,0,44.282,38.886,88.125,88.125,0,0,0,10.848,3.1,81.768,81.768,0,0,0,10.9,1.517,80.992,80.992,0,0,0,55.058-16.308,82.259,82.259,0,0,0,20.633-23.059,78.2,78.2,0,0,0,5.651-11.439,80.452,80.452,0,0,0,5.651-24.867c.154-1.7.118-3,.173-3.861s.064-1.326.064-1.326v1.326c0,.872,0,2.171-.127,3.861a79.414,79.414,0,0,1-5.542,24.949,78.468,78.468,0,0,1-5.633,11.493A81.278,81.278,0,0,1,206.512,185.2a82.927,82.927,0,0,1-10.9-1.517,86.986,86.986,0,0,1-10.9-3.107,81.687,81.687,0,0,1-37.932-28.419,80.261,80.261,0,0,1-6.7-10.7c-1-1.863-1.863-3.816-2.726-5.76a59.146,59.146,0,0,1-2.253-6.033,79.753,79.753,0,0,1-3.107-12.62A81.2,81.2,0,0,1,132,90.789a78.77,78.77,0,0,1,3.107-12.62c.645-2.053,1.463-4.034,2.244-6.024a56.733,56.733,0,0,1,2.726-5.769,79.8,79.8,0,0,1,6.632-10.721A81.705,81.705,0,0,1,184.6,27.273a86.985,86.985,0,0,1,10.9-3.107,82.923,82.923,0,0,1,10.9-1.517,81.608,81.608,0,0,1,55.366,16.481,82.349,82.349,0,0,1,20.66,23.2,77.943,77.943,0,0,1,5.633,11.5A79.588,79.588,0,0,1,293.6,98.775c.136,1.7.091,3,.127,3.87S293.741,103.917,293.741,103.917Z" transform="translate(-104.019 -2.115)" fill="#e0e0e0"/>
    <path id="Path_1413" data-name="Path 1413" d="M272.94,163.227c-.1.091-25.912-25.575-57.656-57.311S157.873,48.351,158,48.26s25.9,25.566,57.656,57.32S273.03,163.136,272.94,163.227Z" transform="translate(-106.495 -4.477)" fill="#e0e0e0"/>
    <path id="Path_1414" data-name="Path 1414" d="M272.337,48.85c.091.091-25.575,25.912-57.311,57.656s-57.565,57.411-57.656,57.32,25.566-25.9,57.32-57.656S272.237,48.759,272.337,48.85Z" transform="translate(-106.437 -4.531)" fill="#e0e0e0"/>
    <path id="Path_1415" data-name="Path 1415" d="M221.209,22.05c.136,0,.236,36.405.236,81.287s-.1,81.305-.227,81.305S221,148.292,221,103.337,221.082,22.05,221.209,22.05Z" transform="translate(-112.257 -2.08)" fill="#e0e0e0"/>
    <path id="Path_1416" data-name="Path 1416" d="M131.76,112.105c0-.136,36.4-.236,81.287-.245s81.3.109,81.3.236-36.342.236-81.3.245S131.76,112.232,131.76,112.105Z" transform="translate(-104.095 -10.294)" fill="#e0e0e0"/>
    <path id="Path_1417" data-name="Path 1417" d="M218.74,23.169V46.3c0,2.926,4.543,2.935,4.543,0V23.169C223.283,20.244,218.74,20.244,218.74,23.169Z" transform="translate(-112.05 -1.982)" fill="#37afe4"/>
    <path id="Path_1418" data-name="Path 1418" d="M244.036,109.787a3.957,3.957,0,0,1,0-.418c0-.3-.045-.718-.082-1.245a4.683,4.683,0,0,0-.064-.909c-.064-.336-.109-.7-.164-1.09a18.172,18.172,0,0,0-.554-2.726,24.977,24.977,0,0,0-2.9-6.923,26,26,0,0,0-6.614-7.359,25.685,25.685,0,0,0-10.9-4.833A25.966,25.966,0,0,0,209.13,85.42a26.348,26.348,0,0,0-3.38,1.49c-.545.291-1.072.636-1.608.963a12.2,12.2,0,0,0-1.563,1.072,23.413,23.413,0,0,0-5.451,5.506,24.975,24.975,0,0,0-3.7,7.132,25.639,25.639,0,0,0,0,16.354,24.922,24.922,0,0,0,3.7,7.141,29.848,29.848,0,0,0,2.535,3,28.163,28.163,0,0,0,2.944,2.5,12.262,12.262,0,0,0,1.563,1.081c.536.318,1.063.663,1.608.963a27.638,27.638,0,0,0,3.38,1.481A25.99,25.99,0,0,0,240.3,123.042a24.931,24.931,0,0,0,2.9-6.914,18.308,18.308,0,0,0,.554-2.726c.054-.391.127-.754.164-1.081a8.717,8.717,0,0,1,.064-.909c0-.527.064-.909.082-1.236a3.974,3.974,0,0,1,0-.427s0,.145,0,.427v2.153a9.192,9.192,0,0,1-.145,1.1,18.335,18.335,0,0,1-.509,2.726,24.759,24.759,0,0,1-2.853,7,26.284,26.284,0,0,1-17.689,12.447,24.814,24.814,0,0,1-3.325.4c-.563,0-1.136.073-1.717.064l-1.744-.082a11.5,11.5,0,0,1-1.753-.191c-.591-.091-1.181-.164-1.772-.282a27.573,27.573,0,0,1-3.516-1.018,28.068,28.068,0,0,1-3.543-1.49c-.554-.3-1.09-.654-1.644-.981a13.321,13.321,0,0,1-1.59-1.09,30.223,30.223,0,0,1-2.989-2.535,29.831,29.831,0,0,1-2.589-3.053,25.44,25.44,0,0,1-3.77-7.268,26.093,26.093,0,0,1,0-16.644,25.439,25.439,0,0,1,3.77-7.268,29.831,29.831,0,0,1,2.589-3.053,30.213,30.213,0,0,1,2.989-2.535,14.09,14.09,0,0,1,1.59-1.09c.554-.327,1.09-.672,1.644-.981a27.257,27.257,0,0,1,3.443-1.5,28.718,28.718,0,0,1,3.516-1.027c.581-.118,1.181-.182,1.772-.282a11.5,11.5,0,0,1,1.753-.191l1.744-.082a13.574,13.574,0,0,1,1.717.073,24.993,24.993,0,0,1,3.325.391A26.348,26.348,0,0,1,240.457,96.34a24.8,24.8,0,0,1,2.853,7.014,17.917,17.917,0,0,1,.509,2.726c.054.391.118.763.145,1.1s0,.636,0,.909v1.245A.957.957,0,0,0,244.036,109.787Z" transform="translate(-109.563 -7.694)" fill="#e0e0e0"/>
    <path id="Path_1419" data-name="Path 1419" d="M200.439,197.1a2.845,2.845,0,0,1-.045-.654c0-.472,0-1.09,0-1.863,0-1.681-.045-4.007-.082-6.869,0-5.851,0-13.837-.064-22.659s.045-16.817.064-22.668c0-2.862.064-5.2.082-6.869v-1.863a2.844,2.844,0,0,1,.045-.654,3.709,3.709,0,0,1,0,.654c0,.472,0,1.09.045,1.863,0,1.672.045,4.007.073,6.869,0,5.851.045,13.837.073,22.668s-.055,16.808-.073,22.659c0,2.862-.055,5.188-.073,6.869,0,.772,0,1.39-.045,1.863A3.709,3.709,0,0,1,200.439,197.1Z" transform="translate(-110.357 -12.228)" fill="#e0e0e0"/>
    <path id="Path_1420" data-name="Path 1420" d="M210.63,197.687a2.354,2.354,0,0,1-.045-.591c0-.445,0-1.008,0-1.7,0-1.535-.045-3.634-.073-6.242,0-5.324-.045-12.574-.073-20.588s.055-15.273.073-20.6c0-2.589.055-4.706.073-6.242v-1.7a2.354,2.354,0,0,1,.045-.591,2.354,2.354,0,0,1,0,.591c0,.445,0,1.008.045,1.7,0,1.535.045,3.634.073,6.242,0,5.324,0,12.574.073,20.6s-.055,15.264-.073,20.588c0,2.589-.055,4.706-.073,6.242,0,.69,0,1.254-.045,1.7A2.353,2.353,0,0,1,210.63,197.687Z" transform="translate(-111.29 -12.817)" fill="#e0e0e0"/>
    <path id="Path_1421" data-name="Path 1421" d="M240.537,197.106a3.108,3.108,0,0,1-.055-.654c0-.472,0-1.09,0-1.863,0-1.672-.045-4-.082-6.859,0-5.842,0-13.819-.064-22.632s0-16.79.064-22.632c0-2.853.064-5.188.082-6.859v-1.863a3.105,3.105,0,0,1,.055-.654,3.705,3.705,0,0,1,.045.654c0,.472,0,1.09,0,1.863,0,1.672.045,4.007.073,6.859,0,5.842,0,13.819.073,22.632s-.055,16.79-.073,22.632c0,2.862-.055,5.188-.073,6.859v1.863A3.707,3.707,0,0,1,240.537,197.106Z" transform="translate(-114.023 -12.236)" fill="#e0e0e0"/>
    <path id="Path_1422" data-name="Path 1422" d="M231.176,197.66a2.281,2.281,0,0,1,0-.591l-.091-1.726c0-1.535,0-3.634-.073-6.269,0-5.342-.045-12.629-.073-20.678s.055-15.336.073-20.687c0-2.6.055-4.724.073-6.26,0-.7,0-1.272.045-1.708a2.281,2.281,0,0,1,0-.591,2.281,2.281,0,0,1,.045.591c0,.436,0,1.008.045,1.708,0,1.535,0,3.634.073,6.26,0,5.351.045,12.638.073,20.687s-.055,15.336-.073,20.678c0,2.608-.055,4.734-.073,6.269,0,.7,0,1.263-.045,1.708A2.28,2.28,0,0,1,231.176,197.66Z" transform="translate(-113.165 -12.79)" fill="#e0e0e0"/>
    <path id="Path_1423" data-name="Path 1423" d="M195.954,100.318a23.7,23.7,0,0,1,6.16-8.359c.318-.3.654-.591.99-.909l.463-.373c.591-.482-.327.218.282-.227s1.363-.972,2.09-1.408a23.9,23.9,0,0,1,2.108-1.136l.572-.263c-.436.191.173-.064.209-.073.372-.145.745-.273,1.127-.391a2.271,2.271,0,1,0-1.208-4.379,26.484,26.484,0,0,0-9.667,5.733,28.228,28.228,0,0,0-7.05,9.44,2.335,2.335,0,0,0,.854,3.171,2.28,2.28,0,0,0,3.107-.809Z" transform="translate(-109.579 -7.629)" fill="#37afe4"/>
    <path id="Path_1424" data-name="Path 1424" d="M216.73,70.7c-15.954.064-30.818,10.048-35.942,25.3-2.726,8.113-2.98,17.571.318,25.557a40.567,40.567,0,0,0,5.6,9.376,46.009,46.009,0,0,0,3.734,4.352,28.165,28.165,0,0,1,4.543,5.333,10.475,10.475,0,0,1,1.454,4.843c.1,2.044-.127,4.088-.164,6.142v6.587a2.308,2.308,0,0,0,2.271,2.271h36.387a2.308,2.308,0,0,0,2.271-2.271v-.627c0-2.916-4.543-2.926-4.543,0v.627l2.271-2.271H198.514l2.262,2.271v-6.151c0-3.1.454-6.178-.154-9.258-.854-4.352-3.97-7.677-6.987-10.712a42.447,42.447,0,0,1-6.251-8.041c-7.986-13.21-4.107-31.308,7.6-41.075a34.406,34.406,0,0,1,21.741-7.75c2.926,0,2.935-4.543,0-4.543Z" transform="translate(-108.387 -6.526)" fill="#37afe4"/>
    <path id="Path_1425" data-name="Path 1425" d="M254.592,106.309a37.087,37.087,0,0,1-.69,15.064,31.335,31.335,0,0,1-5.36,10.548c-2.008,2.662-4.979,5.251-7.268,8-2.553,3.116-3.116,6.705-3.216,10.639-.082,3.343,0,6.7,0,9.994,0,2.925,4.543,2.935,4.543,0v-8.177c0-1.127,0-2.253.091-3.371a13.628,13.628,0,0,1,.3-2.607c.091-.382.191-.763.309-1.136.055-.164.118-.318.182-.482-.182.463.073-.154.1-.2a9.086,9.086,0,0,1,1.236-1.817c2.526-2.9,5.324-5.451,7.65-8.568a34.788,34.788,0,0,0,5.651-11.066,42.133,42.133,0,0,0,.854-18.044,2.29,2.29,0,0,0-2.8-1.59,2.344,2.344,0,0,0-1.581,2.8Z" transform="translate(-113.813 -9.523)" fill="#37afe4"/>
    <path id="Path_1426" data-name="Path 1426" d="M278.467,118.551l-4.97,3.28-1.417-2.09,4.942-3.262Z" transform="translate(-116.928 -10.717)" fill="#263238"/>
    <path id="Path_1427" data-name="Path 1427" d="M266.289,105.55l4.415,6.06a1.227,1.227,0,1,1-.672.472l-3.852-6.26h0l.663,9.349L271.1,118.2l4.815-3.153-.963-4.888Z" transform="translate(-116.389 -9.717)" fill="#263238"/>
    <path id="Path_1428" data-name="Path 1428" d="M285.661,117.319l-1.381,1.944h0l2.271-.382v1.027l-2.3-.191h0l1.526,1.763-.909.581-.99-2.09h0l-.909,2.171-.909-.518,1.372-1.9h0l-2.235.363v-1.027l2.235.209h0l-1.49-1.817.909-.563,1.018,2.071h0l.845-2.153Z" transform="translate(-117.763 -10.747)" fill="#263238"/>
    <path id="Path_1429" data-name="Path 1429" d="M253.869,160.187v-6.505c0-4.234,0-10.4-.055-18.234,0-15.645-.064-37.923-.109-64.452l.218.218h-74.8l.236-.236v89.191l-.2-.2,54.249.1,15.173.055h.073l-15.118.055-54.376.1h-.2V70.65h75.254v.318c-.045,26.593-.082,48.907-.109,64.588,0,7.813,0,13.964-.055,18.171v6.015A.561.561,0,0,1,253.869,160.187Z" transform="translate(-108.412 -6.525)" fill="#263238"/>
    <rect id="Rectangle_486" data-name="Rectangle 486" width="2.862" height="2.862" transform="translate(69.249 62.798)" fill="#fff"/>
    <path id="Path_1430" data-name="Path 1430" d="M180.384,72.029a20.313,20.313,0,0,1-.209-2.862l.2.209h-2.862l.236-.236h0v2.853l-.209-.2a23.624,23.624,0,0,1,2.871.2,15.317,15.317,0,0,1-2.871.209h-.2V69.176h0l.236-.236h3.08v.2A16.836,16.836,0,0,1,180.384,72.029Z" transform="translate(-108.264 -6.369)" fill="#263238"/>
    <rect id="Rectangle_487" data-name="Rectangle 487" width="2.862" height="2.862" transform="translate(69.249 104.782)" fill="#fff"/>
    <path id="Path_1431" data-name="Path 1431" d="M180.378,118.243a20.7,20.7,0,0,1-.209-2.871l.2.209h-2.862l.236-.236h0v2.844l-.209-.209a20.7,20.7,0,0,1,2.871.209,16,16,0,0,1-2.871.2h-.2v-3.053h0c-.209.218.291-.282.236-.236h3.08v.2a17.172,17.172,0,0,1-.273,2.944Z" transform="translate(-108.258 -10.59)" fill="#263238"/>
    <rect id="Rectangle_488" data-name="Rectangle 488" width="2.862" height="2.862" transform="translate(69.249 152.063)" fill="#fff"/>
    <path id="Path_1432" data-name="Path 1432" d="M180.384,170.274a20.313,20.313,0,0,1-.209-2.862l.2.2h-2.862l.236-.236h0v2.853l-.209-.2a21.615,21.615,0,0,1,2.871.2,15.319,15.319,0,0,1-2.871.209h-.2v-3.062h0l.236-.236h3.08v.2a16.982,16.982,0,0,1-.273,2.935Z" transform="translate(-108.264 -15.35)" fill="#263238"/>
    <rect id="Rectangle_489" data-name="Rectangle 489" width="2.862" height="2.862" transform="translate(106.981 152.88)" fill="#fff"/>
    <path id="Path_1433" data-name="Path 1433" d="M221.9,171.184a23.628,23.628,0,0,1-.2-2.871l.2.209h-2.862l.236-.236h0v2.844l-.209-.209a20.314,20.314,0,0,1,2.862.209,16.837,16.837,0,0,1-2.862.2h-.2v-3.053h0l.236-.236h3.08v.2a15.317,15.317,0,0,1-.282,2.944Z" transform="translate(-112.062 -15.432)" fill="#263238"/>
    <rect id="Rectangle_490" data-name="Rectangle 490" width="2.862" height="2.862" transform="translate(144.022 152.063)" fill="#fff"/>
    <path id="Path_1434" data-name="Path 1434" d="M262.7,170.274a21.215,21.215,0,0,1-.2-2.862l.2.2h-2.862l.236-.236h0v2.853l-.2-.2a21.212,21.212,0,0,1,2.862.2,15.145,15.145,0,0,1-2.862.209h-.2v-3.062h0l.236-.236h3.071v.2A15.143,15.143,0,0,1,262.7,170.274Z" transform="translate(-115.793 -15.35)" fill="#263238"/>
    <rect id="Rectangle_491" data-name="Rectangle 491" width="2.862" height="2.862" transform="translate(107.181 62.798)" fill="#fff"/>
    <path id="Path_1435" data-name="Path 1435" d="M222.125,72.029a21.21,21.21,0,0,1-.2-2.862l.2.209h-2.862l.236-.236h0v2.853l-.2-.2a23.139,23.139,0,0,1,2.862.2,15.144,15.144,0,0,1-2.862.209h-.2V69.176h0l.236-.236h3.071v.2a15.029,15.029,0,0,1-.282,2.889Z" transform="translate(-112.083 -6.369)" fill="#263238"/>
    <rect id="Rectangle_492" data-name="Rectangle 492" width="2.862" height="2.862" transform="translate(144.285 63.044)" fill="#fff"/>
    <path id="Path_1436" data-name="Path 1436" d="M262.959,72.3a20.477,20.477,0,0,1-.209-2.862l.209.2H260.1c-.055,0,.445-.454.236-.236h0v2.844l-.2-.2a21.559,21.559,0,0,1,2.862.2,15.263,15.263,0,0,1-2.862.209h-.209v-3h0c-.218.209.282-.291.236-.236h3.071v.2a15.943,15.943,0,0,1-.273,2.88Z" transform="translate(-115.812 -6.394)" fill="#263238"/>
    <path id="Path_1437" data-name="Path 1437" d="M132.349,114.173H154.4c2.926,0,2.926-4.543,0-4.543h-22.05C129.424,109.63,129.424,114.173,132.349,114.173Z" transform="translate(-103.948 -10.09)" fill="#37afe4"/>
    <path id="Path_1438" data-name="Path 1438" d="M159.709,174.232l15.618-15.572c2.071-2.062-1.145-5.279-3.216-3.207l-15.618,15.572C154.421,173.087,157.637,176.3,159.709,174.232Z" transform="translate(-106.296 -14.22)" fill="#37afe4"/>
    <path id="Path_1439" data-name="Path 1439" d="M201.019,180.773h34.888c2.926,0,2.926-4.543,0-4.543H201.019C198.093,176.23,198.084,180.773,201.019,180.773Z" transform="translate(-110.228 -16.181)" fill="#37afe4"/>
    <path id="Path_1440" data-name="Path 1440" d="M210.779,190.033h18.053c2.925,0,2.925-4.543,0-4.543H210.779C207.854,185.49,207.854,190.033,210.779,190.033Z" transform="translate(-111.121 -17.028)" fill="#37afe4"/>
    <path id="Path_1441" data-name="Path 1441" d="M156.612,50.23l15.681,15.5c2.081,2.062,5.3-1.154,3.216-3.207l-15.69-15.5c-2.081-2.062-5.3,1.145-3.207,3.207Z" transform="translate(-106.306 -4.303)" fill="#37afe4"/>
    <path id="Path_1442" data-name="Path 1442" d="M258.776,141.878c-.127,0-.236-12.843-.236-28.679s.109-28.679.236-28.679.236,12.828.236,28.679S258.958,141.878,258.776,141.878Z" transform="translate(-115.69 -7.794)" fill="#263238"/>
    <rect id="Rectangle_493" data-name="Rectangle 493" width="0.809" height="0.809" transform="translate(142.686 95.978)" fill="#fff"/>
    <path id="Path_1443" data-name="Path 1443" d="M259.421,124.013c0,.708-.354,1.283-.79,1.283s-.79-.574-.79-1.283.354-1.283.79-1.283.79.574.79,1.283Z" transform="translate(-115.626 10.338)" fill="#263238"/>
    <path id="Path_1444" data-name="Path 1444" d="M259.421,85.19a.79.79,0,1,1-.79-.79A.79.79,0,0,1,259.421,85.19Z" transform="translate(-115.626 -7.783)" fill="#263238"/>
    <rect id="Rectangle_494" data-name="Rectangle 494" width="8.604" height="183.398" transform="translate(0.718 6.932)" fill="#455a64"/>
    <rect id="Rectangle_495" data-name="Rectangle 495" width="198.053" height="7.75" transform="translate(0.718 0.718)" fill="#263238"/>
    <rect id="Rectangle_496" data-name="Rectangle 496" width="198.053" height="7.423" transform="translate(0.718 8.459)" fill="#455a64"/>
    <path id="Path_1445" data-name="Path 1445" d="M108.253,4.667a1.326,1.326,0,1,1-1.326-1.317,1.326,1.326,0,0,1,1.326,1.317Z" transform="translate(-101.702 -0.37)" fill="#455a64"/>
    <path id="Path_1446" data-name="Path 1446" d="M112.873,4.667a1.326,1.326,0,1,1-1.317-1.317,1.326,1.326,0,0,1,1.317,1.317Z" transform="translate(-102.125 -0.37)" fill="#455a64"/>
    <path id="Path_1447" data-name="Path 1447" d="M117.5,4.667a1.326,1.326,0,1,1-1.326-1.317A1.326,1.326,0,0,1,117.5,4.667Z" transform="translate(-102.548 -0.37)" fill="#455a64"/>
    <path id="Path_1448" data-name="Path 1448" d="M116.3,17.463a37.75,37.75,0,0,1-5.915.236,37.823,37.823,0,0,1-5.924-.236,37.823,37.823,0,0,1,5.924-.236,37.749,37.749,0,0,1,5.915.236Z" transform="translate(-101.598 -1.637)" fill="#263238"/>
    <path id="Path_1449" data-name="Path 1449" d="M111.543,23.342a35.078,35.078,0,0,1-.236-5.706,35.014,35.014,0,0,1,.236-5.7,35.016,35.016,0,0,1,.236,5.7,35.079,35.079,0,0,1-.236,5.706Z" transform="translate(-102.222 -1.156)" fill="#263238"/>
    <path id="Path_1450" data-name="Path 1450" d="M119.556,17.048c-.136,0-.236-.69-.236-1.545s.1-1.554.236-1.554.236.69.236,1.554S119.683,17.048,119.556,17.048Z" transform="translate(-102.957 -1.339)" fill="#263238"/>
    <path id="Path_1451" data-name="Path 1451" d="M128.753,17.01a7.65,7.65,0,0,1-.236-2.635,7.65,7.65,0,0,1,.236-2.635,7.4,7.4,0,0,1,.236,2.635A7.4,7.4,0,0,1,128.753,17.01Z" transform="translate(-103.796 -1.137)" fill="#263238"/>
    <path id="Path_1452" data-name="Path 1452" d="M137.506,17.048c-.136,0-.236-.69-.236-1.545s.1-1.554.236-1.554.236.69.236,1.554S137.633,17.048,137.506,17.048Z" transform="translate(-104.599 -1.339)" fill="#263238"/>
    <path id="Path_1453" data-name="Path 1453" d="M146.7,17.01a7.65,7.65,0,0,1-.236-2.635,7.65,7.65,0,0,1,.236-2.635,7.4,7.4,0,0,1,.236,2.635A7.4,7.4,0,0,1,146.7,17.01Z" transform="translate(-105.438 -1.137)" fill="#263238"/>
    <path id="Path_1454" data-name="Path 1454" d="M155.456,17.048c-.136,0-.236-.69-.236-1.545s.1-1.554.236-1.554.236.69.236,1.554S155.583,17.048,155.456,17.048Z" transform="translate(-106.241 -1.339)" fill="#263238"/>
    <path id="Path_1455" data-name="Path 1455" d="M164.653,17.01a7.65,7.65,0,0,1-.236-2.635,7.65,7.65,0,0,1,.236-2.635,7.4,7.4,0,0,1,.236,2.635A7.4,7.4,0,0,1,164.653,17.01Z" transform="translate(-107.079 -1.137)" fill="#263238"/>
    <path id="Path_1456" data-name="Path 1456" d="M173.406,17.048c-.136,0-.236-.69-.236-1.545s.1-1.554.236-1.554.236.69.236,1.554S173.533,17.048,173.406,17.048Z" transform="translate(-107.882 -1.339)" fill="#263238"/>
    <path id="Path_1457" data-name="Path 1457" d="M182.6,17.01a7.65,7.65,0,0,1-.236-2.635,7.65,7.65,0,0,1,.236-2.635,7.4,7.4,0,0,1,.236,2.635A7.4,7.4,0,0,1,182.6,17.01Z" transform="translate(-108.721 -1.137)" fill="#263238"/>
    <path id="Path_1458" data-name="Path 1458" d="M191.356,17.048c-.127,0-.236-.69-.236-1.545s.109-1.554.236-1.554.236.69.236,1.554S191.483,17.048,191.356,17.048Z" transform="translate(-109.524 -1.339)" fill="#263238"/>
    <path id="Path_1459" data-name="Path 1459" d="M200.553,17.01a7.65,7.65,0,0,1-.236-2.635,7.65,7.65,0,0,1,.236-2.635,7.4,7.4,0,0,1,.236,2.635,7.4,7.4,0,0,1-.236,2.635Z" transform="translate(-110.363 -1.137)" fill="#263238"/>
    <path id="Path_1460" data-name="Path 1460" d="M209.306,17.048c-.127,0-.236-.69-.236-1.545s.109-1.554.236-1.554.236.69.236,1.554S209.433,17.048,209.306,17.048Z" transform="translate(-111.166 -1.339)" fill="#263238"/>
    <path id="Path_1461" data-name="Path 1461" d="M218.512,17.01a7.268,7.268,0,0,1-.245-2.635,7.268,7.268,0,0,1,.245-2.635,7.65,7.65,0,0,1,.236,2.635A7.65,7.65,0,0,1,218.512,17.01Z" transform="translate(-112.004 -1.137)" fill="#263238"/>
    <path id="Path_1462" data-name="Path 1462" d="M227.256,17.048c-.127,0-.236-.69-.236-1.545s.109-1.554.236-1.554.236.69.236,1.554S227.383,17.048,227.256,17.048Z" transform="translate(-112.807 -1.339)" fill="#263238"/>
    <path id="Path_1463" data-name="Path 1463" d="M236.463,17.01a7.4,7.4,0,0,1-.236-2.635,7.4,7.4,0,0,1,.236-2.635,7.65,7.65,0,0,1,.236,2.635,7.65,7.65,0,0,1-.236,2.635Z" transform="translate(-113.647 -1.137)" fill="#263238"/>
    <path id="Path_1464" data-name="Path 1464" d="M245.206,17.048c-.127,0-.236-.69-.236-1.545s.109-1.554.236-1.554.236.69.236,1.554S245.333,17.048,245.206,17.048Z" transform="translate(-114.449 -1.339)" fill="#263238"/>
    <path id="Path_1465" data-name="Path 1465" d="M254.413,17.01a7.4,7.4,0,0,1-.236-2.635,7.4,7.4,0,0,1,.236-2.635,7.65,7.65,0,0,1,.236,2.635A7.65,7.65,0,0,1,254.413,17.01Z" transform="translate(-115.288 -1.137)" fill="#263238"/>
    <path id="Path_1466" data-name="Path 1466" d="M263.156,17.053c-.127,0-.236-.69-.236-1.545s.073-1.508.236-1.508.236.69.236,1.554S263.292,17.053,263.156,17.053Z" transform="translate(-116.091 -1.344)" fill="#263238"/>
    <path id="Path_1467" data-name="Path 1467" d="M272.363,17.01a7.4,7.4,0,0,1-.236-2.635,7.4,7.4,0,0,1,.236-2.635,7.649,7.649,0,0,1,.236,2.635,7.65,7.65,0,0,1-.236,2.635Z" transform="translate(-116.93 -1.137)" fill="#263238"/>
    <path id="Path_1468" data-name="Path 1468" d="M281.106,17.053c-.127,0-.236-.69-.236-1.545s.118-1.508.236-1.508.236.69.236,1.554S281.242,17.053,281.106,17.053Z" transform="translate(-117.732 -1.344)" fill="#263238"/>
    <path id="Path_1469" data-name="Path 1469" d="M290.313,17.01a7.4,7.4,0,0,1-.236-2.635,7.4,7.4,0,0,1,.236-2.635,7.649,7.649,0,0,1,.236,2.635,7.649,7.649,0,0,1-.236,2.635Z" transform="translate(-118.572 -1.137)" fill="#263238"/>
    <path id="Path_1470" data-name="Path 1470" d="M299.056,17.048c-.127,0-.236-.69-.236-1.545s.109-1.554.236-1.554.236.69.236,1.554S299.193,17.048,299.056,17.048Z" transform="translate(-119.374 -1.339)" fill="#263238"/>
    <path id="Path_1471" data-name="Path 1471" d="M110.888,204.876c0,.127-.69.236-1.545.236s-1.554-.109-1.554-.236.7-.236,1.554-.236S110.888,204.749,110.888,204.876Z" transform="translate(-101.903 -18.78)" fill="#263238"/>
    <path id="Path_1472" data-name="Path 1472" d="M110.85,195.672a7.613,7.613,0,0,1-2.635.236,7.65,7.65,0,0,1-2.635-.236,7.268,7.268,0,0,1,2.635-.245A7.268,7.268,0,0,1,110.85,195.672Z" transform="translate(-101.701 -17.934)" fill="#263238"/>
    <path id="Path_1473" data-name="Path 1473" d="M110.888,186.976c0,.127-.69.236-1.545.236s-1.554-.109-1.554-.236.7-.236,1.554-.236S110.888,186.8,110.888,186.976Z" transform="translate(-101.903 -17.143)" fill="#263238"/>
    <path id="Path_1474" data-name="Path 1474" d="M110.85,177.713a7.359,7.359,0,0,1-2.635.236,7.4,7.4,0,0,1-2.635-.236,7.65,7.65,0,0,1,2.635-.236A7.614,7.614,0,0,1,110.85,177.713Z" transform="translate(-101.701 -16.293)" fill="#263238"/>
    <path id="Path_1475" data-name="Path 1475" d="M110.888,168.976c0,.127-.69.236-1.545.236s-1.554-.109-1.554-.236.7-.236,1.554-.236S110.888,168.849,110.888,168.976Z" transform="translate(-101.903 -15.496)" fill="#263238"/>
    <path id="Path_1476" data-name="Path 1476" d="M110.85,159.763a7.359,7.359,0,0,1-2.635.236,7.4,7.4,0,0,1-2.635-.236,7.65,7.65,0,0,1,2.635-.236A7.613,7.613,0,0,1,110.85,159.763Z" transform="translate(-101.701 -14.651)" fill="#263238"/>
    <path id="Path_1477" data-name="Path 1477" d="M110.888,151.026c0,.127-.69.236-1.545.236s-1.554-.109-1.554-.236.7-.236,1.554-.236S110.888,150.89,110.888,151.026Z" transform="translate(-101.903 -13.855)" fill="#263238"/>
    <path id="Path_1478" data-name="Path 1478" d="M110.85,141.813a7.359,7.359,0,0,1-2.635.236,7.4,7.4,0,0,1-2.635-.236,7.65,7.65,0,0,1,2.635-.236,7.613,7.613,0,0,1,2.635.236Z" transform="translate(-101.701 -13.01)" fill="#263238"/>
    <path id="Path_1479" data-name="Path 1479" d="M110.888,133.076c0,.127-.69.236-1.545.236s-1.554-.109-1.554-.236.7-.236,1.554-.236A3.183,3.183,0,0,1,110.888,133.076Z" transform="translate(-101.903 -12.213)" fill="#263238"/>
    <path id="Path_1480" data-name="Path 1480" d="M110.85,123.863a7.359,7.359,0,0,1-2.635.236,7.4,7.4,0,0,1-2.635-.236,7.65,7.65,0,0,1,2.635-.236A7.614,7.614,0,0,1,110.85,123.863Z" transform="translate(-101.701 -11.368)" fill="#263238"/>
    <path id="Path_1481" data-name="Path 1481" d="M110.888,115.126c0,.127-.69.236-1.545.236s-1.554-.109-1.554-.236.7-.236,1.554-.236S110.888,114.99,110.888,115.126Z" transform="translate(-101.903 -10.571)" fill="#263238"/>
    <path id="Path_1482" data-name="Path 1482" d="M110.85,105.913a7.359,7.359,0,0,1-2.635.236,7.4,7.4,0,0,1-2.635-.236,7.65,7.65,0,0,1,2.635-.236,7.613,7.613,0,0,1,2.635.236Z" transform="translate(-101.701 -9.726)" fill="#263238"/>
    <path id="Path_1483" data-name="Path 1483" d="M110.888,97.176c0,.127-.69.236-1.545.236s-1.554-.109-1.554-.236.7-.236,1.554-.236S110.888,97.04,110.888,97.176Z" transform="translate(-101.903 -8.93)" fill="#263238"/>
    <path id="Path_1484" data-name="Path 1484" d="M110.85,87.973a7.359,7.359,0,0,1-2.635.236,7.4,7.4,0,0,1-2.635-.236,7.65,7.65,0,0,1,2.635-.236,7.613,7.613,0,0,1,2.635.236Z" transform="translate(-101.701 -8.085)" fill="#263238"/>
    <path id="Path_1485" data-name="Path 1485" d="M110.888,79.226c0,.127-.69.236-1.545.236s-1.554-.109-1.554-.236.7-.236,1.554-.236S110.888,79.09,110.888,79.226Z" transform="translate(-101.903 -7.288)" fill="#263238"/>
    <path id="Path_1486" data-name="Path 1486" d="M110.85,69.973a7.613,7.613,0,0,1-2.635.236,7.65,7.65,0,0,1-2.635-.236,7.65,7.65,0,0,1,2.635-.236A7.613,7.613,0,0,1,110.85,69.973Z" transform="translate(-101.701 -6.439)" fill="#263238"/>
    <path id="Path_1487" data-name="Path 1487" d="M110.888,61.275c0,.127-.69.236-1.545.236s-1.554-.109-1.554-.236.7-.245,1.554-.245S110.888,61.139,110.888,61.275Z" transform="translate(-101.903 -5.645)" fill="#263238"/>
    <path id="Path_1488" data-name="Path 1488" d="M110.85,52.063a7.614,7.614,0,0,1-2.635.236,7.65,7.65,0,0,1-2.635-.236,7.65,7.65,0,0,1,2.635-.236A7.613,7.613,0,0,1,110.85,52.063Z" transform="translate(-101.701 -4.801)" fill="#263238"/>
    <path id="Path_1489" data-name="Path 1489" d="M110.888,43.316c0,.136-.69.245-1.545.245s-1.554-.109-1.554-.245.7-.236,1.554-.236S110.888,43.189,110.888,43.316Z" transform="translate(-101.903 -4.004)" fill="#263238"/>
    <path id="Path_1490" data-name="Path 1490" d="M110.85,34.113a7.614,7.614,0,0,1-2.635.236,7.65,7.65,0,0,1-2.635-.236,7.65,7.65,0,0,1,2.635-.236A7.614,7.614,0,0,1,110.85,34.113Z" transform="translate(-101.701 -3.159)" fill="#263238"/>
    <path id="Path_1491" data-name="Path 1491" d="M110.888,25.366c0,.136-.69.236-1.545.236s-1.554-.1-1.554-.236.7-.236,1.554-.236S110.888,25.239,110.888,25.366Z" transform="translate(-101.903 -2.362)" fill="#263238"/>
    <path id="Path_1492" data-name="Path 1492" d="M300.081,190.4v-3.543c0-2.308,0-5.733-.073-10.194,0-8.895-.091-21.941-.154-38.549-.082-33.125-.182-80.469-.318-137.326l.609.609-198.062.1h0l.709-.709c0,69.267-.064,134.282-.091,189.613l-.618-.618L245.4,190.1l40.348.164,10.684.073h.073l-10.557.073-40.212.164-143.713.309H101.4v-.618c0-55.33-.055-120.345-.091-189.613V.07h.727L300.1.17h.618V.788c-.127,57.02-.236,104.482-.309,137.708-.064,16.554-.118,29.555-.154,38.422,0,4.406-.055,7.8-.073,10.076V190.2C300.181,190.346,300.09,190.409,300.081,190.4Z" transform="translate(-101.31 -0.07)" fill="#263238"/>
  </g>
  <g id="Speech_Bubble" data-name="Speech Bubble" transform="translate(5.555 106.904)">
    <path id="Path_1527" data-name="Path 1527" d="M58.993,166.323l-5.451-9.549a25.585,25.585,0,1,0-6.124,6.814h0Z" transform="translate(-6.119 -117.675)" fill="#fff"/>
    <path id="Path_1528" data-name="Path 1528" d="M58.987,166.313l-11.575-2.626a.091.091,0,0,1-.073-.118h0l.127.136a25.557,25.557,0,0,1-12.229,5.142,22.857,22.857,0,0,1-4.052.2c-.7,0-1.408-.055-2.117-.109l-2.162-.336a25.775,25.775,0,0,1-15.99-10.257A25.357,25.357,0,0,1,6.6,148.46a25.921,25.921,0,0,1,.318-11.411,25.2,25.2,0,0,1,5.451-10.521,25.7,25.7,0,0,1,9.858-7.032,26.039,26.039,0,0,1,11.466-1.763,25.293,25.293,0,0,1,10.521,3.107,26,26,0,0,1,12.138,14.946,27.638,27.638,0,0,1,1.108,8.313,25.521,25.521,0,0,1-3.825,12.72v-.1l5.342,9.594-5.5-9.5a.082.082,0,0,1,0-.091A25.439,25.439,0,0,0,57.2,144.126a27.7,27.7,0,0,0-1.136-8.177,25.63,25.63,0,0,0-12.02-14.718,24.939,24.939,0,0,0-10.376-3.053,25.775,25.775,0,0,0-11.3,1.7,25.339,25.339,0,0,0-9.712,6.941,24.776,24.776,0,0,0-5.406,10.357,25.866,25.866,0,0,0-.327,11.211A25.488,25.488,0,0,0,26.961,168.3l2.135.327c.709.064,1.408.082,2.1.127a22.4,22.4,0,0,0,4.007-.191,25.5,25.5,0,0,0,12.184-5.061.091.091,0,0,1,.127,0,.1.1,0,0,1,0,.118h0l-.045-.154Z" transform="translate(-6.114 -117.666)" fill="#263238"/>
    <path id="Path_1529" data-name="Path 1529" d="M22.68,145.575l3-3.007,5.787,5.142,11.357-10.93,2.789,3.007L31.039,153.5Z" transform="translate(-7.629 -119.414)" fill="#ed1588"/>
  </g>
  <g id="Character" transform="translate(45.236 99.766)">
    <path id="Path_1530" data-name="Path 1530" d="M93.894,169l8.177,12.792,11.057,10.067,5.806-8.813-.363-8.586-.309-7.2s9.5-1.753,9.34-11.3c-.073-4.606-1.008-14.082-1.953-22.65a17.771,17.771,0,0,0-18.171-15.836h-.909c-9.9.909-14.7,9.767-13.565,19.652L93.894,169" transform="translate(-53.727 -110.509)" fill="#936760"/>
    <path id="Path_1531" data-name="Path 1531" d="M119.608,171.95a22.186,22.186,0,0,1-12.538-3.18s3.144,6.787,12.638,5.651Z" transform="translate(-55.029 -115.201)" fill="#6f4c47"/>
    <path id="Path_1532" data-name="Path 1532" d="M125.976,144.119a1.372,1.372,0,0,1-1.281,1.417,1.308,1.308,0,0,1-1.435-1.19,1.372,1.372,0,0,1,1.272-1.417,1.308,1.308,0,0,1,1.445,1.19Z" transform="translate(-56.509 -114.654)" fill="#221f1f"/>
    <path id="Path_1533" data-name="Path 1533" d="M126.451,139.4c-.164.182-1.217-.545-2.726-.5s-2.517.809-2.68.636.082-.409.536-.763a3.725,3.725,0,0,1,2.144-.727,3.58,3.58,0,0,1,2.144.627C126.4,139,126.56,139.322,126.451,139.4Z" transform="translate(-56.302 -112.391)" fill="#263238"/>
    <path id="Path_1534" data-name="Path 1534" d="M111.726,144.119a1.372,1.372,0,0,1-1.272,1.417,1.308,1.308,0,0,1-1.445-1.19,1.372,1.372,0,0,1,1.272-1.417,1.308,1.308,0,0,1,1.445,1.19Z" transform="translate(-55.206 -114.654)" fill="#221f1f"/>
    <path id="Path_1535" data-name="Path 1535" d="M110.387,139.439c-.136.2-1.272-.409-2.726-.209s-2.417,1.081-2.6.909,0-.409.454-.809a3.716,3.716,0,0,1,2.044-.963,3.634,3.634,0,0,1,2.2.391C110.269,139.057,110.451,139.357,110.387,139.439Z" transform="translate(-54.839 -112.417)" fill="#263238"/>
    <path id="Path_1536" data-name="Path 1536" d="M117.133,151.432a9.521,9.521,0,0,1,2.362-.5c.382-.054.727-.136.781-.391a1.881,1.881,0,0,0-.282-1.108l-1.19-2.816a54.73,54.73,0,0,1-2.726-7.386,51.9,51.9,0,0,1,3.289,7.15l1.145,2.835a2.2,2.2,0,0,1,.236,1.472.909.909,0,0,1-.6.563,2.525,2.525,0,0,1-.636.109,9.858,9.858,0,0,1-2.38.073Z" transform="translate(-55.852 -112.499)" fill="#263238"/>
    <path id="Path_1537" data-name="Path 1537" d="M110.329,132.489c-.127.4-1.6.254-3.316.509s-3.089.772-3.325.418c-.109-.173.118-.554.672-.954a5.588,5.588,0,0,1,2.453-.909,5.524,5.524,0,0,1,2.608.227C110.02,131.953,110.329,132.3,110.329,132.489Z" transform="translate(-54.717 -111.791)" fill="#263238"/>
    <path id="Path_1538" data-name="Path 1538" d="M126.077,133.165c-.245.336-1.263,0-2.48.045s-2.235.282-2.48-.055c-.109-.164,0-.509.482-.836a3.634,3.634,0,0,1,4,0C126.04,132.656,126.186,133,126.077,133.165Z" transform="translate(-56.31 -111.813)" fill="#263238"/>
    <path id="Path_1539" data-name="Path 1539" d="M93.483,146.855c-.164-.073-6.614-1.753-6.214,4.761s6.859,4.779,6.859,4.543S93.483,146.855,93.483,146.855Z" transform="translate(-53.216 -113.174)" fill="#936760"/>
    <path id="Path_1540" data-name="Path 1540" d="M92.151,154.079a2.412,2.412,0,0,1-.3.182,1.108,1.108,0,0,1-.845.073,2.835,2.835,0,0,1-1.454-2.444,3.734,3.734,0,0,1,.218-1.644,1.317,1.317,0,0,1,.8-.909.572.572,0,0,1,.69.263c.1.182.064.309.1.318s.136-.118.064-.382a.727.727,0,0,0-.282-.391.836.836,0,0,0-.636-.127A1.6,1.6,0,0,0,89.38,150.1a3.934,3.934,0,0,0-.282,1.817,3.069,3.069,0,0,0,1.817,2.726,1.245,1.245,0,0,0,1.036-.236C92.151,154.233,92.17,154.088,92.151,154.079Z" transform="translate(-53.384 -113.393)" fill="#6f4c47"/>
    <path id="Path_1541" data-name="Path 1541" d="M125.826,121.439a3.316,3.316,0,0,0-2.58-2.589,2.971,2.971,0,0,0-4.743-3.316,3.044,3.044,0,0,0-4.234-2.608,2.571,2.571,0,0,0-4.852-1.263,4.434,4.434,0,0,0-6.923-.363,5.66,5.66,0,0,0-6.787,3.225,5.388,5.388,0,0,0-4.634,3.834,3.934,3.934,0,0,0-2.726,6.242,2.926,2.926,0,0,0-.472,4.624,2.862,2.862,0,0,0,.227,5.17c-.909.145-1.3,1.426-.99,2.344a26.711,26.711,0,0,0,1.435,2.517c.336.718.445,1.526.736,2.271a5.179,5.179,0,0,0,3.153,2.98l-.164.2c-.145.836,1.036,1.381,1.817,1.027a4.188,4.188,0,0,0,1.635-1.917,9.267,9.267,0,0,0,1.3-2.617,2.253,2.253,0,0,0-1-2.517,3.416,3.416,0,0,0,1.99-2.726,9.875,9.875,0,0,0-.309-3.525c-.354-1.717-.718-3.434-1.072-5.142a6.532,6.532,0,0,0,5.524-3.861,3.734,3.734,0,0,0,5.379-1.481,4.87,4.87,0,0,0,6,2.835c-.218,1.354,2.244,2.535,3.58,2.853a4.8,4.8,0,0,0,2.971-.663s2.326,1.281,3.561.754,2.816-2.153,1.981-3.416A6.06,6.06,0,0,0,125.826,121.439Z" transform="translate(-53.134 -109.809)" fill="#263238"/>
    <path id="Path_1542" data-name="Path 1542" d="M87.658,130.807a2.072,2.072,0,0,0,.672.827,1.227,1.227,0,0,0,1.072.164,1.326,1.326,0,0,0,.909-.99l.064-.391.318.236a1.763,1.763,0,0,0,1.817.236,1.735,1.735,0,0,0,.909-1.744l-.055-.382.363.136a1.726,1.726,0,0,0,1.317,0,1.817,1.817,0,0,0,.781-.727,4.47,4.47,0,0,0,.3-.972,1.407,1.407,0,0,1-.054,1.09,1.926,1.926,0,0,1-.909.909,2.1,2.1,0,0,1-1.644.136l.309-.245a2.135,2.135,0,0,1-3.516,1.944l.382-.136a1.717,1.717,0,0,1-1.236,1.281,1.517,1.517,0,0,1-1.345-.309C87.549,131.334,87.621,130.789,87.658,130.807Z" transform="translate(-53.251 -111.399)" fill="#455a64"/>
    <path id="Path_1543" data-name="Path 1543" d="M86.77,137.432a3.4,3.4,0,0,0,.709.254,1.554,1.554,0,0,0,1.617-.736l.118-.236.191.191a1.763,1.763,0,0,0,1.672.418,1.69,1.69,0,0,0,1.181-1.563v-.427l.363.227a1.054,1.054,0,0,0,.309.127,1.181,1.181,0,0,0,1.3-.482,1.236,1.236,0,0,0,0-1.3l-.254-.391.463.055a2.044,2.044,0,0,0,2.2-1.426A4.725,4.725,0,0,0,96.755,131a1.634,1.634,0,0,1,.136,1.208,2.217,2.217,0,0,1-.727,1.236,2.426,2.426,0,0,1-1.817.563l.209-.336a1.69,1.69,0,0,1,0,1.817,1.654,1.654,0,0,1-1.817.7,1.763,1.763,0,0,1-.445-.182l.382-.209a2.1,2.1,0,0,1-3.634,1.4h.309a1.672,1.672,0,0,1-1.036.781,1.817,1.817,0,0,1-.972,0A1.145,1.145,0,0,1,86.77,137.432Z" transform="translate(-53.172 -111.747)" fill="#455a64"/>
    <path id="Path_1544" data-name="Path 1544" d="M114.35,112.983a2.453,2.453,0,0,0-.754-.4,1.3,1.3,0,0,0-.909.082,1.381,1.381,0,0,0-.763.963l-.082.373-.209-.327A2.353,2.353,0,0,0,109.6,112.6a2.3,2.3,0,0,0-2.108,1.7l-.118.436-.282-.345a2.926,2.926,0,0,0-2.28-1.027,2.771,2.771,0,0,0-2.28,1.363,2.862,2.862,0,0,0-.382,1.072v.263l-.263-.055a2.726,2.726,0,0,0-3.107,1.535,2.835,2.835,0,0,0,.545,3.035l.254.263-.354.073a3.08,3.08,0,0,0-1.917,1.308,3.016,3.016,0,0,0-.5,1.744,4.388,4.388,0,0,0,.391,1.572,1.184,1.184,0,0,1-.263-.354,3.043,3.043,0,0,1-.354-1.208,3.162,3.162,0,0,1,.454-1.926,3.407,3.407,0,0,1,2.108-1.517l-.1.327a3.162,3.162,0,0,1,2.907-5.333l-.291.209a3.144,3.144,0,0,1,.445-1.263,3.243,3.243,0,0,1,2.726-1.59,3.353,3.353,0,0,1,2.653,1.217l-.391.091a2.653,2.653,0,0,1,4.843-.681l-.282.055a1.681,1.681,0,0,1,.972-1.127,1.526,1.526,0,0,1,1.1,0,1.508,1.508,0,0,1,.572.363C114.323,112.928,114.359,112.974,114.35,112.983Z" transform="translate(-54.068 -110.029)" fill="#455a64"/>
    <path id="Path_1545" data-name="Path 1545" d="M127.5,153.29a2.044,2.044,0,0,0-3.016.99,2.544,2.544,0,0,0-4.543.781,2.09,2.09,0,0,0-3.48-.591,1.644,1.644,0,0,0-1.772-.709,1.644,1.644,0,0,0-.827-1.608,1.663,1.663,0,0,0-1.817.182,2.626,2.626,0,0,0-3.879-.645,1.454,1.454,0,0,0-2.807.1,2.371,2.371,0,0,0-2.726-.709,1.581,1.581,0,0,0-1.962-1.445c.227-.8-.909-1.163-1.563-1.744-.273-.254-.445-.609-.736-.845s-.79-.282-.981,0a1.346,1.346,0,0,0-2.535-.909,4.124,4.124,0,0,0-.227,1.154c-.182,1.245-.909,2.726,0,3.634.164.154.373.282.436.491.118.363-.236.709-.263,1.09s.373.781.554,1.181a3.925,3.925,0,0,1,0,1.944c0,.654.327,1.481.981,1.417a2.29,2.29,0,0,0,.718,2.844,2.244,2.244,0,0,0,1.317,2.944,1.136,1.136,0,0,0-.082,1.508,3.262,3.262,0,0,0,1.336.972.909.909,0,0,0-.227,1.336,2.144,2.144,0,0,0,1.272.781,1.026,1.026,0,0,1,.572.3c.236.345-.082.8,0,1.208.1.627.981.8,1.236,1.372s-.064,1.227.345,1.617c.263.245.681.2,1.027.318.609.218.909.909,1.272,1.426a5.5,5.5,0,0,0,3.162,1.7c.6.154,1.208.282,1.817.4,1.217.227,2.453.373,3.634.527.618.073,1.363.082,1.69-.445a2.135,2.135,0,0,0,3.389-.4,5.17,5.17,0,0,0,3.289-.627l1.081-.472c1.081-.472,2.28-1.072,2.6-2.208a2.362,2.362,0,0,0,1.7-3.243c.491.145.963-.354,1.045-.854a4.543,4.543,0,0,0-.191-1.517c-.373-2.044.709-4.125.427-6.178-.2-1.445-1.054-2.871-.645-4.261a2.48,2.48,0,0,0,.2-.909c0-.3-.291-.609-.581-.518a1.326,1.326,0,0,0-1.345-1.763" transform="translate(-53.85 -113.05)" fill="#263238"/>
    <path id="Path_1546" data-name="Path 1546" d="M112.5,153.91c.236,0,.291,1.572,1.681,2.662s3.089.863,3.107,1.09-.373.318-1.09.354a3.916,3.916,0,0,1-2.58-.818,3.425,3.425,0,0,1-1.308-2.235C112.226,154.3,112.39,153.9,112.5,153.91Z" transform="translate(-55.506 -113.842)" fill="#fff"/>
    <path id="Path_1547" data-name="Path 1547" d="M102.192,165.569a10.775,10.775,0,0,1-.145-6.769,2.834,2.834,0,0,0-.4.909,7.968,7.968,0,0,0-.327,2.453,8.05,8.05,0,0,0,.427,2.444,3.053,3.053,0,0,0,.445.963Z" transform="translate(-54.503 -114.289)" fill="#455a64"/>
    <path id="Path_1548" data-name="Path 1548" d="M100.547,163.179a7.266,7.266,0,0,1-.363-.727,4.752,4.752,0,0,1-.164-1.926c.118-1.535.545-2.726.472-2.726a6.36,6.36,0,0,0-.727,2.726,4.134,4.134,0,0,0,.209,2C100.238,163.015,100.529,163.2,100.547,163.179Z" transform="translate(-54.357 -114.198)" fill="#455a64"/>
    <path id="Path_1549" data-name="Path 1549" d="M98.764,161.687a9.849,9.849,0,0,1-.681-2.835A9.349,9.349,0,0,1,98.528,156a1.908,1.908,0,0,0-.4.781,5.778,5.778,0,0,0,.173,4.2,2.108,2.108,0,0,0,.463.709Z" transform="translate(-54.182 -114.033)" fill="#455a64"/>
    <path id="Path_1550" data-name="Path 1550" d="M128.08,172.342a1.626,1.626,0,0,0,.909-.572,5.151,5.151,0,0,0,1.145-2.335,8.222,8.222,0,0,0,.218-2.58,3.2,3.2,0,0,0-.209-1.054,13.019,13.019,0,0,1-.263,3.571,5.569,5.569,0,0,1-1.027,2.271,5.1,5.1,0,0,1-.772.7Z" transform="translate(-56.95 -114.929)" fill="#455a64"/>
    <path id="Path_1551" data-name="Path 1551" d="M126.55,172.069a1.863,1.863,0,0,0,.736-.509,5.124,5.124,0,0,0,1.208-1.817,5.216,5.216,0,0,0,.345-2.144,1.9,1.9,0,0,0-.191-.909v.909a5.906,5.906,0,0,1-1.5,3.816A8.479,8.479,0,0,0,126.55,172.069Z" transform="translate(-56.81 -115.011)" fill="#455a64"/>
    <path id="Path_1552" data-name="Path 1552" d="M120.012,158.2a2.081,2.081,0,0,0-.463-2.317c-.064,0,.218.5.345,1.136S119.958,158.188,120.012,158.2Z" transform="translate(-56.169 -114.022)" fill="#455a64"/>
    <path id="Path_1553" data-name="Path 1553" d="M118.249,157.8a1.3,1.3,0,0,0,.545-.954c.091-.636-.164-1.108-.227-1.072s.073.482,0,1.036A7.567,7.567,0,0,1,118.249,157.8Z" transform="translate(-56.05 -114.012)" fill="#455a64"/>
    <path id="Path_1554" data-name="Path 1554" d="M116.419,157.243c.055.045.418-.291.581-.909a1.254,1.254,0,0,0,0-1.045c-.073,0-.055.463-.2.972S116.365,157.2,116.419,157.243Z" transform="translate(-55.883 -113.968)" fill="#455a64"/>
    <path id="Path_1555" data-name="Path 1555" d="M115.117,155.879a.884.884,0,0,0,.373-.536c.118-.345.109-.654,0-.663s-.164.254-.273.581S115.054,155.8,115.117,155.879Z" transform="translate(-55.762 -113.912)" fill="#455a64"/>
    <path id="Path_1556" data-name="Path 1556" d="M114,155.25c.064,0,.291-.291.654-.572s.727-.436.709-.5-.454,0-.909.3S113.915,155.223,114,155.25Z" transform="translate(-55.66 -113.864)" fill="#455a64"/>
    <path id="Path_1557" data-name="Path 1557" d="M112.3,153.982a11.2,11.2,0,0,1,1.136-.463c.654-.164,1.2-.082,1.208-.154a1.981,1.981,0,0,0-2.344.618Z" transform="translate(-55.507 -113.778)" fill="#455a64"/>
    <path id="Path_1558" data-name="Path 1558" d="M118.93,173.785a2.944,2.944,0,0,0,.681-.909,7.014,7.014,0,0,0,.909-2.526,7.1,7.1,0,0,0-.091-2.726,2.971,2.971,0,0,0-.391-1.045s.1.418.209,1.081a8.177,8.177,0,0,1,0,2.608,8.077,8.077,0,0,1-.818,2.48C119.148,173.421,118.893,173.757,118.93,173.785Z" transform="translate(-56.113 -115.001)" fill="#455a64"/>
    <path id="Path_1559" data-name="Path 1559" d="M117.08,173.882a5.588,5.588,0,0,0,1.472-5.142,8.613,8.613,0,0,1-1.472,5.142Z" transform="translate(-55.944 -115.198)" fill="#455a64"/>
    <path id="Path_1560" data-name="Path 1560" d="M113.84,173.352a1.563,1.563,0,0,0,.672-.327,4.543,4.543,0,0,0,1.29-1.272,4.407,4.407,0,0,0,.627-1.7,1.445,1.445,0,0,0,0-.754,7.541,7.541,0,0,1-.836,2.317,7.741,7.741,0,0,1-1.753,1.735Z" transform="translate(-55.648 -115.25)" fill="#455a64"/>
    <path id="Path_1561" data-name="Path 1561" d="M150.681,238.679l19.079,2.9,12.81-2.244,7.75-.718,5.369,4.443a3.271,3.271,0,0,1,1.181,2.571l-.064,3.9-.818.518.681,1.863a2.181,2.181,0,0,1-.581,2.353h0l-5.342-5.451,3.107,6.114a3.507,3.507,0,0,1-2.726.236c-1.817-.409-5.551-7.514-5.551-7.514l-2.98-.909,5.388,7.9s.209.627-1.245.909-7.75-6.287-7.75-6.287a13.41,13.41,0,0,1-5.806,3.234c-3.134.627-33.162,2.462-33.162,2.462l-1.354-24.9,10.475-1.118Z" transform="translate(-57.919 -120.703)" fill="#936760"/>
    <path id="Path_1562" data-name="Path 1562" d="M198.44,256.478a12.4,12.4,0,0,1-1.054-1.953c-.609-1.236-1.426-2.944-2.308-4.852a3.7,3.7,0,0,0-1.69-2.126c-.763-.354-1.535-.618-2.135-.909a11.394,11.394,0,0,1-1.953-.909,11.311,11.311,0,0,1,2.044.618c.627.227,1.363.445,2.2.809a4.016,4.016,0,0,1,1.89,2.308c.909,1.89,1.644,3.634,2.19,4.879a13.93,13.93,0,0,1,.818,2.135Z" transform="translate(-62.549 -122.24)" fill="#6f4c47"/>
    <path id="Path_1563" data-name="Path 1563" d="M200.494,251.364a17.022,17.022,0,0,1-1.154-1.772,42.207,42.207,0,0,0-2.926-4.152l-.909-1.118-.436-.536-.209-.254s-.082-.109-.1-.109H194.7c-.79-.209-1.59-.318-2.217-.427a11.345,11.345,0,0,1-2.081-.418,10,10,0,0,1,2.117.118,19.916,19.916,0,0,1,2.3.363h.091l.136.082c.064.064.073.091.118.136l.227.254.445.527.909,1.127a30.893,30.893,0,0,1,2.853,4.252A7.813,7.813,0,0,1,200.494,251.364Z" transform="translate(-62.65 -121.95)" fill="#6f4c47"/>
    <path id="Path_1564" data-name="Path 1564" d="M174.049,249.109a10.081,10.081,0,0,0,1.036.373,5.888,5.888,0,0,0,2.926.109,5.4,5.4,0,0,0,1.817-.79c.6-.418,1.172-.972,1.817-1.508a6,6,0,0,1,2.444-1.172,12.13,12.13,0,0,0,2.653-.909,9.465,9.465,0,0,0,1.217-.709l.545-.409a.736.736,0,0,0,.164-.191.1.1,0,0,0,0-.091.818.818,0,0,0-.482-.082h-1.972l-4.479-.164-3.025-.145a5.643,5.643,0,0,1-1.108-.118,5.569,5.569,0,0,1,1.118-.064h3.025l4.479.064h1.972a1.108,1.108,0,0,1,.809.236.518.518,0,0,1,.064.563,1.072,1.072,0,0,1-.273.345c-.191.164-.382.3-.581.445a9.722,9.722,0,0,1-1.272.745,12.038,12.038,0,0,1-2.726.909,5.751,5.751,0,0,0-2.308,1.072c-.654.509-1.245,1.072-1.89,1.49a5.615,5.615,0,0,1-1.99.8,5.733,5.733,0,0,1-3.044-.254,3.979,3.979,0,0,1-.745-.373C174.122,249.181,174,249.118,174.049,249.109Z" transform="translate(-61.154 -122.012)" fill="#6f4c47"/>
    <path id="Path_1565" data-name="Path 1565" d="M139.866,336.28s-20.515,9.358-40.466,9.358c-18.471,0-39.14-9.294-39.14-9.294Z" transform="translate(-50.748 -130.521)" fill="#e0e0e0"/>
    <rect id="Rectangle_497" data-name="Rectangle 497" width="7.913" height="82.877" transform="translate(54.485 289.535) rotate(180)" fill="#e0e0e0"/>
    <rect id="Rectangle_498" data-name="Rectangle 498" width="70.23" height="4.861" transform="translate(85.276 290.953) rotate(180)" fill="#e0e0e0"/>
    <path id="Path_1566" data-name="Path 1566" d="M134.59,431.82a5.36,5.36,0,1,0,5.36-5.36,5.36,5.36,0,0,0-5.36,5.36Z" transform="translate(-57.546 -138.769)" fill="#263238"/>
    <path id="Path_1567" data-name="Path 1567" d="M100.24,431.82a5.36,5.36,0,1,0,5.36-5.36,5.36,5.36,0,0,0-5.36,5.36Z" transform="translate(-54.404 -138.769)" fill="#263238"/>
    <path id="Path_1568" data-name="Path 1568" d="M60.46,431.82a5.36,5.36,0,1,0,5.36-5.36,5.36,5.36,0,0,0-5.36,5.36Z" transform="translate(-50.766 -138.769)" fill="#263238"/>
    <rect id="Rectangle_499" data-name="Rectangle 499" width="10.766" height="4.452" transform="translate(59.419 240.937) rotate(180)" fill="#e0e0e0"/>
    <rect id="Rectangle_500" data-name="Rectangle 500" width="3.916" height="10.694" transform="translate(61.381 244.054) rotate(180)" fill="#e0e0e0"/>
    <path id="Path_1569" data-name="Path 1569" d="M57.534,335.083h87.847a5.951,5.951,0,0,0,5.951-5.951h0a5.942,5.942,0,0,0-5.951-5.942H49.83v4.188A7.7,7.7,0,0,0,57.534,335.083Z" transform="translate(-49.794 -129.324)" fill="#1b1a30"/>
    <path id="Path_1570" data-name="Path 1570" d="M118.258,195.72l-62.008.772a5.624,5.624,0,0,0-5.551,5.578L49.79,311.532l83.586,1.136-9.431-111.751a5.633,5.633,0,0,0-5.687-5.2Z" transform="translate(-49.79 -117.666)" fill="#1b1a30"/>
    <path id="Path_1571" data-name="Path 1571" d="M201.4,401.45l-.345,21.142s21.369,7.441,21.687,11.357l-41.012.809L180.91,401.8Z" transform="translate(-61.782 -136.482)" fill="#ed1588"/>
    <path id="Path_1572" data-name="Path 1572" d="M188.964,423a1.672,1.672,0,0,0-1.117,1.935,1.617,1.617,0,0,0,1.908,1.127,1.817,1.817,0,0,0,1.172-2.053,1.654,1.654,0,0,0-2.108-.909" transform="translate(-62.413 -138.452)" fill="#e0e0e0"/>
    <path id="Path_1573" data-name="Path 1573" d="M181.8,437.775l-.136-3.325,39.485.472s1.817.754,1.663,2.044Z" transform="translate(-61.851 -139.5)" fill="#e0e0e0"/>
    <path id="Path_1574" data-name="Path 1574" d="M203.438,424.453c0,.2-1.008.318-1.981.981s-1.481,1.508-1.663,1.435.091-1.236,1.281-2.017S203.474,424.272,203.438,424.453Z" transform="translate(-63.505 -138.57)" fill="#263238"/>
    <path id="Path_1575" data-name="Path 1575" d="M208.311,426.332c0,.191-.809.545-1.472,1.408s-.845,1.763-1.045,1.753-.345-1.136.5-2.19S208.3,426.141,208.311,426.332Z" transform="translate(-64.044 -138.75)" fill="#263238"/>
    <path id="Path_1576" data-name="Path 1576" d="M211.354,431.649c-.182.045-.482-.909,0-2.053s1.417-1.563,1.508-1.4-.482.763-.909,1.681S211.554,431.585,211.354,431.649Z" transform="translate(-64.543 -138.925)" fill="#263238"/>
    <path id="Path_1577" data-name="Path 1577" d="M202.872,419.089c-.073.182-1-.073-2.135,0s-2,.472-2.108.3.727-.909,2.062-1S202.972,418.943,202.872,419.089Z" transform="translate(-63.402 -138.03)" fill="#263238"/>
    <path id="Path_1578" data-name="Path 1578" d="M129.911,281.329s12.147,1.817,24.658,4.152c15,2.78,30.963,6.269,33.1,7.95,3.934,3.08,4.77,11.493,6.451,21.869s2.062,87.556,2.062,87.556l-27.856.809-5.506-80.978s-40.675,0-49.061-.064c-6.75-.045-24.912.709-31.8-2.926-10.839-5.715-8.813-27.474-8.813-27.474,2.726-2.326,49.061-16.072,49.061-16.072Z" transform="translate(-51.912 -125.022)" fill="#090647"/>
    <path id="Path_1579" data-name="Path 1579" d="M209.076,345.57l4.007,21.287s23,3.089,24.131,6.95l-41.039,9.258-7.6-32.944Z" transform="translate(-62.483 -131.371)" fill="#ed1588"/>
    <path id="Path_1580" data-name="Path 1580" d="M201.053,370.2a1.717,1.717,0,0,0-.727,2.171,1.654,1.654,0,0,0,2.153.736,1.817,1.817,0,0,0,.754-2.308,1.708,1.708,0,0,0-2.317-.518" transform="translate(-63.545 -133.609)" fill="#e0e0e0"/>
    <path id="Path_1581" data-name="Path 1581" d="M197.046,386.627l-.736-3.2,39.522-8.649s2.008.382,2.09,1.717Z" transform="translate(-63.191 -134.043)" fill="#e0e0e0"/>
    <path id="Path_1582" data-name="Path 1582" d="M215.9,368.621c0,.2-.909.518-1.817,1.381s-1.181,1.817-1.381,1.817-.164-1.263.909-2.29S215.9,368.421,215.9,368.621Z" transform="translate(-64.681 -133.471)" fill="#263238"/>
    <path id="Path_1583" data-name="Path 1583" d="M221.19,369.515c.091.182-.7.718-1.19,1.717s-.482,1.944-.69,1.981-.581-1.072.055-2.3S221.145,369.324,221.19,369.515Z" transform="translate(-65.267 -133.557)" fill="#263238"/>
    <path id="Path_1584" data-name="Path 1584" d="M225.331,374.2c-.173.082-.681-.854-.409-2.062s1.1-1.863,1.227-1.717-.327.863-.527,1.862S225.522,374.134,225.331,374.2Z" transform="translate(-65.8 -133.642)" fill="#263238"/>
    <path id="Path_1585" data-name="Path 1585" d="M214.206,363.353c0,.209-1.027.136-2.135.472s-1.917.909-2.062.736.545-1.054,1.863-1.426S214.269,363.18,214.206,363.353Z" transform="translate(-64.442 -132.964)" fill="#263238"/>
    <path id="Path_1586" data-name="Path 1586" d="M183.739,264.459s9.594-.681,11.657,7.532c2.853,11.384,15.445,79.434,15.445,79.434l-28.365,5.451L167.531,290.47l-26.866-4.37-11.075-4.425s6.251-6.678,19.216-10.8C157.628,268.093,183.739,264.459,183.739,264.459Z" transform="translate(-57.088 -123.951)" fill="#090647"/>
    <path id="Path_1587" data-name="Path 1587" d="M171.45,294.308a20.7,20.7,0,0,1,3.371-4.107,21.268,21.268,0,0,1,4.543-2.771,9.458,9.458,0,0,0-4.842,2.426,11.63,11.63,0,0,0-2.453,2.98A3.843,3.843,0,0,0,171.45,294.308Z" transform="translate(-60.917 -126.054)" fill="#455a64"/>
    <path id="Path_1588" data-name="Path 1588" d="M177.615,280.18a1.817,1.817,0,0,0-.527.354,10.431,10.431,0,0,0-1.272,1.154,16.481,16.481,0,0,0-3.144,4.733,16.117,16.117,0,0,0-1.326,5.515,10.548,10.548,0,0,0,0,1.726c0,.4.073.627.109.627s.045-.909.2-2.326a18.416,18.416,0,0,1,4.388-10.058C176.988,280.825,177.67,280.244,177.615,280.18Z" transform="translate(-60.904 -125.391)" fill="#455a64"/>
    <path id="Path_1589" data-name="Path 1589" d="M196.608,280.18a1.126,1.126,0,0,0,.091.354,8.5,8.5,0,0,1,.218,1.036c.191.909.463,2.28.818,4.016.709,3.534,1.726,8.658,3.007,15.082,2.535,12.91,6.105,31.072,10.239,52.15l.045.218h-.209l-28.365,5.451-.218.045-.045-.218c-.145-.663-.309-1.372-.472-2.09L167.289,291.9l.136.127-28.165-4.661-7.723-1.308-2.008-.354-.69-.136a4.531,4.531,0,0,1,.7.082l2.017.309,7.741,1.208,28.228,4.543h.118v.118l14.537,64.307c.164.718.318,1.426.472,2.09l-.263-.173,28.356-5.451-.173.254c-4.07-21.1-7.586-39.267-10.085-52.177-1.227-6.442-2.2-11.566-2.871-15.1-.327-1.753-.581-3.107-.754-4.043-.082-.445-.136-.79-.182-1.045a3.169,3.169,0,0,1-.073-.309Z" transform="translate(-57.02 -125.391)" fill="#455a64"/>
    <line id="Line_73" data-name="Line 73" x2="1.227" y2="17.017" transform="translate(81.969 132.957)" fill="#ff725e"/>
    <path id="Path_1590" data-name="Path 1590" d="M129.8,186.163l-11-5.388-2.126-2.726-3.988,6.832-21.523-12.3v4.67s-17.871,7.214-20.424,9.54c-3.144,2.862,3.044,52.068,3.044,52.068s-3.107,38.268-1.981,45.854a213.959,213.959,0,0,1,25.248-5.451,222.441,222.441,0,0,0,25.875-5.733l11.929-7.432Z" transform="translate(-51.625 -115.55)" fill="#37afe4"/>
    <path id="Path_1591" data-name="Path 1591" d="M114.834,185.388a3.807,3.807,0,0,1-.709-.2l-1.953-.69.164-.082c-.454,1.635-1.063,3.789-1.753,6.269l-.082.282-.245-.164c-1.5-1.027-3.144-2.162-4.852-3.38-3.425-2.444-6.469-4.743-8.631-6.442-1.09-.854-1.953-1.554-2.544-2.053a5.151,5.151,0,0,1-.909-.809,7.153,7.153,0,0,1,1,.672l2.662,1.944c2.217,1.644,5.279,3.9,8.7,6.36l4.833,3.4-.327.118c.763-2.462,1.417-4.6,1.917-6.233v-.136l.136.055,1.908.8a2.39,2.39,0,0,1,.681.291Z" transform="translate(-53.771 -116.056)" fill="#263238"/>
    <path id="Path_1592" data-name="Path 1592" d="M123.137,181.6a13.492,13.492,0,0,1-.909,2.335c-.609,1.417-1.481,3.362-2.462,5.5-.127.273-.245.536-.373.79l-.345.745-.082-.818c-.245-2.417-.472-4.543-.69-5.869l.236.064a8.041,8.041,0,0,1-1.263,1.2,7.732,7.732,0,0,1,1.063-1.381l.173-.209.064.273a54.78,54.78,0,0,1,.909,5.878l-.436-.073.363-.79c.99-2.135,1.908-4.061,2.589-5.451a13.326,13.326,0,0,1,1.163-2.19Z" transform="translate(-55.96 -116.375)" fill="#263238"/>
    <path id="Path_1593" data-name="Path 1593" d="M118.586,243.851c-.118,0-.627-12.311-1.127-27.5s-.8-27.511-.672-27.52.627,12.311,1.127,27.511S118.713,243.851,118.586,243.851Z" transform="translate(-55.915 -117.036)" fill="#263238"/>
    <path id="Path_1594" data-name="Path 1594" d="M137.5,238.815a1.1,1.1,0,0,1-.318.164,5.4,5.4,0,0,1-.972.345,9.994,9.994,0,0,1-3.743.327,11.33,11.33,0,0,1-5.251-1.881,10.7,10.7,0,0,1-4.088-5.451,21.187,21.187,0,0,1-1-6.76c0-2.1.109-3.979.127-5.551a36.58,36.58,0,0,0-.082-3.725,13.336,13.336,0,0,1-.1-1.363,1.471,1.471,0,0,1,.1.336c.045.227.118.572.182,1.008a30.435,30.435,0,0,1,.227,3.743c0,1.581-.073,3.462,0,5.542a21.66,21.66,0,0,0,1.008,6.614,10.439,10.439,0,0,0,3.9,5.251,11.329,11.329,0,0,0,5.051,1.908,10.958,10.958,0,0,0,3.634-.182C137.025,238.969,137.452,238.769,137.5,238.815Z" transform="translate(-56.401 -119.422)" fill="#263238"/>
    <path id="Path_1595" data-name="Path 1595" d="M136.3,215.063a56.226,56.226,0,0,1-7.023.227,56.11,56.11,0,0,1-7.023-.227,53.059,53.059,0,0,1,7.023-.236A53.181,53.181,0,0,1,136.3,215.063Z" transform="translate(-56.417 -119.411)" fill="#263238"/>
    <path id="Path_1596" data-name="Path 1596" d="M135.88,220.694a48.572,48.572,0,0,1-6.651.227,48.654,48.654,0,0,1-6.66-.227,48.654,48.654,0,0,1,6.66-.227A48.57,48.57,0,0,1,135.88,220.694Z" transform="translate(-56.446 -119.927)" fill="#263238"/>
    <path id="Path_1597" data-name="Path 1597" d="M145.425,200.395c-.963-7.377-9.585-12.865-9.585-12.865l1.254,40.085,12.293.236S146.379,207.781,145.425,200.395Z" transform="translate(-57.66 -116.917)" fill="#37afe4"/>
    <path id="Path_1598" data-name="Path 1598" d="M137.614,209.62a3.188,3.188,0,0,1,.064.636c0,.472.055,1.081.091,1.817.073,1.644.182,3.934.3,6.75.263,5.7.672,13.574,1.172,22.259s1.018,16.563,1.445,22.25c.227,2.807.409,5.1.536,6.741.064.754.109,1.363.145,1.817a3.823,3.823,0,0,1,0,.645,3.379,3.379,0,0,1-.118-.636c-.055-.454-.136-1.063-.227-1.817-.191-1.59-.427-3.889-.681-6.732-.509-5.687-1.072-13.555-1.581-22.25s-.854-16.572-1.036-22.277c-.091-2.853-.145-5.161-.164-6.76v-1.817a2.908,2.908,0,0,1,.055-.627Z" transform="translate(-57.817 -118.937)" fill="#263238"/>
    <path id="Path_1599" data-name="Path 1599" d="M149.717,326.307c0,.127-19.161.227-42.774.227s-42.783-.1-42.783-.227,19.152-.227,42.783-.227S149.717,326.189,149.717,326.307Z" transform="translate(-51.104 -129.589)" fill="#263238"/>
    <path id="Path_1600" data-name="Path 1600" d="M63.816,275c.118,0,.227,10.339.227,23.077s-.109,23.086-.227,23.086-.236-10.339-.236-23.086S63.689,275,63.816,275Z" transform="translate(-51.051 -124.917)" fill="#263238"/>
    <path id="Path_1601" data-name="Path 1601" d="M51.315,274.09l43.228.518a1.117,1.117,0,0,1,1.072,1.281l-6.487,54H99.277l5.233-59.446a3.489,3.489,0,0,0-3.334-3.916L50.67,266.24Z" transform="translate(-49.87 -124.116)" fill="#1b1a30"/>
    <path id="Path_1602" data-name="Path 1602" d="M89.283,275.207c0,.127-7.268.227-16.227.227s-16.227-.1-16.227-.227,7.268-.227,16.227-.227S89.283,275.08,89.283,275.207Z" transform="translate(-50.434 -124.915)" fill="#263238"/>
    <path id="Path_1603" data-name="Path 1603" d="M75.223,265.977c0,.127-4.325.227-9.667.227s-9.676-.1-9.676-.227,4.334-.227,9.676-.227S75.223,265.85,75.223,265.977Z" transform="translate(-50.347 -124.071)" fill="#263238"/>
    <path id="Path_1604" data-name="Path 1604" d="M137.48,264.8a1.681,1.681,0,0,1-1.036-3.007,21.614,21.614,0,0,1,12.538-4.5c7.223-.245,11.184,2.535,13.2,4.806a1.681,1.681,0,0,1-1.281,2.789Z" transform="translate(-57.656 -123.296)" fill="#e0e0e0"/>
    <path id="Path_1605" data-name="Path 1605" d="M137.47,264.782a4.543,4.543,0,0,1,.6-.045H139.8l6.36-.055H160.5a3.913,3.913,0,0,0,.672,0,1.463,1.463,0,0,0,1.072-1.953,4.034,4.034,0,0,0-.909-1.081,13.133,13.133,0,0,0-1.136-.981,14.719,14.719,0,0,0-5.306-2.5,21.206,21.206,0,0,0-5.451-.6,21.659,21.659,0,0,0-12.2,3.852,4.416,4.416,0,0,0-1.108.909,1.535,1.535,0,0,0-.227,1.118,1.644,1.644,0,0,0,.972,1.19,5.276,5.276,0,0,0,.581.145,1.309,1.309,0,0,1-.609-.055,1.726,1.726,0,0,1-1.136-1.308,1.817,1.817,0,0,1,.218-1.281,4.934,4.934,0,0,1,1.145-1.008,21.309,21.309,0,0,1,3.134-1.881,22.532,22.532,0,0,1,14.836-1.608,15.055,15.055,0,0,1,5.451,2.58,12.546,12.546,0,0,1,1.172,1.018c.191.173.373.363.545.554a2.1,2.1,0,0,1,.463.69,1.926,1.926,0,0,1-1.417,2.58,3.754,3.754,0,0,1-.763,0h-4.861l-9.458-.091-6.36-.1-1.735-.045a2.628,2.628,0,0,1-.618-.045Z" transform="translate(-57.646 -123.275)" fill="#263238"/>
    <path id="Path_1606" data-name="Path 1606" d="M162.684,264.276c0,.127-5.969.236-13.337.236S136,264.4,136,264.276s5.969-.236,13.337-.236S162.684,264.14,162.684,264.276Z" transform="translate(-57.675 -123.914)" fill="#263238"/>
    <path id="Path_1607" data-name="Path 1607" d="M153.952,257.29a16.353,16.353,0,0,0-1.281,2.9,16.681,16.681,0,0,0-.263,3.162,4.434,4.434,0,0,1-.2-3.28A4.388,4.388,0,0,1,153.952,257.29Z" transform="translate(-59.137 -123.297)" fill="#263238"/>
    <path id="Path_1608" data-name="Path 1608" d="M161.795,263.989a8.586,8.586,0,0,0-4.225-6.051c0-.055.463,0,1.1.382a6.169,6.169,0,0,1,2.081,1.9,6.3,6.3,0,0,1,1.063,2.608A2.081,2.081,0,0,1,161.795,263.989Z" transform="translate(-59.647 -123.355)" fill="#263238"/>
    <path id="Path_1609" data-name="Path 1609" d="M62.538,226.57S58.232,249.284,58,252.391c-.472,5.76,2.971,11.466,8.686,11.884,3.87.282,49.061-6.078,49.061-6.078L114.407,247.2l-35.969-2.871,1.817-14.964Z" transform="translate(-50.537 -120.487)" fill="#936760"/>
    <path id="Path_1610" data-name="Path 1610" d="M96.65,247.41l21.314,1.7,15.391-1.408,7.532-.091,4.824,4.715a3.189,3.189,0,0,1,.909,2.571l-.372,3.752-.818.436.5,1.817a2.1,2.1,0,0,1-.745,2.226h0l-4.715-5.669,2.508,6.151a3.371,3.371,0,0,1-2.635,0c-1.753-.545-4.761-7.686-4.761-7.686l-2.807-1.145,4.543,8.041s.145.618-1.272.79-6.987-6.687-6.987-6.687a12.937,12.937,0,0,1-5.842,2.671l-9.531,1.09Z" transform="translate(-54.076 -122.393)" fill="#936760"/>
    <path id="Path_1611" data-name="Path 1611" d="M146.776,264.113a12.454,12.454,0,0,1-.972-2.071c-.554-1.29-1.3-3.089-2.09-5.079a3.861,3.861,0,0,0-1.626-2.28c-.781-.436-1.581-.772-2.2-1.09a12.4,12.4,0,0,1-2-1.072,12.318,12.318,0,0,1,2.117.818c.645.291,1.408.572,2.262,1.018a4.161,4.161,0,0,1,1.817,2.489c.781,1.981,1.481,3.789,1.962,5.1a14.167,14.167,0,0,1,.727,2.171Z" transform="translate(-57.848 -122.861)" fill="#6f4c47"/>
    <path id="Path_1612" data-name="Path 1612" d="M149.25,259.385a16.1,16.1,0,0,1-.972-1.817,43.432,43.432,0,0,0-2.489-4.225l-.79-1.163q-.2-.273-.382-.545l-.191-.263a.838.838,0,0,0-.082-.118h-.064c-.745-.263-1.5-.427-2.108-.591a11.367,11.367,0,0,1-1.962-.563,9.333,9.333,0,0,1,2.026.282,18.418,18.418,0,0,1,2.19.536h.082a.555.555,0,0,1,.127.091,1.008,1.008,0,0,1,.109.136l.191.263.391.545.809,1.163a30.89,30.89,0,0,1,2.417,4.325A7.267,7.267,0,0,1,149.25,259.385Z" transform="translate(-58.06 -122.639)" fill="#6f4c47"/>
    <path id="Path_1613" data-name="Path 1613" d="M112.418,261.054a2.621,2.621,0,0,1,.3-.055l.909-.136,3.425-.491,5.451-.745a12.165,12.165,0,0,0,6.587-2.771l.118-.1.091.118c1.081,1.3,2.262,2.662,3.58,4.034a21.108,21.108,0,0,0,2.135,1.972,4.37,4.37,0,0,0,.6.409.963.963,0,0,0,.609.173,2.826,2.826,0,0,0,.7-.182c.2-.082.354-.282.336-.372h0c-1.426-2.508-2.971-5.206-4.588-8.031l-.291-.5.536.218,2.807,1.136h.082v.082a47.827,47.827,0,0,0,2.58,5.151,8.54,8.54,0,0,0,1.817,2.271,3.471,3.471,0,0,0,2.726.154l-.082.264-2.517-6.151-.536-1.308.909,1.09,3.443,4.125,1.281,1.535h-.3a1.9,1.9,0,0,0,.709-1.753c-.145-.663-.372-1.408-.554-2.1v-.164l.154-.082.827-.436-.118.173c.118-1.145.227-2.29.345-3.416a3.089,3.089,0,0,0-.99-2.88l-4.67-4.543.145.055-7.532.082h0l-15.391,1.372h0l-15.627-1.308-4.243-.382-1.108-.109L96.7,247.4a1.727,1.727,0,0,1,.382,0l1.108.064,4.243.291,15.6,1.172h0l15.282-1.426h0l7.541-.1h.082l.064.064,4.679,4.543a3.534,3.534,0,0,1,.981,1.463,3.634,3.634,0,0,1,.136,1.763c-.109,1.136-.218,2.271-.336,3.425v.118l-.1.055-.827.427.109-.245c.182.709.391,1.372.563,2.144a2.344,2.344,0,0,1-.909,2.162l-.164.127L145,263.28l-1.29-1.535c-1.172-1.417-2.344-2.816-3.434-4.125l.373-.227,2.508,6.151.073.182-.164.082a3.053,3.053,0,0,1-1.626.263,5.733,5.733,0,0,1-.79-.127l-.373-.1-.4-.2a8.721,8.721,0,0,1-1.917-2.408,47.816,47.816,0,0,1-2.589-5.206l.109.109-2.8-1.145.245-.291,4.543,8.05h0c-.454,1.517-2.18,1.018-2.816.345a21.913,21.913,0,0,1-2.153-2.026c-1.326-1.381-2.5-2.726-3.58-4.07h.218a12.383,12.383,0,0,1-6.75,2.78l-5.451.672-3.434.409-.909.091Z" transform="translate(-54.08 -122.391)" fill="#6f4c47"/>
    <path id="Path_1614" data-name="Path 1614" d="M56.1,228.171l15.945,1.063,12.847-.8-.536-21.705L79.2,181.89S66.575,184.915,63.5,195.736C61.215,203.722,56.1,228.171,56.1,228.171Z" transform="translate(-50.367 -116.401)" fill="#37afe4"/>
    <path id="Path_1615" data-name="Path 1615" d="M83.83,195.93a5.451,5.451,0,0,1,.391,1.118,26.349,26.349,0,0,1,.672,3.153,100.662,100.662,0,0,1,.736,10.612c.154,4.143.282,7.9.345,10.612,0,1.29,0,2.371.055,3.216a5.978,5.978,0,0,1,0,1.181,6.6,6.6,0,0,1-.127-1.172c-.055-.845-.118-1.926-.2-3.216-.145-2.726-.318-6.46-.482-10.6s-.236-7.9-.6-10.585c-.164-1.345-.373-2.417-.527-3.162a6.359,6.359,0,0,1-.263-1.154Z" transform="translate(-52.903 -117.685)" fill="#263238"/>
  </g>
  <g id="Desk" transform="translate(119.11 145.339)">
    <rect id="Rectangle_501" data-name="Rectangle 501" width="58.038" height="3.18" transform="translate(97.223 96.105) rotate(180)" fill="#e0e0e0"/>
    <path id="Path_1616" data-name="Path 1616" d="M208.347,265.259c-.127,0-.227-.645-.227-1.445s.1-1.445.227-1.445.227.645.227,1.445S208.465,265.259,208.347,265.259Z" transform="translate(-138.144 -169.335)" fill="#263238"/>
    <path id="Path_1617" data-name="Path 1617" d="M161.876,270.75h7.059V272.3L153.481,421.84H145.25Z" transform="translate(-132.394 -170.102)" fill="#1b1a30"/>
    <path id="Path_1618" data-name="Path 1618" d="M161.853,270.749a6.372,6.372,0,0,1-.073.79c-.073.518-.127,1.29-.227,2.29-.218,2.008-.527,4.961-.909,8.758-.818,7.6-2.008,18.607-3.471,32.235-2.98,27.256-7.1,64.979-11.684,107.044l-.236-.263h8.231l-.236.209c7.268-70.385,13.5-129.921,15.618-149.519h0V270.74l.073.073-5.324-.045h5.36v1.617h0c-1.935,19.606-8.013,79.17-15.291,149.564v.209H145v-.263c4.67-42.111,8.867-79.906,11.893-107.208,1.526-13.628,2.726-24.585,3.634-32.171.436-3.78.772-6.705,1-8.7l.263-2.253C161.817,270.976,161.853,270.749,161.853,270.749Z" transform="translate(-132.371 -170.101)" fill="#263238"/>
    <path id="Path_1619" data-name="Path 1619" d="M299.29,270.75h7.05v1.6L291.64,422.94h-7.25Z" transform="translate(-145.12 -170.102)" fill="#1b1a30"/>
    <path id="Path_1620" data-name="Path 1620" d="M131.1,271.829l251.53.263.1-6.632H131.1Z" transform="translate(-131.1 -169.618)" fill="#1b1a30"/>
    <path id="Path_1621" data-name="Path 1621" d="M368.3,270.75H361.24v1.6L375.949,422.94h7.241Z" transform="translate(-152.148 -170.102)" fill="#1b1a30"/>
    <path id="Path_1622" data-name="Path 1622" d="M368.642,272.92a7.046,7.046,0,0,0,.064.781c.064.509.118,1.281.2,2.271.191,1.99.472,4.924.827,8.695.727,7.55,1.772,18.471,3.071,32.008,2.626,27.056,6.269,64.506,10.321,106.3l.191-.218h-7.268l.191.182c-6.869-69.721-12.72-128.786-14.618-148.4h0v-1.6l-.055.055h-.055v1.654h0c1.9,19.615,7.614,78.689,14.355,148.428v.182h7.641v-.218c-4.125-41.793-7.823-79.316-10.494-106.4-1.345-13.519-2.435-24.422-3.18-31.962-.382-3.752-.681-6.66-.909-8.64-.1-.981-.182-1.726-.227-2.244S368.642,272.92,368.642,272.92Z" transform="translate(-152.173 -170.3)" fill="#263238"/>
    <path id="Path_1623" data-name="Path 1623" d="M255.321,271.39h7.059v1.59L247.671,423H240.43Z" transform="translate(-141.099 -170.16)" fill="#1b1a30"/>
    <path id="Path_1624" data-name="Path 1624" d="M254.974,273.55a7.044,7.044,0,0,1-.064.781c-.064.509-.118,1.272-.2,2.253-.191,1.99-.472,4.906-.827,8.667-.727,7.523-1.817,18.407-3.071,31.89-2.626,26.947-6.269,64.288-10.321,105.872l-.191-.209h7.268l-.191.173C254.247,353.52,260.1,294.683,262,275.14h0v-1.59l.055.055h.055v1.644h0c-1.9,19.543-7.614,78.4-14.355,147.865v.182H240.11v-.218c4.125-41.638,7.823-79.043,10.494-106,1.345-13.455,2.435-24.322,3.18-31.8.382-3.734.681-6.632.909-8.613.1-.972.182-1.717.227-2.226S254.974,273.55,254.974,273.55Z" transform="translate(-141.07 -170.358)" fill="#263238"/>
    <path id="Path_1625" data-name="Path 1625" d="M257.081,237.6l82.623-1.426a2.6,2.6,0,0,0,2.644-2.489V162.529a2.6,2.6,0,0,0-2.726-2.489H257.036a2.608,2.608,0,0,0-2.726,2.489v72.583a2.608,2.608,0,0,0,2.771,2.489Z" transform="translate(-142.369 -159.976)" fill="#e0e0e0"/>
    <path id="Path_1626" data-name="Path 1626" d="M313.58,223.45v38.159H271.86a2.48,2.48,0,0,1,2.58-2.38h18.28V223.45Z" transform="translate(-143.974 -165.776)" fill="#e0e0e0"/>
    <path id="Path_1627" data-name="Path 1627" d="M271.86,261.715a2.016,2.016,0,0,1,.209-.909,2.934,2.934,0,0,1,2.362-1.554h0c3.889-.055,10.448-.091,18.28-.109l-.236.227v-7.187c0-7.623.055-14.537.073-19.57,0-2.462.055-4.47.073-5.933,0-.663,0-1.19.045-1.608a2.271,2.271,0,0,1,.055-.563,2.082,2.082,0,0,1,.045.563c0,.418,0,.909.045,1.608,0,1.463.045,3.471.082,5.933,0,5.061.045,11.947.073,19.57v7.4h-.236c-7.832,0-14.391-.055-18.28-.109h0a2.826,2.826,0,0,0-2.271,1.381,6.366,6.366,0,0,0-.318.854Z" transform="translate(-143.974 -165.873)" fill="#263238"/>
    <path id="Path_1628" data-name="Path 1628" d="M300.165,261.711c-.136,0-.245-8.34-.245-18.625s.109-18.616.245-18.616.245,8.331.245,18.616S300.3,261.711,300.165,261.711Z" transform="translate(-146.54 -165.869)" fill="#263238"/>
    <path id="Path_1629" data-name="Path 1629" d="M261.335,236.9c-.136,0-.245-17.217-.245-38.459s.109-38.468.245-38.468.245,17.217.245,38.468S261.472,236.9,261.335,236.9Z" transform="translate(-142.989 -159.97)" fill="#263238"/>
    <path id="Path_1630" data-name="Path 1630" d="M317.757,224.47c.127,0,.227,8.331.227,18.616s-.1,18.625-.227,18.625-.227-8.34-.227-18.625S317.63,224.47,317.757,224.47Z" transform="translate(-148.151 -165.869)" fill="#263238"/>
    <path id="Path_1631" data-name="Path 1631" d="M304.22,199.883a4.543,4.543,0,1,0,4.543-4.543A4.543,4.543,0,0,0,304.22,199.883Z" transform="translate(-146.933 -163.205)" fill="#fff"/>
    <path id="Path_1632" data-name="Path 1632" d="M281.546,271.911a22.141,22.141,0,0,1,0-6.451,22.138,22.138,0,0,1,0,6.451Z" transform="translate(-144.838 -169.618)" fill="#263238"/>
    <path id="Path_1633" data-name="Path 1633" d="M132.14,272.487c0-.118,50.706-.227,113.25-.227s113.268.109,113.268.227-50.7.227-113.268.227S132.14,272.614,132.14,272.487Z" transform="translate(-131.195 -170.24)" fill="#263238"/>
  </g>
</svg>
