<svg xmlns="http://www.w3.org/2000/svg" width="109.624" height="94.932" viewBox="0 0 109.624 94.932">
  <g id="Layer_2" data-name="Layer 2" transform="translate(-8.79)">
    <g id="Layer_1" data-name="Layer 1" transform="translate(8.79)">
      <path id="Path_92" data-name="Path 92" d="M131.877,187.693c-.076.045-.154-.083-.227.081.078.1.156.128.229.071C131.829,187.794,131.909,187.741,131.877,187.693Z" transform="translate(-100.719 -140.437)" fill="none"/>
      <path id="Path_93" data-name="Path 93" d="M241.108,54.77c-.458.2-.393.718-.541,1.037-.229.219-.436.441-.322.652.3.2.687.083.881.468l.076-.013V54.9a1.278,1.278,0,0,0-.123.133C240.955,54.951,241.179,54.858,241.108,54.77Z" transform="translate(-181.951 -40.981)" fill="none"/>
      <path id="Path_94" data-name="Path 94" d="M208.7,69.51a.209.209,0,0,0-.028.34C208.844,69.842,208.91,69.633,208.7,69.51Z" transform="translate(-158.292 -52.011)" fill="none"/>
      <path id="Path_95" data-name="Path 95" d="M113.85,191c.091.108.181.144.267.033a.252.252,0,0,1-.081-.151C113.976,190.91,113.91,190.91,113.85,191Z" transform="translate(-87.401 -142.825)" fill="none"/>
      <path id="Path_96" data-name="Path 96" d="M115.086,192.06l-.146.156c.091.2.116.448.39.443a.413.413,0,0,0-.244-.6Z" transform="translate(-88.216 -143.708)" fill="none"/>
      <path id="Path_97" data-name="Path 97" d="M117.09,205.621a.418.418,0,0,0,.31.295l.146-.156a.272.272,0,0,0-.456-.138Z" transform="translate(-89.825 -153.797)" fill="none"/>
      <path id="Path_98" data-name="Path 98" d="M213.927,91.472l.146-.154-.154-.149Q213.721,91.329,213.927,91.472Z" transform="translate(-162.205 -68.218)" fill="none"/>
      <path id="Path_99" data-name="Path 99" d="M113.316,197.82c-.063.04-.126.02-.186.118.091.106.181.144.264.03C113.349,197.918,113.389,197.865,113.316,197.82Z" transform="translate(-86.862 -148.018)" fill="none"/>
      <path id="Path_100" data-name="Path 100" d="M115.154,201c-.023.144.149.39.307.144C115.365,201.041,115.252,200.9,115.154,201Z" transform="translate(-88.375 -150.37)" fill="none"/>
      <path id="Path_101" data-name="Path 101" d="M247.433,50.89c-.189.252-.39.252-.4.5C247.136,51.353,247.574,51.041,247.433,50.89Z" transform="translate(-187.052 -38.078)" fill="none"/>
      <path id="Path_102" data-name="Path 102" d="M247.965,46.392a.2.2,0,0,0,0-.3C247.887,46.193,247.812,46.294,247.965,46.392Z" transform="translate(-187.685 -34.487)" fill="none"/>
      <path id="Path_103" data-name="Path 103" d="M331.019,183.216c-.111-.02-.3-.035-.3.159l.118.111C330.936,183.488,331.125,183.32,331.019,183.216Z" transform="translate(-249.672 -137.082)" fill="none"/>
      <path id="Path_104" data-name="Path 104" d="M249.039,43.1a.2.2,0,0,0,0-.3Q248.831,42.946,249.039,43.1Z" transform="translate(-188.477 -32.025)" fill="none"/>
      <path id="Path_105" data-name="Path 105" d="M257.737,129.074c.106-.091.143-.179.03-.264-.025.02-.048.04-.075,0C257.583,128.9,257.623,128.989,257.737,129.074Z" transform="translate(-194.982 -96.381)" fill="none"/>
      <path id="Path_106" data-name="Path 106" d="M267.676,117.73c-.136.015-.043.05-.146.154C267.648,118.05,267.855,117.838,267.676,117.73Z" transform="translate(-202.391 -88.091)" fill="none"/>
      <path id="Path_107" data-name="Path 107" d="M314.569,180.979c.108.174.337-.045.224-.159C314.692,180.865,314.562,180.817,314.569,180.979Z" transform="translate(-237.588 -135.298)" fill="none"/>
      <path id="Path_108" data-name="Path 108" d="M241.209,55.851c-.038-.038-.076-.076-.116-.111-.108.091-.144.179-.03.252Z" transform="translate(-182.535 -41.707)" fill="none"/>
      <path id="Path_109" data-name="Path 109" d="M319,214.241a.279.279,0,0,1,0,.229l.458.214c.141-.093.1-.179.184-.269C319.438,214.221,319.221,214.118,319,214.241Z" transform="translate(-240.903 -160.265)" fill="none"/>
      <path id="Path_110" data-name="Path 110" d="M425.67,220.688c.171.166.5-.252.368-.388C425.917,220.491,425.677,220.572,425.67,220.688Z" transform="translate(-320.719 -164.838)" fill="none"/>
      <path id="Path_111" data-name="Path 111" d="M109.606,50.7c.252-.121.43-.42.594-.393.121.111.073.224.123.337.108-.141.224-.065.337-.123-.252.436.146.5.252.755-.086.123-.181-.1-.267-.03.151.363-.076.735-.237,1.105.206.2.113.725.365.937a3.112,3.112,0,0,0-.68,1.319h32.836V32.757l-.076.013c-.194-.385-.579-.267-.881-.468-.113-.211.093-.433.322-.652.149-.32.083-.836.541-1.037.071.088-.154.181-.03.267a1.293,1.293,0,0,1,.123-.133c.181-.174.363-.229.551-.035.169-.081-.1-.149.07-.229,1.06-.735.587-1.427,1.156-2.15.279-.058.516.131.718-.058.491-.456-.5-1.213-.69-1.762a2.719,2.719,0,0,0-.045-1.74,6.73,6.73,0,0,0-.478-.9c-.126-.272-.113-.947-.252-1.128a.559.559,0,0,0-.836-.131c-.194.2.06.755.073,1.259a2.651,2.651,0,0,1-.186,1.594c.206.31.078.629.441.934.141.614-.413,1.259.086,1.853a5.36,5.36,0,0,1-.234,1.181,1.956,1.956,0,0,0-.368-.033,1.07,1.07,0,0,0-1.047.667c-.1.222.065.66-.126.987a13.776,13.776,0,0,1-1.105,1.163c-.41.476-.71.962-1.07,1.125-.468.217-1.8-.554-2.291-.848a12.487,12.487,0,0,0-2.08-1.382c0-.217-.2-.425-.206-.639a1.563,1.563,0,0,1-1.543-1.1c-.136.091-.272.194-.413.126a.738.738,0,0,0-.327-.6c-.166-.03-.327.086-.488.128a2.485,2.485,0,0,0-1.387-.874c-.194-.146.093-.3-.086-.451a5.382,5.382,0,0,0-1.352.413c-.926-.2-1.843,0-2.769-.267a4.451,4.451,0,0,0-.252-.524c-.755.39-1.526.5-2.286.853l-.156-.149c-.783.879-1.616-.038-2.419.063-.312-.405-.2-.826.307-1.259-.053-.2,0-.4-.252-.6-.277.186-.055.466-.1.723-.295.234-.161.458-.284.69-.184.252-.373.252-.554.5a1.218,1.218,0,0,1-.471.806,25.525,25.525,0,0,1-.5,2.7c-.6.05-1.309.856-1.782,1.259-.151.282.141.677.174.9.043.3-.151.6-.2.989-.065.5.217.989-.345,1.221-.707-.5-.483-1.511-1.339-2.014a.979.979,0,0,0-.743.549,2.286,2.286,0,0,0,.443,1.085c-.229,1.148,1.027,2.832.864,4.066-.118.894-1.088.37-1.654.345a1.863,1.863,0,0,1-.622.889,2.328,2.328,0,0,0-3.036,1.1c-.04.642.632.969.8,1.493-.327.577-.015,1.135-.6,1.719-.556-.063-.811.574-.957,1.007a.594.594,0,0,0-.594.471,1.226,1.226,0,0,1-.325,2.052c.038.138.2.272.05.415.118.083.448-.023.347.252-.1.053-.209-.214-.307-.143.015.211.252.179.388.37-.1.179-.073.355-.29.536-.252-.295-.425-.521-.733-.546C108.506,50.241,109.055,50.714,109.606,50.7Zm34.629-23.119a.2.2,0,0,1,0,.3C144.1,27.792,144.1,27.689,144.235,27.586Zm-.282.841a.2.2,0,0,1,0,.3C143.807,28.63,143.883,28.53,143.953,28.426Zm.108,1.208c.141.151-.3.463-.4.5C143.671,29.894,143.873,29.882,144.062,29.635Zm-1.823,1.221c.04.035.078.073.116.111l-.146.154c-.113-.086-.068-.174.03-.264Zm-6.843,8.92.154.149-.146.154Q135.2,39.934,135.4,39.776Zm-1.312-5.453c.219.113.154.332-.028.34a.209.209,0,0,1,.028-.34Z" transform="translate(-83.681 -16.823)" fill="#ed1588"/>
      <path id="Path_112" data-name="Path 112" d="M80.058,146.633c-.06-.076-.028-.151.068-.229.154,0,.113.088.118.186.043-.091.252-.184.184-.269-.073.128-.154,0-.229,0a1.408,1.408,0,0,0,.526-.166c-.368-.4-1.025.252-1.5.647C79.514,147.071,79.776,146.525,80.058,146.633Z" transform="translate(-61.496 -109.265)" fill="#ed1588"/>
      <path id="Path_113" data-name="Path 113" d="M89.068,315.483c-.785.647.72,1.236.8.169C89.548,315.3,89.3,315.292,89.068,315.483Z" transform="translate(-68.688 -235.966)" fill="#37afe4"/>
      <path id="Path_114" data-name="Path 114" d="M89.634,277.75c-.123.106-.252.025-.373.237a3.256,3.256,0,0,0-2.18.587c-.947.949.715.8,1.3.42.365-.237.627-.622.886-.78.116-.068.524-.03.524-.317C89.654,277.989,89.742,277.78,89.634,277.75Z" transform="translate(-67.158 -207.825)" fill="#37afe4"/>
      <path id="Path_115" data-name="Path 115" d="M96.775,275.983c.136-.272.534-.2.478-.5C97.062,275.659,96.631,275.709,96.775,275.983Z" transform="translate(-74.603 -206.127)" fill="#37afe4"/>
      <path id="Path_116" data-name="Path 116" d="M99.51,272.975a1.461,1.461,0,0,0,1.115-.785C100.28,272.5,99.724,272.427,99.51,272.975Z" transform="translate(-76.671 -203.665)" fill="#37afe4"/>
      <path id="Path_118" data-name="Path 118" d="M118.456,299.74c-.252.068-.063.252-.252.423-.063-.078-.126-.038-.191-.111-.4.838-1.7.926-1.843,1.941.342-.128.861-.67,1.083-.6a9.371,9.371,0,0,0,1.216-1.279C118.431,299.992,118.5,299.863,118.456,299.74Z" transform="translate(-89.137 -224.279)" fill="#37afe4"/>
      <path id="Path_119" data-name="Path 119" d="M69.3,226.9c-.252.166-.5.128-.478.431C68.948,227.152,69.421,226.925,69.3,226.9Z" transform="translate(-53.709 -169.777)" fill="#37afe4"/>
      <path id="Path_120" data-name="Path 120" d="M56.718,226.692a2.552,2.552,0,0,1,.8.093,2.483,2.483,0,0,1,1.2-.637,2.213,2.213,0,0,1,.924-.818.657.657,0,0,1,.252-.574l-.194-.186c-.962.468-2.014,1.163-2.986,1.594C56.793,226.332,56.663,226.511,56.718,226.692Z" transform="translate(-44.641 -168.033)" fill="#37afe4"/>
      <path id="Path_121" data-name="Path 121" d="M49.1,233.33a1.1,1.1,0,0,1-.554.5c-.149-.1-.156-.2-.237-.3-.252.217-.418.413-.755.171a3.417,3.417,0,0,0-.441.466c.2-.106.456.169.463.365.154.025.5-.018.526-.164-.04.035-.04-.252.028-.342C48.53,233.844,49.283,233.891,49.1,233.33Z" transform="translate(-37.463 -174.588)" fill="#37afe4"/>
      <path id="Path_123" data-name="Path 123" d="M8.79,253.723c.211-.186.695-.136.67-.473C9.261,253.439,8.858,253.439,8.79,253.723Z" transform="translate(-8.79 -189.493)" fill="#37afe4"/>
      <path id="Path_124" data-name="Path 124" d="M73.8,255.66c-.113.123-.332.1-.332.274.181.171.355.043.529-.015-.045-.088-.269-.038-.194-.184C73.825,255.71,73.855,255.685,73.8,255.66Z" transform="translate(-57.187 -191.296)" fill="#37afe4"/>
      <path id="Path_125" data-name="Path 125" d="M211.813,343.053a2.172,2.172,0,0,0,.161-1.1.345.345,0,0,1-.224.156C211.9,342.418,211.69,342.741,211.813,343.053Z" transform="translate(-160.654 -255.863)" fill="#37afe4"/>
      <path id="Path_126" data-name="Path 126" d="M211.654,346.92c-.091.048-.04.269-.184.194.02-.02,0-.073-.04-.038a11.3,11.3,0,0,0,.116,1.51c.317-.186,1.007-.252.962-.783C212.2,347.444,211.75,347.25,211.654,346.92Z" transform="translate(-160.414 -259.581)" fill="#37afe4"/>
      <path id="Path_127" data-name="Path 127" d="M227.04,304.84c-.086.146-.174.1-.252.2.159.086.065.174.045.264-.458.443-.891,1.883.164,1.926C227.559,306.416,226.761,305.636,227.04,304.84Z" transform="translate(-171.574 -228.095)" fill="#37afe4"/>
      <path id="Path_128" data-name="Path 128" d="M76.065,219.853c.222.322.4.652.6.924a13,13,0,0,1-.159,6.931,6.921,6.921,0,0,1-1.128,3.207c-.685-.063-1.324-.919-1.667-1.511a.576.576,0,0,0-.091-.526,11.373,11.373,0,0,0,.144-3.182c0-.916-.2-1.853-.146-2.721.02-.325.2-.657.2-.989a5.994,5.994,0,0,0-.642-2.135H48.49c-.171.113-.335.232-.486.35,0,.113.171.222.045.337.131.133.252-.065.38.065a2.88,2.88,0,0,0,.088.453c.317.116.629-.045.949.088.068-.277.476,0,.672-.32.169.2.327,0,.5-.05a3.427,3.427,0,0,1,1.762.71,2.268,2.268,0,0,1,2.147,1.007c.209.572-.322,1.12-.3,1.712-.453.355-.476,1.088-.9,1.649-.126.164-.345.267-.481.428-.516.607-.755,1.606-1.43,1.818-.6.675-1.221.529-1.825,1.07a9.126,9.126,0,0,0-1.916.541c-.116.025-.252-.055-.342-.03-.5.136-.657.463-1.191.79-.209.128-.483.126-.675.252a8.3,8.3,0,0,0-.665.622,5.893,5.893,0,0,1-2.059.848,6.593,6.593,0,0,1-3.006.836c-.2.181-.4.206-.594.471a.864.864,0,0,1-.03.264l.217.224a5.311,5.311,0,0,0,1.055-.179c1.354-1.2,2.744-1.193,4.109-2a13.652,13.652,0,0,0,3.89-.368c.519-.846,1.573-.1,2.095-.964a5.221,5.221,0,0,1,1.314-.373,7.619,7.619,0,0,1,1.843-.466,8.816,8.816,0,0,1,1.138.121c.2.05.337.227.539.289.325.1.74-.068,1.062.123.025.126.186.252.237.373.657.2,1.2-.926,1.762-.614s.252.957.566,1.425c.478-.018.4-.891.813-.778,0-.078-.131-.149,0-.229a13.685,13.685,0,0,1,1.868-.957c.405-.755,1.143-.5,1.7-.307a2.06,2.06,0,0,1-.279,2.389c-.312,0-.4-.1-.68.018-.111-.161-.138-.138-.274-.332-.03.428-.4.206-.486.277.03-.023.086.136.081.151a2.161,2.161,0,0,0-.41.274c.2.206.284.176.315.37.126,0,.252-.164.373-.161.252.33.481.053.723.1.141.159.405.317.428.481a1.442,1.442,0,0,1,1.042.768,3.105,3.105,0,0,1,1.682.637A1.706,1.706,0,0,1,66.5,235.4a7.091,7.091,0,0,1-.5,1.007c.775.013.894.446,1.684.715.229.143.111.3.239.446.431.476.906.239,1.229.65a1.981,1.981,0,0,0,.171.755c.252-.055.755.156.768.433.252-.252.5-.189.743-.546a1.771,1.771,0,0,0,1.581-.269c-.3-.594.355-1.065.524-1.717a4.409,4.409,0,0,1,1.41.378c1.662-.962,3.071,1.027,2.865,2.5a2.643,2.643,0,0,1,.964.619c-.04.239-.274.486-.322.725-.282.013-.5.327-.869.063.06.282-.227.36-.441.541.31.461.295.846.677,1.307.282-.1.473-.191.682-.02.5-.617,1.035.473,1.118.843-.526.8-.864,2.095-1.745,2.694.04.05.116.1.078.151-.31.222-.05.428-.322.65.176.252.337.65-.128.914.232.629-.569,1.425-.063,1.931.9-.423.3-1.337.7-1.986-.229-.232.252-.655.39-.957.3-.078.39-.307.715-.209.571.627,1.057,1.485,1.571,2.155a1.377,1.377,0,0,1,.841.357c.614-.652,1.259-.375,1.878-.579.174-.4.159-1.035.37-1.714-.4-.5-.038-1.007.113-1.511,0-.161-.159-.086-.159-.224.176-.156.078-.3.217-.458-.015-.755-.239-1.85-.186-2.769.035-.607-.118-1.286.222-1.707,1.324.075.267,1.591.4,2.3.186-.033.38.136.569.1.161-.088.131-.438.335-.2.179-.106-.086-.2.068-.3.768-.516,1.133-1.566,2-1.641.186-.118.121-.317.141-.383s.128,0,.149-.081c.229-.856-.03-1.8.118-2.769a3.09,3.09,0,0,1,.345-1.221c.428-.541,1.314-1.06,1.8-.8a1.947,1.947,0,0,1,.73,1.873,5.165,5.165,0,0,0,.592.992V219.853Zm-12.759,3.812c0,.058-.04.164-.111.116.146-.29-.78-.443-1.123-.992.5-.733,1.329-.164,1.966-.126-.118.141-.045.279.048.413.284.272.556.053.833-.02.541.224.194.74.252,1.128.045.279.252.368.355.559.038.063-.025.154,0,.227.194.423.725.682.715,1.259C65.035,226.2,64.28,224.555,63.306,223.664Zm3.021,2.8c.531-.368.994.823,1.46.871a.977.977,0,0,0,.473.755c.292.154.594-.189.8.091a1.842,1.842,0,0,0-.725,1.231c-.738-.989-1.9-1.956-2-2.951Z" transform="translate(-31.499 -164.502)" fill="#37afe4"/>
      <path id="Path_129" data-name="Path 129" d="M235.1,290.267c.37-.37,1.123-.541.957-1.007C235.777,289.378,235.015,289.826,235.1,290.267Z" transform="translate(-178.121 -216.437)" fill="#37afe4"/>
      <path id="Path_130" data-name="Path 130" d="M185.475,355.26a1.594,1.594,0,0,0-.355.919A1.42,1.42,0,0,0,185.475,355.26Z" transform="translate(-140.728 -265.822)" fill="#37afe4"/>
      <path id="Path_131" data-name="Path 131" d="M166.72,316.07c-.128.058-.093.07-.252.2.055.164-.1.531.126.564-.093-.111.317-.088.222-.232C166.6,316.528,166.7,316.186,166.72,316.07Z" transform="translate(-126.771 -236.498)" fill="#37afe4"/>
      <path id="Path_132" data-name="Path 132" d="M182.841,361.533c.871-.667.337-1.624.657-2.4l-.116-.111C183.327,359.8,182.459,360.682,182.841,361.533Z" transform="translate(-138.951 -268.635)" fill="#37afe4"/>
      <path id="Path_133" data-name="Path 133" d="M200.86,339.52a1.007,1.007,0,0,0-.111,1.51C201.351,340.791,200.762,340,200.86,339.52Z" transform="translate(-152.206 -254.044)" fill="#37afe4"/>
      <path id="Path_134" data-name="Path 134" d="M127.945,296.631c.138-.043.272-.252.41-.274-.083-.063-.045-.126-.118-.186C128.006,296.248,127.825,296.412,127.945,296.631Z" transform="translate(-97.919 -221.608)" fill="#37afe4"/>
      <path id="Path_135" data-name="Path 135" d="M210.494,360.32c-.342.362-.4.79,0,1.025C211.244,361.287,210.836,360.491,210.494,360.32Z" transform="translate(-159.506 -269.608)" fill="#37afe4"/>
      <path id="Path_136" data-name="Path 136" d="M115.008,162.478a3.227,3.227,0,0,1-1.118,2.455,3.776,3.776,0,0,1-2.611.992h-2.968v4.753H107.07V158.734H110.9a4.237,4.237,0,0,1,2.946,1.073A3.358,3.358,0,0,1,115.008,162.478Zm-1.226-.279a2.2,2.2,0,0,0-.879-1.684,3.021,3.021,0,0,0-1.933-.66h-2.659v4.987h2.734a2.8,2.8,0,0,0,1.941-.712A2.266,2.266,0,0,0,113.782,162.2Z" transform="translate(-82.328 -118.771)" fill="#121212"/>
      <path id="Path_137" data-name="Path 137" d="M147.577,171.5a2.167,2.167,0,0,0-1.334.451,3.07,3.07,0,0,0-.7.73,2.724,2.724,0,0,0-.295,1.365v5.287H144V170.5h1.1v1.259a2.732,2.732,0,0,1,2.47-1.427Z" transform="translate(-109.96 -127.446)" fill="#121212"/>
      <path id="Path_138" data-name="Path 138" d="M166.111,160.687H164.93V158.62h1.181Zm0,9.907H164.93v-8.857h1.181Z" transform="translate(-125.621 -118.687)" fill="#121212"/>
      <path id="Path_139" data-name="Path 139" d="M190.554,179.312h-1.226v-5.435a2.689,2.689,0,0,0-.592-1.762,1.9,1.9,0,0,0-1.551-.73,2.437,2.437,0,0,0-1.687.637,2.042,2.042,0,0,0-.7,1.584v5.7H183.55v-5.692a2.042,2.042,0,0,0-.7-1.583,2.425,2.425,0,0,0-1.684-.637,1.868,1.868,0,0,0-1.538.723,2.744,2.744,0,0,0-.574,1.762v5.435H177.82v-5.287a3.732,3.732,0,0,1,.949-2.669,3.469,3.469,0,0,1,2.329-1.072,3.168,3.168,0,0,1,3.074,1.646,3.168,3.168,0,0,1,3.074-1.646,3.525,3.525,0,0,1,2.346,1.072,3.7,3.7,0,0,1,.962,2.669Z" transform="translate(-135.266 -127.405)" fill="#121212"/>
      <path id="Path_140" data-name="Path 140" d="M245.713,175.05h-7.95a3.273,3.273,0,0,0,1.133,2.205,3.394,3.394,0,0,0,2.346.853,3.137,3.137,0,0,0,3-1.941H245.5a4.574,4.574,0,0,1-4.3,3.112,4.361,4.361,0,0,1-3.212-1.327,4.62,4.62,0,0,1-.025-6.661,4.348,4.348,0,0,1,3.424-1.329,4.552,4.552,0,0,1,3.076,1.46,4.247,4.247,0,0,1,1.259,2.981Zm-1.163-1.088a3.4,3.4,0,0,0-1.166-2.014,3.457,3.457,0,0,0-5.622,2.014Z" transform="translate(-179.215 -127.166)" fill="#121212"/>
      <path id="Path_141" data-name="Path 141" d="M289.378,174.829A4.557,4.557,0,0,1,288,178.16a4.28,4.28,0,0,1-3.293,1.317,4.449,4.449,0,0,1-3.273-1.568v4.456h-1.15v-7.52a4.55,4.55,0,1,1,9.1-.015Zm-1.181.093a3.489,3.489,0,0,0-.936-2.457,3.175,3.175,0,0,0-2.324-1.1,3.094,3.094,0,0,0-2.5,1.007,3.48,3.48,0,0,0-1.007,2.558,3.439,3.439,0,0,0,1.007,2.4,3.144,3.144,0,0,0,2.341,1.007,3.273,3.273,0,0,0,2.4-1.007,3.414,3.414,0,0,0,1.022-2.409Z" transform="translate(-211.931 -127.363)" fill="#121212"/>
      <path id="Path_142" data-name="Path 142" d="M327.262,171.5a2.167,2.167,0,0,0-1.334.451,3.068,3.068,0,0,0-.7.73,2.725,2.725,0,0,0-.295,1.365v5.287H323.69V170.5h1.1v1.259a2.732,2.732,0,0,1,2.47-1.427Z" transform="translate(-244.412 -127.446)" fill="#121212"/>
      <path id="Path_143" data-name="Path 143" d="M345.781,160.687H344.6V158.62h1.181Zm0,9.907H344.6v-8.857h1.181Z" transform="translate(-260.058 -118.687)" fill="#121212"/>
      <path id="Path_144" data-name="Path 144" d="M365.229,179.288h-1.181v-5.171a2.782,2.782,0,0,0-2.727-2.734,2.658,2.658,0,0,0-1.928.808,2.611,2.611,0,0,0-.818,1.926v5.171h-1.181V174.24a3.93,3.93,0,0,1,1.118-2.865,4.028,4.028,0,0,1,5.607,0,3.93,3.93,0,0,1,1.118,2.865Z" transform="translate(-269.63 -127.381)" fill="#121212"/>
      <path id="Path_145" data-name="Path 145" d="M399.76,170.825q-3.23,0-3.23-2.749v-9.4h1.181v3.1h2.049v1.1h-2.049v4.99q0,1.971,2.049,1.971Z" transform="translate(-298.915 -118.732)" fill="#121212"/>
      <path id="Path_146" data-name="Path 146" d="M277.385,313.681c-.463.962-1.412,2.241-1.2,3.21.352-.932,1.8-1.888,1.1-2.943C277.373,313.877,277.6,313.618,277.385,313.681Z" transform="translate(-208.843 -234.703)" fill="#121212"/>
      <path id="Path_147" data-name="Path 147" d="M281.562,321.9c-.345-.131-.939.972-.539,1.113.77.269.5-.665.579-1.007s.355-.358.287-.614C281.672,321.5,281.287,321.883,281.562,321.9Z" transform="translate(-212.387 -240.479)" fill="#121212"/>
      <path id="Path_148" data-name="Path 148" d="M273.26,330.9c.078.126.151,0,.224,0-.058-.075.043-.347-.156-.3C273.346,330.7,273.416,330.894,273.26,330.9Z" transform="translate(-206.678 -247.367)" fill="#121212"/>
      <path id="Path_149" data-name="Path 149" d="M254.7,369.215c-.038.063-.015.126-.111.191-.138-.03-.05-.239-.154-.146-.36.476-.7.952-.38,1.407.038-.02.076-.013.116.038.833-.322.42-1.007.64-1.609.086-.239.345-.237.287-.536-.176.252-.438.521-.549.657C254.6,369.174,254.646,369.137,254.7,369.215Z" transform="translate(-192.211 -275.773)" fill="#121212"/>
      <path id="Path_150" data-name="Path 150" d="M271.1,331.888c.02.023.073.013.035-.038-.189,0-.1.164-.106.267-.851.458-.461,1.065-.974,1.805.111.086.154.171.045.264-.088.015-.179-.025-.252.045a1.966,1.966,0,0,1-.582.924c.252.287-.4.607.058.715.106-.554.881-.962.788-1.609a6.812,6.812,0,0,0,1.088-1.921C271.189,332.19,271.01,332.044,271.1,331.888Z" transform="translate(-203.605 -248.305)" fill="#121212"/>
      <path id="Path_151" data-name="Path 151" d="M246.6,334.25a.138.138,0,0,1-.146.232c.065.982-.987,1.994-.076,2.953.808-.118.8-1.329.33-1.9C246.725,335.146,246.942,334.381,246.6,334.25Z" transform="translate(-186.287 -250.101)" fill="#121212"/>
      <path id="Path_152" data-name="Path 152" d="M291.4,286.83c-.712.73-.317,2.047-.637,3.157-.043.151-.2.252-.138.458-.335,1.133-1.259,2.278-1.161,3.4,1.11-1.128,2.228-2.454,1.994-3.419-.02.065-.284-.053-.5-.1a7.339,7.339,0,0,0,.773-2.291A2.2,2.2,0,0,1,291.4,286.83Z" transform="translate(-218.801 -214.619)" fill="#121212"/>
      <path id="Path_153" data-name="Path 153" d="M405.81,284.55c.156.058.5.2.529-.013C406.19,284.656,405.833,284.364,405.81,284.55Z" transform="translate(-305.858 -212.865)" fill="#121212"/>
      <path id="Path_154" data-name="Path 154" d="M367.349,265.592c-.058-.086.035-.179-.121-.252C367.072,265.4,367.233,265.652,367.349,265.592Z" transform="translate(-276.941 -198.539)" fill="#121212"/>
      <path id="Path_155" data-name="Path 155" d="M367.173,259c-.307.1-.355.589-.433.768.143-.06.209.194.043.264.2.07.2.252.423.179.159-.252-.171-.632.06-.531C366.984,259.4,367.329,259.078,367.173,259Z" transform="translate(-276.624 -193.796)" fill="#121212"/>
      <path id="Path_156" data-name="Path 156" d="M293.7,223.589c.161-.144.274-.285.252-.423-1.178-.974-1.614-1.873-2.674-2.392a9.807,9.807,0,0,0-.783-.914H244.14v18.557a5.843,5.843,0,0,1,.675,1.093c-.211.272-.04.531.058.8a8.562,8.562,0,0,0-.252,3.525,3.564,3.564,0,0,1,.6,1.309c-.312.539-.7,1.886.169,2.153.785-1.007.023-2.294.063-3.406.121-.154.118-.252.295-.312a9.3,9.3,0,0,0,.252-2.125c.4-.617-.154-1.208.028-1.818.073-.078.146-.156.222-.232a26.182,26.182,0,0,0,.939-5.967c1.171-.478,1.5-1.307,2.563-1.921.146.093.325.063.458.138a3.731,3.731,0,0,1,1.171,1.407c.091.894-.131,2,.488,2.749-.02.393.29.836.375,1.314-.133.106-.088.206-.143.307.6,1.762-.624,3.645.519,5.362.05-.04.1.015.154.07.891-.3.949-1.392.969-2.032-.149.121-.292.436-.448.252.055-.161.214-.176.368-.388.2-1.208-.841-2.427-.665-3.728.033-.252.317-.6.39-.957.028-.133-.048-.252,0-.378.113-.353.4-1.108.687-1.259a6.57,6.57,0,0,1,1.606.639c.456-.194.979.171,1.473-.075.431-.217.72-.672,1.234-.6.322.279.632,0,.954.315.4-.108.871-.111,1.282-.184s.848-.073.974-.405c0-.2-.126.05-.232-.146.065-.088-.033-.176.033-.264.368-.365.894-.282,1.309-.6.091-.07.055-.189.143-.232a1.526,1.526,0,0,1,1.022-.063c1.279.647-.053,2.3.463,3.318-.282,1.231-1.118,2.339-1.42,3.525-.108.415-.068.861-.194,1.291-.06.206-.292.42-.174.65.8-.67,2.518-2.014,2.266-3.316.179-.1,0-.2.144-.3a5.083,5.083,0,0,1,.458-2.737c0-.1-.174-.2-.083-.3a5.808,5.808,0,0,0,.458-1.259c.133.035.647-.357.441-.544.34-.086.662-.619.808-.929.31-.211.627-.171.934-.441a.506.506,0,0,0,.826-.252c.088-.045.179.045.267.03.577-.667,1.463-1.833,2.412-1.843.206-.322.891-.5,1.188-.864a2.673,2.673,0,0,1,2.5,0c-.081.229.113.453.018.682.086-.126.184.232.269.106-.05-.252.075-.3.1-.5.2-.018.234-.154.252-.347,1.709-.426,3.635.3,5.252,1.072-.063.065-.123.131-.186.194.267.234.1.478.436.707.229.936,0,1.8.559,2.6.2.274.516.418.74.7s.227.775.629.967c.111-.128.227-.033.335-.2,0-.222-.02-.418-.164-.448.068-.043.111-.023.111-.118-.2-.219-.214-.612-.433-.707.1-.141-.018-.277.1-.418-.388-1.115-1.349-2.535-1.652-3.776.436-.667.9-.413,1.344-.717a2.643,2.643,0,0,1,.091-.871c-.171.106-.138-.086-.269-.184.39-.77,1.314-1.576,2.047-1.3-.113.692,1.09,1.133.954,1.792.169.136.332.189.5.327-.073.1-.154-.065-.227,0a5.464,5.464,0,0,1,.841,1.833,6.7,6.7,0,0,0,.612,1.611c.076.106.277.471.536.289,0-.209-.081-.216-.161-.375.1-.146.186-.05.184-.194a28.266,28.266,0,0,0-1.135-2.923c-.4-.632-1.007-1.035-1.065-1.674-.1-.076-.2.161-.3,0,.071-.141.149-.048.222-.159-.136-.519-.622-1.1-.116-1.586-.141-.456-.116-1.171-.453-1.387.222-.194.252-.272.141-.383.68-.682,1.349.927,1.939.365.31-.292,0-.755-.028-1.133-.076,0-.149.131-.227,0a.771.771,0,0,1,.7-.813c1.007-1.259,2.346-.71,3.5-.811.116.463.6.133.662.627a.9.9,0,0,1,.531.136c-.2.539.818,2.17,1.641,2a.963.963,0,0,0,.033-.252C293.907,223.458,293.814,223.757,293.7,223.589Zm-3.867-3.23c0-.116.252-.2.367-.388.146.149-.189.554-.36.388Z" transform="translate(-184.89 -164.509)" fill="#121212"/>
      <path id="Path_157" data-name="Path 157" d="M365.015,268.692c-.138-.073-.048-.151-.156-.224.136-.106.088-.2.144-.307a1.391,1.391,0,0,1-.264-.491c-.025.05-.138.078-.164.088.252.269-.207.818.033,1.208-.337.735-1.259,1.553-.775,2.215.252.337.549.219.811.622a1.744,1.744,0,0,0,.307,1.543.275.275,0,0,1,.227,0c.357-.5-.154-.979-.229-1.47.035-.33.332-.468.436-.768C365.675,270.245,364.622,269.6,365.015,268.692Z" transform="translate(-274.346 -200.283)" fill="#121212"/>
      <path id="Path_158" data-name="Path 158" d="M308.592,314.8a1.439,1.439,0,0,0,.972-1.956C308.579,312.806,307.509,313.816,308.592,314.8Z" transform="translate(-232.776 -234.085)" fill="#121212"/>
      <path id="Path_159" data-name="Path 159" d="M367.78,267.4l.015.068a.053.053,0,0,0-.015-.068Z" transform="translate(-277.403 -200.081)" fill="#121212"/>
      <path id="Path_160" data-name="Path 160" d="M398.774,48.62c0,.2-.34.184-.1.342.891-.856.337-2.014.982-2.978l-.194-.184c-.1.111-.138.018-.149.156,0,.869-.687,1.762-.8,2.631C398.6,48.791,398.681,48.426,398.774,48.62Z" transform="translate(-300.396 -34.27)" fill="#fcee27"/>
      <path id="Path_161" data-name="Path 161" d="M392.319,73.579a.783.783,0,0,0-.174.647,3.571,3.571,0,0,0,.775-2.213c.058-.5.355-.866.043-1.213-.405.174-.287.478-.4.806-.078.252-.252.456-.322.652-.151.441.033.909-.156,1.259C392.168,73.678,392.239,73.413,392.319,73.579Z" transform="translate(-295.592 -52.976)" fill="#fcee27"/>
      <path id="Path_162" data-name="Path 162" d="M385.217,102.959c.5-.5.345-1.344.67-1.873.04-.065.171-.1.222-.156.627-.692-.055-1.342.058-2.16a2.566,2.566,0,0,0-.468,2.359c-.06.048-.126,0-.189.043C385.72,101.761,384.877,102.375,385.217,102.959Z" transform="translate(-290.388 -73.904)" fill="#fcee27"/>
      <path id="Path_163" data-name="Path 163" d="M384.883,116.467c.1-.106.237-.209.143-.307C384.974,116.261,384.707,116.371,384.883,116.467Z" transform="translate(-290.156 -86.916)" fill="#fcee27"/>
      <path id="Path_164" data-name="Path 164" d="M384.647,118.5c-.083-.048-.045-.151-.118-.111.1.113-.317.091-.221.234C384.418,118.481,384.538,118.728,384.647,118.5Z" transform="translate(-289.758 -88.58)" fill="#fcee27"/>
      <path id="Path_165" data-name="Path 165" d="M406.532,36.008l-.118-.108c-.252.466-.733,1.259-.556,1.83C406.192,37.154,406.2,36.585,406.532,36.008Z" transform="translate(-305.865 -26.862)" fill="#fcee27"/>
      <path id="Path_166" data-name="Path 166" d="M418.866,129.387a.637.637,0,0,0-.294-1.09C417.368,127.862,418.035,130.039,418.866,129.387Z" transform="translate(-314.916 -95.954)" fill="#fcee27"/>
      <path id="Path_167" data-name="Path 167" d="M321.578,96.249c1.191-.07,2.518.274,3.565-1.115a4.455,4.455,0,0,1,.133-.755,2.891,2.891,0,0,0-1.007-1.259c-1.078-.36-2.517-.77-3.479.166C319.871,94.172,320.277,95.617,321.578,96.249Z" transform="translate(-241.87 -69.371)" fill="#fcee27"/>
      <path id="Path_168" data-name="Path 168" d="M324.092,147.007c-.134-.06-.287-.393-.234-.222.068.091.028.375.123.337C323.931,147.055,324.037,147.012,324.092,147.007Z" transform="translate(-244.53 -109.796)" fill="#fcee27"/>
      <path id="Path_169" data-name="Path 169" d="M416.623,0c-.252.554-.806,1.43-.589,2.1A3.507,3.507,0,0,0,416.623,0Z" transform="translate(-313.472)" fill="#fcee27"/>
      <path id="Path_170" data-name="Path 170" d="M376.44,143.582c.04.06.023.123.118.184.086-.1.171-.191.252-.194-.156-.086.068-.179-.043-.252C376.724,143.577,376.654,143.464,376.44,143.582Z" transform="translate(-283.883 -107.239)" fill="#fcee27"/>
      <path id="Path_171" data-name="Path 171" d="M281.252,134.3c-.252.5,1.163,1.586,1.641,2a14.8,14.8,0,0,1,1.7,1.805h.8a11.5,11.5,0,0,0-1.747-2.127,10.375,10.375,0,0,1-.969-.843c-.289-.325-.743-1.035-1.1-1.067C281.45,134.049,281.342,134.112,281.252,134.3Z" transform="translate(-212.636 -100.314)" fill="#fcee27"/>
      <path id="Path_172" data-name="Path 172" d="M307.619,140.311c.141-.136.252-.166.252-.272-.073.065-.154-.1-.229-.07C307.582,140.085,307.494,140.2,307.619,140.311Z" transform="translate(-232.34 -104.728)" fill="#fcee27"/>
      <path id="Path_173" data-name="Path 173" d="M256.844,71.133a14.8,14.8,0,0,0-1.7-1.805c-.478-.415-1.9-1.49-1.641-2,.091-.179.2-.252.32-.232.36.033.813.755,1.1,1.067a10.343,10.343,0,0,0,.969.843,11.845,11.845,0,0,1,1.747,2.127h3.049a2.03,2.03,0,0,0-.133-.355c-.823.277-1.3-1.183-.755-1.609-.164-.166-.322-.1-.388-.292a1.044,1.044,0,0,1,.023-.569,8.543,8.543,0,0,1,2.366-2.18c.521-.342,1.032-.476,1.181-1.093-.07-.325.025-.655-.4-.972-.227-.025-.456-.015-.682-.058a11.157,11.157,0,0,1-2.115,1.606c-1.007-.1-1.986,1.224-3.006.836a4.782,4.782,0,0,1-.179-.979c.788-.665-.222-1.281.141-1.933-.657-.7-1.674-1.027-1.453-1.969.156.086-.015.179.045.252a2.29,2.29,0,0,1,.984.05c.143-.194-.081-.378.1-.571.123.206.164.219.345.106-.133-.217-.39-.521-.617-.438-.045.2.219-.053.154.146-.428.151-.38-.269-.579-.476-.29-.3-.743-.345-1.037-.617-.584-.531-.252-1.571-.851-2.135.04-.672.436-1.327-.164-1.85a13.387,13.387,0,0,1-1.815-1.427,3.97,3.97,0,0,1-.9-2.374,7.458,7.458,0,0,0,.78-1.913c.214-.629.828-1.206,1.161-2,.214-.5.189-1.083.566-1.455.136-.133.345-.108.524-.252.733-.534,1.062-1.717.023-2.044-.461.363-1.04.8-1.1,1.317.876.924-.707,2.236-.861,3.313-.048-.038,0-.113-.078-.073-.755,1.145-1.9,3.686-3.4,3.192-.9-1.314-.171-2.93-2.158-4.335-.289.04-.584-.088-.871-.015.551.592-.755,1.211-1.4,1.314v21.85Zm-2.188-4.63h0a.322.322,0,0,1,0,.453h0a.409.409,0,0,0-.076-.018.126.126,0,0,0-.076.023h0C254.339,66.787,254.412,66.473,254.656,66.5Zm-1.921,0c.252-.02.436.448.274.655h0a.78.78,0,0,1-.541-.441.39.39,0,0,1,.267-.219Zm-1.621.551h0a.35.35,0,0,1,.232.146c-.063.076-.126.035-.186.118h0c-.113-.091-.154-.179-.045-.269Zm-.939-4.061c.179.108-.025.327-.146.154.1-.108.01-.143.146-.159ZM247.6,65.783c.028.04.05.02.076,0,.113.086.076.174-.03.264-.113-.091-.154-.179-.045-.269Z" transform="translate(-184.89 -33.349)" fill="#fcee27"/>
      <path id="Path_174" data-name="Path 174" d="M281.927,14.891c.755.3,1.81-.559,1.891-1.45a1.169,1.169,0,0,0-1.908-.632A1.178,1.178,0,0,0,281.927,14.891Z" transform="translate(-206.81 2.108)" fill="#fcee27"/>
      <path id="Path_175" data-name="Path 175" d="M271.688,134.124c.06-.083.123-.043.186-.118a.35.35,0,0,0-.232-.146C271.539,133.951,271.579,134.039,271.688,134.124Z" transform="translate(-205.423 -100.16)" fill="#fcee27"/>
      <path id="Path_176" data-name="Path 176" d="M319.654,121.92c-.066.209-.086.559.206.637.048.252-.038.408.053.642-.013-.035.43.141.159.3.088-.025.176-.068.267.03.045.36-.116.808.219,1.093-.252-.5.2-.186.264.03s-.136.521-.023.569c-.073.076-.154-.053-.227.081.053.078.156.038.118.111a1.126,1.126,0,0,1-.06.191H342.6a2.147,2.147,0,0,0,.176-.919c-.282-.159-.126-.325-.277-.486-.375-.035-.612-.35-1.067-.274-.33.055-.488.378-.788.209-.2-.111-.2-.3-.393-.519a13.977,13.977,0,0,1,.541-2.437.886.886,0,0,1-.428-.481c-.214-.04-.468.1-.486.277.033-.088.239-.093.151,0-.252.128.023.035-.068.229a.5.5,0,0,0-.378.086.564.564,0,0,1-.672.32c-.5-.164-.355-.687-.788-1.191-.212-.252-.6-.4-.733-.549-.5-.592-.755-1.4-1.148-1.9-.063.206-.116.116-.267-.03-.31.607.128,1.352-.818,1.954a9.265,9.265,0,0,1-1.971-.1c-.35-.647-1.077-.942-1.329-1.631a1.512,1.512,0,0,1-.3-.068,2.248,2.248,0,0,1-2.364.7c-.529.551-1.078.355-1.611.612a2.023,2.023,0,0,0-1.717-.448c-.9-.312-.838-1.727-1.742-1.581a6.107,6.107,0,0,1-.164,1.025.151.151,0,0,1,.191.033,4.24,4.24,0,0,1-.473.808c-.546.957-1.724,2.266-2.817,2.193-.483-.03-.808-.5-1.178-.159-.227.206-.131.6-.284.687C319.476,121.905,319.564,121.807,319.654,121.92Zm14.433,1.969h0c.111.086-.113.179.043.252-.088,0-.174.1-.252.194h0c-.1-.06-.078-.123-.118-.184C333.967,124.045,334.037,124.158,334.087,123.889Z" transform="translate(-241.195 -87.82)" fill="#fcee27"/>
      <path id="Path_177" data-name="Path 177" d="M306.431,141.477a.252.252,0,0,0,.106-.267C306.421,141.21,306.27,141.376,306.431,141.477Z" transform="translate(-231.446 -105.66)" fill="#fcee27"/>
      <path id="Path_178" data-name="Path 178" d="M285.067,132.142a.126.126,0,0,1,.075-.023.408.408,0,0,1,.076.018.322.322,0,0,0,0-.453C284.962,131.654,284.888,131.968,285.067,132.142Z" transform="translate(-215.44 -98.53)" fill="#fcee27"/>
      <path id="Path_179" data-name="Path 179" d="M277.22,131.882a.781.781,0,0,0,.541.441c.161-.206-.02-.675-.274-.655A.39.39,0,0,0,277.22,131.882Z" transform="translate(-209.642 -98.52)" fill="#fcee27"/>
      <path id="Path_180" data-name="Path 180" d="M294.559,10.325c-.939-.828-2.266.6-1.631,1.329C293.829,12.687,295.568,11.214,294.559,10.325Z" transform="translate(-215.389 3.958)" fill="#fcee27"/>
      <path id="Path_181" data-name="Path 181" d="M418.353,156.5a3.723,3.723,0,1,0-3.7-3.723,3.723,3.723,0,0,0,3.7,3.723m0-7.074a3.353,3.353,0,1,1-3.333,3.351,3.353,3.353,0,0,1,3.333-3.351" transform="translate(-312.473 -111.526)" fill="#cb4542"/>
      <path id="Path_182" data-name="Path 182" d="M424.416,157.269a.1.1,0,0,0,.1.1h1.808a.1.1,0,1,0,0-.194h-1.808a.1.1,0,0,0-.1.1m.733-.191a.42.42,0,0,0,.42-.42v-.083a.1.1,0,0,0-.1-.1.1.1,0,0,0-.1.1v.083a.227.227,0,0,1-.227.227h-.5a.1.1,0,0,0,0,.194Zm-.448,1.007a.141.141,0,1,0,.138-.141.139.139,0,0,0-.138.141m1.707-.624h-1.979a.1.1,0,0,0-.091.063,1.158,1.158,0,0,0-.076.41v.055l-.3.584a.1.1,0,0,0,.083.143h.226v.36a.373.373,0,0,0,.373.373h.421v.189a.1.1,0,0,0,.1.1.1.1,0,0,0,.1-.1v-.284a.1.1,0,0,0-.1-.1h-.516a.179.179,0,0,1-.179-.179v-.458a.1.1,0,0,0-.1-.1h-.164l.252-.463a.138.138,0,0,0,0-.045v-.081a1.037,1.037,0,0,1,.04-.277h1.843a1.035,1.035,0,0,1,.04.277.966.966,0,0,1-.277.68.093.093,0,0,0-.04.076v.952a.1.1,0,0,0,.1.1.1.1,0,0,0,.1-.1v-.909a1.145,1.145,0,0,0,.317-.8,1.161,1.161,0,0,0-.076-.41.1.1,0,0,0-.091-.063m.209-1.679h-.793v-.071a.1.1,0,0,0-.1-.1h-.509a.1.1,0,0,0-.1.1v.076h-.788a.1.1,0,1,0,0,.194h.788v.091a.088.088,0,0,0,.025.063l.191.224a.1.1,0,0,0,.073.033h.131a.1.1,0,0,0,.073-.033l.194-.224a.1.1,0,0,0,.023-.063v-.091h.79a.1.1,0,0,0,0-.194m-.984.252-.138.161h-.043l-.141-.161v-.224h.322Z" transform="translate(-319.432 -116.434)" fill="#221f1f"/>
    </g>
  </g>
</svg>
