<svg xmlns="http://www.w3.org/2000/svg" width="36.788" height="22.268" viewBox="0 0 36.788 22.268">
  <g id="Group_651" data-name="Group 651" transform="translate(0)">
    <path id="Path_1710" data-name="Path 1710" d="M23.8,35.3a2.251,2.251,0,0,0-.544-.4,7.186,7.186,0,0,0-.889-.385,2.271,2.271,0,0,1-.8-.44.821.821,0,0,1-.238-.617.87.87,0,0,1,.239-.657.929.929,0,0,1,.663-.23.818.818,0,0,1,.68.32,1.412,1.412,0,0,1,.249.878h1.07a2.228,2.228,0,0,0-.421-1.408,1.752,1.752,0,0,0-1.187-.651v-.973h-.708V31.7a1.9,1.9,0,0,0-1.212.56,1.688,1.688,0,0,0-.446,1.208A1.759,1.759,0,0,0,21.282,35.1a6.453,6.453,0,0,0,.867.365,2.06,2.06,0,0,1,.8.442.855.855,0,0,1,.239.621.834.834,0,0,1-.264.646,1.088,1.088,0,0,1-.767.244,1.016,1.016,0,0,1-.792-.309,1.222,1.222,0,0,1-.281-.86H20.006a2.049,2.049,0,0,0,.471,1.4,2.018,2.018,0,0,0,1.345.628v.857h.7v-.863a2.009,2.009,0,0,0,1.275-.546,1.65,1.65,0,0,0,.457-1.211,1.824,1.824,0,0,0-.12-.693A1.523,1.523,0,0,0,23.8,35.3Zm-1.665,5.2A5.561,5.561,0,1,1,27.7,34.936,5.567,5.567,0,0,1,22.135,40.5Zm9.99-3.81V35.534H28.818v-1.2h3.306V33.186L34.6,34.936Z" transform="translate(-16.574 -29.375)" fill="#999696"/>
    <g id="Group_650" data-name="Group 650" transform="translate(11.175 6.462)">
      <path id="Path_1711" data-name="Path 1711" d="M44.422,34.607l-7.387-2.426c-.081-.027-.135.027-.135.108V42.345c0,.054.027.081.081.108l7.387,2.426c.054.027.135-.027.135-.108V34.715A.372.372,0,0,0,44.422,34.607Z" transform="translate(-27.626 -29.081)" fill="#999696"/>
      <path id="Path_1712" data-name="Path 1712" d="M55.692,22.857,49.113,20.7h-.054l-6.578,2.157a.1.1,0,0,0,0,.189L49.059,25.2h.054l6.578-2.157C55.772,23.046,55.772,22.911,55.692,22.857Z" transform="translate(-31.643 -20.7)" fill="#999696"/>
      <path id="Path_1713" data-name="Path 1713" d="M76.768,32.181l-7.387,2.426c-.054.027-.081.054-.081.108V44.772c0,.081.081.108.135.108l7.387-2.426c.054-.027.081-.054.081-.108V32.289C76.9,32.208,76.822,32.154,76.768,32.181Z" transform="translate(-51.29 -29.081)" fill="#999696"/>
      <path id="Path_1714" data-name="Path 1714" d="M8.566,32.1H3.255a.755.755,0,1,0,0,1.51H8.566a.754.754,0,0,0,.755-.755A.791.791,0,0,0,8.566,32.1Z" transform="translate(-2.5 -29.026)" fill="#999696"/>
      <path id="Path_1715" data-name="Path 1715" d="M8.566,47.6H3.255a.755.755,0,1,0,0,1.51H8.566a.754.754,0,0,0,.755-.755A.791.791,0,0,0,8.566,47.6Z" transform="translate(-2.5 -40.348)" fill="#999696"/>
      <path id="Path_1716" data-name="Path 1716" d="M8.566,63.2H3.255a.754.754,0,0,0-.755.755.737.737,0,0,0,.755.755H8.566a.755.755,0,0,0,0-1.51Z" transform="translate(-2.5 -51.742)" fill="#999696"/>
    </g>
  </g>
</svg>
