<svg id="Group_442" data-name="Group 442" xmlns="http://www.w3.org/2000/svg" width="26.323" height="26.324" viewBox="0 0 26.323 26.324">
  <g id="Group_441" data-name="Group 441" transform="translate(5.177 5.075)">
    <path id="Path_864" data-name="Path 864" d="M1.639,4.693h15.97V3.683a2.082,2.082,0,0,0-2.077-2.077H3.715A2.082,2.082,0,0,0,1.639,3.683v1.01ZM7.056,2.737a.6.6,0,1,1-.426.176.6.6,0,0,1,.426-.176Zm-1.689,0a.6.6,0,1,1-.426.176.6.6,0,0,1,.426-.176Zm-1.689,0a.6.6,0,1,1-.426.176.6.6,0,0,1,.426-.176Z" transform="translate(-1.639 -1.607)" fill="#090647"/>
    <path id="Path_865" data-name="Path 865" d="M17.608,2.664H1.639V13.421A2.082,2.082,0,0,0,3.715,15.5H15.532a2.082,2.082,0,0,0,2.077-2.077V2.664Zm-7.4,8.131V5.069a.253.253,0,0,1,.253-.253h5.726a.253.253,0,0,1,.253.253v5.726a.253.253,0,0,1-.253.253H10.466A.253.253,0,0,1,10.213,10.795ZM3.1,12.588H16.15a.126.126,0,0,1,0,.253H3.1a.126.126,0,0,1,0-.253ZM6.6,4.822H8.839a.253.253,0,0,1,.253.253V7.312a.253.253,0,0,1-.253.253H6.6a.253.253,0,0,1-.253-.253V5.075A.253.253,0,0,1,6.6,4.822Zm-1.057.253V7.312a.253.253,0,0,1-.253.253H3.055A.253.253,0,0,1,2.8,7.312V5.075a.253.253,0,0,1,.253-.253H5.292A.253.253,0,0,1,5.545,5.075ZM3.071,8.369H8.831a.253.253,0,0,1,.253.253V10.8a.253.253,0,0,1-.253.253H3.071a.253.253,0,0,1-.253-.253V8.622a.253.253,0,0,1,.253-.253Z" transform="translate(-1.639 0.675)" fill="#090647"/>
  </g>
  <path id="Path_866" data-name="Path 866" d="M4.212,0h17.9a4.224,4.224,0,0,1,4.212,4.212v17.9a4.224,4.224,0,0,1-4.212,4.212H4.212A4.224,4.224,0,0,1,0,22.112V4.212A4.224,4.224,0,0,1,4.212,0Zm0,1.579h17.9a2.64,2.64,0,0,1,2.632,2.632v17.9a2.64,2.64,0,0,1-2.632,2.632H4.212a2.64,2.64,0,0,1-2.632-2.632V4.212A2.64,2.64,0,0,1,4.212,1.579Z" transform="translate(0 0)" fill="#090647"/>
</svg>
