<svg id="History" xmlns="http://www.w3.org/2000/svg" width="26.323" height="18.578" viewBox="0 0 26.323 18.578">
  <path id="Path_1708" data-name="Path 1708" d="M33.74,21.2a.8.8,0,0,1-.8.8h-8.25a.8.8,0,1,1,0-1.606h8.25A.8.8,0,0,1,33.74,21.2ZM22.8,16.39H32.937a.8.8,0,1,0,0-1.606H22.8a.8.8,0,1,0,0,1.606Zm10.135,9.621h-9.68a.8.8,0,1,0,0,1.606h9.68a.8.8,0,1,0,0-1.606Zm0,5.611h-22a.8.8,0,0,0,0,1.606h22a.8.8,0,1,0,0-1.606ZM14.316,28.447a6.9,6.9,0,1,1,6.9-6.9,6.9,6.9,0,0,1-6.9,6.9ZM12.41,24.084l2.4-1.906a.8.8,0,0,0,.305-.626V19.035a.8.8,0,1,0-1.606,0V21.16l-2.1,1.66a.8.8,0,0,0,.5,1.435.825.825,0,0,0,.5-.171Z" transform="translate(-7.42 -14.65)" fill="#999696"/>
</svg>
