<svg xmlns="http://www.w3.org/2000/svg" width="28.852" height="24.655" viewBox="0 0 28.852 24.655">
  <path id="Path_1709" data-name="Path 1709" d="M23.794,20.738A5.958,5.958,0,1,0,29.752,26.7,5.963,5.963,0,0,0,23.794,20.738Zm0,10.889A4.931,4.931,0,1,1,28.725,26.7,4.923,4.923,0,0,1,23.794,31.628Zm2.025-6.164a.519.519,0,0,1-.7.763l-.822-.763v3.551a.528.528,0,1,1-1.057,0V25.464l-.822.763a.542.542,0,0,1-.352.147.528.528,0,0,1-.352-.91l1.7-1.556a.536.536,0,0,1,.7,0ZM19.978,11.9a.526.526,0,0,1-.528.528H12.611a.528.528,0,0,1,0-1.057H19.45A.546.546,0,0,1,19.978,11.9ZM7.8,11.9a.758.758,0,0,1-.763.763.777.777,0,0,1-.763-.763.763.763,0,1,1,1.526,0Zm11.682,6.281a.528.528,0,0,1,0,1.057H12.611a.528.528,0,0,1,0-1.057ZM7.005,17.921a.763.763,0,1,1,0,1.526.763.763,0,1,1,0-1.526ZM.9,25.493a3.9,3.9,0,0,0,3.9,3.9H15.869a.528.528,0,0,0,0-1.057H4.774a2.891,2.891,0,0,1,0-5.782h12.3a.526.526,0,0,0,.528-.528.479.479,0,0,0-.528-.47H4.774a2.891,2.891,0,0,1,0-5.782H20.917a2.887,2.887,0,0,1,2.876,2.906.5.5,0,0,0,.528.5.526.526,0,0,0,.528-.528,3.9,3.9,0,0,0-1.967-3.375A3.9,3.9,0,0,0,24.85,11.9v-.059A3.909,3.909,0,0,0,20.947,8H4.774A3.871,3.871,0,0,0,.9,11.874v.059a3.9,3.9,0,0,0,1.967,3.375,3.905,3.905,0,0,0,0,6.78A3.911,3.911,0,0,0,.9,25.493ZM4.774,14.78a2.85,2.85,0,0,1-2.847-2.847v-.059A2.85,2.85,0,0,1,4.774,9.027H20.947a2.85,2.85,0,0,1,2.847,2.847v.059a2.85,2.85,0,0,1-2.847,2.847H4.774ZM15.722,24.965a.528.528,0,1,1,0,1.057H12.611a.528.528,0,0,1,0-1.057ZM7.005,24.7a.763.763,0,1,1,0,1.526.763.763,0,1,1,0-1.526Z" transform="translate(-0.9 -8)" fill="#999696"/>
</svg>
