<svg id="_34_-_background" data-name="34 - background" xmlns="http://www.w3.org/2000/svg" width="24" height="24" viewBox="0 0 24 24">
  <path id="Path_878" data-name="Path 878" d="M2.251,6.36a.857.857,0,0,1,0-1.212l2.9-2.9A.857.857,0,1,1,6.36,3.463l-2.9,2.9a.857.857,0,0,1-1.212,0Zm.606,5.085a.857.857,0,0,0,.606-.251l7.732-7.732A.857.857,0,1,0,9.982,2.251L2.251,9.982a.857.857,0,0,0,.606,1.463Zm0,4.851a.857.857,0,0,0,.606-.251L16.046,3.463a.857.857,0,1,0-1.212-1.212L2.251,14.834A.857.857,0,0,0,2.857,16.3Zm0,4.851a.857.857,0,0,0,.606-.251L20.9,3.463a.857.857,0,1,0-1.212-1.212L2.251,19.685a.857.857,0,0,0,.606,1.463Zm22.892-18.9a.857.857,0,0,0-1.212,0L2.251,24.537a.857.857,0,1,0,1.212,1.212L25.749,3.463a.857.857,0,0,0,0-1.212ZM24.537,7.1,7.1,24.537a.857.857,0,1,0,1.212,1.212L25.749,8.314A.857.857,0,1,0,24.537,7.1Zm0,4.851L11.954,24.537a.857.857,0,1,0,1.212,1.212L25.749,13.166a.857.857,0,1,0-1.212-1.212Zm0,4.851-7.731,7.731a.857.857,0,1,0,1.212,1.212l7.731-7.731a.857.857,0,1,0-1.212-1.213Zm0,4.834-2.9,2.9a.857.857,0,1,0,1.212,1.212l2.9-2.9a.857.857,0,1,0-1.212-1.212Z" transform="translate(-2 -2)" fill="#999696"/>
</svg>
