<svg id="Group_469" data-name="Group 469" xmlns="http://www.w3.org/2000/svg" width="23.813" height="23.813" viewBox="0 0 23.813 23.813">
  <path id="Path_889" data-name="Path 889" d="M16.907,5.594a11.115,11.115,0,0,1,.318,22.226H5.794V16.6A11.124,11.124,0,0,1,16.907,5.594m0-.794A11.9,11.9,0,0,0,5,16.6V28.613H17.224A11.909,11.909,0,0,0,16.907,4.8Z" transform="translate(-5 -4.8)" fill="#999696"/>
  <g id="Group_467" data-name="Group 467" transform="translate(9.711 5.689)">
    <path id="Path_890" data-name="Path 890" d="M45.537,37.492,45.4,38c-.476.185-.873.344-1.164.423a2.762,2.762,0,0,1-.741.106,1.2,1.2,0,0,1-.953-.344,1.138,1.138,0,0,1-.318-.82,1.747,1.747,0,0,1,.026-.37c.026-.132.053-.291.106-.5l.847-3.387c.053-.185.079-.4.132-.609a2.175,2.175,0,0,0,.053-.556.764.764,0,0,0-.159-.582.84.84,0,0,0-.609-.159c-.106,0-.265.026-.476.053a3.857,3.857,0,0,0-.45.106l.132-.5c.423-.185.794-.318,1.111-.423a3.514,3.514,0,0,1,.794-.132,1.294,1.294,0,0,1,.953.318,1.215,1.215,0,0,1,.291.847,2.285,2.285,0,0,1-.026.4,4.3,4.3,0,0,1-.106.5L44,35.746c-.053.212-.106.423-.132.609a4.665,4.665,0,0,0-.053.5.871.871,0,0,0,.212.635,1.054,1.054,0,0,0,.661.159,1.4,1.4,0,0,0,.423-.053A3.242,3.242,0,0,0,45.537,37.492Zm.556-10.187a1.276,1.276,0,0,1-.291.794.9.9,0,0,1-.741.344.987.987,0,0,1-.714-.318,1.086,1.086,0,0,1-.291-.741,1.153,1.153,0,0,1,.291-.767.906.906,0,0,1,.714-.318.961.961,0,0,1,.741.318A.866.866,0,0,1,46.092,27.305Z" transform="translate(-41.7 -26.3)" fill="#999696"/>
  </g>
</svg>
