<svg xmlns="http://www.w3.org/2000/svg" width="13.278" height="10.961" viewBox="0 0 13.278 10.961">
  <g id="Group_566" data-name="Group 566" transform="translate(-16.248 29.959) rotate(-90)">
    <path id="Path_904" data-name="Path 904" d="M24.479,38.782a.843.843,0,0,1-.611-.261l-4.637-4.847a.844.844,0,1,1,1.222-1.163l4.637,4.847a.843.843,0,0,1-.611,1.425Z" transform="translate(0 -9.256)" fill="#fffffe"/>
    <path id="Path_905" data-name="Path 905" d="M24.479,29.526a.843.843,0,0,1-.611-1.425L28.5,23.254a.844.844,0,0,1,1.222,1.163L25.09,29.265A.843.843,0,0,1,24.479,29.526Zm0-6.744a.843.843,0,0,1-.611-.261l-4.637-4.847a.844.844,0,1,1,1.222-1.163l4.637,4.847a.843.843,0,0,1-.611,1.425Z" transform="translate(0 0)" fill="#fffffe"/>
    <path id="Path_906" data-name="Path 906" d="M30.842,22.782a.843.843,0,0,1-.611-1.425l4.637-4.847a.844.844,0,0,1,1.222,1.163l-4.637,4.847A.843.843,0,0,1,30.842,22.782Z" transform="translate(-6.363)" fill="#fffffe"/>
  </g>
</svg>
