<svg xmlns="http://www.w3.org/2000/svg" width="19.172" height="20.915" viewBox="0 0 19.172 20.915">
  <g id="Group_563" data-name="Group 563" transform="translate(-1)">
    <path id="Path_902" data-name="Path 902" d="M14.134,17.712a1.3,1.3,0,0,1-.727.234H9.05a1.3,1.3,0,0,1-.728-.234L7.784,19.8a1.348,1.348,0,0,0-.041.327A1.309,1.309,0,0,0,9.05,21.431h4.357A1.307,1.307,0,0,0,14.673,19.8ZM11.6,4.21a.454.454,0,0,0-.744,0L6.064,12.054a.435.435,0,0,0,0,.451l2.614,4.357a.436.436,0,0,0,.374.212h4.357a.436.436,0,0,0,.374-.212L16.4,12.5a.435.435,0,0,0,0-.451Zm-.372,9.378a1.743,1.743,0,1,1,1.743-1.743A1.742,1.742,0,0,1,11.229,13.588Z" transform="translate(-0.643 -0.516)" fill="#fff"/>
    <path id="Path_903" data-name="Path 903" d="M18.865,0a1.3,1.3,0,0,0-1.227.871H11.893V.436A.436.436,0,0,0,11.458,0H9.715a.436.436,0,0,0-.436.436V.871H3.534a1.307,1.307,0,1,0,0,.871H7.247A6.962,6.962,0,0,0,3.763,6.536H3.179a.436.436,0,0,0-.436.436V8.715a.436.436,0,0,0,.436.436H4.922a.436.436,0,0,0,.436-.436V6.972a.436.436,0,0,0-.436-.436h-.27A6.074,6.074,0,0,1,9.279,1.908v.271a.436.436,0,0,0,.436.436h1.743a.436.436,0,0,0,.436-.436V1.908a6.074,6.074,0,0,1,4.627,4.628h-.27a.436.436,0,0,0-.436.436V8.715a.436.436,0,0,0,.436.436h1.743a.436.436,0,0,0,.436-.436V6.972a.436.436,0,0,0-.436-.436H17.41a6.962,6.962,0,0,0-3.484-4.793h3.712A1.3,1.3,0,1,0,18.865,0Z" fill="#fff"/>
    <circle id="Ellipse_72" data-name="Ellipse 72" cx="0.5" cy="0.5" r="0.5" transform="translate(10.172 10.915)" fill="#fff"/>
  </g>
</svg>
