<svg id="Group_496" data-name="Group 496" xmlns="http://www.w3.org/2000/svg" width="22.312" height="22.312" viewBox="0 0 22.312 22.312">
  <path id="Path_895" data-name="Path 895" d="M21.073,12.4v8.677H19.213v1.24h2.739a.355.355,0,0,0,.36-.36V8.057h-1.24v3.1h1.24V12.4ZM1.24,11.156v-3.1H0V6.818H1.24V4.338H0V3.1H1.24V1.24H3.1V0h1.24V1.24H6.818V0h1.24V1.24h2.479V0h1.24V1.24h2.479V0h1.24V1.24h2.479V0h1.24V1.24h1.859V3.1h1.24V.36a.355.355,0,0,0-.36-.36H.36A.355.355,0,0,0,0,.36v10.8Zm0,1.24v8.677H3.1v1.24H.36a.355.355,0,0,1-.36-.36V12.4ZM22.312,6.818V4.338h-1.24V6.818ZM17.974,22.312H15.495v-1.24h2.479v1.24Zm-3.719,0H11.776v-1.24h2.479v1.24Zm-3.719,0H8.057v-1.24h2.479v1.24Zm-3.719,0H4.338v-1.24H6.818v1.24ZM0,14.875v1.24H1.24v-1.24Zm0,3.719v1.24H1.24v-1.24Zm21.073-3.719v1.24h1.24v-1.24Zm0,3.719v1.24h1.24v-1.24Zm0,0" fill="#999696"/>
</svg>
