<svg id="Group_458" data-name="Group 458" xmlns="http://www.w3.org/2000/svg" width="22.444" height="24.101" viewBox="0 0 22.444 24.101">
  <path id="Path_880" data-name="Path 880" d="M18.679,20.34H15.047a.274.274,0,0,0-.274.274v3.233a.272.272,0,0,0,.2.265l1.816.485a.258.258,0,0,0,.141,0l1.816-.485a.273.273,0,0,0,.2-.265V20.614A.272.272,0,0,0,18.679,20.34Zm-.274,3.3-1.542.412-1.542-.412v-2.75h3.084v2.75Z" transform="translate(-8.605 -10.294)" fill="#999696"/>
  <path id="Path_881" data-name="Path 881" d="M24.026,10.071A3.206,3.206,0,0,0,22.38,8.249L18.853,6.586a.435.435,0,0,0-.382.007,10.51,10.51,0,0,0-3.176-.663.617.617,0,0,0-.319-.315,1.3,1.3,0,0,0-.555-.8,1.233,1.233,0,1,1,1.9-1.036.528.528,0,0,0,1.047.094.26.26,0,0,0-.2-.317.254.254,0,0,0-.3.222,1.781,1.781,0,1,0-2.746,1.5.756.756,0,0,1,.3.383.615.615,0,0,0-.251.269,10.5,10.5,0,0,0-3.182.665l-.033-.015a.431.431,0,0,0-.344.007L7.087,8.249a3.205,3.205,0,0,0-1.646,1.823L3.528,15.5a.275.275,0,0,0,.168.35l3.928,1.384a.28.28,0,0,0,.209-.012.277.277,0,0,0,.14-.156l.249-.708v9.466A.275.275,0,0,0,8.5,26.1H17.66a.277.277,0,0,0,.1-.021.248.248,0,0,0,.046-.028.375.375,0,0,0,.039-.026l.005-.005h0L21.159,22.9l0,0a.274.274,0,0,0,.07-.123.177.177,0,0,0,.007-.034.268.268,0,0,0,.009-.041v-6.34l.249.708a.277.277,0,0,0,.14.156.281.281,0,0,0,.21.012l3.928-1.384a.275.275,0,0,0,.167-.349ZM14.733,6.8a.612.612,0,0,0,.533-.323,9.961,9.961,0,0,1,2.876.587,3.841,3.841,0,0,1-6.829,0A9.952,9.952,0,0,1,14.2,6.476.61.61,0,0,0,14.733,6.8Zm3.2,18.391V22.974h2.348Zm3.986-8.563-.688-1.954a.24.24,0,0,0-.03-.062h0a.293.293,0,0,0-.06-.067.283.283,0,0,0-.128-.056.241.241,0,0,0-.063,0,.27.27,0,0,0-.131.045.244.244,0,0,0-.046.038h0a.273.273,0,0,0-.075.184h0v7.668H17.66a.275.275,0,0,0-.274.274v2.852H8.77V14.758a.274.274,0,0,0-.532-.091l-.691,1.96-3.412-1.2,1.822-5.172A2.654,2.654,0,0,1,7.321,8.744l3.415-1.609a4.4,4.4,0,0,0,8,0l3.415,1.609a2.656,2.656,0,0,1,1.363,1.509l1.823,5.172Z" transform="translate(-3.512 -1.999)" fill="#999696"/>
</svg>
