<svg id="Group_451" data-name="Group 451" xmlns="http://www.w3.org/2000/svg" width="21.919" height="21.921" viewBox="0 0 21.919 21.921">
  <g id="Group_450" data-name="Group 450">
    <path id="Path_874" data-name="Path 874" d="M14.983,17.634a2.885,2.885,0,1,0,2.885,2.885A2.885,2.885,0,0,0,14.983,17.634Zm0,5.083a2.2,2.2,0,1,1,2.2-2.2A2.2,2.2,0,0,1,14.983,22.717Z" transform="translate(-4.023 -6.466)" fill="#999696"/>
    <g id="Group_454" data-name="Group 454" transform="translate(4.559 6.009)">
      <path id="Path_875" data-name="Path 875" d="M10.967,12.185l.415-.415L10.09,10.477l1.291-1.291-.415-.415L9.674,10.062,8.383,8.771l-.415.415,1.291,1.291L7.968,11.77l.415.415,1.291-1.292Z" transform="translate(-7.968 -8.771)" fill="#999696"/>
      <path id="Path_876" data-name="Path 876" d="M21.1,8.771,19.865,10.01,18.626,8.771l-.4.4,1.239,1.239-1.239,1.239.4.4,1.239-1.239L21.1,12.045l.4-.4-1.239-1.239L21.5,9.169Z" transform="translate(-9.273 -8.771)" fill="#999696"/>
    </g>
    <path id="Path_877" data-name="Path 877" d="M18.828,0H3.091A3.094,3.094,0,0,0,0,3.089V18.829A3.094,3.094,0,0,0,3.091,21.92H18.828a3.094,3.094,0,0,0,3.091-3.091V3.089A3.094,3.094,0,0,0,18.828,0Zm0,.685c.048,0,.092.012.14.014a16.993,16.993,0,0,1-8.009,1.77A16.984,16.984,0,0,1,2.951.7c.047,0,.092-.014.14-.014H18.828ZM3.091,21.234c-.048,0-.092-.011-.139-.014a16.986,16.986,0,0,1,8.009-1.771,16.986,16.986,0,0,1,8.009,1.771c-.047,0-.092.014-.139.014Zm18.143-2.4a2.4,2.4,0,0,1-1.339,2.146,16.831,16.831,0,0,0-8.935-2.21,16.83,16.83,0,0,0-8.935,2.21A2.4,2.4,0,0,1,.685,18.829V3.089A2.4,2.4,0,0,1,2.024.943a16.825,16.825,0,0,0,8.935,2.21A16.825,16.825,0,0,0,19.895.943a2.4,2.4,0,0,1,1.339,2.146Z" transform="translate(0 0.001)" fill="#999696"/>
  </g>
</svg>
