<svg xmlns="http://www.w3.org/2000/svg" width="411.778" height="297.525" viewBox="0 0 411.778 297.525">
  <g id="Group_621" data-name="Group 621" transform="translate(2066 11486)">
    <path id="Path_1264" data-name="Path 1264" d="M298.359,187.749a96.815,96.815,0,0,1,31.3,6.449,99.383,99.383,0,0,1,27.552,16.134,95.153,95.153,0,0,1,12.687,12.687c.37.455,1.057-.137.687-.592a97.418,97.418,0,0,0-24.317-21.04,100.006,100.006,0,0,0-29.8-12.169,96.806,96.806,0,0,0-17.974-2.379c-.582,0-.656.888-.074.909Z" transform="translate(-2048.93 -11475.302)" fill="#febb09"/>
    <path id="Path_1265" data-name="Path 1265" d="M318.411,191.892c6.428-6.2,15.256-13.163,24.317-17.086,5.117-2.22,10.774-4.06,16.641-4,2.781,0,5.752.592,7.4,2.22,2.527,2.421,1.121,6.143-1.6,8.511-2.929,2.569-7.063,4.166-11.175,5.53-10.943,3.605-23.789,3.817-35.609,4.821" transform="translate(-2047.763 -11476.22)" fill="#febb09"/>
    <path id="Path_1266" data-name="Path 1266" d="M344.07,201.98c5.878-3.753,13.745-7.739,21.23-9.357a32.215,32.215,0,0,1,13.353-.507c2.115.455,4.314,1.332,5.36,2.844,1.554,2.241-.1,4.874-2.527,6.27-2.643,1.522-6.058,2.115-9.41,2.516-8.934,1.057-18.8-.719-28.007-1.766" transform="translate(-2046.292 -11475.026)" fill="#febb09"/>
    <path id="Path_1267" data-name="Path 1267" d="M347.58,203.413c8.574,2.5,19.031,6.682,26.918,12.582,4.472,3.341,8.871,7.327,11.736,12.444,1.353,2.432,2.347,5.286,1.776,7.57-.846,3.394-4.779,4.018-8.183,2.844-3.69-1.269-7.126-4.06-10.351-6.946-8.574-7.7-15.14-18.745-21.9-28.546" transform="translate(-2046.091 -11474.355)" fill="#febb09"/>
    <path id="Path_1268" data-name="Path 1268" d="M327.07,192.79c5.149,5.4,11.038,12.888,14.612,20.723a41.635,41.635,0,0,1,4.123,14.559c.159,2.463-.074,5.128-1.205,6.714-1.692,2.358-4.62,1.29-6.6-1-2.115-2.474-3.637-6.058-4.937-9.642-3.468-9.515-4.462-20.913-5.995-31.348" transform="translate(-2047.266 -11474.961)" fill="#febb09"/>
    <path id="Path_1269" data-name="Path 1269" d="M312.141,188.67a51.394,51.394,0,0,1,9.367,13.279,26.791,26.791,0,0,1,2.643,9.346,7.137,7.137,0,0,1-.782,4.3c-1.057,1.512-2.95.825-4.229-.645a20.087,20.087,0,0,1-3.172-6.185c-2.22-6.111-2.855-13.406-3.849-20.088" transform="translate(-2048.122 -11475.196)" fill="#febb09"/>
    <g id="Group_619" data-name="Group 619" transform="translate(-1917.679 -11240.139)" opacity="0.09">
      <path id="Path_1270" data-name="Path 1270" d="M194.082,232.709a61,61,0,0,1-12.349,15.954A63.024,63.024,0,0,1,164.9,259.838,59.919,59.919,0,0,1,154.18,263.5a.285.285,0,0,0,.148.55,61.323,61.323,0,0,0,18.7-7.961,63.035,63.035,0,0,0,15.193-13.544,60.857,60.857,0,0,0,6.344-9.568c.169-.317-.317-.613-.5-.285Z" transform="translate(-139.499 -232.545)" fill="#4b0263"/>
      <path id="Path_1271" data-name="Path 1271" d="M185.007,243.23c1.734,5.371,3.235,12.317,2.939,18.534a26.062,26.062,0,0,1-2.358,10.573,7.116,7.116,0,0,1-3.33,3.605c-2.115.761-3.8-1.057-4.388-3.267a20.743,20.743,0,0,1,0-7.877c.994-7.211,4.451-14.559,7.158-21.547" transform="translate(-138.153 -231.933)" fill="#4b0263"/>
      <path id="Path_1272" data-name="Path 1272" d="M171.961,254.82a43.537,43.537,0,0,1-.592,14.643,20.406,20.406,0,0,1-3.426,7.718,5.519,5.519,0,0,1-3.108,2.252c-1.7.264-2.738-1.406-2.855-3.172a16.028,16.028,0,0,1,1.184-6.026c1.871-5.371,5.646-10.467,8.8-15.4" transform="translate(-139.042 -231.269)" fill="#4b0263"/>
      <path id="Path_1273" data-name="Path 1273" d="M170.972,256.26c-3.8,4.176-9.071,8.934-14.612,11.767a25.945,25.945,0,0,1-10.33,3.172,7.094,7.094,0,0,1-4.789-1.057c-1.681-1.417-.952-3.827.666-5.424a20.468,20.468,0,0,1,6.819-3.944c6.745-2.728,14.8-3.383,22.2-4.5" transform="translate(-140.284 -231.187)" fill="#4b0263"/>
      <path id="Path_1274" data-name="Path 1274" d="M182.571,247.881a50.749,50.749,0,0,1-15.859,2.527,26.718,26.718,0,0,1-9.41-1.7,7.02,7.02,0,0,1-3.468-2.559c-.867-1.607.55-2.971,2.4-3.468a19.887,19.887,0,0,1,6.841-.116c6.344.687,13.1,3.288,19.454,5.286" transform="translate(-139.523 -231.985)" fill="#4b0263"/>
      <path id="Path_1275" data-name="Path 1275" d="M188.536,240.452a32.575,32.575,0,0,1-10.15,1.618,16.97,16.97,0,0,1-6.026-1.057,4.557,4.557,0,0,1-2.231-1.639c-.56-1.057.349-1.914,1.544-2.231a12.878,12.878,0,0,1,4.388-.074c4.081.444,8.458,2.115,12.476,3.415" transform="translate(-138.585 -232.295)" fill="#4b0263"/>
    </g>
    <g id="Group_620" data-name="Group 620" transform="translate(-1820.931 -11486)" opacity="0.09">
      <path id="Path_1276" data-name="Path 1276" d="M232.34,48.651a61.185,61.185,0,0,1,11.482-16.6A62.909,62.909,0,0,1,260.03,20a60.426,60.426,0,0,1,10.52-4.229c.349-.106.169-.645-.18-.539a61.4,61.4,0,0,0-18.27,8.945,63.34,63.34,0,0,0-14.442,14.315,60.79,60.79,0,0,0-5.836,9.9c-.159.328.349.6.508.264Z" transform="translate(-231.791 0.869)" fill="#4b0263"/>
      <path id="Path_1277" data-name="Path 1277" d="M239.264,37.719c-2.019-5.286-3.891-12.127-3.933-18.354A26.209,26.209,0,0,1,237.1,8.707a7.136,7.136,0,0,1,3.172-3.785c2.041-.867,3.848.878,4.557,3.034a20.373,20.373,0,0,1,.444,7.866c-.6,7.253-3.658,14.8-5.995,21.9" transform="translate(-231.59 0.267)" fill="#4b0263"/>
      <path id="Path_1278" data-name="Path 1278" d="M251.639,25a43.01,43.01,0,0,1-.19-14.654,20.214,20.214,0,0,1,3-7.887A5.5,5.5,0,0,1,257.433.053c1.692-.359,2.812,1.258,3.024,3.013a16.166,16.166,0,0,1-.867,6.09c-1.575,5.466-5.075,10.752-7.951,15.859" transform="translate(-230.696 -0.002)" fill="#4b0263"/>
      <path id="Path_1279" data-name="Path 1279" d="M253.62,22.988c3.574-4.367,8.585-9.4,13.967-12.529a25.914,25.914,0,0,1,10.139-3.743,7.084,7.084,0,0,1,4.842.835c1.766,1.332,1.152,3.764-.37,5.456a20.68,20.68,0,0,1-6.6,4.3c-6.6,3.077-14.643,4.166-21.981,5.678" transform="translate(-230.541 0.375)" fill="#4b0263"/>
      <path id="Path_1280" data-name="Path 1280" d="M242.38,31.585a50.686,50.686,0,0,1,15.648-3.373,26.432,26.432,0,0,1,9.515,1.205,6.957,6.957,0,0,1,3.605,2.368c.952,1.554-.391,2.992-2.21,3.584a19.919,19.919,0,0,1-6.83.486c-6.344-.349-13.258-2.59-19.7-4.229" transform="translate(-231.185 1.611)" fill="#4b0263"/>
      <path id="Path_1281" data-name="Path 1281" d="M236.282,39.179a32.49,32.49,0,0,1,10.044-2.167,17.064,17.064,0,0,1,6.09.772,4.525,4.525,0,0,1,2.3,1.522c.613.994-.254,1.924-1.417,2.294a12.529,12.529,0,0,1-4.377.317c-4.1-.222-8.511-1.66-12.687-2.738" transform="translate(-231.537 2.116)" fill="#4b0263"/>
    </g>
    <path id="Path_1282" data-name="Path 1282" d="M91.343,75.019a87.225,87.225,0,0,1-28.768,2.115,89.868,89.868,0,0,1-27.954-7.2A87.4,87.4,0,0,1,20.474,62c-.433-.307-.878.381-.444.677A88.092,88.092,0,0,0,46.366,75,90.429,90.429,0,0,0,75.272,78.17,86.759,86.759,0,0,0,91.5,75.78c.518-.127.359-.93-.159-.8Z" transform="translate(-2064.861 -11482.456)" fill="#fcee27"/>
    <path id="Path_1283" data-name="Path 1283" d="M71.428,76.61c-4.06,6.967-10,15.2-16.916,20.839-3.9,3.172-8.363,6.185-13.47,7.581-2.421.656-5.138.909-7.02-.1-2.781-1.48-2.485-5.064-.708-7.792,1.914-2.95,5.107-5.36,8.342-7.549C50.272,83.757,61.374,80.406,71.4,76.61" transform="translate(-2064.168 -11481.614)" fill="#fcee27"/>
    <path id="Path_1284" data-name="Path 1284" d="M46.216,73.68C42.039,78.4,36.224,83.788,30.082,87.044A29,29,0,0,1,18.61,90.776c-1.956.137-4.081-.085-5.36-1.142-1.9-1.565-1.121-4.229.645-6.069a22.826,22.826,0,0,1,7.612-4.515c7.485-3.172,16.5-4.007,24.761-5.371" transform="translate(-2065.302 -11481.782)" fill="#fcee27"/>
    <path id="Path_1285" data-name="Path 1285" d="M43.158,74.057c-8.056,0-18.153-1.121-26.432-4.293A38.038,38.038,0,0,1,3.457,61.856C1.639,60.08.074,57.849,0,55.724c-.1-3.172,3.172-4.673,6.407-4.493,3.51.19,7.189,1.766,10.7,3.478,9.325,4.567,17.783,12.539,26.051,19.348" transform="translate(-2065.998 -11483.068)" fill="#fcee27"/>
    <path id="Path_1286" data-name="Path 1286" d="M62.661,78.843c-5.8-3.426-12.761-8.458-17.8-14.389a37.576,37.576,0,0,1-7.168-11.63c-.751-2.115-1.205-4.472-.613-6.132.888-2.463,3.69-2.263,5.984-.761,2.474,1.618,4.652,4.367,6.661,7.158,5.36,7.4,9.029,17.064,12.941,25.755" transform="translate(-2063.89 -11483.436)" fill="#fcee27"/>
    <path id="Path_1287" data-name="Path 1287" d="M76.147,78.062a46.52,46.52,0,0,1-11.419-9.23,24.212,24.212,0,0,1-4.61-7.464,6.439,6.439,0,0,1-.391-3.933c.571-1.575,2.368-1.448,3.838-.486a18.322,18.322,0,0,1,4.282,4.589c3.436,4.768,5.794,10.953,8.3,16.525" transform="translate(-2062.585 -11482.78)" fill="#fcee27"/>
    <path id="Path_1288" data-name="Path 1288" d="M139.134,22.3,55.44,151.668l167.387-1.374Z" transform="translate(-2062.823 -11484.726)" fill="#4b0263" opacity="0.09"/>
    <circle id="Ellipse_88" data-name="Ellipse 88" cx="55.866" cy="55.866" r="55.866" transform="translate(-1972.482 -11339.423)" fill="#ffd96e" opacity="0.45"/>
    <rect id="Rectangle_433" data-name="Rectangle 433" width="154.827" height="144.149" transform="translate(-1864.143 -11408.885)" fill="#ffd96e" opacity="0.45"/>
    <rect id="Rectangle_434" data-name="Rectangle 434" width="129.685" height="120.741" transform="translate(-1802.663 -11439.642)" fill="none" stroke="#02a2cb" stroke-width="1"/>
    <rect id="Rectangle_435" data-name="Rectangle 435" width="23.979" height="23.979" transform="translate(-2004 -11263.192)" fill="#090647"/>
    <rect id="Rectangle_436" data-name="Rectangle 436" width="23.979" height="23.979" transform="translate(-1980.021 -11263.192)" fill="#fcee27"/>
    <rect id="Rectangle_437" data-name="Rectangle 437" width="23.979" height="23.979" transform="translate(-1956.052 -11263.192)" fill="#ed1588"/>
    <rect id="Rectangle_438" data-name="Rectangle 438" width="23.979" height="23.979" transform="translate(-1932.073 -11263.192)" fill="#37afe4"/>
    <path id="Path_1289" data-name="Path 1289" d="M43.838,179.337a14,14,0,1,1,14-14A14,14,0,0,1,43.838,179.337Zm0-27.3a13.311,13.311,0,1,0,13.311,13.3,13.311,13.311,0,0,0-13.311-13.3Z" transform="translate(-2064.289 -11477.335)" fill="#ff0b00"/>
    <path id="Path_1290" data-name="Path 1290" d="M43,147.9v35.324a.539.539,0,0,0,1.057,0V147.953a.539.539,0,0,0-1.057,0Z" transform="translate(-2063.535 -11477.553)" fill="#010305"/>
    <path id="Path_1291" data-name="Path 1291" d="M62.084,164.08H26.813a.539.539,0,0,0,0,1.057H62.126a.539.539,0,0,0,0-1.057Z" transform="translate(-2064.487 -11476.604)" fill="#010305"/>
    <path id="Path_1292" data-name="Path 1292" d="M136.485,200.412H81.739a.73.73,0,0,1-.719-.835l3.151-20.543a.73.73,0,0,1,.719-.624h46.52a.74.74,0,0,1,.719.592l4.377,21.452Z" transform="translate(-2061.358 -11475.784)" fill="none" stroke="#4b0263" stroke-width="2"/>
    <path id="Path_1293" data-name="Path 1293" d="M158.606,113.81,114.9,41.535a1.311,1.311,0,0,0-2.432.677v64.494a6.46,6.46,0,1,1-3.394,0V42.011a1.311,1.311,0,0,0-2.411-.708l-47.1,73.089a1.343,1.343,0,0,0-.106,1.205L85.21,178.378a1.311,1.311,0,0,0,1.205.814H132.3a1.311,1.311,0,0,0,1.216-.825L158.7,114.931A1.332,1.332,0,0,0,158.606,113.81Z" transform="translate(-2062.598 -11483.67)" fill="none" stroke="#4b0263" stroke-width="2"/>
    <path id="Path_1294" data-name="Path 1294" d="M41.36,38.941s62.781-62.781,141.273,0" transform="translate(-2063.629 -11485.37)" fill="none" stroke="#4b0263" stroke-width="2"/>
    <path id="Path_1295" data-name="Path 1295" d="M43.894,39.222a4.092,4.092,0,1,1-1.2-2.9,4.1,4.1,0,0,1,1.2,2.9Z" transform="translate(-2063.954 -11483.991)" fill="#4b0263"/>
    <circle id="Ellipse_89" data-name="Ellipse 89" cx="4.102" cy="4.102" r="4.102" transform="translate(-1885.099 -11448.924)" fill="#4b0263"/>
    <rect id="Rectangle_439" data-name="Rectangle 439" width="6.946" height="6.946" transform="translate(-1955.111 -11477.798)" fill="#4b0263"/>
    <path id="Path_1296" data-name="Path 1296" d="M62.045,262.35c25.11,20.088,47.577,19.031,61.946,14.633a67.666,67.666,0,0,0,25.554-14.58l.93.93a68.839,68.839,0,0,1-26.051,14.9c-14.707,4.525-37.618,5.625-63.2-14.8Z" transform="translate(-2062.492 -11470.977)" fill="#02a2cb"/>
    <path id="Path_1297" data-name="Path 1297" d="M143.89,262.029a2.569,2.569,0,1,1,2.569,2.569A2.569,2.569,0,0,1,143.89,262.029Z" transform="translate(-2057.757 -11471.142)" fill="#02a2cb"/>
    <path id="Path_1298" data-name="Path 1298" d="M59.18,262.029a2.569,2.569,0,1,1,2.569,2.569A2.569,2.569,0,0,1,59.18,262.029Z" transform="translate(-2062.609 -11471.142)" fill="#02a2cb"/>
    <rect id="Rectangle_440" data-name="Rectangle 440" width="4.345" height="4.345" transform="translate(-1954.498 -11188.475) rotate(180)" fill="#02a2cb"/>
    <path id="Path_1299" data-name="Path 1299" d="M387.3,105.756c-16.863-13.491-31.93-12.793-41.593-9.822a45.579,45.579,0,0,0-17.17,9.79l-.624-.624a46.235,46.235,0,0,1,17.5-10c9.875-3.045,25.258-3.785,42.449,9.96Z" transform="translate(-2047.218 -11480.66)" fill="#02a2cb"/>
    <circle id="Ellipse_90" data-name="Ellipse 90" cx="1.723" cy="1.723" r="1.723" transform="translate(-1721.507 -11376.3)" fill="#02a2cb"/>
    <circle id="Ellipse_91" data-name="Ellipse 91" cx="1.723" cy="1.723" r="1.723" transform="translate(-1661.359 -11376.3)" fill="#02a2cb"/>
    <rect id="Rectangle_441" data-name="Rectangle 441" width="2.918" height="2.918" transform="translate(-1690.772 -11388.437)" fill="#02a2cb"/>
    <path id="Path_1300" data-name="Path 1300" d="M190.028,105.879l-14.4,2.939a.19.19,0,0,1-.233-.18l-.275-5.582a.19.19,0,0,1,.159-.2l12.222-2.5a.18.18,0,0,1,.211.106Z" transform="translate(-2055.968 -11480.254)" fill="#4b0263"/>
    <path id="Path_1301" data-name="Path 1301" d="M191.011,81.908,175.628,65.266a.349.349,0,0,0-.6.307l3.468,16.916a1.73,1.73,0,1,1-.888.169l-3.478-17a.359.359,0,0,0-.677,0L165,87.406a.338.338,0,0,0,0,.317l10.15,15.13a.359.359,0,0,0,.359.148l12.074-2.474a.349.349,0,0,0,.275-.275l3.172-17.974a.36.36,0,0,0-.021-.37Z" transform="translate(-2056.55 -11482.271)" fill="#4b0263"/>
    <rect id="Rectangle_442" data-name="Rectangle 442" width="14.886" height="74.104" transform="translate(-1880.574 -11371.609) rotate(-11.56)" fill="#ed1588"/>
    <rect id="Rectangle_443" data-name="Rectangle 443" width="14.886" height="74.104" transform="matrix(1, -0.027, 0.027, 1, -1859.051, -11394.837)" fill="#fcee27"/>
    <path id="Path_1302" data-name="Path 1302" d="M210.627,86.4l-14.685.391a.19.19,0,0,1-.2-.222l.7-5.54a.19.19,0,0,1,.19-.169L209.1,80.53a.2.2,0,0,1,.19.148l1.332,5.73Z" transform="translate(-2054.788 -11481.391)" fill="none" stroke="#4b0263" stroke-width="1"/>
    <path id="Path_1303" data-name="Path 1303" d="M215.922,63.046,203.678,43.92a.349.349,0,0,0-.645.19l.455,17.308a1.734,1.734,0,1,1-.909,0l-.465-17.339a.349.349,0,0,0-.645-.18L189.352,63.86a.328.328,0,0,0,0,.328l7.4,16.663a.349.349,0,0,0,.328.211l12.317-.328a.37.37,0,0,0,.317-.233l6.344-17.191a.349.349,0,0,0-.137-.264Z" transform="translate(-2055.156 -11483.497)" fill="none" stroke="#4b0263" stroke-width="1"/>
    <path id="Path_1304" data-name="Path 1304" d="M234.545,105.2l-14.485-3.584,1.491-6.069,14.368,3.732-1.374,5.921Z" transform="translate(-2053.395 -11480.53)" fill="#4b0263"/>
    <rect id="Rectangle_444" data-name="Rectangle 444" width="14.886" height="74.104" transform="translate(-1833.24 -11379.139) rotate(13.92)" fill="#ed1588"/>
    <path id="Path_1305" data-name="Path 1305" d="M235.684,98.293l2.6-11.334-4.07-14.019L225.1,83.714l-2.781,11.26Z" transform="translate(-2053.265 -11481.825)" fill="none" stroke="#4b0263" stroke-width="1"/>
    <line id="Line_70" data-name="Line 70" x2="7.56" y2="1.681" transform="translate(-1824.327 -11402.71)" fill="none" stroke="#4b0263" stroke-width="1"/>
    <path id="Path_1306" data-name="Path 1306" d="M173.708,150.18h61.724a3.531,3.531,0,0,1,3.531,3.531V222.18A26.823,26.823,0,0,1,212.14,249H196.091a25.861,25.861,0,0,1-25.861-25.861V153.658a3.478,3.478,0,0,1,3.478-3.478Z" transform="translate(-2056.248 -11477.401)" fill="#090647"/>
    <rect id="Rectangle_445" data-name="Rectangle 445" width="68.733" height="9.177" transform="translate(-1886.019 -11316.585)" fill="#fdf6e6" opacity="0.2"/>
    <rect id="Rectangle_446" data-name="Rectangle 446" width="68.733" height="9.177" transform="translate(-1886.019 -11301.296)" fill="#fdf6e6" opacity="0.2"/>
    <line id="Line_71" data-name="Line 71" y2="146.686" transform="translate(-1689.144 -11336.81)" fill="none" stroke="#ed1588" stroke-width="2"/>
    <line id="Line_72" data-name="Line 72" x1="202.732" transform="translate(-1873.395 -11206.374)" fill="none" stroke="#ed1588" stroke-width="2"/>
    <path id="Path_1307" data-name="Path 1307" d="M324.065,256.411l-1.205-3.552a7.972,7.972,0,0,0-4.959-4.948l-3.531-1.205,3.595-1.311a8,8,0,0,0,4.779-4.779l1.322-3.605.92,2.9a9.04,9.04,0,0,0,5.878,5.878l2.886.92-2.971,1.174c-2.537.994-4.324,1.808-5.551,5.551Z" transform="translate(-2047.993 -11472.428)" fill="#090647"/>
    <path id="Path_1308" data-name="Path 1308" d="M381.794,177.51,381,175.195a5.191,5.191,0,0,0-3.246-3.246l-2.315-.793,2.358-.856a5.286,5.286,0,0,0,3.172-3.172l.867-2.358.6,1.893a5.932,5.932,0,0,0,3.849,3.848l1.893.6-1.945.772a5.012,5.012,0,0,0-3.637,3.637Z" transform="translate(-2044.495 -11476.565)" fill="#fcb610"/>
    <path id="Path_1309" data-name="Path 1309" d="M298.268,259.155a4.937,4.937,0,1,1,4.927-4.927,4.937,4.937,0,0,1-4.927,4.927Zm0-8.384a3.457,3.457,0,1,0,3.447,3.457,3.457,3.457,0,0,0-3.447-3.457Z" transform="translate(-2049.199 -11471.726)" fill="#fcb610"/>
    <path id="Path_1310" data-name="Path 1310" d="M387.539,149.016a2.178,2.178,0,1,1,2.167-2.178,2.178,2.178,0,0,1-2.167,2.178Zm0-3.7a1.522,1.522,0,1,0,1.522,1.522A1.522,1.522,0,0,0,387.539,145.316Z" transform="translate(-2043.928 -11477.717)" fill="#fcb610"/>
    <path id="Path_1311" data-name="Path 1311" d="M243.528,247.386a2.178,2.178,0,1,1,2.178-2.178A2.178,2.178,0,0,1,243.528,247.386Zm0-3.7a1.512,1.512,0,1,0,1.08.443,1.522,1.522,0,0,0-1.08-.443Z" transform="translate(-2052.175 -11472.083)" fill="#fcb610"/>
    <path id="Path_1312" data-name="Path 1312" d="M190.215,24.54l-1.205-3.531a7.972,7.972,0,0,0-4.959-4.959l-3.531-1.205,3.605-1.311A8,8,0,0,0,188.9,8.755l1.311-3.595.92,2.886a9.04,9.04,0,0,0,5.878,5.878l2.9.92-2.971,1.174c-2.537,1-4.324,1.808-5.551,5.551Z" transform="translate(-2055.659 -11485.707)" fill="#fcee27"/>
    <path id="Path_1313" data-name="Path 1313" d="M21.855,123.123l-1.205-3.531a7.93,7.93,0,0,0-4.948-5l-3.531-1.205,3.595-1.311a8,8,0,0,0,4.779-4.779l1.311-3.605.92,2.9a9.061,9.061,0,0,0,5.889,5.889l2.886.92-2.971,1.195c-2.537,1-4.324,1.808-5.551,5.551Z" transform="translate(-2065.301 -11480.063)" fill="#ff0b00"/>
    <path id="Path_1314" data-name="Path 1314" d="M83.628,258.665l-.835-2.474a5.561,5.561,0,0,0-3.478-3.468l-2.474-.846,2.527-.92a5.6,5.6,0,0,0,3.341-3.352l.92-2.516.645,2.019a6.344,6.344,0,0,0,4.123,4.123l2.03.645-2.115.814c-1.787.761-3,1.269-3.9,3.933Z" transform="translate(-2061.597 -11471.965)" fill="#4b0263"/>
    <path id="Path_1315" data-name="Path 1315" d="M211.086,35.6a4.927,4.927,0,1,1,3.491-1.439,4.927,4.927,0,0,1-3.491,1.439Zm0-8.374a3.447,3.447,0,1,0,2.444,1.006,3.447,3.447,0,0,0-2.444-1.006Z" transform="translate(-2054.19 -11484.527)" fill="#fcb610"/>
    <path id="Path_1316" data-name="Path 1316" d="M39.836,215.934a4.927,4.927,0,1,1,3.491-1.439A4.927,4.927,0,0,1,39.836,215.934Zm0-8.374a3.447,3.447,0,1,0,2.444,1.006A3.457,3.457,0,0,0,39.836,207.56Z" transform="translate(-2063.998 -11474.199)" fill="#fcb610"/>
    <path id="Path_1317" data-name="Path 1317" d="M101.468,249.726a2.178,2.178,0,1,1,2.178-2.178A2.178,2.178,0,0,1,101.468,249.726Zm0-3.7a1.515,1.515,0,1,1,0,.011Z" transform="translate(-2060.311 -11471.949)" fill="#fcb610"/>
    <path id="Path_1318" data-name="Path 1318" d="M79.608,43.306a2.178,2.178,0,1,1,1.544-.642,2.178,2.178,0,0,1-1.544.642Zm0-3.7a1.522,1.522,0,1,0,1.522,1.512A1.522,1.522,0,0,0,79.608,39.606Z" transform="translate(-2061.563 -11483.771)" fill="#fcb610"/>
    <path id="Path_1319" data-name="Path 1319" d="M213.878,10.056a2.178,2.178,0,1,1,2.178-2.178A2.178,2.178,0,0,1,213.878,10.056Zm0-3.7A1.522,1.522,0,1,0,215.4,7.878a1.522,1.522,0,0,0-1.522-1.522Z" transform="translate(-2053.873 -11485.676)" fill="#fcb610"/>
    <path id="Path_1320" data-name="Path 1320" d="M37.266,138.2a4.937,4.937,0,1,1,3.512-1.435A4.937,4.937,0,0,1,37.266,138.2Zm0-8.384a3.447,3.447,0,1,0,2.464.994,3.457,3.457,0,0,0-2.464-.994Z" transform="translate(-2064.145 -11478.652)" fill="#fcb610"/>
    <path id="Path_1321" data-name="Path 1321" d="M300.919,64.6a2.463,2.463,0,0,1,1.174,2.115,2.516,2.516,0,1,1-3.88-2.115h-4.99a2.527,2.527,0,1,1-2.717,0h-4.99a2.474,2.474,0,0,1,1.174,2.115,2.516,2.516,0,1,1-3.88-2.115h-4.99a2.516,2.516,0,1,1-2.717,0h-4.99a2.521,2.521,0,1,1-2.707.021h-4.99a2.511,2.511,0,1,1-2.717,0H256.27l.423,64.578,49.692-.317-.412-64.589Z" transform="translate(-2051.321 -11482.32)" fill="#fff"/>
    <path id="Path_1322" data-name="Path 1322" d="M300.931,64.589l5.033-.085h0c.085,9.822.264,33.272.518,64.589v.148h-.148l-49.692.338h-.169v-.169c-.053-8.268-.116-16.916-.169-25.692-.085-13.5-.169-26.559-.243-38.886v-.169h4.166l-.486.307a2.347,2.347,0,1,0,2.537,0l-.476-.3h6.09l-.455.285a2.368,2.368,0,1,0,2.548,0l-.444-.264h6.016l-.423.275a2.37,2.37,0,1,0,2.548-.032l-.4-.243h5.9l-.37.243a2.41,2.41,0,0,0-.909,1.152,2.464,2.464,0,0,0,.053,1.586,2.4,2.4,0,1,0,3.51-2.9l-.328-.2h5.752l-.3.19a2.413,2.413,0,1,0,2.612-.032l-.243-.148h5.519l-.211.137a2.475,2.475,0,1,0,3.288.529,2.761,2.761,0,0,0-.613-.56,1.118,1.118,0,0,1,.18.106,2.664,2.664,0,0,1,.465.433,2.558,2.558,0,1,1-3.394-.581v.127H293.2v-.148a2.611,2.611,0,1,1-3.912,1.5,2.569,2.569,0,0,1,1.057-1.5v.19h-4.99l.063-.211a2.617,2.617,0,1,1-2.844,0l.074.243h-4.99l.063-.243a2.643,2.643,0,1,1-2.855,0l.074.264h-4.99l.085-.264a2.664,2.664,0,0,1-1.279,4.916,2.749,2.749,0,0,1-1.639-.444,2.717,2.717,0,0,1-1.057-1.364,2.664,2.664,0,0,1,1.057-3.1l.085.285h-4.99l.085-.3a2.685,2.685,0,1,1-2.886,0l.085.3h-3.415l.159-.159c.085,12.328.169,25.375.254,38.876.063,8.807.116,17.424.169,25.7l-.169-.169,49.692-.3-.148.148c-.148-31.316-.264-54.767-.307-64.578h0Z" transform="translate(-2051.333 -11482.313)" fill="#1a2e35"/>
    <path id="Path_1323" data-name="Path 1323" d="M263.235,129.149c-.1,0-.264-13.47-.37-30.079s-.116-30.079,0-30.079.254,13.47.37,30.079S263.33,129.149,263.235,129.149Z" transform="translate(-2050.948 -11482.051)" fill="#e1e1e1"/>
    <path id="Path_1324" data-name="Path 1324" d="M305.991,70.724c0,.1-11.122.243-24.835.328s-24.835.085-24.846,0,11.122-.243,24.846-.328S305.991,70.629,305.991,70.724Z" transform="translate(-2051.318 -11481.955)" fill="#e1e1e1"/>
    <path id="Path_1325" data-name="Path 1325" d="M270.095,129.134c-.1,0-.254-13.575-.37-30.312s-.116-30.312,0-30.312.264,13.565.37,30.312S270.19,129.134,270.095,129.134Z" transform="translate(-2050.555 -11482.078)" fill="#e1e1e1"/>
    <path id="Path_1326" data-name="Path 1326" d="M276.954,129.059c-.1,0-.254-13.459-.359-30.069s-.116-30.09,0-30.09.254,13.47.359,30.079S277.028,129.059,276.954,129.059Z" transform="translate(-2050.161 -11482.057)" fill="#e1e1e1"/>
    <path id="Path_1327" data-name="Path 1327" d="M283.825,129.019c-.1,0-.264-13.47-.37-30.079s-.116-30.079,0-30.079.254,13.459.359,30.079S283.92,129.019,283.825,129.019Z" transform="translate(-2049.769 -11482.059)" fill="#e1e1e1"/>
    <path id="Path_1328" data-name="Path 1328" d="M290.685,128.958c-.1,0-.264-13.417-.37-29.974S290.2,69,290.294,69s.264,13.427.37,29.984S290.78,128.958,290.685,128.958Z" transform="translate(-2049.376 -11482.051)" fill="#e1e1e1"/>
    <path id="Path_1329" data-name="Path 1329" d="M297.54,128.917c-.1,0-.233-13.417-.317-29.974s-.063-29.974,0-29.974.233,13.417.317,29.974S297.635,128.917,297.54,128.917Z" transform="translate(-2048.978 -11482.052)" fill="#e1e1e1"/>
    <path id="Path_1330" data-name="Path 1330" d="M306.252,111.274c0,.1-11.122.243-24.846.338s-24.857.085-24.857,0,11.123-.243,24.857-.338S306.252,111.179,306.252,111.274Z" transform="translate(-2051.305 -11479.633)" fill="#e1e1e1"/>
    <path id="Path_1331" data-name="Path 1331" d="M306.292,118.084c0,.1-11.122.243-24.846.338s-24.846.074-24.857,0,11.133-.243,24.857-.338S306.292,118,306.292,118.084Z" transform="translate(-2051.302 -11479.243)" fill="#e1e1e1"/>
    <path id="Path_1332" data-name="Path 1332" d="M306.234,104.414c0,.1-11.218.243-25.047.338s-25.047.085-25.047,0,11.207-.243,25.047-.338S306.234,104.319,306.234,104.414Z" transform="translate(-2051.328 -11480.025)" fill="#e1e1e1"/>
    <path id="Path_1333" data-name="Path 1333" d="M306.162,97.554c0,.1-11.122.243-24.846.328s-24.857.085-24.857,0,11.144-.254,24.888-.338S306.162,97.459,306.162,97.554Z" transform="translate(-2051.31 -11480.419)" fill="#e1e1e1"/>
    <path id="Path_1334" data-name="Path 1334" d="M306.122,90.684c0,.1-11.133.243-24.856.338s-24.846.085-24.846,0,11.122-.243,24.846-.338S306.122,90.6,306.122,90.684Z" transform="translate(-2051.312 -11480.813)" fill="#e1e1e1"/>
    <path id="Path_1335" data-name="Path 1335" d="M306.064,83.824c0,.1-11.091.243-24.772.328s-24.772.085-24.772,0,11.08-.254,24.825-.338S306.064,83.729,306.064,83.824Z" transform="translate(-2051.306 -11481.205)" fill="#e1e1e1"/>
    <path id="Path_1336" data-name="Path 1336" d="M306.023,77.008c0,.1-11.091.222-24.761.285s-24.761,0-24.761-.063,11.1-.222,24.761-.328S306.023,76.871,306.023,77.008Z" transform="translate(-2051.307 -11481.601)" fill="#e1e1e1"/>
    <path id="Path_1337" data-name="Path 1337" d="M262.866,73.622A2.643,2.643,0,1,1,260.213,71,2.643,2.643,0,0,1,262.866,73.622Z" transform="translate(-2051.246 -11481.936)" fill="#ff735d"/>
    <path id="Path_1338" data-name="Path 1338" d="M305.406,70.392a2.643,2.643,0,1,1-2.654-2.622,2.643,2.643,0,0,1,2.654,2.622Z" transform="translate(-2048.809 -11482.121)" fill="#ff735d"/>
    <path id="Path_1339" data-name="Path 1339" d="M282.861,85.479h6.714a.93.93,0,0,1,.92.772l.5,2.759a3.246,3.246,0,0,0,3.172,2.664h0l-.3-6.471a2.231,2.231,0,0,0-2.231-2.115H269.6a2.358,2.358,0,0,0-2.358,2.252l-.285,6.344h0a3.246,3.246,0,0,0,3.172-2.675l.518-2.886a.782.782,0,0,1,.761-.634h6.851c.085,4.229.1,8.395.1,12.571v2.421c0,4.229,0,8.458-.1,12.518l-3.056.328a2.115,2.115,0,0,0-1.924,2.115h14.506a2.115,2.115,0,0,0-1.924-2.115L282.8,113c-.085-4.229-.1-8.363-.1-12.518V98.05C282.713,93.811,282.724,89.6,282.861,85.479Z" transform="translate(-2050.708 -11481.243)" fill="#ff0b00"/>
  </g>
</svg>
