<svg id="Group_464" data-name="Group 464" xmlns="http://www.w3.org/2000/svg" width="23.653" height="23.653" viewBox="0 0 23.653 23.653">
  <path id="Path_886" data-name="Path 886" d="M13.809,2a.464.464,0,0,0-.177.034L2.235,7.2a.422.422,0,0,0,0,.772l11.4,5.538a.422.422,0,0,0,.346,0l11.4-5.534h0a.424.424,0,0,0-.008-.772L13.969,2.03A.422.422,0,0,0,13.809,2Z" transform="translate(-1.983 -2)" fill="#999696"/>
  <path id="Path_887" data-name="Path 887" d="M7.188,24,2.275,26.241a.422.422,0,0,0,0,.772l11.4,5.538a.422.422,0,0,0,.346,0l11.4-5.534h0a.424.424,0,0,0-.008-.772L20.476,24l-6.108,2.955a1.266,1.266,0,0,1-1.072,0Z" transform="translate(-2.007 -14.714)" fill="#999696"/>
  <path id="Path_888" data-name="Path 888" d="M6.585,38.33,2.275,40.3a.422.422,0,0,0,0,.772l11.4,5.538a.422.422,0,0,0,.346,0l11.4-5.529h0a.424.424,0,0,0-.008-.772L21.08,38.33l-6.711,3.263a1.266,1.266,0,0,1-1.072,0Z" transform="translate(-2.007 -22.995)" fill="#999696"/>
</svg>
