<svg id="Group_571" data-name="Group 571" xmlns="http://www.w3.org/2000/svg" width="28.574" height="28.574" viewBox="0 0 28.574 28.574">
  <path id="Path_907" data-name="Path 907" d="M0,0H28.574V28.574H0Z" fill="none"/>
  <path id="Path_908" data-name="Path 908" d="M22.409,3H5.426A2.433,2.433,0,0,0,3,5.426V22.409a2.433,2.433,0,0,0,2.426,2.426H22.409a2.433,2.433,0,0,0,2.426-2.426V5.426A2.433,2.433,0,0,0,22.409,3ZM12.353,19.122a1.208,1.208,0,0,1-1.71,0L6.287,14.767A1.209,1.209,0,1,1,8,13.056l3.494,3.494L19.838,8.2a1.209,1.209,0,1,1,1.71,1.71l-9.2,9.207Z" transform="translate(0.369 0.369)" fill="#37afe4"/>
</svg>
