<svg id="Group_461" data-name="Group 461" xmlns="http://www.w3.org/2000/svg" width="24.5" height="24.5" viewBox="0 0 24.5 24.5">
  <rect id="Rectangle_231" data-name="Rectangle 231" width="1" height="1" transform="translate(12 21.766)" fill="#999696"/>
  <path id="Path_882" data-name="Path 882" d="M3.633,11.8H7.186l2.347,1.565a.408.408,0,0,0,.634-.34V11.8H11.8a1.633,1.633,0,0,0,1.633-1.633V3.633A1.633,1.633,0,0,0,11.8,2H3.633A1.633,1.633,0,0,0,2,3.633v6.533A1.633,1.633,0,0,0,3.633,11.8ZM2.817,3.633a.817.817,0,0,1,.817-.817H11.8a.817.817,0,0,1,.817.817v6.533a.817.817,0,0,1-.817.817H9.758a.408.408,0,0,0-.408.408v.871l-1.815-1.21a.411.411,0,0,0-.227-.069H3.633a.817.817,0,0,1-.817-.817Z" transform="translate(-2 -2)" fill="#999696"/>
  <path id="Path_883" data-name="Path 883" d="M8.408,12.533h5.145a.98.98,0,0,0,.98-.98V9.43a.98.98,0,0,0-.98-.98H12.9V7.633A1.633,1.633,0,0,0,11.267,6a.817.817,0,0,0-.817.817V7.873l-.577.577H8.408A.408.408,0,0,0,8,8.858v3.267A.408.408,0,0,0,8.408,12.533Zm2.739-4.2a.408.408,0,0,0,.12-.289V6.817a.817.817,0,0,1,.817.817V8.45h-.408v.817h1.878a.163.163,0,0,1,.163.163v2.123a.163.163,0,0,1-.163.163h-3.1V9.027Zm-2.33.936h.817v2.45H8.817Z" transform="translate(-5.55 -4.367)" fill="#999696"/>
  <path id="Path_884" data-name="Path 884" d="M24.867,7.633H20.743a2.045,2.045,0,0,0-2-1.633H14.25v.817h4.492a1.225,1.225,0,0,1,1.15.817H17.517a1.628,1.628,0,0,0-1.406.817H14.25v.817h1.633v5.717a1.633,1.633,0,0,0,1.633,1.633v1.225a.408.408,0,0,0,.635.34l1.815-1.21v3.152l-.732-.732a1.852,1.852,0,1,0-2.619,2.619l2.008,2.008a3.981,3.981,0,0,0-.393.766H14.658V25.6h3.353a3.987,3.987,0,0,0,.394,2.45H9.758a1.225,1.225,0,0,1-1.225-1.225H11.8a1.633,1.633,0,0,0,1.633-1.633V21.925A1.633,1.633,0,0,0,11.8,20.292H10.167V19.067a.408.408,0,0,0-.635-.34l-1,.666V15.8H7.717v4.137l-.531.354H3.633A1.633,1.633,0,0,0,2,21.925v3.267a1.633,1.633,0,0,0,1.633,1.633H7.717a2.044,2.044,0,0,0,2.042,2.042h8.983a2,2,0,0,0,.3-.025.4.4,0,0,0,.109.025h4.9a.408.408,0,0,0,.408-.408V20.716a4.47,4.47,0,0,0-1.094-2.936l-.9-1.164h2.4A1.633,1.633,0,0,0,26.5,14.983V9.267A1.633,1.633,0,0,0,24.867,7.633ZM3.633,26.008a.817.817,0,0,1-.817-.817V21.925a.817.817,0,0,1,.817-.817H7.308a.411.411,0,0,0,.227-.069l1.815-1.21V20.7a.408.408,0,0,0,.408.408H11.8a.817.817,0,0,1,.817.817v3.267a.817.817,0,0,1-.817.817Zm19.1-7.71a3.675,3.675,0,0,1,.908,2.418V28.05H19.357a3.172,3.172,0,0,1-.051-3.582l.184-.274a.408.408,0,0,0-.05-.517l-2.246-2.246a1.035,1.035,0,1,1,1.464-1.464L21.72,23.03l.577-.577-1.514-1.514V16.617h.653Zm2.949-3.315a.817.817,0,0,1-.817.817H20.375a.411.411,0,0,0-.227.069l-1.815,1.21v-.871a.408.408,0,0,0-.408-.408h-.408a.817.817,0,0,1-.817-.817V9.267a.817.817,0,0,1,.817-.817h7.35a.817.817,0,0,1,.817.817Z" transform="translate(-2 -4.367)" fill="#999696"/>
  <path id="Path_885" data-name="Path 885" d="M46.075,15.032a1.674,1.674,0,0,0-1.385.361l-.428.352-.428-.352a1.674,1.674,0,0,0-1.386-.361,1.765,1.765,0,0,0-1.208.9,1.98,1.98,0,0,0,.48,2.495l2.29,1.793a.408.408,0,0,0,.5,0l2.29-1.793a1.981,1.981,0,0,0,.48-2.5,1.766,1.766,0,0,0-1.208-.9Zm.225,2.755-2.038,1.6-2.038-1.6a1.171,1.171,0,0,1-.268-1.458.955.955,0,0,1,.648-.5.88.88,0,0,1,.16-.015.866.866,0,0,1,.553.2l.687.566a.408.408,0,0,0,.519,0l.688-.566a.853.853,0,0,1,.712-.19.956.956,0,0,1,.648.495,1.172,1.172,0,0,1-.268,1.459Z" transform="translate(-25.07 -9.693)" fill="#999696"/>
  <rect id="Rectangle_232" data-name="Rectangle 232" width="5" height="1" transform="translate(2 17.766)" fill="#999696"/>
  <rect id="Rectangle_233" data-name="Rectangle 233" width="2" height="1" transform="translate(8 17.766)" fill="#999696"/>
  <rect id="Rectangle_234" data-name="Rectangle 234" width="2" transform="translate(2 19.766)" fill="#999696"/>
  <rect id="Rectangle_235" data-name="Rectangle 235" width="5" transform="translate(5 19.766)" fill="#999696"/>
</svg>
