<svg xmlns="http://www.w3.org/2000/svg" xmlns:xlink="http://www.w3.org/1999/xlink" width="164" height="158.622" viewBox="0 0 164 158.622">
  <defs>
    <linearGradient id="linear-gradient" x1="0.5" x2="0.5" y2="1" gradientUnits="objectBoundingBox">
      <stop offset="0" stop-color="#37afe4"/>
      <stop offset="1" stop-color="#090647"/>
    </linearGradient>
  </defs>
  <g id="Group_674" data-name="Group 674" transform="translate(-12 -20.002)">
    <path id="Path_1771" data-name="Path 1771" d="M172.417,63.586a14.96,14.96,0,0,0-9.033-5.051l-39.6-6.254a1.413,1.413,0,0,0-.208-.017H100.728l-.007-2.823a6.733,6.733,0,0,0,5.377-6.587V35.612a8.2,8.2,0,0,0,5.377-7.74V24.034a1.344,1.344,0,0,0-1.344-1.344h-6.123a7.262,7.262,0,0,1-3.119-.709l-2.107-1.008A9.914,9.914,0,0,0,84.59,29.912v8.909a5.377,5.377,0,0,0,2.689,4.655v8.788H64.426a1.413,1.413,0,0,0-.208.017l-39.6,6.254A14.938,14.938,0,0,0,12.527,77.227l15.278,56.015a2.685,2.685,0,0,0,3.441,1.848l5.794-1.932a2.681,2.681,0,0,0,1.845-2.551v-7.642l1.206,1.1a3.053,3.053,0,0,0,1,.6c.128.1.259.212.39.313a37.3,37.3,0,0,0,21.6,7.914V177.28a1.344,1.344,0,0,0,1.344,1.344H91.311a1.344,1.344,0,0,0,1.344-1.344V146.362h2.689V177.28a1.344,1.344,0,0,0,1.344,1.344h26.885a1.344,1.344,0,0,0,1.344-1.344V132.889a37.173,37.173,0,0,0,21.972-8.217,3.032,3.032,0,0,0,1.018-.608l1.206-1.1v7.642a2.682,2.682,0,0,0,1.842,2.551l5.794,1.929a2.684,2.684,0,0,0,3.445-1.842L175.472,77.23a14.945,14.945,0,0,0-3.055-13.644ZM89.967,36.132a2.655,2.655,0,0,1,1.879.766,1.351,1.351,0,0,0,2.047-.185,8.056,8.056,0,0,0,1.25-2.816l5.451,1.815a8.146,8.146,0,0,0,2.568.427c.081,0,.165,0,.249-.007v6.721a4.036,4.036,0,0,1-4.033,4.033,9.412,9.412,0,0,1-4.7-1.257,1.344,1.344,0,1,0-1.344,2.326,12.027,12.027,0,0,0,4.7,1.539l.007,3.556L94,57.083,89.967,53.05V42.622a1.341,1.341,0,0,0-.9-1.267,2.689,2.689,0,0,1,.9-5.222Zm-47.59,85.9a.312.312,0,0,1-.255.124.308.308,0,0,1-.222-.084l-3.455-3.146a1.344,1.344,0,0,0-2.248.995v10.684l-5.8,1.932L15.122,76.517a12.247,12.247,0,0,1,9.911-15.328l10.8-1.7,2.756,13.2-6.644,1.106a1.344,1.344,0,0,0-1.082,1.653l11.577,46.313A.3.3,0,0,1,42.377,122.034Zm20.7-50.709v45.9l-1.425.571a34.46,34.46,0,0,1-16.884,2.215L33.821,76.2Zm.591,58.889A34.587,34.587,0,0,1,44.4,123.8c.034-.037.067-.071.1-.111a2.909,2.909,0,0,0,.5-.951,37.2,37.2,0,0,0,17.66-2.45l2.03-.813h5.431Zm40.94-10.7L95.139,134.67a1.344,1.344,0,0,1-2.279,0l-9.474-15.153a1.346,1.346,0,0,1-.2-.817l.151-1.912H65.77V69.739A1.344,1.344,0,0,0,64.2,68.411L41.238,72.239,38.489,59.066,64.53,54.952H88.065l3.666,3.663-8.22,4.11L78.82,58.034a1.345,1.345,0,0,0-1.9,1.9l5.377,5.377a1.344,1.344,0,0,0,1.553.252l4.174-2.087,1.919,3.838L87.628,96.624l-1.593,20.164-.131,1.68L94,131.424l8.1-12.955-.131-1.68-1.593-20.164L98.056,67.316l1.909-3.848,4.187,2.1a1.362,1.362,0,0,0,.6.141,1.341,1.341,0,0,0,.951-.393l5.377-5.377a1.345,1.345,0,0,0-1.9-1.9l-4.691,4.691-8.217-4.107,3.67-3.666h23.528l26.042,4.113-2.749,13.174L123.8,68.412a1.344,1.344,0,0,0-1.566,1.327v47.049H104.66l.151,1.912a1.346,1.346,0,0,1-.2.817ZM154.179,76.2l-10.952,43.809a34.5,34.5,0,0,1-16.884-2.218l-1.425-.571v-45.9Zm-29.853,54.012-6.442-10.737h5.431l2.03.813A36.888,36.888,0,0,0,143,122.736a3,3,0,0,0,.5.954c.03.04.064.074.094.108a34.477,34.477,0,0,1-19.273,6.416Zm48.551-53.693L157.6,132.54l-5.8-1.932V119.924a1.344,1.344,0,0,0-2.248-.995l-3.455,3.146a.336.336,0,0,1-.222.084.312.312,0,0,1-.255-.124.3.3,0,0,1-.06-.279L157.14,75.442a1.344,1.344,0,0,0-1.082-1.653l-6.644-1.106,2.756-13.2,10.8,1.7a12.25,12.25,0,0,1,9.911,15.331Z" transform="translate(0 0)" fill="url(#linear-gradient)"/>
    <path id="Path_1772" data-name="Path 1772" d="M119.082,372.393l-2.689,2.689a1.345,1.345,0,1,0,1.9,1.9l2.689-2.689a1.345,1.345,0,0,0-1.9-1.9Z" transform="translate(-69.049 -233.703)" fill="url(#linear-gradient)"/>
    <path id="Path_1773" data-name="Path 1773" d="M141.344,376A1.344,1.344,0,0,0,140,377.344v4.033a1.344,1.344,0,1,0,2.689,0v-4.033A1.344,1.344,0,0,0,141.344,376Z" transform="translate(-84.984 -236.359)" fill="url(#linear-gradient)"/>
    <path id="Path_1774" data-name="Path 1774" d="M110.721,357.344A1.344,1.344,0,0,0,109.377,356h-4.033a1.344,1.344,0,0,0,0,2.689h4.033A1.344,1.344,0,0,0,110.721,357.344Z" transform="translate(-61.082 -223.081)" fill="url(#linear-gradient)"/>
    <path id="Path_1775" data-name="Path 1775" d="M382.294,380.393a1.345,1.345,0,1,0-1.9,1.9l2.689,2.689a1.345,1.345,0,1,0,1.9-1.9Z" transform="translate(-244.328 -239.015)" fill="url(#linear-gradient)"/>
    <path id="Path_1776" data-name="Path 1776" d="M365.344,384A1.344,1.344,0,0,0,364,385.344v4.033a1.344,1.344,0,1,0,2.689,0v-4.033A1.344,1.344,0,0,0,365.344,384Z" transform="translate(-233.705 -241.671)" fill="url(#linear-gradient)"/>
    <path id="Path_1777" data-name="Path 1777" d="M393.377,364h-4.033a1.344,1.344,0,0,0,0,2.689h4.033a1.344,1.344,0,1,0,0-2.689Z" transform="translate(-249.64 -228.392)" fill="url(#linear-gradient)"/>
  </g>
</svg>
