<svg xmlns="http://www.w3.org/2000/svg" width="22" height="20.428" viewBox="0 0 22 20.428">
  <g id="Group_493" data-name="Group 493" transform="translate(0 0)">
    <path id="Path_893" data-name="Path 893" d="M20.5,14.571a.845.845,0,0,0,.248-.039.789.789,0,0,0,.537-.746,8.652,8.652,0,0,0-8.643-8.643h-.786V2.785a.785.785,0,0,0-1.3-.591l-6.286,5.5a.784.784,0,0,0,0,1.182l6.286,5.5a.785.785,0,0,0,1.3-.591V11.428h2.359a7.1,7.1,0,0,1,5.656,2.829A.783.783,0,0,0,20.5,14.571ZM14.216,9.857H11.071a.786.786,0,0,0-.786.786v1.411L5.98,8.285l4.306-3.768V5.928a.786.786,0,0,0,.786.786h1.571a7.085,7.085,0,0,1,6.712,4.842A8.675,8.675,0,0,0,14.216,9.857Z" transform="translate(-4 -2)" fill="#999696"/>
    <path id="Path_894" data-name="Path 894" d="M1.786,21.857H19.071a.786.786,0,0,0,.786-.786V3.786A.786.786,0,0,0,19.071,3H14.357a.786.786,0,0,0,0,1.571h3.929V20.286H2.571V16.357a.786.786,0,1,0-1.571,0v4.714A.786.786,0,0,0,1.786,21.857Z" transform="translate(2.143 -1.429)" fill="#999696"/>
  </g>
</svg>
