<svg id="Group_446" data-name="Group 446" xmlns="http://www.w3.org/2000/svg" width="24.068" height="24.115" viewBox="0 0 24.068 24.115">
  <g id="Group_445" data-name="Group 445" transform="translate(4.228 4.227)">
    <path id="Path_869" data-name="Path 869" d="M14,85.939h3.983a1,1,0,0,0,1-1V80.955a1,1,0,0,0-1-1H14a1,1,0,0,0-1,1v3.987A1,1,0,0,0,14,85.939Z" transform="translate(-11.387 -70.005)" fill="#999696"/>
    <path id="Path_870" data-name="Path 870" d="M78.1,76.952a1,1,0,0,0-1-1H72a1,1,0,0,0-1,1v2.243a1,1,0,0,0,1,1h5.1a1,1,0,0,0,1-1Z" transform="translate(-62.164 -66.5)" fill="#999696"/>
    <path id="Path_871" data-name="Path 871" d="M6.738,5.469,3.907.36A.588.588,0,0,0,3.424,0a.588.588,0,0,0-.483.36L.11,5.469c-.266.479-.035.872.513.872h5.6C6.772,6.341,7,5.948,6.738,5.469Zm-5.119-.25a.125.125,0,1,1,.124-.125A.125.125,0,0,1,1.619,5.219ZM3.471,2.04,2.1,4.532a.124.124,0,1,1-.218-.12L3.253,1.92a.124.124,0,1,1,.218.12Z" transform="translate(0 0)" fill="#999696"/>
    <path id="Path_872" data-name="Path 872" d="M39.522,13a3.531,3.531,0,0,0-2.106.693l1.622,2.925a1.028,1.028,0,0,1-.948,1.61H36.4A3.548,3.548,0,1,0,39.522,13Z" transform="translate(-31.866 -11.382)" fill="#999696"/>
    <path id="Path_873" data-name="Path 873" d="M97.124,9.992h1.618V11.61a.124.124,0,0,0,.249,0V9.992h1.618a.124.124,0,0,0,0-.249H98.992V8.124a.124.124,0,0,0-.249,0V9.743H97.124a.124.124,0,0,0,0,.249Z" transform="translate(-84.925 -7.004)" fill="#999696"/>
  </g>
  <path id="Path_868" data-name="Path 868" d="M22.806,20.842V3.273a1.661,1.661,0,1,0-2.016-2H3.278A1.662,1.662,0,1,0,1.319,3.288v17.54A1.662,1.662,0,1,0,3.3,22.759H20.771a1.662,1.662,0,1,0,2.035-1.917ZM22.406.707a.956.956,0,1,1-.956.956A.957.957,0,0,1,22.406.707Zm-21.7.956a.956.956,0,1,1,.956.956A.957.957,0,0,1,.707,1.663Zm.956,21.746a.956.956,0,1,1,.956-.956A.957.957,0,0,1,1.663,23.409Zm19.132-1.356H3.273a1.663,1.663,0,0,0-1.248-1.22V3.283a1.661,1.661,0,0,0,1.267-1.3H20.776A1.669,1.669,0,0,0,22.1,3.3V20.823A1.656,1.656,0,0,0,20.795,22.052Zm1.611,1.356a.956.956,0,1,1,.956-.956A.957.957,0,0,1,22.406,23.409Z" transform="translate(0 0)" fill="#999696"/>
</svg>
