<svg xmlns="http://www.w3.org/2000/svg" width="22" height="20.428" viewBox="0 0 22 20.428">
  <g id="Group_492" data-name="Group 492" transform="translate(0 0)">
    <path id="Path_893" data-name="Path 893" d="M4.786,14.571a.845.845,0,0,1-.248-.039A.789.789,0,0,1,4,13.785a8.652,8.652,0,0,1,8.643-8.643h.786V2.785a.785.785,0,0,1,1.3-.591l6.286,5.5a.784.784,0,0,1,0,1.182l-6.286,5.5a.785.785,0,0,1-1.3-.591V11.428H11.07a7.1,7.1,0,0,0-5.656,2.829A.783.783,0,0,1,4.786,14.571ZM11.07,9.857h3.144a.786.786,0,0,1,.786.786v1.411l4.306-3.768L15,4.517V5.928a.786.786,0,0,1-.786.786H12.643a7.085,7.085,0,0,0-6.712,4.842A8.675,8.675,0,0,1,11.07,9.857Z" transform="translate(0.714 -2)" fill="#999696"/>
    <path id="Path_894" data-name="Path 894" d="M19.071,21.857H1.786A.786.786,0,0,1,1,21.071V3.786A.786.786,0,0,1,1.786,3H6.5a.786.786,0,0,1,0,1.571H2.571V20.286H18.286V16.357a.786.786,0,1,1,1.571,0v4.714A.786.786,0,0,1,19.071,21.857Z" transform="translate(-1 -1.429)" fill="#999696"/>
  </g>
</svg>
