<svg id="Group_442" data-name="Group 442" xmlns="http://www.w3.org/2000/svg" width="24.102" height="24.103" viewBox="0 0 24.102 24.103">
  <g id="Group_441" data-name="Group 441" transform="translate(4.74 4.647)">
    <path id="Path_864" data-name="Path 864" d="M1.639,4.433H16.261V3.508a1.906,1.906,0,0,0-1.9-1.9H3.54a1.906,1.906,0,0,0-1.9,1.9v.925ZM6.6,2.642a.552.552,0,1,1-.39.162.55.55,0,0,1,.39-.162Zm-1.546,0a.552.552,0,1,1-.39.162.55.55,0,0,1,.39-.162Zm-1.546,0a.552.552,0,1,1-.39.162.55.55,0,0,1,.39-.162Z" transform="translate(-1.639 -1.607)" fill="#999696"/>
    <path id="Path_865" data-name="Path 865" d="M16.261,2.664H1.639v9.85a1.906,1.906,0,0,0,1.9,1.9H14.36a1.906,1.906,0,0,0,1.9-1.9V2.664ZM9.49,10.109V4.866a.231.231,0,0,1,.231-.231h5.243a.231.231,0,0,1,.231.231v5.243a.231.231,0,0,1-.231.231H9.721A.231.231,0,0,1,9.49,10.109ZM2.974,11.75H14.926a.116.116,0,0,1,0,.231H2.974a.116.116,0,0,1,0-.231ZM6.183,4.64H8.232a.231.231,0,0,1,.231.231V6.919a.231.231,0,0,1-.231.231H6.183a.231.231,0,0,1-.231-.231V4.871A.231.231,0,0,1,6.183,4.64Zm-.968.231V6.919a.231.231,0,0,1-.231.231H2.936A.231.231,0,0,1,2.7,6.919V4.871a.231.231,0,0,1,.231-.231H4.984A.231.231,0,0,1,5.215,4.871ZM2.95,7.888H8.224a.231.231,0,0,1,.231.231V10.11a.231.231,0,0,1-.231.231H2.95a.231.231,0,0,1-.231-.231V8.119a.231.231,0,0,1,.231-.231Z" transform="translate(-1.639 0.394)" fill="#999696"/>
  </g>
  <path id="Path_866" data-name="Path 866" d="M3.856,0H20.246A3.868,3.868,0,0,1,24.1,3.856v16.39A3.868,3.868,0,0,1,20.246,24.1H3.856A3.868,3.868,0,0,1,0,20.246V3.856A3.868,3.868,0,0,1,3.856,0Zm0,1.446H20.246a2.417,2.417,0,0,1,2.41,2.41v16.39a2.417,2.417,0,0,1-2.41,2.41H3.856a2.417,2.417,0,0,1-2.41-2.41V3.856a2.417,2.417,0,0,1,2.41-2.41Z" transform="translate(0 0)" fill="#999696"/>
</svg>
