<svg xmlns="http://www.w3.org/2000/svg" width="24.051" height="24.051" viewBox="0 0 24.051 24.051">
  <g id="Group_489" data-name="Group 489" transform="translate(0 0)">
    <g id="Group_486" data-name="Group 486">
      <path id="Path_891" data-name="Path 891" d="M17.765,5.74A12.025,12.025,0,1,0,29.791,17.765,12.039,12.039,0,0,0,17.765,5.74Zm0,23.135a11.11,11.11,0,1,1,11.11-11.11A11.12,11.12,0,0,1,17.765,28.875Z" transform="translate(-5.74 -5.74)" fill="#fff"/>
    </g>
    <g id="Group_488" data-name="Group 488" transform="translate(5.271 4.676)">
      <g id="Group_487" data-name="Group 487" transform="translate(0 0)">
        <path id="Path_892" data-name="Path 892" d="M30.759,23.9a6.755,6.755,0,1,1-13.509,0h.916a5.839,5.839,0,1,0,7.721-5.527L27.421,21.6l-.829.394L24.751,18.1l-.463-.98L29.5,15.95l.2.893-3.279.742A6.762,6.762,0,0,1,30.759,23.9Z" transform="translate(-17.25 -15.95)" fill="#fff"/>
      </g>
    </g>
  </g>
</svg>
