<svg id="Group_443" data-name="Group 443" xmlns="http://www.w3.org/2000/svg" width="24.087" height="24.135" viewBox="0 0 24.087 24.135">
  <path id="Path_867" data-name="Path 867" d="M129.145,100.8H116.654a.356.356,0,0,0-.354.354v3.719a.356.356,0,0,0,.354.354h1.306a.356.356,0,0,0,.354-.354v-1.2h3.149v9.767h-1.471a.356.356,0,0,0-.354.354V115.1a.356.356,0,0,0,.354.354H125.8a.356.356,0,0,0,.354-.354V113.8a.356.356,0,0,0-.354-.354h-1.471v-9.772h3.149v1.2a.356.356,0,0,0,.354.354h1.306a.356.356,0,0,0,.354-.354v-3.714A.342.342,0,0,0,129.145,100.8Zm-.354,3.714h-.6v-1.2a.356.356,0,0,0-.354-.354h-3.856a.356.356,0,0,0-.354.354V113.8a.356.356,0,0,0,.354.354h1.471v.6h-5.105v-.6h1.471a.356.356,0,0,0,.354-.354V103.317a.356.356,0,0,0-.354-.354h-3.856a.356.356,0,0,0-.354.354v1.2h-.6v-3.007h11.78Z" transform="translate(-110.818 -96.049)" fill="#999696"/>
  <path id="Path_868" data-name="Path 868" d="M22.824,20.858V3.276a1.663,1.663,0,1,0-2.017-2H3.281A1.664,1.664,0,1,0,1.32,3.29V20.844A1.663,1.663,0,1,0,3.3,22.777H20.788a1.664,1.664,0,1,0,2.036-1.919ZM22.423.707a.957.957,0,1,1-.957.957A.958.958,0,0,1,22.423.707ZM.707,1.664a.957.957,0,1,1,.957.957A.958.958,0,0,1,.707,1.664Zm.957,21.764a.957.957,0,1,1,.957-.957A.958.958,0,0,1,1.664,23.427ZM20.811,22.07H3.276a1.665,1.665,0,0,0-1.249-1.221V3.286A1.662,1.662,0,0,0,3.295,1.98h17.5A1.67,1.67,0,0,0,22.117,3.3V20.84A1.657,1.657,0,0,0,20.811,22.07Zm1.612,1.358a.957.957,0,1,1,.957-.957A.958.958,0,0,1,22.423,23.427Z" transform="translate(0 0)" fill="#999696"/>
</svg>
