<svg xmlns="http://www.w3.org/2000/svg" width="536" height="292.421" viewBox="0 0 536 292.421">
  <g id="Layer_2" data-name="Layer 2" transform="translate(0.04 0.022)">
    <g id="OBJECTS" transform="translate(-0.04 -0.022)">
      <path id="Path_918" data-name="Path 918" d="M566.553,84.323a3.065,3.065,0,0,0-2.724-3.973h-.057c-1.946,0-1.922,5.513.811,5.513a1.881,1.881,0,0,0,1.97-1.54Z" transform="translate(-106.381 -15.185)" fill="#f6a592"/>
      <path id="Path_919" data-name="Path 919" d="M585.567,84.323a3.065,3.065,0,0,1,2.724-3.973h.033c1.938,0,1.922,5.513-.811,5.513A1.873,1.873,0,0,1,585.567,84.323Z" transform="translate(-110.736 -15.185)" fill="#f6a592"/>
      <path id="Path_920" data-name="Path 920" d="M581.035,96.211c-1.241-2.368-.746-5.976-.746-5.976l-4.865-.746-4.865.746a14.526,14.526,0,0,1,0,3.632C572.3,95.676,575.708,97.849,581.035,96.211Z" transform="translate(-107.923 -16.915)" fill="#f6a592"/>
      <path id="Path_921" data-name="Path 921" d="M580.67,97.233c-5.327,1.622-8.732-.535-10.54-2.343A6.276,6.276,0,0,1,568.914,98c-.932,1.119.592,1.905,2.351,2.432a13.783,13.783,0,0,0,7.516,0c1.759-.495,3.292-1.281,2.359-2.432A4.136,4.136,0,0,1,580.67,97.233Z" transform="translate(-107.558 -17.937)" fill="#f6b9a4"/>
      <path id="Path_922" data-name="Path 922" d="M578.232,82.318a3.535,3.535,0,0,1,5.562-2.9,18.111,18.111,0,0,0,.495-4.394c0-7.3-3.454-10.492-6.316-11.894a8.676,8.676,0,0,0-7.573,0c-2.854,1.354-6.3,4.6-6.3,11.894a17.722,17.722,0,0,0,.511,4.411,3.527,3.527,0,1,1,3.7,6,9.69,9.69,0,0,0,1.232.859,9.227,9.227,0,0,0,9.324,0,10.3,10.3,0,0,0,1.232-.859,3.511,3.511,0,0,1-1.865-3.113Z" transform="translate(-106.701 -11.762)" fill="#f0baa4"/>
      <path id="Path_923" data-name="Path 923" d="M570.292,86.174a3.535,3.535,0,0,0-5.562-2.9,10.751,10.751,0,0,0,3.7,6,3.527,3.527,0,0,0,1.865-3.1Z" transform="translate(-106.82 -15.617)" fill="#f6a592"/>
      <path id="Path_924" data-name="Path 924" d="M587.092,83.251a3.537,3.537,0,1,0-3.7,6.016,10.792,10.792,0,0,0,3.7-6.016Z" transform="translate(-109.999 -15.613)" fill="#f6a592"/>
      <path id="Path_925" data-name="Path 925" d="M578.381,87.15a3.422,3.422,0,0,1-2.376.811h0a3.421,3.421,0,0,1-2.376-.811" transform="translate(-108.504 -16.472)" fill="none" stroke="#464d66" stroke-linecap="round" stroke-linejoin="round" stroke-width="0.48"/>
      <path id="Path_926" data-name="Path 926" d="M571.07,81.491a.811.811,0,1,0,.811-.811A.811.811,0,0,0,571.07,81.491Z" transform="translate(-108.02 -15.248)" fill="#464d66"/>
      <path id="Path_927" data-name="Path 927" d="M580.31,81.491a.811.811,0,1,0,.811-.811.77.77,0,0,0-.811.811Z" transform="translate(-109.768 -15.248)" fill="#464d66"/>
      <path id="Path_928" data-name="Path 928" d="M576.326,85V80.7S573.293,85,576.326,85Z" transform="translate(-108.759 -15.252)" fill="#f6a592"/>
      <path id="Path_929" data-name="Path 929" d="M570.73,78.477a2.108,2.108,0,0,1,1.841-.908" transform="translate(-107.955 -14.659)" fill="none" stroke="#464d66" stroke-linecap="round" stroke-linejoin="round" stroke-width="0.48"/>
      <path id="Path_930" data-name="Path 930" d="M581.964,78.478a2.124,2.124,0,0,0-1.824-.908" transform="translate(-109.736 -14.659)" fill="none" stroke="#464d66" stroke-linecap="round" stroke-linejoin="round" stroke-width="0.48"/>
      <path id="Path_931" data-name="Path 931" d="M569.07,81.112A2.432,2.432,0,1,0,571.5,78.68,2.432,2.432,0,0,0,569.07,81.112Z" transform="translate(-107.641 -14.869)" fill="none" stroke="#62bdd3" stroke-linecap="round" stroke-linejoin="round" stroke-width="0.48"/>
      <path id="Path_932" data-name="Path 932" d="M578.31,81.112a2.432,2.432,0,1,0,2.432-2.432,2.392,2.392,0,0,0-2.432,2.432Z" transform="translate(-109.39 -14.869)" fill="none" stroke="#62bdd3" stroke-linecap="round" stroke-linejoin="round" stroke-width="0.48"/>
      <path id="Path_933" data-name="Path 933" d="M575,81.592a2.611,2.611,0,0,1,2.7,0" transform="translate(-108.763 -15.349)" fill="none" stroke="#62bdd3" stroke-linecap="round" stroke-linejoin="round" stroke-width="0.48"/>
      <line id="Line_51" data-name="Line 51" x1="3.957" y1="1.265" transform="translate(457.472 64.978)" fill="none" stroke="#62bdd3" stroke-linecap="round" stroke-linejoin="round" stroke-width="0.48"/>
      <line id="Line_52" data-name="Line 52" y1="1.265" x2="3.957" transform="translate(473.712 64.978)" fill="none" stroke="#62bdd3" stroke-linecap="round" stroke-linejoin="round" stroke-width="0.48"/>
      <path id="Path_934" data-name="Path 934" d="M564.251,78.939a22.751,22.751,0,0,1-.811-15.778s-3.681-1.8-.632-6.17,16.135-7.07,16.346,2.149c9.024,7.078,4.127,18.251,4.127,18.251a19.678,19.678,0,0,0-1.549-8.335,50.026,50.026,0,0,1-15.875.811S563.635,71.756,564.251,78.939Z" transform="translate(-106.228 -10.004)" fill="#f6a726"/>
      <path id="Path_935" data-name="Path 935" d="M555.724,144.935c2.051-13.127-2.757-15.308-1.362-29.529C556.495,96.993,564.554,98.63,571.7,99.19c7.135-.551,15.194-2.189,17.327,16.216,1.4,14.221-3.413,16.4-1.362,29.529s3.243,28.013,3.243,28.013c-6.162,6.13-19.216,1.159-19.216,1.159s-12.527,4.751-18.689-1.346C553,172.761,553.681,158.061,555.724,144.935Z" transform="translate(-104.601 -18.693)" fill="#f0baa4"/>
      <path id="Path_936" data-name="Path 936" d="M554.893,88.35l-52.7-46.15L498,46,547.9,99.32S553.385,97.982,554.893,88.35Z" transform="translate(-94.194 -7.967)" fill="#f0baa4"/>
      <path id="Path_937" data-name="Path 937" d="M491.111,36.071c.584-.632,3.195,2.092,3.195,2.092s-3.178-3.77-2.83-4.33c.559-.884,4.111,3.462,4.111,3.462s-3.746-4.865-2.757-5.416,4.151,4.622,4.151,4.622-2.676-5.076-1.743-5.424,4.119,6.332,4.119,6.332.9-3.632,1.622-3.5c1.265.227-.316,8.035-.316,8.035l-3.608,2.432S490.528,36.688,491.111,36.071Z" transform="translate(-92.884 -5.86)" fill="#f0baa4"/>
      <path id="Path_938" data-name="Path 938" d="M583.94,88.35l52.7-46.15L640.9,46,590.961,99.32S585.448,97.982,583.94,88.35Z" transform="translate(-110.455 -7.967)" fill="#f0baa4"/>
      <path id="Path_939" data-name="Path 939" d="M658.583,36.071c-.584-.632-3.194,2.092-3.194,2.092s3.186-3.77,2.83-4.33c-.56-.884-4.111,3.462-4.111,3.462s3.746-4.865,2.757-5.416-4.151,4.622-4.151,4.622,2.676-5.076,1.743-5.424-4.119,6.332-4.119,6.332-.9-3.632-1.622-3.5c-1.265.227.316,8.035.316,8.035l3.608,2.432S659.159,36.688,658.583,36.071Z" transform="translate(-122.618 -5.86)" fill="#f0baa4"/>
      <path id="Path_940" data-name="Path 940" d="M587.507,188.294,568.8,180c-2.546,8.286-3.819,20.27-1.986,32.5,1.386,9.227,4.054,19.224.94,32.067q-.584,2.368-1.281,4.743l-27.1-6.721L535,251.958l28.751,10.654c11.1,3.867,13.783-2.351,15.178-5.2,3.308-6.6,7.792-16.256,9.194-22.37C593.75,210.607,587.507,188.294,587.507,188.294Z" transform="translate(-101.195 -34.04)" fill="#f0baa4"/>
      <path id="Path_941" data-name="Path 941" d="M536.664,265.53s-1.386,2.432-3.43,5.351c-1.062,1.54-1.7,2.87-2.676,3.665a2.432,2.432,0,0,1-3.843-2.481,32.756,32.756,0,0,1,3.559-8.578c1.687-3.016,1.622-6.559,3.43-7.354s4.792,1.005,4.792,1.005Z" transform="translate(-99.616 -48.407)" fill="#637abe"/>
      <path id="Path_942" data-name="Path 942" d="M566.032,188.358l-19.224-7.038c-1.978,8.448-2.432,20.456.2,32.569,2,9.113,5.376,18.908,3.089,31.929-.276,1.622-.608,3.243-.957,4.824l-27.486-4.865-3.738,8.108,9.918-1.043,19.49,9.743c11.619,3.827,13.556-1.727,14.8-4.662,2.862-6.8,6.681-16.743,7.67-22.937C573.759,210.168,566.032,188.358,566.032,188.358Z" transform="translate(-97.963 -34.29)" fill="#f0baa4"/>
      <path id="Path_943" data-name="Path 943" d="M571.916,96.084c8.205-11.351,12.048-5.927,16.313-.746s3.722,7.427-2.967,12.429c2.246,9.665-1.857,28.321,2.967,38.707,4.686,10.086,17.173,41.61,8.343,55.061s-24.794-11.765-36.923,0-26.537,7.986-34.313-2.943,7.354-14.708,9.875-33.68,16.4-22.256,13.678-34.159a167.669,167.669,0,0,1-3.478-22.97l-3.243-3.608a4.378,4.378,0,0,1-.276-5.53l7.767-10.6s1.841-2.967,5.432.422,3.592,7.3,5.749,7.3C563.192,102.254,568.349,102.717,571.916,96.084Z" transform="translate(-98.95 -16.415)" fill="#ed1588"/>
      <path id="Path_944" data-name="Path 944" d="M520.668,269.915a19.227,19.227,0,0,0-4.054,4.865c-1.419,2.376-1.93,4.224-4.054,4.694a2.068,2.068,0,0,1-2.432-2.23,30.952,30.952,0,0,1,3.081-9.64c1.484-3.122,1.192-6.657,2.927-7.565s5.967.876,5.967.876Z" transform="translate(-96.487 -49.136)" fill="#637abe"/>
      <path id="Path_945" data-name="Path 945" d="M564.19,63.5s4.151-8.457,14.756-3.973" transform="translate(-106.718 -10.997)" fill="none" stroke="#464d66" stroke-linecap="round" stroke-linejoin="round" stroke-width="0.48"/>
      <path id="Path_946" data-name="Path 946" d="M565.428,56.26s-2.3,1.516-1.3,5.205" transform="translate(-106.659 -10.627)" fill="none" stroke="#464d66" stroke-linecap="round" stroke-linejoin="round" stroke-width="0.48"/>
      <path id="Path_947" data-name="Path 947" d="M566.979,55.55s-2.027,1.954-1.232,4.192" transform="translate(-106.978 -10.493)" fill="none" stroke="#464d66" stroke-linecap="round" stroke-linejoin="round" stroke-width="0.48"/>
      <path id="Path_948" data-name="Path 948" d="M574.44,54a3.6,3.6,0,0,1,3.138,2.886" transform="translate(-108.658 -10.2)" fill="none" stroke="#464d66" stroke-linecap="round" stroke-linejoin="round" stroke-width="0.48"/>
      <path id="Path_949" data-name="Path 949" d="M579.49,55a3.437,3.437,0,0,1,1.622,2.586" transform="translate(-109.613 -10.389)" fill="none" stroke="#464d66" stroke-linecap="round" stroke-linejoin="round" stroke-width="0.48"/>
      <path id="Path_950" data-name="Path 950" d="M570.286,55a2.432,2.432,0,0,0,.162,2.019" transform="translate(-107.844 -10.389)" fill="none" stroke="#464d66" stroke-linecap="round" stroke-linejoin="round" stroke-width="0.48"/>
      <path id="Path_951" data-name="Path 951" d="M570.19,59.92s-4.265,1.622-6,9.681" transform="translate(-106.718 -11.32)" fill="none" stroke="#464d66" stroke-linecap="round" stroke-linejoin="round" stroke-width="0.48"/>
      <path id="Path_952" data-name="Path 952" d="M579.49,59.92a16.9,16.9,0,0,1,3.243,7.3" transform="translate(-109.613 -11.32)" fill="none" stroke="#464d66" stroke-linecap="round" stroke-linejoin="round" stroke-width="0.48"/>
      <path id="Path_953" data-name="Path 953" d="M583.48,63.75a13.946,13.946,0,0,1,2.132,5.676" transform="translate(-110.368 -12.045)" fill="none" stroke="#464d66" stroke-linecap="round" stroke-linejoin="round" stroke-width="0.48"/>
      <path id="Path_954" data-name="Path 954" d="M570.894,67.94a20.893,20.893,0,0,0-.754,4.978" transform="translate(-107.844 -12.837)" fill="none" stroke="#464d66" stroke-linecap="round" stroke-linejoin="round" stroke-width="0.48"/>
      <path id="Path_955" data-name="Path 955" d="M572.524,65.89a10.948,10.948,0,0,0-.527,3.9" transform="translate(-108.193 -12.449)" fill="none" stroke="#464d66" stroke-linecap="round" stroke-linejoin="round" stroke-width="0.48"/>
      <path id="Path_956" data-name="Path 956" d="M564.895,98.5s-2.278,9.924-12.835,11.473" transform="translate(-104.423 -18.62)" fill="none" stroke="#464d66" stroke-linecap="round" stroke-linejoin="round" stroke-width="0.48"/>
      <path id="Path_957" data-name="Path 957" d="M583.94,99.12a18.739,18.739,0,0,0,11.951,10.419" transform="translate(-110.455 -18.737)" fill="none" stroke="#464d66" stroke-linecap="round" stroke-linejoin="round" stroke-width="0.48"/>
      <path id="Path_958" data-name="Path 958" d="M565.539,97.44s-1.622,4.265-7.589,5.489" transform="translate(-105.537 -18.419)" fill="none" stroke="#464d66" stroke-linecap="round" stroke-linejoin="round" stroke-width="0.48"/>
      <path id="Path_959" data-name="Path 959" d="M585,98.23s2.311,4.865,9.819,6.486" transform="translate(-110.656 -18.569)" fill="none" stroke="#464d66" stroke-linecap="round" stroke-linejoin="round" stroke-width="0.48"/>
      <path id="Path_960" data-name="Path 960" d="M555.38,147.721s12.113,4.93,36.68-.381" transform="translate(-105.051 -27.861)" fill="none" stroke="#464d66" stroke-linecap="round" stroke-linejoin="round" stroke-width="0.48"/>
      <path id="Path_961" data-name="Path 961" d="M575.81,104.21v14.262s1.314,27.4,1.005,41.626-2.432,25.475,1.889,32.278,0,9.308,0,9.308" transform="translate(-108.917 -19.7)" fill="none" stroke="#464d66" stroke-linecap="round" stroke-linejoin="round" stroke-width="0.48"/>
      <path id="Path_962" data-name="Path 962" d="M576.9,105.439a.559.559,0,1,0,.559-.559A.559.559,0,0,0,576.9,105.439Z" transform="translate(-109.123 -19.827)" fill="#464d66"/>
      <path id="Path_963" data-name="Path 963" d="M576.9,119.658a.559.559,0,1,0,.161-.4.559.559,0,0,0-.161.4Z" transform="translate(-109.123 -22.515)" fill="#464d66"/>
      <path id="Path_964" data-name="Path 964" d="M577.41,127.458a.56.56,0,1,0,.161-.4A.559.559,0,0,0,577.41,127.458Z" transform="translate(-109.219 -23.991)" fill="#464d66"/>
      <path id="Path_965" data-name="Path 965" d="M576.9,112.549a.559.559,0,1,0,.559-.559A.559.559,0,0,0,576.9,112.549Z" transform="translate(-109.123 -21.172)" fill="#464d66"/>
      <path id="Path_966" data-name="Path 966" d="M578.1,140.978a.56.56,0,1,0,.161-.4A.559.559,0,0,0,578.1,140.978Z" transform="translate(-109.35 -26.549)" fill="#464d66"/>
      <path id="Path_967" data-name="Path 967" d="M577.59,134.218a.568.568,0,1,0,.56-.568.56.56,0,0,0-.56.568Z" transform="translate(-109.253 -25.27)" fill="#464d66"/>
      <path id="Path_968" data-name="Path 968" d="M578.84,155.189a.568.568,0,1,0,.568-.559.559.559,0,0,0-.568.559Z" transform="translate(-109.49 -29.24)" fill="#464d66"/>
      <path id="Path_969" data-name="Path 969" d="M578.84,169.4a.568.568,0,1,0,.568-.559.568.568,0,0,0-.568.559Z" transform="translate(-109.49 -31.929)" fill="#464d66"/>
      <path id="Path_970" data-name="Path 970" d="M578.84,176.509a.568.568,0,1,0,.568-.559.559.559,0,0,0-.568.559Z" transform="translate(-109.49 -33.274)" fill="#464d66"/>
      <path id="Path_971" data-name="Path 971" d="M578,204.939a.568.568,0,1,0,.568-.559.56.56,0,0,0-.568.559Z" transform="translate(-109.331 -38.653)" fill="#464d66"/>
      <path id="Path_972" data-name="Path 972" d="M580.74,212.048a.56.56,0,1,0,.161-.4A.559.559,0,0,0,580.74,212.048Z" transform="translate(-109.849 -39.997)" fill="#464d66"/>
      <circle id="Ellipse_77" data-name="Ellipse 77" cx="0.559" cy="0.559" r="0.559" transform="translate(472.407 177.248)" fill="#464d66"/>
      <path id="Path_973" data-name="Path 973" d="M578.84,162.3a.568.568,0,1,0,.568-.559.559.559,0,0,0-.568.559Z" transform="translate(-109.49 -30.585)" fill="#464d66"/>
      <path id="Path_974" data-name="Path 974" d="M578,190.728a.568.568,0,1,0,.568-.568.559.559,0,0,0-.568.568Z" transform="translate(-109.331 -35.963)" fill="#464d66"/>
      <circle id="Ellipse_78" data-name="Ellipse 78" cx="0.559" cy="0.559" r="0.559" transform="translate(468.101 159.962)" fill="#464d66"/>
      <path id="Path_975" data-name="Path 975" d="M578.1,183.619a.559.559,0,1,0,.56-.559A.559.559,0,0,0,578.1,183.619Z" transform="translate(-109.35 -34.619)" fill="#464d66"/>
      <path id="Path_976" data-name="Path 976" d="M536.64,192.79a36.413,36.413,0,0,0,25.564,3.632c14.748-3.243,27.38-.673,36.794-3.632" transform="translate(-101.505 -36.46)" fill="none" stroke="#464d66" stroke-linecap="round" stroke-linejoin="round" stroke-width="0.48"/>
      <path id="Path_977" data-name="Path 977" d="M568.578,98.23s-2.5,6.721,5.116,5.392" transform="translate(-107.474 -18.569)" fill="none" stroke="#464d66" stroke-linecap="round" stroke-linejoin="round" stroke-width="0.48"/>
      <path id="Path_978" data-name="Path 978" d="M582.5,99.78s1.54,5.14-4.192,3.8" transform="translate(-109.39 -18.862)" fill="none" stroke="#464d66" stroke-linecap="round" stroke-linejoin="round" stroke-width="0.48"/>
      <path id="Path_979" data-name="Path 979" d="M585.45,119.292l8.659-.762s1.1,7.1-3.64,7.8S585.45,119.292,585.45,119.292Z" transform="translate(-110.741 -22.409)" fill="none" stroke="#464d66" stroke-linecap="round" stroke-linejoin="round" stroke-width="0.48"/>
      <path id="Path_980" data-name="Path 980" d="M524.82,211.48s2.432,9.584,10.905,14.205,13.946,2.838,19.24-1.338,8.919-9.689,19.751-3.876,18.073,7.532,23.221,2.781" transform="translate(-99.269 -39.997)" fill="none" stroke="#464d66" stroke-linecap="round" stroke-linejoin="round" stroke-width="0.48"/>
      <path id="Path_981" data-name="Path 981" d="M546.6,104.317A81.891,81.891,0,0,1,558.34,87.68" transform="translate(-103.39 -16.572)" fill="none" stroke="#464d66" stroke-linecap="round" stroke-linejoin="round" stroke-width="0.48"/>
      <path id="Path_982" data-name="Path 982" d="M591.31,90.8s8.359,4.93,11.538,13.427" transform="translate(-111.849 -17.163)" fill="none" stroke="#464d66" stroke-linecap="round" stroke-linejoin="round" stroke-width="0.48"/>
      <path id="Path_986" data-name="Path 986" d="M580.8,227.14s3.154,15.259-10.694,43.012" transform="translate(-107.838 -42.96)" fill="none" stroke="#464d66" stroke-linecap="round" stroke-linejoin="round" stroke-width="0.48"/>
      <path id="Path_987" data-name="Path 987" d="M533.25,262.518l18.794,3.324.8-3.932" transform="translate(-100.864 -49.538)" fill="none" stroke="#464d66" stroke-linecap="round" stroke-linejoin="round" stroke-width="0.48"/>
      <path id="Path_988" data-name="Path 988" d="M556.51,144.259s13.881,4.638,34.191-.559" transform="translate(-105.265 -27.172)" fill="none" stroke="#464d66" stroke-linecap="round" stroke-linejoin="round" stroke-width="0.48"/>
      <path id="Path_989" data-name="Path 989" d="M517.261,260.34a31.126,31.126,0,0,0-1.93,5.213c-.811,2.895-4.865,7.775-4.313,13.216" transform="translate(-96.648 -49.241)" fill="none" stroke="#464d66" stroke-linecap="round" stroke-linejoin="round" stroke-width="0.48"/>
      <path id="Path_990" data-name="Path 990" d="M535.849,256.61s-1.443,1.127-1.849,4.3" transform="translate(-101.006 -48.536)" fill="none" stroke="#464d66" stroke-linecap="round" stroke-linejoin="round" stroke-width="0.48"/>
      <path id="Path_991" data-name="Path 991" d="M528.04,274.31a3.843,3.843,0,0,0-.511,2.895" transform="translate(-99.764 -51.885)" fill="none" stroke="#464d66" stroke-linecap="round" stroke-linejoin="round" stroke-width="0.48"/>
      <line id="Line_55" data-name="Line 55" x2="1.541" y2="1.435" transform="translate(419.073 223.39)" fill="none" stroke="#464d66" stroke-linecap="round" stroke-linejoin="round" stroke-width="0.48"/>
      <line id="Line_56" data-name="Line 56" x2="1.338" y2="1.443" transform="translate(419.957 222.425)" fill="none" stroke="#464d66" stroke-linecap="round" stroke-linejoin="round" stroke-width="0.48"/>
      <line id="Line_57" data-name="Line 57" x2="1.265" y2="1.476" transform="translate(420.938 221.266)" fill="none" stroke="#464d66" stroke-linecap="round" stroke-linejoin="round" stroke-width="0.48"/>
      <line id="Line_58" data-name="Line 58" x2="1.273" y2="1.451" transform="translate(421.838 220.317)" fill="none" stroke="#464d66" stroke-linecap="round" stroke-linejoin="round" stroke-width="0.48"/>
      <ellipse id="Ellipse_79" data-name="Ellipse 79" cx="38.496" cy="5.919" rx="38.496" ry="5.919" transform="translate(417.654 280.583)" fill="#b3b3b3" opacity="0.2"/>
      <path id="Path_992" data-name="Path 992" d="M385.193,85.017s-3.843-1.378-6.8,2.627-8.108.495-8.675,7.848,10.216,9.332,10.451,3.892" transform="translate(-69.917 -16.025)" fill="none" stroke="#464d66" stroke-linecap="round" stroke-linejoin="round" stroke-width="0.48"/>
      <path id="Path_993" data-name="Path 993" d="M386.9,84.308s-4.922-1.484-7.9,4.054-7.792,1.832-9.162,7.784,9.154,10.078,11.619,7.3S393.2,92.335,392.511,88.67,386.9,84.308,386.9,84.308Z" transform="translate(-69.922 -15.9)" fill="#464d66"/>
      <path id="Path_994" data-name="Path 994" d="M412.364,48.167s-5.87-1.816-8.319,4.865-10.913,2.943-10.07,9.624-6.527,5.051-4.938,12.267c1.922,6.3,10.881,10.159,15.008,6.186s19.524,1.573,20.432-12.121S420.512,48.621,412.364,48.167Z" transform="translate(-73.535 -9.054)" fill="#464d66"/>
      <path id="Path_995" data-name="Path 995" d="M402.646,132.363c1.224-13.232-5.254-15.113-4.743-29.391.981-18.51,9.13-17.375,16.289-17.278,7.094-.989,11.951-3.122,15.227,15.121,2.278,14.108-2.392,16.589.47,29.561s7.532,27.567,7.532,27.567c-5.773,6.486-18.575,2.546-18.575,2.546s-14.132.413-20.667-5.327A110.575,110.575,0,0,0,402.646,132.363Z" transform="translate(-75.25 -16.078)" fill="#f0baa4"/>
      <path id="Path_996" data-name="Path 996" d="M425.94,71.274c28.061-17.408,23.375-31,16.467-57.655,1.784-.908,2.724-1.281,4.516-2.149C461.769,44.4,458.882,59.542,431.4,83.079,426.491,80.955,425.989,75.993,425.94,71.274Z" transform="translate(-80.56 -2.153)" fill="#f0baa4"/>
      <path id="Path_997" data-name="Path 997" d="M447.138,1.342c-.859.041-.405,3.794-.405,3.794s-.9-4.865-1.557-4.93c-1.038-.13.081,5.367.081,5.367S443.9-.385,442.809,0s.949,6.138.949,6.138S441.52.855,440.66,1.35s2.295,7.208,2.295,7.208-3.381-1.622-3.754-.941c-.632,1.127,6.413,4.865,6.413,4.865l4.184-1.241S448.006,1.293,447.138,1.342Z" transform="translate(-83.061 0.022)" fill="#f0baa4"/>
      <path id="Path_998" data-name="Path 998" d="M435.882,172.16l-19.224-7.03c-1.978,8.44-2.432,20.448.211,32.569,1.995,9.105,5.376,18.9,3.089,31.921q-.426,2.432-.965,4.865l-26.326-4.167-1.086,8.919,25.6,8.684c11.351,3.122,13.556-3.243,14.789-6.2,2.862-6.8,6.681-16.743,7.678-22.937C443.608,194.01,435.882,172.16,435.882,172.16Z" transform="translate(-74.059 -31.227)" fill="#f6a592"/>
      <path id="Path_999" data-name="Path 999" d="M403.361,99.72c-30.421,12.859-27.867,27.048-25.191,54.412-1.9.616-2.886.811-4.792,1.427-9.575-34.823-4.37-49.345,26.44-68.35C404.309,90.072,404.026,95.05,403.361,99.72Z" transform="translate(-69.794 -16.483)" fill="#f0baa4"/>
      <path id="Path_1000" data-name="Path 1000" d="M375.4,179.127c.811.089.981-3.689.981-3.689s.146,4.93.811,5.116c1.005.284.746-5.319.746-5.319s.43,6.1,1.557,5.87,0-6.211,0-6.211,1.386,5.562,2.311,5.205-1.143-7.467-1.143-7.467,3.089,2.108,3.559,1.508c.811-1.013-5.586-5.781-5.586-5.781l-4.33.576S374.545,179.038,375.4,179.127Z" transform="translate(-70.791 -31.838)" fill="#f0baa4"/>
      <path id="Path_1001" data-name="Path 1001" d="M411.424,236.374c.389-13.216-4.8-25.475-8.108-34.2-4.37-11.611-5.627-23.562-4.865-32.2l20.035,4.2s10.143,26.837,9.778,51.891S408.7,289.683,408.7,289.683l-6.794-4.427S410.727,259.806,411.424,236.374Z" transform="translate(-75.319 -32.142)" fill="#f0baa4"/>
      <path id="Path_1002" data-name="Path 1002" d="M400.192,133.8s-16.475,39.056,3.357,73.6c19.118-.592,42.275-9.648,42.275-9.648L428.18,129.36S417.3,138.295,400.192,133.8Z" transform="translate(-74.473 -24.459)" fill="#65b1ee"/>
      <path id="Path_1003" data-name="Path 1003" d="M407.792,71.443a3.065,3.065,0,0,0-2.732-3.973H405c-1.938,0-1.922,5.513.811,5.513A1.889,1.889,0,0,0,407.792,71.443Z" transform="translate(-76.341 -12.748)" fill="#f6a592"/>
      <path id="Path_1004" data-name="Path 1004" d="M426.8,71.443a3.065,3.065,0,0,1,2.724-3.973h.057c1.946,0,1.922,5.513-.811,5.513A1.889,1.889,0,0,1,426.8,71.443Z" transform="translate(-80.696 -12.748)" fill="#f6a592"/>
      <path id="Path_1005" data-name="Path 1005" d="M422.274,83.331c-1.249-2.368-.754-5.976-.754-5.976l-4.865-.746-4.865.746a14.083,14.083,0,0,1,0,3.632C413.533,82.8,416.947,84.969,422.274,83.331Z" transform="translate(-77.883 -14.478)" fill="#f6a592"/>
      <path id="Path_1006" data-name="Path 1006" d="M421.912,84.353c-5.327,1.622-8.74-.535-10.54-2.343a6.259,6.259,0,0,1-1.208,3.105c-.941,1.119.592,1.905,2.351,2.432a13.784,13.784,0,0,0,7.516,0c1.759-.495,3.284-1.281,2.351-2.432a4.1,4.1,0,0,1-.47-.762Z" transform="translate(-77.521 -15.5)" fill="#f6b9a4"/>
      <path id="Path_1007" data-name="Path 1007" d="M419.462,69.415a3.535,3.535,0,0,1,5.562-2.9,17.728,17.728,0,0,0,.511-4.411c0-7.3-3.446-10.492-6.316-11.894a8.675,8.675,0,0,0-7.573,0c-2.862,1.4-6.316,4.605-6.316,11.894a18.111,18.111,0,0,0,.511,4.411,3.532,3.532,0,1,1,3.705,6,10.229,10.229,0,0,0,1.192.876,9.227,9.227,0,0,0,9.324,0,9.684,9.684,0,0,0,1.232-.859,3.527,3.527,0,0,1-1.832-3.113Z" transform="translate(-76.66 -9.318)" fill="#f0baa4"/>
      <path id="Path_1008" data-name="Path 1008" d="M411.53,73.279a3.535,3.535,0,0,0-5.53-2.9,10.8,10.8,0,0,0,3.705,6,3.519,3.519,0,0,0,1.824-3.1Z" transform="translate(-76.787 -13.182)" fill="#f6a592"/>
      <path id="Path_1009" data-name="Path 1009" d="M428.336,70.379a3.527,3.527,0,1,0-3.7,6,10.751,10.751,0,0,0,3.7-6Z" transform="translate(-79.972 -13.184)" fill="#f6a592"/>
      <path id="Path_1010" data-name="Path 1010" d="M412.31,68.611a.811.811,0,1,0,.77-.811.77.77,0,0,0-.77.811Z" transform="translate(-77.981 -12.811)" fill="#464d66"/>
      <path id="Path_1011" data-name="Path 1011" d="M421.54,68.611a.811.811,0,1,0,.811-.811A.811.811,0,0,0,421.54,68.611Z" transform="translate(-79.727 -12.811)" fill="#464d66"/>
      <path id="Path_1012" data-name="Path 1012" d="M417.566,72.147v-4.3S414.533,72.147,417.566,72.147Z" transform="translate(-78.72 -12.82)" fill="#f6a592"/>
      <path id="Path_1013" data-name="Path 1013" d="M412,65.6a2.133,2.133,0,0,1,1.832-.916" transform="translate(-77.922 -12.22)" fill="none" stroke="#464d66" stroke-linecap="round" stroke-linejoin="round" stroke-width="0.48"/>
      <path id="Path_1014" data-name="Path 1014" d="M423.194,65.6a2.108,2.108,0,0,0-1.824-.916" transform="translate(-79.695 -12.22)" fill="none" stroke="#464d66" stroke-linecap="round" stroke-linejoin="round" stroke-width="0.48"/>
      <path id="Path_1015" data-name="Path 1015" d="M416.07,74.27h2.8s-.089,1.9-1.4,1.9S416.07,74.27,416.07,74.27Z" transform="translate(-78.692 -14.035)" fill="linen"/>
      <path id="Path_1016" data-name="Path 1016" d="M405.254,85.6s-8.521-.754-13.524,9.13a96.01,96.01,0,0,0,5.035,11.221,54.169,54.169,0,0,0,3.041,18.9c8.667,5,20.651,2.716,28.84-1.119,5.335-20.8-.47-30.137-.47-30.137s1.111-4.467-4.808-11.505a10.759,10.759,0,0,0-5.173,1.622s2.181,6.681-2.295,7.921C408.165,93.83,405.254,85.6,405.254,85.6Z" transform="translate(-74.087 -15.515)" fill="linen"/>
      <path id="Path_1017" data-name="Path 1017" d="M402.73,66.106s3.851,1.8,5.521-2.822,6.8-1.849,8.221-5.911a13.127,13.127,0,0,0,10.4,6.762S425.716,48.22,415,48.22,405.243,61.225,402.73,66.106Z" transform="translate(-76.168 -9.106)" fill="#464d66"/>
      <path id="Path_1018" data-name="Path 1018" d="M398.34,105.807s8.3-4.119,4.305-17.5" transform="translate(-75.338 -16.692)" fill="none" stroke="#464d66" stroke-linecap="round" stroke-linejoin="round" stroke-width="0.48"/>
      <path id="Path_1019" data-name="Path 1019" d="M427,84.13s3.584,2.635,7.362,9.284" transform="translate(-80.76 -15.901)" fill="none" stroke="#464d66" stroke-linecap="round" stroke-linejoin="round" stroke-width="0.48"/>
      <path id="Path_1020" data-name="Path 1020" d="M406.97,86.627s-1.305,3.9,4.33,6.413a9.551,9.551,0,0,0,7.484,0s4.7,0,4.776-4.265-1.889-4.646-1.889-4.646" transform="translate(-76.946 -15.901)" fill="none" stroke="#464d66" stroke-linecap="round" stroke-linejoin="round" stroke-width="0.48"/>
      <line id="Line_59" data-name="Line 59" x1="2.578" y1="7.33" transform="translate(341.813 77.14)" fill="none" stroke="#464d66" stroke-linecap="round" stroke-linejoin="round" stroke-width="0.48"/>
      <path id="Path_1021" data-name="Path 1021" d="M423.13,96.477a.4.4,0,1,0,.4-.4A.4.4,0,0,0,423.13,96.477Z" transform="translate(-80.028 -18.162)" fill="#464d66"/>
      <path id="Path_1022" data-name="Path 1022" d="M424.23,99.547a.4.4,0,1,0,.4-.4A.4.4,0,0,0,424.23,99.547Z" transform="translate(-80.236 -18.743)" fill="#464d66"/>
      <circle id="Ellipse_80" data-name="Ellipse 80" cx="0.397" cy="0.397" r="0.397" transform="translate(344.772 82.564)" fill="#464d66"/>
      <path id="Path_1023" data-name="Path 1023" d="M400.54,137.528a33.51,33.51,0,0,0,30.324-1.468" transform="translate(-75.754 -25.726)" fill="none" stroke="#464d66" stroke-linecap="round" stroke-linejoin="round" stroke-width="0.48"/>
      <path id="Path_1024" data-name="Path 1024" d="M410.938,208.9s-7.565-19.629-9.535-38,3.057-31.232,3.057-31.232" transform="translate(-75.831 -26.409)" fill="none" stroke="#464d66" stroke-linecap="round" stroke-linejoin="round" stroke-width="0.48"/>
      <path id="Path_1025" data-name="Path 1025" d="M404.92,221.9s3.486-.195,4.565-.414" transform="translate(-76.583 -41.891)" fill="none" stroke="#464d66" stroke-linecap="round" stroke-linejoin="round" stroke-width="0.48"/>
      <path id="Path_1026" data-name="Path 1026" d="M413.27,218.994a174.7,174.7,0,0,0,35.545-8.594" transform="translate(-78.163 -39.792)" fill="none" stroke="#464d66" stroke-linecap="round" stroke-linejoin="round" stroke-width="0.48"/>
      <path id="Path_1027" data-name="Path 1027" d="M409.264,315.345l3.486-7.459-9.065-5.805L398.4,312.085h0a2.717,2.717,0,0,0-.332.884c-.243,1.946,2.822,3.73,4.54,6.73s4.638,7.516,8.019,9.316c2.943-3.243,1.322-4.776-.154-8.043A16.467,16.467,0,0,1,409.264,315.345Z" transform="translate(-75.283 -57.139)" fill="#f8bd33"/>
      <path id="Path_1028" data-name="Path 1028" d="M380.157,253.564l8.108,1.484,3.332-10.224-11.027-2.57h0a2.433,2.433,0,0,0-.932-.105c-1.946.259-2.895,3.673-5.367,6.1s-6.1,6.389-6.981,10.119c3.916,2.019,4.962.073,7.751-2.189A16.4,16.4,0,0,1,380.157,253.564Z" transform="translate(-69.463 -45.798)" fill="#f8bd33"/>
      <path id="Path_1029" data-name="Path 1029" d="M391.12,85.07a16.029,16.029,0,0,0,4.338,3.884" transform="translate(-73.972 -16.079)" fill="none" stroke="#f8bd33" stroke-linecap="round" stroke-linejoin="round" stroke-width="0.48"/>
      <path id="Path_1030" data-name="Path 1030" d="M400.54,108.23s.608,13.386,3.884,22.953" transform="translate(-75.754 -20.461)" fill="none" stroke="#464d66" stroke-linecap="round" stroke-linejoin="round" stroke-width="0.48"/>
      <path id="Path_1031" data-name="Path 1031" d="M399.13,314.7a13.89,13.89,0,0,0,3.081,4.054c1.735,1.354,3.949,8.2,8.862,11.473" transform="translate(-75.487 -59.527)" fill="none" stroke="#464d66" stroke-linecap="round" stroke-linejoin="round" stroke-width="0.48"/>
      <path id="Path_1032" data-name="Path 1032" d="M380.458,243.05a15.615,15.615,0,0,0-3.373,4.622c-1.54,3.081-6.162,4.719-8.375,10.4" transform="translate(-69.731 -45.97)" fill="none" stroke="#464d66" stroke-linecap="round" stroke-linejoin="round" stroke-width="0.48"/>
      <path id="Path_1033" data-name="Path 1033" d="M447.25,17.622A18.712,18.712,0,0,1,452.585,16" transform="translate(-84.592 -3.01)" fill="none" stroke="#464d66" stroke-linecap="round" stroke-linejoin="round" stroke-width="0.48"/>
      <path id="Path_1034" data-name="Path 1034" d="M447.83,19.57a40.677,40.677,0,0,1,5.2-2.57" transform="translate(-84.702 -3.199)" fill="none" stroke="#464d66" stroke-linecap="round" stroke-linejoin="round" stroke-width="0.48"/>
      <path id="Path_1035" data-name="Path 1035" d="M437.09,97.06s5.23,9.827.373,28.58" transform="translate(-82.67 -18.347)" fill="none" stroke="#464d66" stroke-linecap="round" stroke-linejoin="round" stroke-width="0.48"/>
      <path id="Path_1036" data-name="Path 1036" d="M397.94,111.52a65.465,65.465,0,0,0,2.83,18.3" transform="translate(-75.262 -21.083)" fill="none" stroke="#464d66" stroke-linecap="round" stroke-linejoin="round" stroke-width="0.48"/>
      <path id="Path_1037" data-name="Path 1037" d="M405.9,51.24s-3.081,4.776-6.308,5.627c-3.949,1.038-7.192,1.889-6.486,6.689s-7.621,7.127-2.976,13.321" transform="translate(-73.516 -9.678)" fill="none" stroke="#464d66" stroke-linecap="round" stroke-linejoin="round" stroke-width="0.48"/>
      <path id="Path_1038" data-name="Path 1038" d="M419.52,58.64s1.905,8.862,10.54,7.159" transform="translate(-79.345 -11.078)" fill="none" stroke="#464d66" stroke-linecap="round" stroke-linejoin="round" stroke-width="0.48"/>
      <ellipse id="Ellipse_81" data-name="Ellipse 81" cx="38.496" cy="5.919" rx="38.496" ry="5.919" transform="translate(298.03 280.583)" fill="#b3b3b3" opacity="0.2"/>
      <path id="Path_1039" data-name="Path 1039" d="M75.89,94.548s1.622-1.678,7.8-1.678,8.173,2.092,8.173,2.092A13.389,13.389,0,0,1,75.89,94.548Z" transform="translate(-14.327 -17.554)" fill="linen"/>
      <path id="Path_1040" data-name="Path 1040" d="M82.572,61.84c-8.173,0-10.889,4.054-11.627,10.321s2.676,8.659,2.676,8.659h18.3C97.726,68.2,90.753,61.84,82.572,61.84Z" transform="translate(-13.372 -11.683)" fill="#f8bd33"/>
      <path id="Path_1041" data-name="Path 1041" d="M118.791,266.328a18.535,18.535,0,0,1,5.765,4.913c2.035,2.951,2.489,5.116,6.819,4.273.195-3.819-2.165-8.651-3.859-11.667s-1.622-6.567-3.438-7.354-6.7,1.622-6.7,1.622Z" transform="translate(-22.177 -48.484)" fill="#f8bd33"/>
      <path id="Path_1042" data-name="Path 1042" d="M60.586,188.633l18.7-8.3a77,77,0,0,1,1.978,32.5c-1.378,9.227-4.094,19.224-.932,32.067q.584,2.368,1.281,4.743L106.8,243.41l2.627,9.77-25.094,9.778c-11.1,3.867-13.783-2.351-15.178-5.2-3.316-6.6-7.792-16.216-9.2-22.37C54.343,210.954,60.586,188.633,60.586,188.633Z" transform="translate(-10.869 -34.103)" fill="#65b1ee"/>
      <path id="Path_1043" data-name="Path 1043" d="M96.466,145.259c-2.043-13.127-.316-15.308-1.719-29.529-2.132-18.389-7.1-16.751-14.229-16.2-7.143-.551-12.113-2.189-14.246,16.216-1.4,14.221.324,16.4-1.719,29.529s-3.243,28-3.243,28c6.138,6.146,19.208,1.168,19.208,1.168s12.535,4.751,18.7-1.386C99.166,173.069,98.517,158.41,96.466,145.259Z" transform="translate(-11.568 -18.758)" fill="#f0baa4"/>
      <path id="Path_1044" data-name="Path 1044" d="M151.734,253.616a18.535,18.535,0,0,1,6.486,3.949c2.481,2.595,3.243,4.662,7.411,3.154-.405-3.8-3.495-8.205-5.676-10.921s-2.643-6.227-4.54-6.73-6.365,2.667-6.365,2.667Z" transform="translate(-28.17 -45.963)" fill="#f8bd33"/>
      <path id="Path_1045" data-name="Path 1045" d="M92.87,88.7l52.7-46.15,4.249,3.8L99.891,99.67S94.378,98.316,92.87,88.7Z" transform="translate(-17.54 -8.033)" fill="#f0baa4"/>
      <path id="Path_1046" data-name="Path 1046" d="M167.5,36.421c-.584-.641-3.195,2.092-3.195,2.092s3.178-3.77,2.822-4.33c-.551-.884-4.1,3.462-4.1,3.462s3.746-4.865,2.757-5.416-4.151,4.622-4.151,4.622,2.676-5.076,1.743-5.424-4.127,6.332-4.127,6.332-.892-3.632-1.622-3.5c-1.273.227.308,8.035.308,8.035l3.608,2.432S168.075,37.062,167.5,36.421Z" transform="translate(-29.698 -5.926)" fill="#f0baa4"/>
      <path id="Path_1047" data-name="Path 1047" d="M63.807,88.7l-52.7-46.15-4.216,3.8,49.9,53.318S62.3,98.316,63.807,88.7Z" transform="translate(-1.272 -8.033)" fill="#f0baa4"/>
      <path id="Path_1048" data-name="Path 1048" d="M-.007,36.421c.584-.641,3.243,2.092,3.243,2.092S.041,34.743.4,34.184c.551-.884,4.1,3.462,4.1,3.462S.755,32.781,1.744,32.23,5.9,36.851,5.9,36.851s-2.659-5.076-1.743-5.424,4.127,6.332,4.127,6.332.9-3.632,1.622-3.5c1.273.227-.308,8.035-.308,8.035L5.984,44.724S-.551,37.062-.007,36.421Z" transform="translate(0.04 -5.926)" fill="#f0baa4"/>
      <path id="Path_1049" data-name="Path 1049" d="M82.918,185.4l17.173-11.132a76.918,76.918,0,0,1,7.054,31.791c.081,9.332-1.03,19.629,4.094,31.815.632,1.5,1.305,3,2.011,4.484l24.243-10.321,4.257,9.729L118.017,255.13c-10.354,5.562-13.946-.162-15.8-2.749-4.305-6-10.24-14.837-12.592-20.651C80.251,208.453,82.918,185.4,82.918,185.4Z" transform="translate(-15.59 -32.956)" fill="#65b1ee"/>
      <path id="Path_1050" data-name="Path 1050" d="M75.039,84.881A3.073,3.073,0,0,0,72.314,80.9h-.032c-1.946,0-1.922,5.513.811,5.513A1.881,1.881,0,0,0,75.039,84.881Z" transform="translate(-13.386 -15.29)" fill="#f6a592"/>
      <path id="Path_1051" data-name="Path 1051" d="M94.077,84.881A3.073,3.073,0,0,1,96.8,80.9h.057c1.938,0,1.922,5.513-.811,5.513A1.881,1.881,0,0,1,94.077,84.881Z" transform="translate(-17.742 -15.29)" fill="#f6a592"/>
      <path id="Path_1052" data-name="Path 1052" d="M89.555,96.761c-1.241-2.359-.746-5.967-.746-5.967l-4.865-.754-4.865.754a14.505,14.505,0,0,1,0,3.632C80.815,96.226,84.22,98.4,89.555,96.761Z" transform="translate(-14.931 -17.019)" fill="#f6a592"/>
      <path id="Path_1053" data-name="Path 1053" d="M89.19,97.785c-5.327,1.622-8.732-.535-10.54-2.335a6.275,6.275,0,0,1-1.216,3.1c-.932,1.127.592,1.905,2.359,2.432a13.735,13.735,0,0,0,7.508,0c1.768-.495,3.292-1.273,2.359-2.432a4.135,4.135,0,0,1-.47-.762Z" transform="translate(-14.566 -18.043)" fill="#f6b9a4"/>
      <path id="Path_1054" data-name="Path 1054" d="M86.71,82.853A3.535,3.535,0,0,1,92.3,79.991a18.235,18.235,0,0,0,.511-4.419c0-7.3-3.446-10.492-6.316-11.886a8.627,8.627,0,0,0-7.573,0c-2.87,1.395-6.316,4.6-6.316,11.886a18.235,18.235,0,0,0,.511,4.419,3.526,3.526,0,1,1,3.7,5.992,9.68,9.68,0,0,0,1.232.859,9.227,9.227,0,0,0,9.324,0,10.3,10.3,0,0,0,1.232-.859A3.527,3.527,0,0,1,86.71,82.853Z" transform="translate(-13.706 -11.867)" fill="#f0baa4"/>
      <path id="Path_1055" data-name="Path 1055" d="M78.8,86.705a3.543,3.543,0,0,0-3.543-3.535,3.494,3.494,0,0,0-2.019.641,10.727,10.727,0,0,0,3.7,5.992A3.527,3.527,0,0,0,78.8,86.705Z" transform="translate(-13.826 -15.719)" fill="#f6a592"/>
      <path id="Path_1056" data-name="Path 1056" d="M95.6,83.85a3.527,3.527,0,1,0-3.7,5.992A10.767,10.767,0,0,0,95.6,83.85Z" transform="translate(-17.005 -15.726)" fill="#f6a592"/>
      <path id="Path_1057" data-name="Path 1057" d="M86.891,87.7a3.405,3.405,0,0,1-2.376.859h0A3.405,3.405,0,0,1,82.14,87.7" transform="translate(-15.51 -16.576)" fill="none" stroke="#464d66" stroke-linecap="round" stroke-linejoin="round" stroke-width="0.48"/>
      <path id="Path_1058" data-name="Path 1058" d="M84.845,85.585V81.28S81.8,85.585,84.845,85.585Z" transform="translate(-15.766 -15.361)" fill="#f6a592"/>
      <path id="Path_1059" data-name="Path 1059" d="M79.24,79.028a2.124,2.124,0,0,1,1.824-.908" transform="translate(-14.961 -14.763)" fill="none" stroke="#464d66" stroke-linecap="round" stroke-linejoin="round" stroke-width="0.48"/>
      <path id="Path_1060" data-name="Path 1060" d="M90.474,79.028a2.124,2.124,0,0,0-1.824-.908" transform="translate(-16.741 -14.763)" fill="none" stroke="#464d66" stroke-linecap="round" stroke-linejoin="round" stroke-width="0.48"/>
      <path id="Path_1061" data-name="Path 1061" d="M79.59,81.571s.089-.811.811-.811.77.811.77.811" transform="translate(-15.027 -15.263)" fill="none" stroke="#464d66" stroke-linecap="round" stroke-linejoin="round" stroke-width="0.48"/>
      <path id="Path_1062" data-name="Path 1062" d="M88.82,81.571s.1-.811.811-.811.811.811.811.811" transform="translate(-16.774 -15.263)" fill="none" stroke="#464d66" stroke-linecap="round" stroke-linejoin="round" stroke-width="0.48"/>
      <path id="Path_1063" data-name="Path 1063" d="M71.65,70.525s12.616,3.243,21.186,0C90.987,62.506,78.558,55.865,71.65,70.525Z" transform="translate(-13.525 -11.684)" fill="#f8bd33"/>
      <path id="Path_1064" data-name="Path 1064" d="M14.929,45.84,10.81,50.364S13.072,68.331,25.4,73.723s7.184,16.167,21.7,26.57c-2.992,13.54,1.549,26.116-2.967,41.821a41.112,41.112,0,0,0,1.557,27.8s28.678,9.624,52.158-4.6a42.818,42.818,0,0,0,2.376-22.37c-1.622-8.975-.535-29.78-4.419-42.656,16.167-11.643,4.549-16.054,17.116-23.253s15.932-24.283,15.932-24.283l-3.681-5.343A27.048,27.048,0,0,0,104.2,59.672C87.989,83.744,76.038,86.7,76.038,86.7A4.294,4.294,0,0,1,71.4,90.361a5.546,5.546,0,0,1-5.3-3.908S51,80.023,46.939,72.418C33.78,47.826,25.25,50.145,14.929,45.84Z" transform="translate(-2.013 -8.656)" fill="#f8bd33"/>
      <path id="Path_1065" data-name="Path 1065" d="M10.81,50.364l4.119-4.524,1.159.462L11.4,51.459" transform="translate(-2.013 -8.656)" fill="none" stroke="#464d66" stroke-linecap="round" stroke-linejoin="round" stroke-width="0.48"/>
      <path id="Path_1066" data-name="Path 1066" d="M155.157,53.123l-3.681-5.343-1.646.13,4.24,5.878" transform="translate(-28.317 -9.023)" fill="none" stroke="#464d66" stroke-linecap="round" stroke-linejoin="round" stroke-width="0.48"/>
      <path id="Path_1067" data-name="Path 1067" d="M30,79.24s4.338,2.732,11.756,1.265" transform="translate(-5.644 -14.975)" fill="none" stroke="#464d66" stroke-linecap="round" stroke-linejoin="round" stroke-width="0.48"/>
      <path id="Path_1068" data-name="Path 1068" d="M56.48,109.509s10.216.673,13.589-14.959" transform="translate(-10.654 -17.872)" fill="none" stroke="#464d66" stroke-linecap="round" stroke-linejoin="round" stroke-width="0.48"/>
      <path id="Path_1069" data-name="Path 1069" d="M111.13,108.877s-8.051-.989-12.64-14.327" transform="translate(-18.603 -17.872)" fill="none" stroke="#464d66" stroke-linecap="round" stroke-linejoin="round" stroke-width="0.48"/>
      <path id="Path_1070" data-name="Path 1070" d="M128.824,86.59s-7.767,1.1-11.084,3.859" transform="translate(-22.245 -16.366)" fill="none" stroke="#464d66" stroke-linecap="round" stroke-linejoin="round" stroke-width="0.48"/>
      <path id="Path_1071" data-name="Path 1071" d="M54.926,155.88A19.285,19.285,0,0,0,59.385,168.9" transform="translate(-10.357 -29.476)" fill="none" stroke="#464d66" stroke-linecap="round" stroke-linejoin="round" stroke-width="0.48"/>
      <path id="Path_1072" data-name="Path 1072" d="M54,194.947s26.489,9.592,51.72-4" transform="translate(-10.185 -36.112)" fill="none" stroke="#464d66" stroke-linecap="round" stroke-linejoin="round" stroke-width="0.48"/>
      <path id="Path_1073" data-name="Path 1073" d="M77.18,96.09s.762,4.451,6.754,4.281S90.42,96.09,90.42,96.09" transform="translate(-14.571 -18.164)" fill="none" stroke="#464d66" stroke-linecap="round" stroke-linejoin="round" stroke-width="0.48"/>
      <path id="Path_1074" data-name="Path 1074" d="M84.219,111.7a11.781,11.781,0,0,1,0-4.054c.389-2.116,1.013-6.316,1.013-6.316a9.94,9.94,0,0,1,1.67,8.8" transform="translate(-15.87 -19.155)" fill="none" stroke="#464d66" stroke-linecap="round" stroke-linejoin="round" stroke-width="0.48"/>
      <path id="Path_1075" data-name="Path 1075" d="M83.8,114.837a.7.7,0,1,0,.7-.7.689.689,0,0,0-.7.7Z" transform="translate(-15.824 -21.579)" fill="none" stroke="#464d66" stroke-linecap="round" stroke-linejoin="round" stroke-width="0.48"/>
      <path id="Path_1076" data-name="Path 1076" d="M86.316,112.839a.7.7,0,1,0,1.362,0,.689.689,0,0,0-.689-.689.7.7,0,0,0-.673.689Z" transform="translate(-16.297 -21.202)" fill="none" stroke="#464d66" stroke-linecap="round" stroke-linejoin="round" stroke-width="0.48"/>
      <path id="Path_1077" data-name="Path 1077" d="M116.071,146.79s-.454,7.678-3.981,13.256" transform="translate(-21.176 -27.757)" fill="none" stroke="#464d66" stroke-linecap="round" stroke-linejoin="round" stroke-width="0.48"/>
      <path id="Path_1078" data-name="Path 1078" d="M70.627,160.792s11.675,2.035,22.808-.892c.227,8.651,5.027,11.27,10.305,11.043a96.429,96.429,0,0,1-.746,10.694s-21.891,7.848-42.753.811c-.6-6.713-.811-9.794-.811-9.794S70.765,173.546,70.627,160.792Z" transform="translate(-11.213 -30.237)" fill="none" stroke="#464d66" stroke-linecap="round" stroke-linejoin="round" stroke-width="0.48"/>
      <path id="Path_1079" data-name="Path 1079" d="M101.65,263.16s5.854,8.27,6.413,8.757" transform="translate(-19.201 -49.775)" fill="none" stroke="#464d66" stroke-linecap="round" stroke-linejoin="round" stroke-width="0.48"/>
      <line id="Line_60" data-name="Line 60" x2="3.803" y2="2.538" transform="translate(65.836 180.881)" fill="none" stroke="#464d66" stroke-linecap="round" stroke-linejoin="round" stroke-width="0.48"/>
      <path id="Path_1080" data-name="Path 1080" d="M105.6,199s-.592,21.226,4.184,38.415,7.516,14.108,10.475,13.086,22.759-11.067,22.759-11.067" transform="translate(-19.945 -37.635)" fill="none" stroke="#464d66" stroke-linecap="round" stroke-linejoin="round" stroke-width="0.48"/>
      <path id="Path_1081" data-name="Path 1081" d="M82.109,224.64s-3.535,15.567-1.143,26.716,4.054,9.94,8.2,8.919,9.729-2.5,9.729-2.5" transform="translate(-15.13 -42.487)" fill="none" stroke="#464d66" stroke-linecap="round" stroke-linejoin="round" stroke-width="0.48"/>
      <path id="Path_1082" data-name="Path 1082" d="M103.294,199.72s-.389,15.292,1.873,27.567,6.576,26.213,11.351,25.734,26.618-12.21,26.618-12.21" transform="translate(-19.507 -37.771)" fill="none" stroke="#464d66" stroke-linecap="round" stroke-linejoin="round" stroke-width="0.48"/>
      <path id="Path_1083" data-name="Path 1083" d="M84.151,225.41a58.79,58.79,0,0,0-2.157,17.5c.227,10.07,2.278,16.556,4.784,16.443S98.6,256.974,98.6,256.974" transform="translate(-15.478 -42.632)" fill="none" stroke="#464d66" stroke-linecap="round" stroke-linejoin="round" stroke-width="0.48"/>
      <path id="Path_1084" data-name="Path 1084" d="M155.17,243.2s1.565,1.022,4.208,5.676,4.792,5.74,6.721,12.081" transform="translate(-29.328 -45.998)" fill="none" stroke="#464d66" stroke-linecap="round" stroke-linejoin="round" stroke-width="0.48"/>
      <path id="Path_1085" data-name="Path 1085" d="M131.1,271.27a21.98,21.98,0,0,1,2.23,7.176" transform="translate(-24.773 -51.309)" fill="none" stroke="#464d66" stroke-linecap="round" stroke-linejoin="round" stroke-width="0.48"/>
      <ellipse id="Ellipse_82" data-name="Ellipse 82" cx="38.496" cy="5.919" rx="38.496" ry="5.919" transform="translate(33.534 280.583)" fill="#b3b3b3" opacity="0.2"/>
      <path id="Path_1086" data-name="Path 1086" d="M254.6,47.694s-6.486-.941-8.919,4.127-8.813,11.465-4.54,17.91c1.97,2.724,6.048,3.089,8.854,2.222s10.54,2.432,15,.162,6.324-5.838,3.243-12.932S261.106,47.418,254.6,47.694Z" transform="translate(-45.323 -8.994)" fill="#464d66"/>
      <path id="Path_1087" data-name="Path 1087" d="M248.439,71.541a3.073,3.073,0,0,0-2.757-3.981h0c-1.938,0-1.922,5.513.811,5.513a1.881,1.881,0,0,0,1.946-1.532Z" transform="translate(-46.196 -12.765)" fill="#f6a592"/>
      <path id="Path_1088" data-name="Path 1088" d="M267.447,71.541a3.073,3.073,0,0,1,2.724-3.981h.057c1.946,0,1.922,5.513-.811,5.513A1.881,1.881,0,0,1,267.447,71.541Z" transform="translate(-50.545 -12.765)" fill="#f6a592"/>
      <path id="Path_1089" data-name="Path 1089" d="M262.924,83.431c-1.249-2.368-.754-5.976-.754-5.976L257.3,76.71l-4.865.746a14.5,14.5,0,0,1,0,3.632C254.183,82.888,257.6,85.053,262.924,83.431Z" transform="translate(-47.732 -14.497)" fill="#f6a592"/>
      <path id="Path_1090" data-name="Path 1090" d="M262.561,84.453c-5.327,1.622-8.74-.543-10.54-2.343a6.26,6.26,0,0,1-1.216,3.105c-.932,1.119.6,1.9,2.359,2.432a13.921,13.921,0,0,0,7.516,0c1.759-.5,3.284-1.281,2.351-2.432A4.232,4.232,0,0,1,262.561,84.453Z" transform="translate(-47.369 -15.518)" fill="#f6b9a4"/>
      <path id="Path_1091" data-name="Path 1091" d="M260.112,69.507a3.543,3.543,0,0,1,3.543-3.535,3.479,3.479,0,0,1,2.019.641,17.836,17.836,0,0,0,.511-4.419c0-7.3-3.446-10.484-6.316-11.886a8.675,8.675,0,0,0-7.573,0c-2.862,1.4-6.316,4.6-6.316,11.886a18.235,18.235,0,0,0,.511,4.419,3.527,3.527,0,1,1,3.7,6,11.351,11.351,0,0,0,1.232.859,9.227,9.227,0,0,0,9.324,0,10.589,10.589,0,0,0,1.232-.876,3.535,3.535,0,0,1-1.865-3.089Z" transform="translate(-46.51 -9.336)" fill="#f0baa4"/>
      <path id="Path_1092" data-name="Path 1092" d="M252.172,73.365a3.535,3.535,0,0,0-5.562-2.895,10.824,10.824,0,0,0,3.7,6,3.527,3.527,0,0,0,1.865-3.105Z" transform="translate(-46.629 -13.195)" fill="#f6a592"/>
      <path id="Path_1093" data-name="Path 1093" d="M268.978,70.471a3.479,3.479,0,0,0-2.019-.641,3.527,3.527,0,0,0-1.678,6.624,10.775,10.775,0,0,0,3.7-5.984Z" transform="translate(-49.813 -13.195)" fill="#f6a592"/>
      <path id="Path_1094" data-name="Path 1094" d="M260.261,74.36a3.405,3.405,0,0,1-2.376.859h0a3.405,3.405,0,0,1-2.376-.859" transform="translate(-48.313 -14.052)" fill="none" stroke="#464d66" stroke-linecap="round" stroke-linejoin="round" stroke-width="0.48"/>
      <path id="Path_1095" data-name="Path 1095" d="M253,68.711a.811.811,0,1,0,.77-.811.77.77,0,0,0-.77.811Z" transform="translate(-47.838 -12.83)" fill="#464d66"/>
      <path id="Path_1096" data-name="Path 1096" d="M262.19,68.711A.811.811,0,1,0,263,67.9.811.811,0,0,0,262.19,68.711Z" transform="translate(-49.577 -12.83)" fill="#464d66"/>
      <path id="Path_1097" data-name="Path 1097" d="M258.215,72.245V67.94S255.183,72.245,258.215,72.245Z" transform="translate(-48.57 -12.837)" fill="#f6a592"/>
      <path id="Path_1098" data-name="Path 1098" d="M252.61,65.688a2.124,2.124,0,0,1,1.824-.908" transform="translate(-47.764 -12.239)" fill="none" stroke="#464d66" stroke-linecap="round" stroke-linejoin="round" stroke-width="0.48"/>
      <path id="Path_1099" data-name="Path 1099" d="M263.841,65.687A2.108,2.108,0,0,0,262,64.779" transform="translate(-49.541 -12.239)" fill="none" stroke="#464d66" stroke-linecap="round" stroke-linejoin="round" stroke-width="0.48"/>
      <path id="Path_1100" data-name="Path 1100" d="M244.293,64.214s7.435-.649,11.489-8.87c4.492,8.286,11.448,8.87,11.448,8.87s.049-15.964-12.016-15.964S244.293,64.214,244.293,64.214Z" transform="translate(-46.185 -9.112)" fill="#464d66"/>
      <path id="Path_1101" data-name="Path 1101" d="M268.513,132.363c-1.232-13.232.624-15.113.114-29.391-.989-18.51-9.13-17.375-16.289-17.278-7.094-.989-15.04-3.122-18.308,15.121-2.278,14.108-.7,16.589-3.559,29.561s-1.362,27.567-1.362,27.567c5.773,6.486,18.567,2.546,18.567,2.546s14.44,5.489,20.975-.251A195.334,195.334,0,0,0,268.513,132.363Z" transform="translate(-43.243 -16.078)" fill="#f0baa4"/>
      <path id="Path_1102" data-name="Path 1102" d="M242.817,71.274c-28.061-17.408-23.383-31-16.467-57.655-1.784-.908-2.724-1.281-4.524-2.149-14.837,32.926-13.492,52.7,13.986,76.214C240.717,85.576,242.752,75.993,242.817,71.274Z" transform="translate(-40.16 -2.153)" fill="#f0baa4"/>
      <path id="Path_1103" data-name="Path 1103" d="M226.228,1.345c.859.041.4,3.794.4,3.794S227.533.275,228.19.21c1.038-.13-.081,5.367-.081,5.367s1.37-5.959,2.432-5.562-.949,6.138-.949,6.138,2.238-5.278,3.1-4.784S230.4,8.578,230.4,8.578s3.381-1.622,3.754-.941c.632,1.127-6.413,4.865-6.413,4.865l-4.184-1.241S225.36,1.3,226.228,1.345Z" transform="translate(-42.268 0.018)" fill="#f0baa4"/>
      <path id="Path_1104" data-name="Path 1104" d="M265.388,76.79c33.024-.17,36.137-14.213,44.18-40.54,1.986.154,2.984.324,4.978.527-4.565,35.829-11.862,50.35-47.593,56.026C263.88,88.408,262.972,80.843,265.388,76.79Z" transform="translate(-49.921 -6.841)" fill="#f0baa4"/>
      <path id="Path_1105" data-name="Path 1105" d="M326.668,26.266c-.762-.414-2.327,3.024-2.327,3.024s1.759-4.605,1.241-5.019c-.811-.657-2.74,4.622-2.74,4.622s1.954-5.8.811-6.024S321.22,28.6,321.22,28.6s.851-5.676-.138-5.676-1.759,7.346-1.759,7.346-2.043-3.138-2.708-2.765c-1.119.632,2.943,7.484,2.943,7.484l4.208,1.135S327.43,26.679,326.668,26.266Z" transform="translate(-59.838 -4.308)" fill="#f0baa4"/>
      <path id="Path_1106" data-name="Path 1106" d="M296.131,230.155l-27.664,4.289c.081-11.692,3.243-27.64,5.213-36.753,2.651-12.113-.9-24.121-2.878-32.561l-19.224,7.03s-7.727,21.851-3.762,46.6c.989,6.194,4.808,16.135,7.67,22.937,1.232,2.935,3.462,9.324,14.8,6.2l29.4-8.692Z" transform="translate(-46.643 -31.227)" fill="#f0baa4"/>
      <path id="Path_1107" data-name="Path 1107" d="M209.09,216.04c2.943-24.9,17.027-50.91,17.027-50.91l21.259,5.505c-.405,8.659-.138,20.343-6,31.272-4.411,8.221-13.783,21.616-15.162,34.775l26.967,18.283.957,10.289s-18.218-6.794-20.27-7.475c-10.265-3.34-24.226-9.729-25.945-22.07C206.982,228.639,208.247,223.142,209.09,216.04Z" transform="translate(-39.246 -31.227)" fill="#f0baa4"/>
      <path id="Path_1108" data-name="Path 1108" d="M223.131,158.24s21.275,8.521,40.3,1.792c10.038,19.3,1.054,25.589,3.746,41.748s-6.178,18.154-3.089,28.6c6.235-2.562,17.027-2.9,17.027-2.9,4.265,6.348,5.262,12.973,3.1,19.954,0,0-25.329,10.2-36.656,0s-9.94-30.2-9.94-30.2L229.2,233.206l20.756,12.5s-.316,15.778-9.729,22.516c-18.843-5.392-11.173-6.486-34.313-21.186S223.131,158.24,223.131,158.24Z" transform="translate(-37.573 -29.923)" fill="#637abe"/>
      <path id="Path_1109" data-name="Path 1109" d="M246.668,101.612c13.021-3.381,20.359-1.2,27.94-3.835-.122-.592-.219-.908-.219-.908l5.959-3.324s1.4-7.873-4.905-15.535a180.809,180.809,0,0,1-19.24,3.543,5.233,5.233,0,0,1-5.619,4.557c-5.2,0-5.14-5.789-5.14-5.789s-10.621-7.03-17.027-13.54c0,0-8.473,4.613-11.627,11.238,2.522,6.624,7.524,7.67,9.648,13.135l2.116,5.465s-.324,1.508-.811,4.054C230.849,102.2,237.092,104.1,246.668,101.612Z" transform="translate(-40.987 -12.618)" fill="#f8bd33"/>
      <path id="Path_1110" data-name="Path 1110" d="M247.933,133.349c12.875-3.34,20.91-1.946,28.451-3.422a28.03,28.03,0,0,1,.243-5.165c.219-1.686.357-3.243.446-4.7-1.5.316-4,.543-4.313.576-3.705.4-7.1-.446-10.767-.495-5.74-.065-11.529,2.659-17.221,3.43a36.615,36.615,0,0,1-9.227.146,32.06,32.06,0,0,1-5.027-1c-.292-.081-1.622-.446-2.87-.811-.486,3.178-.981,6.7-1.427,10.419C229.747,134.038,236.914,136.227,247.933,133.349Z" transform="translate(-42.771 -22.699)" fill="#f8bd33"/>
      <path id="Path_1111" data-name="Path 1111" d="M248.827,163.975c12.535-5.757,27.275-2.173,32.667-6.721-.957-3.624-1.9-6.486-2.765-8.854-1.516.276-3.478.478-3.762.511-4.727.592-9.267-.6-13.978-.5-4.994.1-9.648,2.173-14.489,3.186a44.407,44.407,0,0,1-18.227.413,37.931,37.931,0,0,1-4.111-1.1c-.211-.073-1.143-.357-2.076-.681-1.395,3.827-2.984,6.34-4,8.821C223.514,162.135,237.768,169.035,248.827,163.975Z" transform="translate(-41.233 -28.061)" fill="#f8bd33"/>
      <path id="Path_1112" data-name="Path 1112" d="M235.837,120.879a36.615,36.615,0,0,0,9.227-.146c5.676-.811,11.481-3.495,17.221-3.43,3.665.049,7.062.892,10.767.495a38.514,38.514,0,0,0,4.313-.576,47.276,47.276,0,0,0-.649-12.162c-7.581,2.635-14.919.454-27.94,3.835-9.575,2.489-15.819.592-18.908-.932-.519,2.676-1.216,6.486-1.93,11.108a29.11,29.11,0,0,0,2.87.811,32.061,32.061,0,0,0,5.027,1Z" transform="translate(-43.096 -19.861)" fill="linen"/>
      <path id="Path_1113" data-name="Path 1113" d="M229.176,148.949a44.407,44.407,0,0,0,18.227-.413c4.865-1.013,9.494-3.089,14.489-3.186,4.711-.1,9.251,1.095,13.978.5.284,0,2.246-.235,3.762-.511-2.051-5.676-3.64-8.667-3.892-13.11-7.54,1.476-15.575.081-28.451,3.422-10.986,2.854-18.154.689-21.713-1.062-.081.681-.162,1.362-.235,2.059a44.48,44.48,0,0,1-2.351,10.54c.932.324,1.865.608,2.076.681a37.942,37.942,0,0,0,4.111,1.078Z" transform="translate(-42.16 -25.002)" fill="linen"/>
      <path id="Path_1114" data-name="Path 1114" d="M218.32,167.654c20.4,13.337,34.24,9.778,43.264,3.243,8.043-5.846,14.967-2.319,19.127-5.092a3.243,3.243,0,0,0,1.3-3.4c-.259-1.078-.511-2.092-.77-3.049-5.392,4.549-20.132.965-32.667,6.721-11.035,5.059-25.289-1.84-30.737-4.93a13.36,13.36,0,0,0-.949,3.43A3.243,3.243,0,0,0,218.32,167.654Z" transform="translate(-41.001 -30.135)" fill="linen"/>
      <path id="Path_1115" data-name="Path 1115" d="M261.9,285.162a8.732,8.732,0,0,1,3.77,5.051c.932,3.47.632,5.676,4.986,6.324,1.468-3.527.876-8.878.3-12.283s.665-6.73-.762-8.108-6.859-.714-6.859-.714Z" transform="translate(-49.522 -52.067)" fill="linen"/>
      <path id="Path_1116" data-name="Path 1116" d="M240,93.661s7.775,2.87,14.189,1.192,15.867-3.105,15.867-3.105-2.83-6.024-3.016-8.538l-5.538.811s.227,6.348-7.184,5.676c-6.04-.916-5.221-7.24-5.221-7.24a26.889,26.889,0,0,0-2.611-1.816S243.8,90.661,240,93.661Z" transform="translate(-45.378 -15.24)" fill="linen"/>
      <path id="Path_1117" data-name="Path 1117" d="M218.27,78.8s4.427-6.965,10.451-10.338" transform="translate(-41.267 -12.936)" fill="none" stroke="#464d66" stroke-linecap="round" stroke-linejoin="round" stroke-width="0.48"/>
      <path id="Path_1118" data-name="Path 1118" d="M232.85,98.7s8.108-3.478,12.065-16.613" transform="translate(-44.025 -15.515)" fill="none" stroke="#464d66" stroke-linecap="round" stroke-linejoin="round" stroke-width="0.48"/>
      <path id="Path_1119" data-name="Path 1119" d="M273.62,85.07s2.359,11.675,10.192,14.692" transform="translate(-51.739 -16.079)" fill="none" stroke="#464d66" stroke-linecap="round" stroke-linejoin="round" stroke-width="0.48"/>
      <path id="Path_1120" data-name="Path 1120" d="M288.39,82.09s3.73,4.273,4.484,13.9" transform="translate(-54.534 -15.515)" fill="none" stroke="#464d66" stroke-linecap="round" stroke-linejoin="round" stroke-width="0.48"/>
      <path id="Path_1121" data-name="Path 1121" d="M251.133,83.33s-.811,6.924,6.276,6.924c6.259,0,6.227-4.994,6.227-4.994" transform="translate(-47.479 -15.749)" fill="none" stroke="#464d66" stroke-linecap="round" stroke-linejoin="round" stroke-width="0.48"/>
      <path id="Path_1122" data-name="Path 1122" d="M217.77,164.668s.941,2.108,7.84,5.384,15.405,5.959,22.094,4.686,10.443-3.811,14.327-6.357,7.435-3.243,12.592-2.951,6.162-1.2,6.632-2.74" transform="translate(-41.172 -30.765)" fill="none" stroke="#464d66" stroke-linecap="round" stroke-linejoin="round" stroke-width="0.48"/>
      <path id="Path_1123" data-name="Path 1123" d="M245.932,219.2s-1.143-8.27-2.6-12.405c-1.622-4.589.535-13.937.535-13.937l2.068-11.351" transform="translate(-45.894 -34.326)" fill="none" stroke="#464d66" stroke-linecap="round" stroke-linejoin="round" stroke-width="0.48"/>
      <path id="Path_1124" data-name="Path 1124" d="M239.924,180.78s-4.7,14.31,1.962,15.656" transform="translate(-45.059 -34.188)" fill="none" stroke="#464d66" stroke-linecap="round" stroke-linejoin="round" stroke-width="0.48"/>
      <path id="Path_1125" data-name="Path 1125" d="M227.215,177s-3.511,15.551-13.305,12.405" transform="translate(-40.442 -33.473)" fill="none" stroke="#464d66" stroke-linecap="round" stroke-linejoin="round" stroke-width="0.48"/>
      <path id="Path_1126" data-name="Path 1126" d="M264.461,178.91s-1.313,17.894,11.351,13.937" transform="translate(-49.999 -33.834)" fill="none" stroke="#464d66" stroke-linecap="round" stroke-linejoin="round" stroke-width="0.48"/>
      <path id="Path_1127" data-name="Path 1127" d="M276.2,172.15s1.386,11.416,1.411,16.451-.2,14.294,0,18.964-1.954,15.105-3.243,21.4-.949,9.17,3.243,7.37,14.773-3.243,18.721-2.959" transform="translate(-51.755 -32.555)" fill="none" stroke="#464d66" stroke-linecap="round" stroke-linejoin="round" stroke-width="0.48"/>
      <path id="Path_1128" data-name="Path 1128" d="M241.606,219.71s-4.678,12.316-7.913,18.883-4.054,7.192-1.978,8.627,22.84,15.194,22.84,15.194" transform="translate(-43.595 -41.554)" fill="none" stroke="#464d66" stroke-linecap="round" stroke-linejoin="round" stroke-width="0.48"/>
      <path id="Path_1129" data-name="Path 1129" d="M253.47,261.65a18.729,18.729,0,0,0,5.967,6.567" transform="translate(-47.927 -49.489)" fill="none" stroke="#464d66" stroke-linecap="round" stroke-linejoin="round" stroke-width="0.48"/>
      <path id="Path_1130" data-name="Path 1130" d="M244.7,287.412a38.577,38.577,0,0,0,8.748-16.362" transform="translate(-46.268 -51.268)" fill="none" stroke="#464d66" stroke-linecap="round" stroke-linejoin="round" stroke-width="0.48"/>
      <path id="Path_1131" data-name="Path 1131" d="M295.29,248.76s3.778,5.676,2.7,16.451" transform="translate(-55.84 -47.05)" fill="none" stroke="#464d66" stroke-linecap="round" stroke-linejoin="round" stroke-width="0.48"/>
      <path id="Path_1132" data-name="Path 1132" d="M224.44,252.091s3.422.276,8.919-1.881" transform="translate(-42.434 -47.325)" fill="none" stroke="#464d66" stroke-linecap="round" stroke-linejoin="round" stroke-width="0.48"/>
      <path id="Path_1133" data-name="Path 1133" d="M228.72,254.678a7.386,7.386,0,0,0,4.865-2.708" transform="translate(-43.244 -47.658)" fill="none" stroke="#464d66" stroke-linecap="round" stroke-linejoin="round" stroke-width="0.48"/>
      <path id="Path_1134" data-name="Path 1134" d="M277.033,247.21s.259,3.511-3.2,7.824" transform="translate(-51.779 -46.757)" fill="none" stroke="#464d66" stroke-linecap="round" stroke-linejoin="round" stroke-width="0.48"/>
      <path id="Path_1135" data-name="Path 1135" d="M279.177,248.76a13.281,13.281,0,0,1-.657,5.311" transform="translate(-52.667 -47.05)" fill="none" stroke="#464d66" stroke-linecap="round" stroke-linejoin="round" stroke-width="0.48"/>
      <path id="Path_1136" data-name="Path 1136" d="M285.133,131.45s-2.522,6.657-8,10.435" transform="translate(-52.404 -24.854)" fill="none" stroke="#464d66" stroke-linecap="round" stroke-linejoin="round" stroke-width="0.48"/>
      <path id="Path_1137" data-name="Path 1137" d="M227.548,136.89s-.389,5.3,4.3,10.873" transform="translate(-43.021 -25.883)" fill="none" stroke="#464d66" stroke-linecap="round" stroke-linejoin="round" stroke-width="0.48"/>
      <path id="Path_1138" data-name="Path 1138" d="M227.07,143.43s.211,4.581,1.824,7.459" transform="translate(-42.932 -27.121)" fill="none" stroke="#464d66" stroke-linecap="round" stroke-linejoin="round" stroke-width="0.48"/>
      <path id="Path_1139" data-name="Path 1139" d="M261.9,285.2l1.435-9.7h1.086l-1.257,9.7" transform="translate(-49.522 -52.11)" fill="none" stroke="#464d66" stroke-linecap="round" stroke-linejoin="round" stroke-width="0.48"/>
      <path id="Path_1140" data-name="Path 1140" d="M263.18,288.41a7.9,7.9,0,0,1,2.505,3.576c.551,2.059,1.151,6.754,4.605,6.932" transform="translate(-49.764 -54.552)" fill="none" stroke="#464d66" stroke-linecap="round" stroke-linejoin="round" stroke-width="0.48"/>
      <path id="Path_1141" data-name="Path 1141" d="M271.685,295.839a25.337,25.337,0,0,0,.495-8.173c-.527-3.957-.957-5.627-.527-8.019s0-4.094-3.478-4.338H266.05" transform="translate(-50.307 -52.074)" fill="none" stroke="#464d66" stroke-linecap="round" stroke-linejoin="round" stroke-width="0.48"/>
      <path id="Path_1142" data-name="Path 1142" d="M271.412,277.14a18.382,18.382,0,0,0,0,6.032,32.149,32.149,0,0,1,.73,12.4" transform="translate(-51.275 -52.42)" fill="none" stroke="#464d66" stroke-linecap="round" stroke-linejoin="round" stroke-width="0.48"/>
      <line id="Line_61" data-name="Line 61" y1="1.492" x2="1.322" transform="translate(214.9 233.501)" fill="none" stroke="#464d66" stroke-linecap="round" stroke-linejoin="round" stroke-width="0.48"/>
      <line id="Line_62" data-name="Line 62" y1="1.151" x2="1.216" transform="translate(215.759 234.993)" fill="none" stroke="#464d66" stroke-linecap="round" stroke-linejoin="round" stroke-width="0.48"/>
      <path id="Path_1143" data-name="Path 1143" d="M309.405,254.593a8.732,8.732,0,0,1,5.189,3.592c1.986,2.984,2.432,5.157,6.738,4.4.276-3.819-1.995-8.7-3.632-11.748s-1.516-6.584-3.3-7.411-6.73,1.508-6.73,1.508Z" transform="translate(-58.182 -46.008)" fill="linen"/>
      <path id="Path_1144" data-name="Path 1144" d="M309.405,254.905l-1.735-9.657,1.03-.349,1.905,9.6" transform="translate(-58.182 -46.32)" fill="none" stroke="#464d66" stroke-linecap="round" stroke-linejoin="round" stroke-width="0.48"/>
      <path id="Path_1145" data-name="Path 1145" d="M311.33,257.72a7.978,7.978,0,0,1,3.519,2.595c1.176,1.768,3.243,6.032,6.576,5.1" transform="translate(-58.875 -48.746)" fill="none" stroke="#464d66" stroke-linecap="round" stroke-linejoin="round" stroke-width="0.48"/>
      <path id="Path_1146" data-name="Path 1146" d="M321.776,261.832a25.361,25.361,0,0,0-2.132-7.905c-1.768-3.584-2.708-5.035-3.065-7.435s-1.338-3.867-4.678-2.992l-2.011.689" transform="translate(-58.602 -46.007)" fill="none" stroke="#464d66" stroke-linecap="round" stroke-linejoin="round" stroke-width="0.48"/>
      <path id="Path_1147" data-name="Path 1147" d="M315.58,244.4a18.511,18.511,0,0,0,1.93,5.676,31.984,31.984,0,0,1,4.646,11.513" transform="translate(-59.679 -46.225)" fill="none" stroke="#464d66" stroke-linecap="round" stroke-linejoin="round" stroke-width="0.48"/>
      <line id="Line_63" data-name="Line 63" y1="1.84" x2="0.778" transform="translate(254.223 207.742)" fill="none" stroke="#464d66" stroke-linecap="round" stroke-linejoin="round" stroke-width="0.48"/>
      <line id="Line_64" data-name="Line 64" y1="1.476" x2="0.778" transform="translate(255.407 208.918)" fill="none" stroke="#464d66" stroke-linecap="round" stroke-linejoin="round" stroke-width="0.48"/>
      <path id="Path_1148" data-name="Path 1148" d="M258.28,56s2.1,9.851,12.438,9.729" transform="translate(-48.837 -10.578)" fill="none" stroke="#464d66" stroke-linecap="round" stroke-linejoin="round" stroke-width="0.48"/>
      <path id="Path_1149" data-name="Path 1149" d="M244.415,57.18s-8.667,6.843-4.662,13.573" transform="translate(-45.132 -10.801)" fill="none" stroke="#464d66" stroke-linecap="round" stroke-linejoin="round" stroke-width="0.48"/>
      <path id="Path_1150" data-name="Path 1150" d="M274.422,63.22s5.23,7.767-1.832,12" transform="translate(-51.545 -11.944)" fill="none" stroke="#464d66" stroke-linecap="round" stroke-linejoin="round" stroke-width="0.48"/>
      <ellipse id="Ellipse_83" data-name="Ellipse 83" cx="38.496" cy="5.919" rx="38.496" ry="5.919" transform="translate(175.568 280.583)" fill="#b3b3b3" opacity="0.2"/>
      <path id="Path_1151" data-name="Path 1151" d="M228.764,110.23,227.3,118.7l-1.776,13.143s-.981,7.224-2.051,10.078" transform="translate(-42.251 -20.839)" fill="none" stroke="#464d66" stroke-linecap="round" stroke-linejoin="round" stroke-width="0.48"/>
      <path id="Path_1152" data-name="Path 1152" d="M288.29,106a53.309,53.309,0,0,1,.608,10.54" transform="translate(-54.515 -20.039)" fill="none" stroke="#464d66" stroke-linecap="round" stroke-linejoin="round" stroke-width="0.48"/>
      <path id="Path_1153" data-name="Path 1153" d="M288.23,134.09s.681,6.024,3.17,10.054" transform="translate(-54.504 -25.354)" fill="none" stroke="#464d66" stroke-linecap="round" stroke-linejoin="round" stroke-width="0.48"/>
      <path id="Path_1154" data-name="Path 1154" d="M283.41,167.562a42.3,42.3,0,0,0,7.078-.519c1.857-.519,6.113-1.159,3.624-6.413" transform="translate(-53.592 -30.375)" fill="none" stroke="#464d66" stroke-linecap="round" stroke-linejoin="round" stroke-width="0.48"/>
      <path id="Path_1155" data-name="Path 1155" d="M217.574,162.28s-3.073,3.965,2.53,7.078" transform="translate(-40.976 -30.687)" fill="none" stroke="#464d66" stroke-linecap="round" stroke-linejoin="round" stroke-width="0.48"/>
      <line id="Line_65" data-name="Line 65" y1="0.486" x2="4.265" transform="translate(216.781 68.229)" fill="none" stroke="#464d66" stroke-linecap="round" stroke-linejoin="round" stroke-width="0.48"/>
      <line id="Line_66" data-name="Line 66" x2="1.881" y2="1.354" transform="translate(201.424 65.619)" fill="none" stroke="#464d66" stroke-linecap="round" stroke-linejoin="round" stroke-width="0.48"/>
    </g>
  </g>
</svg>
