<svg id="Page-1" xmlns="http://www.w3.org/2000/svg" width="20" height="19.048" viewBox="0 0 20 19.048">
  <g id="Dribbble-Light-Preview" transform="translate(0 0)">
    <g id="icons">
      <path id="zoom_in-_1462_" data-name="zoom_in-[#1462]" d="M332,286.635h2a.956.956,0,1,1,0,1.91h-2v1.91a1,1,0,0,1-2,0v-1.91h-2a.956.956,0,1,1,0-1.91h2v-1.91a1,1,0,0,1,2,0Zm10.707,12.133a1.032,1.032,0,0,1-1.413,0L337.343,295l1.414-1.35,3.95,3.772a.924.924,0,0,1,0,1.35ZM331,293.367a5.735,5.735,0,1,1,6-5.729A5.876,5.876,0,0,1,331,293.367ZM331,280a7.646,7.646,0,1,0,8,7.638A7.825,7.825,0,0,0,331,280Z" transform="translate(-323 -280)" fill="#b3b3b3"/>
    </g>
  </g>
</svg>
