<svg xmlns="http://www.w3.org/2000/svg" width="27.2" height="23.916" viewBox="0 0 27.2 23.916">
  <path id="Path_879" data-name="Path 879" d="M38.474,34.02l-4.43-4.43a.392.392,0,0,0-.539,0l-4.471,4.472a.381.381,0,0,0,.269.65h1.343v5.032a.381.381,0,0,0,.381.381h5.5a.381.381,0,0,0,.381-.381V34.712h1.35a.381.381,0,0,0,.221-.692Zm-2.332,5.343H34.155V36.711a.381.381,0,1,0-.762,0v2.652H31.408V34.712h4.734ZM30.222,33.95,33.774,30.4l3.552,3.552Zm7.351-5.866V23.835a1.6,1.6,0,0,0-1.594-1.593H17.1a.381.381,0,0,0-.381.381V34.772a.649.649,0,0,1-.15.415.744.744,0,0,1-.562.183.381.381,0,0,0,0,.762,1.465,1.465,0,0,0,1.117-.423,1.385,1.385,0,0,0,.355-.96V23h18.5a.833.833,0,0,1,.832.831v3.873c-.053-.023-.1-.049-.158-.07a7.724,7.724,0,0,0-10.539,6.2,7.792,7.792,0,0,0-.059.959,7.656,7.656,0,0,0,.705,3.2H15.887a.833.833,0,0,1-.832-.832V20.2a.8.8,0,0,1,.832-.832h4.85c.171,0,.368.221.576.455a1.728,1.728,0,0,0,1.243.757H33.419c.135,0,.575.077.575.838a.381.381,0,0,0,.762,0A1.645,1.645,0,0,0,34.32,20.2a1.393,1.393,0,0,0-.9-.385H22.556c-.227,0-.444-.244-.674-.5a1.6,1.6,0,0,0-1.145-.711h-4.85A1.559,1.559,0,0,0,14.293,20.2V37.174a1.6,1.6,0,0,0,1.594,1.594H27.165A7.713,7.713,0,1,0,37.573,28.084Zm-3.8,13.674A6.958,6.958,0,1,1,40.731,34.8,6.964,6.964,0,0,1,33.774,41.758Z" transform="translate(-14.293 -18.604)" fill="#999696"/>
</svg>
