<svg xmlns="http://www.w3.org/2000/svg" width="23.724" height="23.724" viewBox="0 0 23.724 23.724">
  <path id="Path_897" data-name="Path 897" d="M18.566,11.468H16.2V9.1A1.183,1.183,0,0,0,15.017,7.92H9.1A1.183,1.183,0,0,0,7.92,9.1v5.915A1.183,1.183,0,0,0,9.1,16.2h2.366v2.366a1.183,1.183,0,0,0,1.183,1.183h5.915a1.183,1.183,0,0,0,1.183-1.183V12.651A1.183,1.183,0,0,0,18.566,11.468Zm-7.1,1.183v1.183H10.285V10.285h3.549v1.183H12.651A1.183,1.183,0,0,0,11.468,12.651Zm5.915,4.732H13.834V13.834h3.549Zm7.1,3.88V6.406a2.366,2.366,0,1,0-3.218-3.218H6.406A2.366,2.366,0,1,0,3.188,6.406V21.263A2.366,2.366,0,1,0,6.406,24.48H21.263a2.366,2.366,0,1,0,3.218-3.218Zm-2.366,0a2.259,2.259,0,0,0-.852.852H6.406a2.259,2.259,0,0,0-.852-.852V6.406a2.259,2.259,0,0,0,.852-.852H21.263a2.259,2.259,0,0,0,.852.852Z" transform="translate(-1.972 -1.972)" fill="#999696"/>
</svg>
