<svg xmlns="http://www.w3.org/2000/svg" width="23.385" height="23.385" viewBox="0 0 23.385 23.385">
  <path id="Path_896" data-name="Path 896" d="M20.228,0H18.747V3.157H12.433V0H10.952V3.157H4.638V0H3.157V3.157H0V4.638H3.157v6.314H0v1.481H3.157v6.314H0v1.481H3.157v3.157H4.638V20.228h6.314v3.157h1.481V20.228h6.314v3.157h1.481V20.228h3.157V18.747H20.228V12.433h3.157V10.952H20.228V4.638h3.157V3.157H20.228ZM10.952,18.747H4.638V12.433h6.314Zm0-7.8H4.638V4.638h6.314Zm7.8,7.8H12.433V12.433h6.314Zm0-7.8H12.433V4.638h6.314Z" fill="#999696"/>
</svg>
